<svg width="306" height="43" viewBox="0 0 306 43" fill="none" xmlns="http://www.w3.org/2000/svg">
<path d="M57.8877 9.61917V17.3282H66.4743C68.0082 17.3282 69.2496 17.0435 70.1983 16.4742C71.163 15.8891 71.6453 14.8613 71.6453 13.3906C71.6453 11.7619 71.0127 10.6866 69.7477 10.1647C68.6566 9.80102 67.265 9.61917 65.573 9.61917H57.8877ZM57.8877 23.1158V32.4377H66.4743C68.0082 32.4377 69.2021 32.2321 70.056 31.821C71.6057 31.062 72.3806 29.6071 72.3806 27.4565C72.3806 25.638 71.6294 24.3888 70.1272 23.7088C69.2891 23.3293 68.111 23.1316 66.5929 23.1158H57.8877ZM67.8975 3.54688C72.1829 3.61012 75.2191 4.85147 77.006 7.2709C78.0813 8.75735 78.6189 10.5364 78.6189 12.6079C78.6189 14.7427 78.0813 16.4584 77.006 17.7551C76.4051 18.4825 75.5195 19.1467 74.3493 19.7476C76.1362 20.3959 77.4804 21.4238 78.3817 22.8312C79.2989 24.2385 79.7575 25.9464 79.7575 27.9547C79.7575 30.0262 79.2356 31.8843 78.1919 33.5288C77.5278 34.6199 76.6976 35.5371 75.7014 36.2803C74.5786 37.1343 73.2503 37.7193 71.7164 38.0356C70.1983 38.3519 68.5459 38.51 66.759 38.51H50.9141V3.54688H67.8975Z" fill="#DDDDDD"/>
<path d="M297.583 12.0859C298.722 12.0859 299.844 12.3073 300.951 12.75C302.058 13.1928 303.062 13.9676 303.964 15.0746C304.691 15.9759 305.181 17.0829 305.434 18.3954C305.592 19.2651 305.671 20.5381 305.671 22.2143L305.624 38.5098H298.698V22.0482C298.698 21.0678 298.54 20.2613 298.223 19.6288C297.623 18.427 296.516 17.8261 294.903 17.8261C293.037 17.8261 291.748 18.6009 291.036 20.1506C290.673 20.9729 290.491 21.9612 290.491 23.1156V38.5098H283.683V23.1156C283.683 21.5817 283.525 20.4669 283.209 19.7711C282.639 18.5219 281.525 17.8972 279.864 17.8972C277.935 17.8972 276.638 18.5219 275.974 19.7711C275.61 20.4827 275.429 21.5422 275.429 22.9496V38.5098H268.574V12.7026H275.144V16.474C275.982 15.1299 276.773 14.1732 277.516 13.6039C278.828 12.5919 280.528 12.0859 282.616 12.0859C284.592 12.0859 286.19 12.5207 287.407 13.3905C288.388 14.1969 289.131 15.2327 289.637 16.4978C290.522 14.9797 291.621 13.8649 292.934 13.1533C294.325 12.4417 295.875 12.0859 297.583 12.0859Z" fill="#DDDDDD"/>
<path d="M252.719 33.7414C254.696 33.7414 256.214 33.0377 257.273 31.6303C258.333 30.223 258.862 28.2226 258.862 25.6292C258.862 23.0358 258.333 21.0434 257.273 19.6518C256.214 18.2444 254.696 17.5407 252.719 17.5407C250.742 17.5407 249.216 18.2444 248.141 19.6518C247.082 21.0434 246.552 23.0358 246.552 25.6292C246.552 28.2226 247.082 30.223 248.141 31.6303C249.216 33.0377 250.742 33.7414 252.719 33.7414ZM265.955 25.6292C265.955 29.4244 264.864 32.674 262.681 35.3781C260.499 38.0663 257.186 39.4105 252.743 39.4105C248.299 39.4105 244.986 38.0663 242.804 35.3781C240.622 32.674 239.531 29.4244 239.531 25.6292C239.531 21.8973 240.622 18.6635 242.804 15.9278C244.986 13.1921 248.299 11.8242 252.743 11.8242C257.186 11.8242 260.499 13.1921 262.681 15.9278C264.864 18.6635 265.955 21.8973 265.955 25.6292Z" fill="#DDDDDD"/>
<path d="M229.646 21.9303C229.519 20.9657 229.195 20.096 228.673 19.3211C227.914 18.2774 226.736 17.7556 225.139 17.7556C222.862 17.7556 221.304 18.8863 220.466 21.1475C220.024 22.3494 219.802 23.9465 219.802 25.939C219.802 27.8366 220.024 29.3625 220.466 30.5169C221.273 32.6675 222.791 33.7428 225.021 33.7428C226.602 33.7428 227.725 33.3159 228.389 32.4619C229.053 31.608 229.456 30.5011 229.598 29.1411H236.501C236.343 31.1969 235.6 33.1419 234.271 34.9762C232.152 37.9333 229.013 39.4119 224.854 39.4119C220.696 39.4119 217.636 38.1784 215.675 35.7116C213.714 33.2447 212.734 30.0425 212.734 26.105C212.734 21.6615 213.817 18.2063 215.983 15.7394C218.15 13.2725 221.138 12.0391 224.949 12.0391C228.191 12.0391 230.84 12.7665 232.896 14.2213C234.967 15.6762 236.193 18.2458 236.572 21.9303H229.646Z" fill="#DDDDDD"/>
<path d="M202.688 31.4414H209.875V38.5099H202.688V31.4414Z" fill="#DDDDDD"/>
<path d="M190.228 12.0391C192.901 12.0391 195.083 12.7428 196.775 14.1502C198.483 15.5417 199.337 17.8584 199.337 21.1001V38.5105H192.41V22.7842C192.41 21.4243 192.229 20.3806 191.865 19.6532C191.201 18.3249 189.936 17.6607 188.07 17.6607C185.777 17.6607 184.203 18.6332 183.349 20.5783C182.907 21.6061 182.685 22.9186 182.685 24.5158V38.5105H175.949V12.7033H182.472V16.4747C183.342 15.1464 184.164 14.1897 184.939 13.6046C186.33 12.561 188.093 12.0391 190.228 12.0391Z" fill="#DDDDDD"/>
<path d="M172.789 9.57231H165.934V3.33398H172.789V9.57231ZM165.934 12.6559H172.789V38.5106H165.934V12.6559Z" fill="#DDDDDD"/>
<path d="M150.532 33.7414C152.508 33.7414 154.027 33.0377 155.086 31.6303C156.145 30.223 156.675 28.2226 156.675 25.6292C156.675 23.0358 156.145 21.0434 155.086 19.6518C154.027 18.2444 152.508 17.5407 150.532 17.5407C148.555 17.5407 147.029 18.2444 145.954 19.6518C144.894 21.0434 144.365 23.0358 144.365 25.6292C144.365 28.2226 144.894 30.223 145.954 31.6303C147.029 33.0377 148.555 33.7414 150.532 33.7414ZM163.767 25.6292C163.767 29.4244 162.676 32.674 160.494 35.3781C158.312 38.0663 154.999 39.4105 150.556 39.4105C146.112 39.4105 142.799 38.0663 140.617 35.3781C138.435 32.674 137.344 29.4244 137.344 25.6292C137.344 21.8973 138.435 18.6635 140.617 15.9278C142.799 13.1921 146.112 11.8242 150.556 11.8242C154.999 11.8242 158.312 13.1921 160.494 15.9278C162.676 18.6635 163.767 21.8973 163.767 25.6292Z" fill="#DDDDDD"/>
<path d="M127.791 21.9303C127.665 20.9657 127.34 20.096 126.819 19.3211C126.06 18.2774 124.881 17.7556 123.284 17.7556C121.007 17.7556 119.45 18.8863 118.611 21.1475C118.169 22.3494 117.947 23.9465 117.947 25.939C117.947 27.8366 118.169 29.3625 118.611 30.5169C119.418 32.6675 120.936 33.7428 123.166 33.7428C124.747 33.7428 125.87 33.3158 126.534 32.4619C127.198 31.608 127.601 30.5011 127.744 29.1411H134.646C134.488 31.1969 133.745 33.1419 132.416 34.9762C130.297 37.9333 127.159 39.4119 123 39.4119C118.841 39.4119 115.781 38.1784 113.82 35.7116C111.859 33.2447 110.879 30.0425 110.879 26.105C110.879 21.6615 111.962 18.2063 114.128 15.7394C116.295 13.2725 119.284 12.0391 123.095 12.0391C126.336 12.0391 128.985 12.7665 131.041 14.2213C133.112 15.6762 134.338 18.2458 134.717 21.9303H127.791Z" fill="#DDDDDD"/>
<path d="M91.9727 17.7077V12.8925H95.5781V5.68164H102.267V12.8925H106.465V17.7077H102.267V31.3703C102.267 32.4298 102.401 33.094 102.67 33.3628C102.939 33.6158 103.761 33.7423 105.137 33.7423C105.342 33.7423 105.556 33.7423 105.777 33.7423C106.014 33.7265 106.244 33.7107 106.465 33.6949V38.7472L103.263 38.8658C100.069 38.9765 97.8869 38.423 96.7167 37.2054C95.9576 36.4306 95.5781 35.2367 95.5781 33.6237V17.7077H91.9727Z" fill="#DDDDDD"/>
<path d="M89.5152 9.57231H82.6602V3.33398H89.5152V9.57231ZM82.6602 12.6559H89.5152V38.5106H82.6602V12.6559Z" fill="#DDDDDD"/>
<path d="M0 1.66667C0 0.746192 0.746192 0 1.66667 0H14.3333V14.3333H0V1.66667Z" fill="#DDDDDD"/>
<path d="M14.3333 14.334H0V28.6673H14.3333V14.334Z" fill="#F1F1F1"/>
<path d="M0 28.666H14.3333V42.9993H1.66667C0.746192 42.9993 0 42.2531 0 41.3326V28.666Z" fill="#E4E4E4"/>
<path d="M28.6653 0H14.332V14.3333H28.6653V0Z" fill="#F1F1F1"/>
<path d="M28.6653 14.334H14.332V28.6673H28.6653V14.334Z" fill="#E4E4E4"/>
<path d="M28.6653 28.666H14.332V42.9993H28.6653V28.666Z" fill="#F1F1F1"/>
<path d="M28.668 0H41.3347C42.2552 0 43.0014 0.746192 43.0014 1.66667V14.3333H28.668V0Z" fill="#E4E4E4"/>
<path d="M43.0013 14.334H28.668V28.6673H43.0013V14.334Z" fill="#F1F1F1"/>
<path d="M28.668 28.666H43.0014V41.3326C43.0014 42.2531 42.2552 42.9993 41.3347 42.9993H28.668V28.666Z" fill="#DDDDDD"/>
</svg>
