<svg width="318" height="61" viewBox="0 0 318 61" fill="none" xmlns="http://www.w3.org/2000/svg">
<path d="M36.9619 49.0859H33.1914L28.6774 44.9557V42.8377L33.3507 38.3898V31.3472L39.4579 27.3759L46.4148 32.6181L36.9619 49.0859ZM21.3487 37.9661L22.0391 31.3472L19.7555 25.4167H33.2445L31.014 31.3472L31.6513 37.9661H26.4469H21.3487ZM24.4289 44.9557L19.9148 49.1389H16.0912L6.58517 32.6181L13.5952 27.4288L19.7555 31.3472V38.3898L24.4289 42.8377V44.9557ZM16.0381 13.1849H36.9088L39.4048 23.7752H13.5952L16.0381 13.1849ZM26.5 0L0 15.25V45.75L26.5 61L53 45.75V15.25L26.5 0Z" fill="#DDDDDD"/>
<path d="M82.2878 45C75.2049 45 70 39.4384 70 32.581C70 25.7235 75.2585 20 82.3415 20C86.8488 20 89.639 21.6739 91.839 24.1037L88.4585 27.7754C86.7951 25.9935 85.0244 24.8056 82.2878 24.8056C78.3171 24.8056 75.4195 28.2613 75.4195 32.473C75.4195 36.7927 78.3707 40.2484 82.5561 40.2484C85.1317 40.2484 87.0098 39.0065 88.7268 37.2786L92 40.5723C89.639 43.1101 86.9024 45 82.2878 45Z" fill="#DDDDDD"/>
<path d="M102.514 45H97V20.0131H102.514V25.8542C104.027 22.2846 106.784 19.7967 111 20.0131V25.8542H110.676C105.865 25.8542 102.514 28.9911 102.514 35.373V45Z" fill="#DDDDDD"/>
<path d="M139 20L127.083 51H121.627L124.222 44.4626L114 20H119.773L126.712 38.0833L133.386 20H139Z" fill="#DDDDDD"/>
<path d="M154.974 24.6922C151.366 24.6922 148.229 27.6446 148.229 32.2313C148.229 36.818 151.418 39.7704 154.974 39.7704C158.634 39.7704 161.614 36.8707 161.614 32.2313C161.614 27.5918 158.582 24.6922 154.974 24.6922ZM156.176 44.4099C152.359 44.4099 149.954 42.4592 148.333 40.2976V51H143V20H148.333V24.3758C150.059 21.9507 152.464 20 156.176 20C161.667 20 167 24.3758 167 32.1786C167 39.9813 161.719 44.4099 156.176 44.4099Z" fill="#DDDDDD"/>
<path d="M179.119 25.3072V37.1012C179.119 39.2112 180.146 40.0768 181.945 40.0768H184V45H180.403C176.601 45 173.877 43.2147 173.877 37.9668V25.3072H171V20.6004H173.877V14H179.119V20.6004H184V25.3072H179.119Z" fill="#DDDDDD"/>
<path d="M201.421 24.7516C197.087 24.7516 194.338 28.2073 194.338 32.419C194.338 36.6847 197.298 40.1944 201.474 40.1944C205.808 40.1944 208.556 36.7387 208.556 32.527C208.662 28.2613 205.649 24.7516 201.421 24.7516ZM201.421 45C194.285 45 189 39.4384 189 32.581C189 25.6696 194.338 20 201.526 20C208.715 20 214 25.5616 214 32.473C214 39.2765 208.715 45 201.421 45Z" fill="#DDDDDD"/>
<path d="M265.421 24.7516C261.087 24.7516 258.338 28.2073 258.338 32.419C258.338 36.6847 261.298 40.1944 265.474 40.1944C269.808 40.1944 272.556 36.7387 272.556 32.527C272.609 28.2613 269.649 24.7516 265.421 24.7516ZM265.421 45C258.285 45 253 39.4384 253 32.581C253 25.6696 258.338 20 265.526 20C272.715 20 278 25.5616 278 32.473C278 39.2765 272.662 45 265.421 45Z" fill="#DDDDDD"/>
<path d="M309.692 20C314.858 20 318 23.2866 318 29.1595V44.9461H312.568V30.8297C312.568 27.0043 310.811 25.0108 307.775 25.0108C304.846 25.0108 302.716 27.1121 302.716 30.9375V45H297.284V30.8297C297.284 27.1121 295.473 25.0108 292.491 25.0108C289.509 25.0108 287.432 27.2737 287.432 30.9914V45H282V20.0539H287.432V24.1487C288.976 22.0474 291 20.0539 294.621 20.0539C298.03 20.0539 300.373 21.7241 301.651 24.2565C303.621 21.6703 306.124 20 309.692 20Z" fill="#DDDDDD"/>
<path d="M224 39.6071V42.3929L223.822 42.6607L221.149 44H220.792L218.178 42.6607L218 42.3929V39.6071L218.178 39.3393L220.792 38H221.149L223.822 39.3393L224 39.6071Z" fill="#DDDDDD"/>
<path d="M240.045 44.9955C232.979 44.8335 227.895 39.1658 228.002 32.3105C228.109 25.4552 233.461 19.8415 240.58 20.0034C245.076 20.1114 247.859 21.8387 250 24.3217L246.574 27.9383C244.969 26.157 243.202 24.8615 240.473 24.8075C236.512 24.7535 233.568 28.1002 233.515 32.3645C233.408 36.6828 236.298 40.1914 240.473 40.2454C243.042 40.2993 244.969 39.1118 246.682 37.3845L249.893 40.7312C247.484 43.2682 244.701 45.1034 240.045 44.9955Z" fill="#DDDDDD"/>
</svg>
