<svg width="340" height="56" viewBox="0 0 340 56" fill="none" xmlns="http://www.w3.org/2000/svg">
<path d="M96.4874 32.9774C96.269 35.997 95.1511 38.3741 93.1338 40.1087C91.1293 41.8434 88.4824 42.7107 85.193 42.7107C81.5952 42.7107 78.7619 41.5029 76.6932 39.0872C74.6373 36.6587 73.6094 33.3307 73.6094 29.1034V27.388C73.6094 24.6896 74.0848 22.3125 75.0356 20.2567C75.9865 18.2008 77.3421 16.6268 79.1024 15.5346C80.8756 14.4295 82.9315 13.877 85.27 13.877C88.5081 13.877 91.1164 14.7444 93.0952 16.479C95.074 18.2136 96.2176 20.6486 96.526 23.7838H90.7438C90.6025 21.972 90.0949 20.6614 89.2212 19.8519C88.3603 19.0296 87.0432 18.6184 85.27 18.6184C83.3427 18.6184 81.8971 19.3122 80.9334 20.7C79.9826 22.0748 79.4943 24.2142 79.4686 27.1182V29.2383C79.4686 32.2707 79.9248 34.4872 80.8371 35.8877C81.7622 37.2883 83.2142 37.9886 85.193 37.9886C86.979 37.9886 88.3089 37.5838 89.1826 36.7743C90.0692 35.952 90.5768 34.6863 90.7053 32.9774H96.4874Z" fill="#DDDDDD"/>
<path d="M110.674 32.0534H106.067V42.3264H100.285V14.2637H110.712C114.027 14.2637 116.584 15.0025 118.383 16.4802C120.182 17.9579 121.082 20.0459 121.082 22.7442C121.082 24.6587 120.664 26.2585 119.829 27.5434C119.006 28.8154 117.754 29.8305 116.07 30.5886L122.142 42.0566V42.3264H115.935L110.674 32.0534ZM106.067 27.3699H110.731C112.183 27.3699 113.308 27.0037 114.104 26.2713C114.901 25.526 115.299 24.5045 115.299 23.2068C115.299 21.8833 114.92 20.8425 114.162 20.0844C113.417 19.3263 112.267 18.9472 110.712 18.9472H106.067V27.3699Z" fill="#DDDDDD"/>
<path d="M134.248 26.9073L140.088 14.2637H146.409L137.196 32.1498V42.3264H131.318V32.1498L122.105 14.2637H128.446L134.248 26.9073Z" fill="#DDDDDD"/>
<path d="M154.755 32.4389V42.3264H148.973V14.2637H159.92C162.028 14.2637 163.878 14.6492 165.471 15.4201C167.077 16.1911 168.311 17.2897 169.172 18.716C170.033 20.1294 170.463 21.742 170.463 23.5537C170.463 26.3034 169.519 28.4749 167.63 30.0682C165.754 31.6487 163.152 32.4389 159.824 32.4389H154.755ZM154.755 27.7554H159.92C161.449 27.7554 162.612 27.3956 163.409 26.6761C164.218 25.9565 164.623 24.9286 164.623 23.5922C164.623 22.2174 164.218 21.1059 163.409 20.2579C162.599 19.4098 161.481 18.9729 160.055 18.9472H154.755V27.7554Z" fill="#DDDDDD"/>
<path d="M195.578 18.9472H186.982V42.3264H181.2V18.9472H172.719V14.2637H195.578V18.9472Z" fill="#DDDDDD"/>
<path d="M221.404 28.9299C221.404 31.6925 220.916 34.1145 219.939 36.1961C218.962 38.2777 217.562 39.8838 215.737 41.0146C213.926 42.1453 211.844 42.7107 209.493 42.7107C207.167 42.7107 205.092 42.1517 203.267 41.0339C201.443 39.916 200.029 38.3227 199.027 36.2539C198.025 34.1724 197.517 31.7824 197.504 29.0841V27.6964C197.504 24.9338 197.999 22.5053 198.988 20.4109C199.991 18.3036 201.398 16.691 203.209 15.5731C205.034 14.4424 207.115 13.877 209.454 13.877C211.793 13.877 213.868 14.4424 215.679 15.5731C217.504 16.691 218.911 18.3036 219.9 20.4109C220.903 22.5053 221.404 24.9274 221.404 27.6771V28.9299ZM215.545 27.6578C215.545 24.7153 215.018 22.4796 213.964 20.9505C212.91 19.4215 211.407 18.6569 209.454 18.6569C207.514 18.6569 206.017 19.415 204.963 20.9313C203.91 22.4346 203.376 24.6447 203.363 27.5614V28.9299C203.363 31.7953 203.89 34.0182 204.944 35.5986C205.998 37.1791 207.514 37.9693 209.493 37.9693C211.433 37.9693 212.923 37.2112 213.964 35.695C215.005 34.1659 215.532 31.943 215.545 29.0263V27.6578Z" fill="#DDDDDD"/>
<path d="M240.157 34.9626C240.157 33.8704 239.772 33.0352 239.001 32.457C238.23 31.8659 236.842 31.2492 234.838 30.6067C232.833 29.9514 231.246 29.3089 230.077 28.6793C226.89 26.9575 225.297 24.6383 225.297 21.7215C225.297 20.2053 225.721 18.8561 226.569 17.674C227.43 16.479 228.657 15.5474 230.25 14.8793C231.857 14.2111 233.656 13.877 235.647 13.877C237.652 13.877 239.438 14.2432 241.005 14.9756C242.573 15.6952 243.787 16.7167 244.648 18.0402C245.522 19.3636 245.959 20.867 245.959 22.5503H240.177C240.177 21.2653 239.772 20.2695 238.962 19.5628C238.153 18.8433 237.016 18.4835 235.551 18.4835C234.137 18.4835 233.039 18.7854 232.255 19.3893C231.471 19.9804 231.079 20.7642 231.079 21.7408C231.079 22.653 231.535 23.4176 232.448 24.0343C233.373 24.6511 234.728 25.2293 236.514 25.769C239.804 26.7584 242.2 27.9855 243.704 29.4503C245.207 30.9151 245.959 32.7397 245.959 34.9241C245.959 37.3526 245.04 39.2607 243.202 40.6484C241.365 42.0232 238.892 42.7107 235.782 42.7107C233.623 42.7107 231.657 42.3188 229.884 41.535C228.111 40.7383 226.756 39.6526 225.818 38.2777C224.892 36.9028 224.43 35.3095 224.43 33.4978H230.231C230.231 36.5944 232.082 38.1428 235.782 38.1428C237.157 38.1428 238.23 37.8665 239.001 37.314C239.772 36.7486 240.157 35.9648 240.157 34.9626Z" fill="#DDDDDD"/>
<path d="M255.673 37.6814H267.95V42.3264H249.891V14.2637H255.673V37.6814Z" fill="#DDDDDD"/>
<path d="M287.511 36.5443H277.373L275.446 42.3264H269.297L279.744 14.2637H285.102L295.606 42.3264H289.458L287.511 36.5443ZM278.934 31.8607H285.95L282.423 21.3565L278.934 31.8607Z" fill="#DDDDDD"/>
<path d="M317.039 18.9472H308.442V42.3264H302.66V18.9472H294.18V14.2637H317.039V18.9472Z" fill="#DDDDDD"/>
<path d="M337.239 30.1646H326.137V37.6814H339.166V42.3264H320.355V14.2637H339.127V18.9472H326.137V25.6353H337.239V30.1646Z" fill="#DDDDDD"/>
<path d="M14 0H0V14H14V0Z" fill="#AFAFAF"/>
<path d="M14 14H0V28H14V14Z" fill="#E8E8E8"/>
<path d="M14 28H0V42H14V28Z" fill="#D5D5D5"/>
<path d="M14 42H0V56H14V42Z" fill="#E8E8E8"/>
<path d="M28 42H14V56H28V42Z" fill="#D5D5D5"/>
<path d="M42 42H28V56H42V42Z" fill="#AFAFAF"/>
<path d="M28 0H14V14H28V0Z" fill="#D5D5D5"/>
<path d="M42 0H28V14H42V0Z" fill="#E8E8E8"/>
</svg>
