<svg width="1585" height="761" viewBox="0 0 1585 761" fill="none" xmlns="http://www.w3.org/2000/svg">
<g clip-path="url(#clip0_4_117)">
<path d="M2.50256 453.606C2.50256 453.606 249.119 628.879 350.837 520.925C452.555 412.972 500.609 361.167 656.57 376.027C812.53 390.886 839.761 413.184 1021.71 197.686C1140.35 57.1837 1170.87 70.634 1293.24 66.2925" stroke="#0041FF" stroke-width="4.98599" stroke-linecap="round"/>
<g filter="url(#filter0_d_4_117)">
<path d="M331.46 492.301H313.62C297.025 492.301 283.572 505.761 283.572 522.365V540.216C283.572 556.82 297.025 570.28 313.62 570.28H331.46C348.055 570.28 361.508 556.82 361.508 540.216V522.365C361.508 505.761 348.055 492.301 331.46 492.301Z" fill="#192431"/>
</g>
<g filter="url(#filter1_d_4_117)">
<path d="M866.532 322.251H848.691C832.097 322.251 818.644 335.711 818.644 352.315V370.165C818.644 386.769 832.097 400.23 848.691 400.23H866.532C883.127 400.23 896.58 386.769 896.58 370.165V352.315C896.58 335.711 883.127 322.251 866.532 322.251Z" fill="#192431"/>
</g>
<g filter="url(#filter2_d_4_117)">
<path d="M1286.4 28.1852H1268.56C1251.97 28.1852 1238.52 41.6454 1238.52 58.2494V76.1C1238.52 92.704 1251.97 106.164 1268.56 106.164H1286.4C1303 106.164 1316.45 92.704 1316.45 76.1V58.2494C1316.45 41.6454 1303 28.1852 1286.4 28.1852Z" fill="#192431"/>
</g>
<g filter="url(#filter3_d_4_117)">
<path d="M562.091 695.235C556.679 695.235 552.233 693.543 548.753 690.158C545.273 686.773 543.533 682.565 543.534 677.537V531.312L547.593 537.695L525.555 551.041C522.656 552.782 519.563 553.652 516.276 553.652C511.251 553.652 507.095 551.766 503.808 547.995C500.522 544.223 498.879 540.209 498.879 535.954C498.879 529.378 501.875 524.35 507.868 520.868L551.652 494.756C554.939 493.015 559.095 492.145 564.121 492.145C569.147 492.145 573.254 493.837 576.444 497.222C579.634 500.607 581.229 504.815 581.229 509.843V677.537C581.229 682.565 579.44 686.773 575.865 690.158C572.288 693.543 567.697 695.235 562.091 695.235Z" fill="#343434"/>
</g>
<g filter="url(#filter4_d_4_117)">
<path d="M1132.75 490.244C1137.21 490.244 1140.94 491.733 1143.91 494.711C1146.89 497.689 1148.37 501.412 1148.37 505.879C1148.37 510.16 1146.89 513.744 1143.91 516.629C1140.94 519.514 1137.21 520.956 1132.75 520.956H1037.87C1033.03 520.956 1029.22 519.467 1026.43 516.489C1023.64 513.511 1022.24 509.695 1022.24 505.042C1022.24 500.389 1023.92 496.293 1027.26 492.757L1088.1 427.702C1094.8 420.442 1100.19 413.044 1104.29 405.505C1108.37 397.966 1110.42 390.94 1110.42 384.424C1110.42 378.655 1109.03 373.443 1106.24 368.789C1103.44 364.136 1099.82 360.413 1095.36 357.621C1090.89 354.829 1086.05 353.433 1080.84 353.433C1075.45 353.433 1069.96 355.248 1064.38 358.877C1058.8 362.508 1053.87 367.3 1049.59 373.256C1047.36 376.235 1045.12 378.096 1042.89 378.841C1040.66 379.585 1038.62 379.958 1036.76 379.958C1032.66 379.958 1028.9 378.422 1025.45 375.351C1022.02 372.279 1020.29 368.696 1020.29 364.601C1020.29 361.437 1021.36 358.365 1023.5 355.387C1025.64 352.409 1028.29 349.338 1031.45 346.173C1038.52 339.101 1046.71 333.423 1056.01 329.142C1065.31 324.861 1074.24 322.72 1082.8 322.72C1095.44 322.72 1106.33 325.327 1115.44 330.538C1124.56 335.75 1131.63 342.916 1136.66 352.037C1141.68 361.158 1144.19 371.488 1144.19 383.029C1144.19 390.847 1142.75 398.804 1139.87 406.901C1136.98 414.998 1133.02 422.862 1128.01 430.494C1122.98 438.126 1117.21 445.478 1110.7 452.551L1073.03 492.757L1069.96 490.244H1132.75Z" fill="#343434"/>
</g>
<g filter="url(#filter5_d_4_117)">
<path d="M1445.47 184.261C1447.14 184.261 1448.95 184.541 1450.9 185.099C1452.86 185.657 1455.04 186.774 1457.47 188.449C1460.62 190.869 1464.4 193.009 1468.76 194.87C1473.14 196.733 1478.21 197.663 1483.97 197.663C1489.74 197.663 1495.19 196.221 1500.29 193.335C1505.41 190.45 1509.65 186.355 1513 181.05C1516.34 175.745 1518.01 169.37 1518.01 161.925C1518.01 154.851 1516.58 148.988 1513.69 144.334C1510.81 139.681 1507 136.145 1502.25 133.725C1497.51 131.305 1492.44 130.095 1487.05 130.095C1482.95 130.095 1479.55 130.467 1476.86 131.212C1474.16 131.956 1471.55 132.748 1469.05 133.586C1466.53 134.423 1463.6 134.842 1460.26 134.842C1455.97 134.842 1452.67 133.353 1450.35 130.374C1448.02 127.396 1446.86 123.86 1446.86 119.764C1446.86 117.158 1447.37 114.832 1448.4 112.784C1449.42 110.737 1450.95 108.504 1453 106.083L1502.12 52.476L1509.65 58.8977H1441C1436.54 58.8977 1432.81 57.4087 1429.83 54.4305C1426.86 51.4523 1425.37 47.7295 1425.37 43.2623C1425.37 38.9811 1426.86 35.398 1429.83 32.5128C1432.81 29.6277 1436.54 28.1852 1441 28.1852H1526.39C1532.15 28.1852 1536.48 29.7673 1539.37 32.9317C1542.25 36.096 1543.69 40.098 1543.69 44.9375C1543.69 47.3573 1543.08 49.684 1541.87 51.9177C1540.67 54.1513 1539.04 56.2919 1536.99 58.3394L1487.6 112.784L1480.07 103.291C1482.12 102.361 1484.95 101.523 1488.58 100.779C1492.21 100.034 1495.22 99.6619 1497.65 99.6619C1508.62 99.6619 1518.15 102.5 1526.25 108.178C1534.34 113.855 1540.58 121.208 1544.94 130.234C1549.32 139.262 1551.51 148.988 1551.51 159.412C1551.51 173.186 1548.44 185.099 1542.3 195.15C1536.15 205.201 1527.51 212.926 1516.34 218.324C1505.18 223.722 1492.16 226.421 1477.28 226.421C1470.4 226.421 1463.6 225.583 1456.9 223.908C1450.21 222.233 1444.44 219.999 1439.61 217.207C1435.51 214.974 1432.77 212.507 1431.37 209.809C1429.97 207.109 1429.28 204.55 1429.28 202.13C1429.28 197.849 1430.82 193.8 1433.88 189.985C1436.95 186.169 1440.81 184.261 1445.47 184.261Z" fill="#343434"/>
</g>
<path d="M328.509 523.171C328.509 526.728 325.626 529.613 322.071 529.613C318.515 529.613 315.632 526.728 315.632 523.171C315.632 519.613 318.515 516.728 322.071 516.728C325.626 516.728 328.509 519.613 328.509 523.171Z" fill="white"/>
<path d="M337.094 540.35C337.094 543.908 334.212 546.793 330.656 546.793C327.099 546.793 324.216 543.908 324.216 540.35C324.216 536.792 327.099 533.908 330.656 533.908C334.212 533.908 337.094 536.792 337.094 540.35Z" fill="white"/>
<path d="M313.485 546.793C317.042 546.793 319.925 543.908 319.925 540.35C319.925 536.792 317.042 533.908 313.485 533.908C309.93 533.908 307.047 536.792 307.047 540.35C307.047 543.908 309.93 546.793 313.485 546.793Z" fill="white"/>
<path d="M860.05 350.365C860.05 351.04 860.601 351.592 861.277 351.592C861.952 351.592 862.502 351.04 862.502 350.365C863.177 350.365 863.729 349.813 863.729 349.137C863.729 348.463 863.177 347.91 862.502 347.91C862.502 347.235 861.952 346.683 861.277 346.683C860.601 346.683 860.05 347.235 860.05 347.916C859.375 347.916 858.823 348.469 858.823 349.144C858.823 349.819 859.375 350.365 860.05 350.365Z" fill="white"/>
<path d="M868.835 352.614L868.477 352.256L868.13 352.614C867.89 352.855 867.578 352.973 867.261 352.973C866.945 352.973 866.634 352.855 866.393 352.614C865.912 352.138 865.912 351.363 866.393 350.882L866.751 350.523L866.393 350.165C865.912 349.69 865.912 348.915 866.393 348.433C866.868 347.952 867.643 347.952 868.125 348.433L868.482 348.792L868.84 348.433C869.315 347.952 870.091 347.952 870.572 348.433C871.053 348.909 871.053 349.684 870.572 350.165L870.214 350.523L870.572 350.882C871.053 351.358 871.053 352.133 870.572 352.614C870.331 352.855 870.02 352.973 869.704 352.973C869.387 352.973 869.075 352.855 868.835 352.614Z" fill="white"/>
<path fill-rule="evenodd" clip-rule="evenodd" d="M861.933 353.383C860.954 353.383 860.026 353.764 859.335 354.463L843.353 370.453C842.639 371.169 842.257 372.121 842.281 373.131C842.303 374.146 842.726 375.08 843.471 375.761C844.152 376.383 845.031 376.724 845.954 376.724C846.934 376.724 847.862 376.343 848.553 375.644L864.534 359.654C865.966 358.222 865.966 355.885 864.534 354.452C863.841 353.764 862.92 353.383 861.933 353.383ZM858.623 358.644L860.355 360.377L849.062 371.674L847.332 369.942L858.623 358.644ZM844.725 373.084C844.731 373.418 844.877 373.729 845.125 373.958C845.595 374.387 846.374 374.37 846.815 373.923L847.326 373.412L845.595 371.68L845.083 372.191C844.848 372.432 844.72 372.749 844.725 373.084ZM862.801 357.928L862.086 358.639L860.355 356.906L861.065 356.196C861.294 355.967 861.605 355.838 861.933 355.838C862.262 355.838 862.566 355.967 862.801 356.196C863.278 356.671 863.278 357.452 862.801 357.928Z" fill="white"/>
<path d="M869.851 356.496C870.526 356.496 871.076 357.047 871.076 357.723C871.758 357.723 872.302 358.274 872.302 358.95C872.302 359.625 871.751 360.177 871.076 360.177C871.076 360.852 870.526 361.405 869.851 361.405C869.175 361.405 868.623 360.852 868.623 360.177C867.949 360.177 867.397 359.625 867.397 358.95C867.397 358.274 867.949 357.723 868.623 357.723C868.623 357.047 869.175 356.496 869.851 356.496Z" fill="white"/>
<path fill-rule="evenodd" clip-rule="evenodd" d="M1268.55 58.2494H1263.87C1262.74 58.2494 1261.99 59.002 1261.99 60.1308V75.1589C1261.99 76.2878 1262.74 77.0404 1263.87 77.0404H1268.55C1269.12 77.0404 1269.68 76.8522 1270.06 76.2878L1276.06 68.7737C1276.62 68.0212 1276.62 67.0805 1276.06 66.5219L1270.06 59.002C1269.68 58.4376 1269.12 58.2494 1268.55 58.2494ZM1268.55 60.1308L1274.55 67.6449L1268.55 75.1589H1263.87V60.1308H1268.55Z" fill="white"/>
<path d="M1277.17 77.0345H1284.11C1284.68 77.0345 1285.24 76.8463 1285.62 76.2819L1291.62 68.7738C1292.18 68.2152 1292.18 67.2745 1291.62 66.5219L1285.62 59.0079C1285.24 58.4435 1284.68 58.2553 1284.11 58.2553H1277.17C1275.67 58.2553 1274.73 60.1308 1275.67 61.2598L1280.74 67.6449L1275.67 74.0301C1274.74 75.1531 1275.67 77.0345 1277.17 77.0345Z" fill="white"/>
<path d="M286.049 602C282.782 602 281.149 600.947 281.149 598.841V593.51C281.149 591.284 282.782 590.171 286.049 590.171C289.328 590.171 290.967 591.278 290.967 593.492V598.302C290.967 599.403 290.435 600.307 289.37 601.013H292.242V602H286.049ZM286.085 600.833C288.227 600.833 289.298 600.163 289.298 598.823V593.456C289.298 592.02 288.221 591.302 286.067 591.302C285.588 591.302 285.175 591.332 284.828 591.392C284.481 591.44 284.152 591.535 283.841 591.679C283.159 592.002 282.818 592.594 282.818 593.456V598.823C282.818 600.163 283.907 600.833 286.085 600.833ZM298.753 591.966L295.217 594.282V592.81L298.771 590.351H300.315V602H298.753V591.966ZM310.664 599.918C310.664 599.583 310.718 599.272 310.825 598.984C310.945 598.685 311.095 598.434 311.274 598.231C311.418 598.063 311.633 597.884 311.92 597.692C312.219 597.489 312.501 597.321 312.764 597.19C312.991 597.07 313.29 596.932 313.661 596.777L315.6 595.915C316.366 595.58 316.749 595.059 316.749 594.353V592.756C316.749 592.206 316.581 591.841 316.246 591.661C315.911 591.47 315.325 591.374 314.487 591.374C313.661 591.374 312.525 591.499 311.077 591.751V590.494C312.285 590.267 313.536 590.153 314.828 590.153C316.12 590.153 317.054 590.351 317.628 590.746C318.203 591.129 318.49 591.775 318.49 592.684V594.587C318.49 595.018 318.418 595.377 318.274 595.664C318.131 595.939 317.897 596.19 317.574 596.418C317.263 596.633 316.803 596.878 316.192 597.154L313.5 598.392C312.71 598.751 312.315 599.278 312.315 599.972V600.744H318.49V602H310.664V599.918ZM325.868 602.179C325.342 602.179 324.911 602.162 324.576 602.126C324.253 602.09 323.906 602.018 323.535 601.91C323.14 601.803 322.823 601.647 322.584 601.444C322.356 601.228 322.165 600.929 322.009 600.546C321.854 600.187 321.776 599.738 321.776 599.2V593.312C321.776 592.774 321.854 592.301 322.009 591.894C322.165 591.488 322.368 591.164 322.62 590.925C322.847 590.722 323.146 590.56 323.517 590.44C323.9 590.309 324.283 590.225 324.666 590.189C325.097 590.165 325.498 590.153 325.868 590.153C326.395 590.153 326.82 590.171 327.143 590.207C327.478 590.243 327.831 590.315 328.202 590.423C328.597 590.542 328.914 590.71 329.153 590.925C329.405 591.141 329.608 591.446 329.764 591.841C329.919 592.235 329.997 592.72 329.997 593.294V599.2C329.997 599.69 329.919 600.127 329.764 600.51C329.608 600.893 329.405 601.192 329.153 601.408C328.914 601.611 328.609 601.779 328.238 601.91C327.867 602.03 327.49 602.102 327.107 602.126C326.772 602.162 326.359 602.179 325.868 602.179ZM325.904 601.12C326.539 601.12 327.029 601.079 327.376 600.995C327.723 600.899 327.975 600.72 328.13 600.456C328.286 600.193 328.363 599.804 328.363 599.29V593.187C328.363 592.624 328.28 592.206 328.112 591.93C327.957 591.643 327.705 591.452 327.358 591.356C327.023 591.26 326.533 591.212 325.886 591.212C325.228 591.212 324.726 591.26 324.379 591.356C324.044 591.452 323.798 591.643 323.643 591.93C323.487 592.206 323.409 592.624 323.409 593.187V599.29C323.409 599.804 323.487 600.193 323.643 600.456C323.81 600.72 324.068 600.899 324.415 600.995C324.762 601.079 325.258 601.12 325.904 601.12ZM333.283 599.918C333.283 599.583 333.337 599.272 333.445 598.984C333.564 598.685 333.714 598.434 333.893 598.231C334.037 598.063 334.252 597.884 334.54 597.692C334.839 597.489 335.12 597.321 335.383 597.19C335.611 597.07 335.91 596.932 336.281 596.777L338.219 595.915C338.985 595.58 339.368 595.059 339.368 594.353V592.756C339.368 592.206 339.2 591.841 338.865 591.661C338.53 591.47 337.944 591.374 337.106 591.374C336.281 591.374 335.144 591.499 333.696 591.751V590.494C334.904 590.267 336.155 590.153 337.447 590.153C338.74 590.153 339.673 590.351 340.247 590.746C340.822 591.129 341.109 591.775 341.109 592.684V594.587C341.109 595.018 341.037 595.377 340.894 595.664C340.75 595.939 340.517 596.19 340.194 596.418C339.883 596.633 339.422 596.878 338.812 597.154L336.119 598.392C335.329 598.751 334.934 599.278 334.934 599.972V600.744H341.109V602H333.283V599.918ZM344.593 599.918C344.593 599.583 344.647 599.272 344.754 598.984C344.874 598.685 345.023 598.434 345.203 598.231C345.347 598.063 345.562 597.884 345.849 597.692C346.148 597.489 346.43 597.321 346.693 597.19C346.92 597.07 347.219 596.932 347.59 596.777L349.529 595.915C350.295 595.58 350.678 595.059 350.678 594.353V592.756C350.678 592.206 350.51 591.841 350.175 591.661C349.84 591.47 349.254 591.374 348.416 591.374C347.59 591.374 346.453 591.499 345.006 591.751V590.494C346.214 590.267 347.465 590.153 348.757 590.153C350.049 590.153 350.983 590.351 351.557 590.746C352.132 591.129 352.419 591.775 352.419 592.684V594.587C352.419 595.018 352.347 595.377 352.203 595.664C352.06 595.939 351.826 596.19 351.503 596.418C351.192 596.633 350.731 596.878 350.121 597.154L347.429 598.392C346.639 598.751 346.244 599.278 346.244 599.972V600.744H352.419V602H344.593V599.918Z" fill="white"/>
<path d="M759.049 441C755.782 441 754.149 439.947 754.149 437.841V432.51C754.149 430.284 755.782 429.171 759.049 429.171C762.328 429.171 763.967 430.278 763.967 432.492V437.302C763.967 438.403 763.435 439.307 762.37 440.013H765.242V441H759.049ZM759.085 439.833C761.227 439.833 762.298 439.163 762.298 437.823V432.456C762.298 431.02 761.221 430.302 759.067 430.302C758.588 430.302 758.175 430.332 757.828 430.392C757.481 430.44 757.152 430.535 756.841 430.679C756.159 431.002 755.818 431.594 755.818 432.456V437.823C755.818 439.163 756.907 439.833 759.085 439.833ZM767.32 438.918C767.32 438.583 767.374 438.272 767.481 437.984C767.601 437.685 767.751 437.434 767.93 437.231C768.074 437.063 768.289 436.884 768.576 436.692C768.875 436.489 769.157 436.321 769.42 436.19C769.647 436.07 769.946 435.932 770.317 435.777L772.256 434.915C773.022 434.58 773.405 434.059 773.405 433.353V431.756C773.405 431.206 773.237 430.841 772.902 430.661C772.567 430.47 771.981 430.374 771.143 430.374C770.317 430.374 769.181 430.499 767.733 430.751V429.494C768.941 429.267 770.192 429.153 771.484 429.153C772.777 429.153 773.71 429.351 774.284 429.746C774.859 430.129 775.146 430.775 775.146 431.684V433.587C775.146 434.018 775.074 434.377 774.93 434.664C774.787 434.939 774.554 435.19 774.23 435.418C773.919 435.633 773.459 435.878 772.848 436.154L770.156 437.392C769.366 437.751 768.971 438.278 768.971 438.972V439.744H775.146V441H767.32V438.918ZM783.664 438.918C783.664 438.583 783.718 438.272 783.825 437.984C783.945 437.685 784.095 437.434 784.274 437.231C784.418 437.063 784.633 436.884 784.92 436.692C785.219 436.489 785.501 436.321 785.764 436.19C785.991 436.07 786.29 435.932 786.661 435.777L788.6 434.915C789.366 434.58 789.749 434.059 789.749 433.353V431.756C789.749 431.206 789.581 430.841 789.246 430.661C788.911 430.47 788.325 430.374 787.487 430.374C786.661 430.374 785.525 430.499 784.077 430.751V429.494C785.285 429.267 786.536 429.153 787.828 429.153C789.12 429.153 790.054 429.351 790.628 429.746C791.203 430.129 791.49 430.775 791.49 431.684V433.587C791.49 434.018 791.418 434.377 791.274 434.664C791.131 434.939 790.897 435.19 790.574 435.418C790.263 435.633 789.803 435.878 789.192 436.154L786.5 437.392C785.71 437.751 785.315 438.278 785.315 438.972V439.744H791.49V441H783.664V438.918ZM798.868 441.179C798.342 441.179 797.911 441.162 797.576 441.126C797.253 441.09 796.906 441.018 796.535 440.91C796.14 440.803 795.823 440.647 795.584 440.444C795.356 440.228 795.165 439.929 795.009 439.546C794.854 439.187 794.776 438.738 794.776 438.2V432.312C794.776 431.774 794.854 431.301 795.009 430.894C795.165 430.488 795.368 430.164 795.62 429.925C795.847 429.722 796.146 429.56 796.517 429.44C796.9 429.309 797.283 429.225 797.666 429.189C798.097 429.165 798.498 429.153 798.868 429.153C799.395 429.153 799.82 429.171 800.143 429.207C800.478 429.243 800.831 429.315 801.202 429.423C801.597 429.542 801.914 429.71 802.153 429.925C802.405 430.141 802.608 430.446 802.764 430.841C802.919 431.235 802.997 431.72 802.997 432.294V438.2C802.997 438.69 802.919 439.127 802.764 439.51C802.608 439.893 802.405 440.192 802.153 440.408C801.914 440.611 801.609 440.779 801.238 440.91C800.867 441.03 800.49 441.102 800.107 441.126C799.772 441.162 799.359 441.179 798.868 441.179ZM798.904 440.12C799.539 440.12 800.029 440.079 800.376 439.995C800.723 439.899 800.975 439.72 801.13 439.456C801.286 439.193 801.363 438.804 801.363 438.29V432.187C801.363 431.624 801.28 431.206 801.112 430.93C800.957 430.643 800.705 430.452 800.358 430.356C800.023 430.26 799.533 430.212 798.886 430.212C798.228 430.212 797.726 430.26 797.379 430.356C797.044 430.452 796.798 430.643 796.643 430.93C796.487 431.206 796.409 431.624 796.409 432.187V438.29C796.409 438.804 796.487 439.193 796.643 439.456C796.81 439.72 797.068 439.899 797.415 439.995C797.762 440.079 798.258 440.12 798.904 440.12ZM806.283 438.918C806.283 438.583 806.337 438.272 806.445 437.984C806.564 437.685 806.714 437.434 806.893 437.231C807.037 437.063 807.252 436.884 807.54 436.692C807.839 436.489 808.12 436.321 808.383 436.19C808.611 436.07 808.91 435.932 809.281 435.777L811.219 434.915C811.985 434.58 812.368 434.059 812.368 433.353V431.756C812.368 431.206 812.2 430.841 811.865 430.661C811.53 430.47 810.944 430.374 810.106 430.374C809.281 430.374 808.144 430.499 806.696 430.751V429.494C807.904 429.267 809.155 429.153 810.447 429.153C811.74 429.153 812.673 429.351 813.247 429.746C813.822 430.129 814.109 430.775 814.109 431.684V433.587C814.109 434.018 814.037 434.377 813.894 434.664C813.75 434.939 813.517 435.19 813.194 435.418C812.883 435.633 812.422 435.878 811.812 436.154L809.119 437.392C808.329 437.751 807.934 438.278 807.934 438.972V439.744H814.109V441H806.283V438.918ZM817.593 438.918C817.593 438.583 817.647 438.272 817.754 437.984C817.874 437.685 818.023 437.434 818.203 437.231C818.347 437.063 818.562 436.884 818.849 436.692C819.148 436.489 819.43 436.321 819.693 436.19C819.92 436.07 820.219 435.932 820.59 435.777L822.529 434.915C823.295 434.58 823.678 434.059 823.678 433.353V431.756C823.678 431.206 823.51 430.841 823.175 430.661C822.84 430.47 822.254 430.374 821.416 430.374C820.59 430.374 819.453 430.499 818.006 430.751V429.494C819.214 429.267 820.465 429.153 821.757 429.153C823.049 429.153 823.983 429.351 824.557 429.746C825.132 430.129 825.419 430.775 825.419 431.684V433.587C825.419 434.018 825.347 434.377 825.203 434.664C825.06 434.939 824.826 435.19 824.503 435.418C824.192 435.633 823.731 435.878 823.121 436.154L820.429 437.392C819.639 437.751 819.244 438.278 819.244 438.972V439.744H825.419V441H817.593V438.918Z" fill="white"/>
<path d="M1239.05 161C1235.78 161 1234.15 159.947 1234.15 157.841V152.51C1234.15 150.284 1235.78 149.171 1239.05 149.171C1242.33 149.171 1243.97 150.278 1243.97 152.492V157.302C1243.97 158.403 1243.43 159.307 1242.37 160.013H1245.24V161H1239.05ZM1239.08 159.833C1241.23 159.833 1242.3 159.163 1242.3 157.823V152.456C1242.3 151.02 1241.22 150.302 1239.07 150.302C1238.59 150.302 1238.18 150.332 1237.83 150.392C1237.48 150.44 1237.15 150.535 1236.84 150.679C1236.16 151.002 1235.82 151.594 1235.82 152.456V157.823C1235.82 159.163 1236.91 159.833 1239.08 159.833ZM1250.8 161.179C1249.8 161.179 1248.67 161.066 1247.41 160.838V159.546C1248.83 159.845 1250.02 159.995 1250.98 159.995C1252.57 159.995 1253.37 159.546 1253.37 158.649V156.656C1253.37 156.166 1253.11 155.842 1252.58 155.687C1252.33 155.627 1252.1 155.591 1251.9 155.579C1251.71 155.555 1251.45 155.543 1251.14 155.543H1248.9V154.43H1250.84C1251.15 154.43 1251.4 154.424 1251.59 154.413C1251.78 154.389 1252 154.341 1252.26 154.269C1252.52 154.209 1252.72 154.095 1252.87 153.928C1253.01 153.76 1253.08 153.545 1253.08 153.282V151.2C1253.08 150.589 1252.36 150.284 1250.93 150.284C1249.97 150.284 1248.88 150.38 1247.64 150.571V149.333C1248.67 149.225 1249.76 149.171 1250.91 149.171C1252.24 149.171 1253.2 149.321 1253.8 149.62C1254.41 149.907 1254.72 150.404 1254.72 151.11V153.353C1254.72 153.724 1254.57 154.036 1254.27 154.287C1253.97 154.526 1253.58 154.682 1253.12 154.754V154.825C1253.4 154.873 1253.64 154.927 1253.82 154.987C1254.01 155.035 1254.21 155.113 1254.43 155.22C1254.85 155.436 1255.06 155.813 1255.06 156.351V158.685C1255.06 159.091 1254.97 159.456 1254.79 159.779C1254.61 160.103 1254.38 160.354 1254.1 160.533C1253.87 160.701 1253.55 160.838 1253.15 160.946C1252.76 161.042 1252.37 161.108 1251.99 161.144C1251.53 161.168 1251.14 161.179 1250.8 161.179ZM1263.66 158.918C1263.66 158.583 1263.72 158.272 1263.83 157.984C1263.94 157.685 1264.09 157.434 1264.27 157.231C1264.42 157.063 1264.63 156.884 1264.92 156.692C1265.22 156.489 1265.5 156.321 1265.76 156.19C1265.99 156.07 1266.29 155.932 1266.66 155.777L1268.6 154.915C1269.37 154.58 1269.75 154.059 1269.75 153.353V151.756C1269.75 151.206 1269.58 150.841 1269.25 150.661C1268.91 150.47 1268.32 150.374 1267.49 150.374C1266.66 150.374 1265.52 150.499 1264.08 150.751V149.494C1265.29 149.267 1266.54 149.153 1267.83 149.153C1269.12 149.153 1270.05 149.351 1270.63 149.746C1271.2 150.129 1271.49 150.775 1271.49 151.684V153.587C1271.49 154.018 1271.42 154.377 1271.27 154.664C1271.13 154.939 1270.9 155.19 1270.57 155.418C1270.26 155.633 1269.8 155.878 1269.19 156.154L1266.5 157.392C1265.71 157.751 1265.32 158.278 1265.32 158.972V159.744H1271.49V161H1263.66V158.918ZM1278.87 161.179C1278.34 161.179 1277.91 161.162 1277.58 161.126C1277.25 161.09 1276.91 161.018 1276.54 160.91C1276.14 160.803 1275.82 160.647 1275.58 160.444C1275.36 160.228 1275.16 159.929 1275.01 159.546C1274.85 159.187 1274.78 158.738 1274.78 158.2V152.312C1274.78 151.774 1274.85 151.301 1275.01 150.894C1275.16 150.488 1275.37 150.164 1275.62 149.925C1275.85 149.722 1276.15 149.56 1276.52 149.44C1276.9 149.309 1277.28 149.225 1277.67 149.189C1278.1 149.165 1278.5 149.153 1278.87 149.153C1279.39 149.153 1279.82 149.171 1280.14 149.207C1280.48 149.243 1280.83 149.315 1281.2 149.423C1281.6 149.542 1281.91 149.71 1282.15 149.925C1282.4 150.141 1282.61 150.446 1282.76 150.841C1282.92 151.235 1283 151.72 1283 152.294V158.2C1283 158.69 1282.92 159.127 1282.76 159.51C1282.61 159.893 1282.4 160.192 1282.15 160.408C1281.91 160.611 1281.61 160.779 1281.24 160.91C1280.87 161.03 1280.49 161.102 1280.11 161.126C1279.77 161.162 1279.36 161.179 1278.87 161.179ZM1278.9 160.12C1279.54 160.12 1280.03 160.079 1280.38 159.995C1280.72 159.899 1280.97 159.72 1281.13 159.456C1281.29 159.193 1281.36 158.804 1281.36 158.29V152.187C1281.36 151.624 1281.28 151.206 1281.11 150.93C1280.96 150.643 1280.71 150.452 1280.36 150.356C1280.02 150.26 1279.53 150.212 1278.89 150.212C1278.23 150.212 1277.73 150.26 1277.38 150.356C1277.04 150.452 1276.8 150.643 1276.64 150.93C1276.49 151.206 1276.41 151.624 1276.41 152.187V158.29C1276.41 158.804 1276.49 159.193 1276.64 159.456C1276.81 159.72 1277.07 159.899 1277.41 159.995C1277.76 160.079 1278.26 160.12 1278.9 160.12ZM1286.28 158.918C1286.28 158.583 1286.34 158.272 1286.44 157.984C1286.56 157.685 1286.71 157.434 1286.89 157.231C1287.04 157.063 1287.25 156.884 1287.54 156.692C1287.84 156.489 1288.12 156.321 1288.38 156.19C1288.61 156.07 1288.91 155.932 1289.28 155.777L1291.22 154.915C1291.99 154.58 1292.37 154.059 1292.37 153.353V151.756C1292.37 151.206 1292.2 150.841 1291.87 150.661C1291.53 150.47 1290.94 150.374 1290.11 150.374C1289.28 150.374 1288.14 150.499 1286.7 150.751V149.494C1287.9 149.267 1289.15 149.153 1290.45 149.153C1291.74 149.153 1292.67 149.351 1293.25 149.746C1293.82 150.129 1294.11 150.775 1294.11 151.684V153.587C1294.11 154.018 1294.04 154.377 1293.89 154.664C1293.75 154.939 1293.52 155.19 1293.19 155.418C1292.88 155.633 1292.42 155.878 1291.81 156.154L1289.12 157.392C1288.33 157.751 1287.93 158.278 1287.93 158.972V159.744H1294.11V161H1286.28V158.918ZM1297.59 158.918C1297.59 158.583 1297.65 158.272 1297.75 157.984C1297.87 157.685 1298.02 157.434 1298.2 157.231C1298.35 157.063 1298.56 156.884 1298.85 156.692C1299.15 156.489 1299.43 156.321 1299.69 156.19C1299.92 156.07 1300.22 155.932 1300.59 155.777L1302.53 154.915C1303.29 154.58 1303.68 154.059 1303.68 153.353V151.756C1303.68 151.206 1303.51 150.841 1303.18 150.661C1302.84 150.47 1302.25 150.374 1301.42 150.374C1300.59 150.374 1299.45 150.499 1298.01 150.751V149.494C1299.21 149.267 1300.46 149.153 1301.76 149.153C1303.05 149.153 1303.98 149.351 1304.56 149.746C1305.13 150.129 1305.42 150.775 1305.42 151.684V153.587C1305.42 154.018 1305.35 154.377 1305.2 154.664C1305.06 154.939 1304.83 155.19 1304.5 155.418C1304.19 155.633 1303.73 155.878 1303.12 156.154L1300.43 157.392C1299.64 157.751 1299.24 158.278 1299.24 158.972V159.744H1305.42V161H1297.59V158.918Z" fill="white"/>
<path d="M276.935 631.948H280.816V632.953H276.935V631.948ZM283.25 627.383H286.852C289.393 627.383 290.664 628.248 290.664 629.979V633.986C290.664 635.624 289.398 636.443 286.866 636.443H283.25V627.383ZM286.768 635.522C288.5 635.522 289.365 635.001 289.365 633.958V629.965C289.365 629.63 289.295 629.346 289.156 629.114C289.016 628.881 288.821 628.709 288.569 628.597C288.318 628.495 288.058 628.425 287.788 628.388C287.518 628.341 287.201 628.318 286.838 628.318H284.605V635.522H286.768ZM296.188 636.583C294.122 636.583 293.089 635.894 293.089 634.517V631.85C293.089 631.031 293.321 630.445 293.787 630.091C294.261 629.728 295.025 629.546 296.076 629.546C297.072 629.546 297.789 629.719 298.226 630.063C298.673 630.407 298.896 631.003 298.896 631.85V633.344H294.359V634.363C294.359 634.828 294.522 635.163 294.848 635.368C295.173 635.573 295.676 635.675 296.356 635.675C296.998 635.675 297.756 635.564 298.631 635.34V636.304C297.775 636.49 296.96 636.583 296.188 636.583ZM297.64 632.52V631.459C297.64 631.05 297.514 630.77 297.263 630.621C297.021 630.463 296.602 630.384 296.006 630.384C295.429 630.384 295.011 630.463 294.75 630.621C294.489 630.77 294.359 631.05 294.359 631.459V632.52H297.64ZM300.504 629.686H301.83L303.701 635.354H303.771L305.586 629.686H306.8L304.441 636.443H302.933L300.504 629.686ZM311.518 636.583C309.451 636.583 308.418 635.894 308.418 634.517V631.85C308.418 631.031 308.651 630.445 309.116 630.091C309.591 629.728 310.354 629.546 311.406 629.546C312.402 629.546 313.118 629.719 313.556 630.063C314.003 630.407 314.226 631.003 314.226 631.85V633.344H309.689V634.363C309.689 634.828 309.852 635.163 310.177 635.368C310.503 635.573 311.006 635.675 311.685 635.675C312.327 635.675 313.086 635.564 313.961 635.34V636.304C313.104 636.49 312.29 636.583 311.518 636.583ZM312.969 632.52V631.459C312.969 631.05 312.844 630.77 312.593 630.621C312.351 630.463 311.932 630.384 311.336 630.384C310.759 630.384 310.34 630.463 310.08 630.621C309.819 630.77 309.689 631.05 309.689 631.459V632.52H312.969ZM316.839 626.671H318.095V636.443H316.839V626.671ZM323.834 636.583C323.239 636.583 322.792 636.559 322.494 636.513C322.196 636.476 321.899 636.387 321.601 636.248C321.294 636.108 321.07 635.885 320.931 635.578C320.791 635.261 320.721 634.838 320.721 634.307V631.962C320.721 631.543 320.772 631.175 320.875 630.859C320.977 630.542 321.112 630.296 321.28 630.119C321.419 629.961 321.629 629.84 321.908 629.756C322.196 629.663 322.49 629.602 322.787 629.574C323.122 629.556 323.471 629.546 323.834 629.546C324.318 629.546 324.681 629.56 324.923 629.588C325.175 629.607 325.44 629.654 325.719 629.728C326.008 629.812 326.231 629.937 326.389 630.105C326.548 630.272 326.682 630.514 326.794 630.831C326.897 631.157 326.948 631.534 326.948 631.962V634.307C326.948 635.098 326.766 635.675 326.403 636.038C326.254 636.187 326.04 636.304 325.761 636.387C325.482 636.471 325.193 636.527 324.895 636.555C324.542 636.573 324.188 636.583 323.834 636.583ZM323.834 635.759C324.225 635.759 324.509 635.75 324.686 635.731C324.863 635.713 325.035 635.661 325.203 635.578C325.37 635.503 325.487 635.382 325.552 635.215C325.626 635.038 325.663 634.796 325.663 634.489V631.752C325.663 631.333 325.612 631.031 325.51 630.845C325.407 630.649 325.231 630.524 324.979 630.468C324.737 630.403 324.356 630.37 323.834 630.37C323.313 630.37 322.927 630.403 322.676 630.468C322.434 630.524 322.262 630.649 322.159 630.845C322.057 631.031 322.006 631.333 322.006 631.752V634.489C322.006 634.796 322.038 635.038 322.103 635.215C322.178 635.382 322.299 635.503 322.466 635.578C322.634 635.661 322.806 635.713 322.983 635.731C323.16 635.75 323.444 635.759 323.834 635.759ZM329.605 629.686H330.848V630.412H330.862C330.964 629.835 331.732 629.546 333.165 629.546C334.022 629.546 334.668 629.728 335.106 630.091C335.543 630.445 335.762 630.901 335.762 631.459V634.237C335.762 634.638 335.702 634.987 335.581 635.284C335.469 635.582 335.32 635.815 335.134 635.982C334.966 636.141 334.734 636.266 334.436 636.359C334.147 636.452 333.859 636.513 333.57 636.541C333.31 636.569 332.993 636.583 332.621 636.583C332.211 636.583 331.834 636.536 331.49 636.443C331.155 636.341 330.946 636.196 330.862 636.01V639.347H329.605V629.686ZM332.649 635.731C333.133 635.731 333.5 635.699 333.752 635.633C334.012 635.559 334.198 635.429 334.31 635.242C334.422 635.056 334.478 634.772 334.478 634.391V631.906C334.478 631.487 334.422 631.175 334.31 630.97C334.198 630.766 334.012 630.631 333.752 630.566C333.5 630.491 333.128 630.454 332.635 630.454C332.142 630.454 331.774 630.491 331.532 630.566C331.29 630.631 331.118 630.766 331.015 630.97C330.913 631.166 330.862 631.478 330.862 631.906V634.391C330.862 634.772 330.913 635.056 331.015 635.242C331.127 635.429 331.309 635.559 331.56 635.633C331.811 635.699 332.174 635.731 332.649 635.731ZM338.388 629.686H339.645V630.51C339.775 629.868 340.533 629.546 341.92 629.546C343.046 629.546 343.749 629.854 344.028 630.468C344.112 630.17 344.363 629.942 344.782 629.784C345.21 629.626 345.731 629.546 346.346 629.546C347.183 629.546 347.774 629.705 348.119 630.021C348.463 630.328 348.635 630.817 348.635 631.487V636.443H347.379V631.571C347.379 631.394 347.365 631.25 347.337 631.138C347.309 631.026 347.253 630.915 347.169 630.803C346.983 630.57 346.569 630.454 345.927 630.454C345.434 630.454 345.066 630.487 344.824 630.552C344.582 630.617 344.414 630.729 344.321 630.887C344.238 631.045 344.196 631.273 344.196 631.571V636.443H342.939V631.571C342.939 631.394 342.925 631.25 342.897 631.138C342.869 631.026 342.814 630.915 342.73 630.803C342.544 630.57 342.134 630.454 341.501 630.454C340.989 630.454 340.603 630.487 340.343 630.552C340.082 630.617 339.9 630.729 339.798 630.887C339.696 631.036 339.645 631.264 339.645 631.571V636.443H338.388V629.686ZM354.354 636.583C352.288 636.583 351.255 635.894 351.255 634.517V631.85C351.255 631.031 351.488 630.445 351.953 630.091C352.428 629.728 353.191 629.546 354.243 629.546C355.238 629.546 355.955 629.719 356.393 630.063C356.839 630.407 357.063 631.003 357.063 631.85V633.344H352.525V634.363C352.525 634.828 352.688 635.163 353.014 635.368C353.34 635.573 353.842 635.675 354.522 635.675C355.164 635.675 355.923 635.564 356.797 635.34V636.304C355.941 636.49 355.127 636.583 354.354 636.583ZM355.806 632.52V631.459C355.806 631.05 355.681 630.77 355.429 630.621C355.187 630.463 354.768 630.384 354.173 630.384C353.596 630.384 353.177 630.463 352.916 630.621C352.656 630.77 352.525 631.05 352.525 631.459V632.52H355.806ZM359.676 629.686H360.932V630.51C361.062 629.868 361.802 629.546 363.152 629.546C364.017 629.546 364.622 629.705 364.967 630.021C365.32 630.328 365.497 630.817 365.497 631.487V636.443H364.241V631.557C364.241 631.38 364.227 631.236 364.199 631.124C364.171 631.012 364.115 630.901 364.031 630.789C363.845 630.556 363.431 630.44 362.789 630.44C362.295 630.44 361.914 630.477 361.644 630.552C361.383 630.617 361.197 630.729 361.086 630.887C360.983 631.045 360.932 631.268 360.932 631.557V636.443H359.676V629.686ZM371.211 636.583C370.633 636.583 370.182 636.522 369.856 636.401C369.531 636.271 369.293 636.057 369.144 635.759C369.005 635.452 368.935 635.024 368.935 634.475V630.51H367.427V629.686H368.935V627.592H370.205V629.686H372.621V630.51H370.205V634.544C370.205 634.88 370.243 635.131 370.317 635.298C370.401 635.466 370.54 635.587 370.736 635.661C370.941 635.726 371.234 635.759 371.615 635.759C371.736 635.759 372.071 635.722 372.621 635.647V636.471C372.146 636.545 371.676 636.583 371.211 636.583ZM276.935 652.948H280.816V653.953H276.935V652.948ZM283.25 648.383H286.21C286.629 648.383 286.964 648.392 287.215 648.41C287.476 648.429 287.75 648.471 288.039 648.536C288.337 648.601 288.574 648.699 288.751 648.829C288.937 648.96 289.095 649.136 289.226 649.36C289.347 649.574 289.407 649.844 289.407 650.17V652.054C289.407 652.808 289.114 653.353 288.528 653.688C287.95 654.013 287.094 654.176 285.959 654.176H284.605V657.443H283.25V648.383ZM286.14 653.325C286.727 653.325 287.197 653.218 287.55 653.004C287.904 652.79 288.081 652.45 288.081 651.984V650.337C288.081 650.086 288.016 649.881 287.885 649.723C287.755 649.555 287.569 649.439 287.327 649.374C287.094 649.318 286.899 649.281 286.741 649.262C286.582 649.243 286.373 649.234 286.112 649.234H284.591V653.325H286.14ZM293.907 657.583C293.265 657.583 292.767 657.522 292.413 657.401C292.069 657.28 291.817 657.066 291.659 656.759C291.51 656.452 291.436 656.01 291.436 655.433C291.436 654.921 291.506 654.525 291.645 654.246C291.794 653.958 292.041 653.753 292.385 653.632C292.739 653.511 293.237 653.45 293.879 653.45H295.903V652.375C295.903 652.124 295.852 651.933 295.75 651.803C295.657 651.663 295.494 651.566 295.261 651.51C295.038 651.454 294.707 651.426 294.27 651.426C293.572 651.426 292.799 651.482 291.952 651.594V650.672C292.874 650.588 293.707 650.546 294.451 650.546C295.233 650.546 295.81 650.607 296.182 650.728C296.555 650.84 296.811 651.04 296.95 651.328C297.09 651.617 297.16 652.064 297.16 652.669V657.443H295.945V656.801C295.843 657.322 295.163 657.583 293.907 657.583ZM294.116 656.759C294.572 656.759 294.959 656.726 295.275 656.661C295.694 656.578 295.903 656.382 295.903 656.075V654.232H293.963C293.562 654.232 293.274 654.265 293.097 654.33C292.92 654.386 292.804 654.497 292.748 654.665C292.692 654.832 292.664 655.102 292.664 655.475C292.664 655.81 292.697 656.07 292.762 656.256C292.827 656.433 292.944 656.564 293.111 656.647C293.279 656.722 293.53 656.759 293.865 656.759H294.116ZM300.037 650.686H301.223V651.789C301.223 651.575 301.317 651.375 301.503 651.189C301.689 650.993 301.926 650.84 302.215 650.728C302.503 650.607 302.787 650.546 303.066 650.546H303.681V651.621H302.983C302.387 651.621 301.954 651.701 301.684 651.859C301.424 652.008 301.293 652.282 301.293 652.682V657.443H300.037V650.686ZM308.463 657.583C307.886 657.583 307.435 657.522 307.109 657.401C306.783 657.271 306.546 657.057 306.397 656.759C306.258 656.452 306.188 656.024 306.188 655.475V651.51H304.68V650.686H306.188V648.592H307.458V650.686H309.873V651.51H307.458V655.544C307.458 655.88 307.495 656.131 307.57 656.298C307.654 656.466 307.793 656.587 307.989 656.661C308.193 656.726 308.487 656.759 308.868 656.759C308.989 656.759 309.324 656.722 309.873 656.647V657.471C309.399 657.545 308.929 657.583 308.463 657.583ZM311.944 650.686H313.201V651.51C313.331 650.868 314.071 650.546 315.421 650.546C316.286 650.546 316.891 650.705 317.235 651.021C317.589 651.328 317.766 651.817 317.766 652.487V657.443H316.51V652.557C316.51 652.38 316.496 652.236 316.468 652.124C316.44 652.012 316.384 651.901 316.3 651.789C316.114 651.556 315.7 651.44 315.058 651.44C314.564 651.44 314.183 651.477 313.913 651.552C313.652 651.617 313.466 651.729 313.354 651.887C313.252 652.045 313.201 652.268 313.201 652.557V657.443H311.944V650.686ZM323.493 657.583C321.427 657.583 320.394 656.894 320.394 655.517V652.85C320.394 652.031 320.627 651.445 321.092 651.091C321.567 650.728 322.33 650.546 323.382 650.546C324.377 650.546 325.094 650.719 325.532 651.063C325.978 651.407 326.202 652.003 326.202 652.85V654.344H321.664V655.363C321.664 655.828 321.827 656.163 322.153 656.368C322.479 656.573 322.981 656.675 323.661 656.675C324.303 656.675 325.062 656.564 325.936 656.34V657.304C325.08 657.49 324.266 657.583 323.493 657.583ZM324.945 653.52V652.459C324.945 652.05 324.82 651.77 324.568 651.621C324.326 651.463 323.907 651.384 323.312 651.384C322.735 651.384 322.316 651.463 322.055 651.621C321.795 651.77 321.664 652.05 321.664 652.459V653.52H324.945ZM328.815 650.686H330.001V651.789C330.001 651.575 330.094 651.375 330.28 651.189C330.467 650.993 330.704 650.84 330.992 650.728C331.281 650.607 331.565 650.546 331.844 650.546H332.458V651.621H331.76C331.165 651.621 330.732 651.701 330.462 651.859C330.201 652.008 330.071 652.282 330.071 652.682V657.443H328.815V650.686ZM336.473 657.583C335.757 657.583 334.984 657.527 334.156 657.415V656.452C335.245 656.629 336.026 656.717 336.501 656.717C337.097 656.717 337.525 656.661 337.786 656.55C338.046 656.429 338.176 656.21 338.176 655.893V655.209C338.176 654.921 338.079 654.716 337.883 654.595C337.688 654.474 337.371 654.414 336.934 654.414H336.166C335.468 654.414 334.933 654.269 334.561 653.981C334.198 653.692 334.016 653.287 334.016 652.766V652.138C334.016 651.077 335.021 650.546 337.032 650.546C337.181 650.546 337.865 650.584 339.084 650.658V651.566C338.256 651.435 337.553 651.37 336.976 651.37C336.315 651.37 335.864 651.435 335.622 651.566C335.38 651.696 335.259 651.915 335.259 652.222V652.794C335.259 653.25 335.673 653.478 336.501 653.478H337.283C338.707 653.478 339.419 654.009 339.419 655.07V655.656C339.419 656.354 339.177 656.852 338.693 657.15C338.209 657.438 337.469 657.583 336.473 657.583ZM341.854 647.671H343.11V651.51C343.24 650.868 343.98 650.546 345.33 650.546C346.196 650.546 346.8 650.705 347.145 651.021C347.499 651.328 347.675 651.817 347.675 652.487V657.443H346.419V652.571C346.419 652.394 346.405 652.25 346.377 652.138C346.349 652.026 346.293 651.915 346.209 651.803C346.023 651.57 345.609 651.454 344.967 651.454C344.455 651.454 344.064 651.491 343.794 651.566C343.534 651.631 343.352 651.742 343.25 651.901C343.157 652.059 343.11 652.282 343.11 652.571V657.443H341.854V647.671ZM350.555 648.243H351.811V649.555H350.555V648.243ZM350.555 650.686H351.811V657.443H350.555V650.686ZM354.688 650.686H355.931V651.412H355.945C356.047 650.835 356.815 650.546 358.248 650.546C359.105 650.546 359.751 650.728 360.189 651.091C360.626 651.445 360.845 651.901 360.845 652.459V655.237C360.845 655.638 360.785 655.987 360.664 656.284C360.552 656.582 360.403 656.815 360.217 656.982C360.049 657.141 359.817 657.266 359.519 657.359C359.23 657.452 358.942 657.513 358.653 657.541C358.393 657.569 358.076 657.583 357.704 657.583C357.294 657.583 356.917 657.536 356.573 657.443C356.238 657.341 356.029 657.196 355.945 657.01V660.347H354.688V650.686ZM357.732 656.731C358.216 656.731 358.583 656.699 358.835 656.633C359.095 656.559 359.281 656.429 359.393 656.242C359.505 656.056 359.561 655.772 359.561 655.391V652.906C359.561 652.487 359.505 652.175 359.393 651.97C359.281 651.766 359.095 651.631 358.835 651.566C358.583 651.491 358.211 651.454 357.718 651.454C357.225 651.454 356.857 651.491 356.615 651.566C356.373 651.631 356.201 651.766 356.098 651.97C355.996 652.166 355.945 652.478 355.945 652.906V655.391C355.945 655.772 355.996 656.056 356.098 656.242C356.21 656.429 356.392 656.559 356.643 656.633C356.894 656.699 357.257 656.731 357.732 656.731ZM276.935 673.948H280.816V674.953H276.935V673.948ZM283.25 669.383H285.275L288.179 676.921L288.22 676.935L290.971 669.383H292.925V678.443H291.739V670.779H291.669L288.751 678.443H287.536L284.535 670.779H284.465V678.443H283.25V669.383ZM297.97 678.583C297.327 678.583 296.829 678.522 296.476 678.401C296.131 678.28 295.88 678.066 295.722 677.759C295.573 677.452 295.499 677.01 295.499 676.433C295.499 675.921 295.568 675.525 295.708 675.246C295.857 674.958 296.104 674.753 296.448 674.632C296.802 674.511 297.299 674.45 297.942 674.45H299.966V673.375C299.966 673.124 299.915 672.933 299.812 672.803C299.719 672.663 299.556 672.566 299.324 672.51C299.1 672.454 298.77 672.426 298.333 672.426C297.635 672.426 296.862 672.482 296.015 672.594V671.672C296.937 671.588 297.77 671.546 298.514 671.546C299.296 671.546 299.873 671.607 300.245 671.728C300.618 671.84 300.873 672.04 301.013 672.328C301.153 672.617 301.222 673.064 301.222 673.669V678.443H300.008V677.801C299.906 678.322 299.226 678.583 297.97 678.583ZM298.179 677.759C298.635 677.759 299.021 677.726 299.338 677.661C299.757 677.578 299.966 677.382 299.966 677.075V675.232H298.025C297.625 675.232 297.337 675.265 297.16 675.33C296.983 675.386 296.867 675.497 296.811 675.665C296.755 675.832 296.727 676.102 296.727 676.475C296.727 676.81 296.76 677.07 296.825 677.256C296.89 677.433 297.006 677.564 297.174 677.647C297.341 677.722 297.593 677.759 297.928 677.759H298.179ZM304.1 671.686H305.286V672.789C305.286 672.575 305.379 672.375 305.565 672.189C305.752 671.993 305.989 671.84 306.277 671.728C306.566 671.607 306.85 671.546 307.129 671.546H307.743V672.621H307.045C306.45 672.621 306.017 672.701 305.747 672.859C305.486 673.008 305.356 673.282 305.356 673.682V678.443H304.1V671.686ZM309.692 668.671H310.949V678.443H309.692V668.671ZM311.102 674.744L313.95 671.686H315.486L312.554 674.744L315.751 678.443H314.187L311.102 674.744ZM320.409 678.583C318.343 678.583 317.31 677.894 317.31 676.517V673.85C317.31 673.031 317.543 672.445 318.008 672.091C318.483 671.728 319.246 671.546 320.298 671.546C321.294 671.546 322.01 671.719 322.448 672.063C322.894 672.407 323.118 673.003 323.118 673.85V675.344H318.581V676.363C318.581 676.828 318.743 677.163 319.069 677.368C319.395 677.573 319.897 677.675 320.577 677.675C321.219 677.675 321.978 677.564 322.853 677.34V678.304C321.996 678.49 321.182 678.583 320.409 678.583ZM321.861 674.52V673.459C321.861 673.05 321.736 672.77 321.484 672.621C321.242 672.463 320.824 672.384 320.228 672.384C319.651 672.384 319.232 672.463 318.971 672.621C318.711 672.77 318.581 673.05 318.581 673.459V674.52H321.861ZM328.565 678.583C327.988 678.583 327.536 678.522 327.21 678.401C326.885 678.271 326.647 678.057 326.498 677.759C326.359 677.452 326.289 677.024 326.289 676.475V672.51H324.781V671.686H326.289V669.592H327.559V671.686H329.975V672.51H327.559V676.544C327.559 676.88 327.597 677.131 327.671 677.298C327.755 677.466 327.895 677.587 328.09 677.661C328.295 677.726 328.588 677.759 328.97 677.759C329.091 677.759 329.426 677.722 329.975 677.647V678.471C329.5 678.545 329.03 678.583 328.565 678.583ZM332.046 669.243H333.302V670.555H332.046V669.243ZM332.046 671.686H333.302V678.443H332.046V671.686ZM336.179 671.686H337.436V672.51C337.566 671.868 338.306 671.546 339.656 671.546C340.521 671.546 341.126 671.705 341.471 672.021C341.824 672.328 342.001 672.817 342.001 673.487V678.443H340.745V673.557C340.745 673.38 340.731 673.236 340.703 673.124C340.675 673.012 340.619 672.901 340.535 672.789C340.349 672.556 339.935 672.44 339.293 672.44C338.799 672.44 338.418 672.477 338.148 672.552C337.887 672.617 337.701 672.729 337.589 672.887C337.487 673.045 337.436 673.268 337.436 673.557V678.443H336.179V671.686ZM347.435 681.514C346.514 681.514 345.737 681.463 345.104 681.361V680.467C346.221 680.598 347.035 680.663 347.547 680.663C348.189 680.663 348.654 680.561 348.943 680.356C349.241 680.151 349.39 679.811 349.39 679.337V677.717C349.371 678.015 349.166 678.234 348.775 678.373C348.394 678.513 347.91 678.583 347.323 678.583C346.625 678.583 346.081 678.518 345.69 678.387C345.308 678.257 345.034 678.043 344.866 677.745C344.708 677.447 344.629 677.042 344.629 676.53V673.78C344.629 672.98 344.843 672.407 345.271 672.063C345.709 671.719 346.421 671.546 347.407 671.546C348.58 671.546 349.269 671.812 349.473 672.342V671.686H350.646V679.085C350.646 679.709 350.53 680.198 350.297 680.551C350.064 680.905 349.715 681.152 349.25 681.291C348.785 681.44 348.18 681.514 347.435 681.514ZM347.589 677.745C348.25 677.745 348.715 677.666 348.985 677.508C349.255 677.35 349.39 677.052 349.39 676.614V673.557C349.39 673.25 349.338 673.017 349.236 672.859C349.143 672.701 348.966 672.589 348.706 672.524C348.445 672.449 348.063 672.412 347.561 672.412C347.086 672.412 346.728 672.445 346.486 672.51C346.253 672.575 346.09 672.691 345.997 672.859C345.913 673.017 345.872 673.25 345.872 673.557V676.614C345.872 676.931 345.918 677.168 346.011 677.326C346.104 677.484 346.272 677.596 346.514 677.661C346.756 677.717 347.114 677.745 347.589 677.745ZM276.935 694.948H280.816V695.953H276.935V694.948ZM283.25 690.383H286.21C286.629 690.383 286.964 690.392 287.215 690.41C287.476 690.429 287.75 690.471 288.039 690.536C288.337 690.601 288.574 690.699 288.751 690.829C288.937 690.96 289.095 691.136 289.226 691.36C289.347 691.574 289.407 691.844 289.407 692.17V694.054C289.407 694.808 289.114 695.353 288.528 695.688C287.95 696.013 287.094 696.176 285.959 696.176H284.605V699.443H283.25V690.383ZM286.14 695.325C286.727 695.325 287.197 695.218 287.55 695.004C287.904 694.79 288.081 694.45 288.081 693.984V692.337C288.081 692.086 288.016 691.881 287.885 691.723C287.755 691.555 287.569 691.439 287.327 691.374C287.094 691.318 286.899 691.281 286.741 691.262C286.582 691.243 286.373 691.234 286.112 691.234H284.591V695.325H286.14ZM291.827 692.686H293.013V693.789C293.013 693.575 293.106 693.375 293.293 693.189C293.479 692.993 293.716 692.84 294.005 692.728C294.293 692.607 294.577 692.546 294.856 692.546H295.47V693.621H294.772C294.177 693.621 293.744 693.701 293.474 693.859C293.213 694.008 293.083 694.282 293.083 694.682V699.443H291.827V692.686ZM300.281 699.583C299.685 699.583 299.239 699.559 298.941 699.513C298.643 699.476 298.345 699.387 298.047 699.248C297.74 699.108 297.517 698.885 297.377 698.578C297.238 698.261 297.168 697.838 297.168 697.307V694.962C297.168 694.543 297.219 694.175 297.321 693.859C297.424 693.542 297.559 693.296 297.726 693.119C297.866 692.961 298.075 692.84 298.355 692.756C298.643 692.663 298.936 692.602 299.234 692.574C299.569 692.556 299.918 692.546 300.281 692.546C300.765 692.546 301.128 692.56 301.37 692.588C301.621 692.607 301.887 692.654 302.166 692.728C302.454 692.812 302.678 692.937 302.836 693.105C302.994 693.272 303.129 693.514 303.241 693.831C303.343 694.157 303.394 694.534 303.394 694.962V697.307C303.394 698.098 303.213 698.675 302.85 699.038C302.701 699.187 302.487 699.304 302.208 699.387C301.928 699.471 301.64 699.527 301.342 699.555C300.988 699.573 300.635 699.583 300.281 699.583ZM300.281 698.759C300.672 698.759 300.956 698.75 301.133 698.731C301.31 698.713 301.482 698.661 301.649 698.578C301.817 698.503 301.933 698.382 301.998 698.215C302.073 698.038 302.11 697.796 302.11 697.489V694.752C302.11 694.333 302.059 694.031 301.956 693.845C301.854 693.649 301.677 693.524 301.426 693.468C301.184 693.403 300.802 693.37 300.281 693.37C299.76 693.37 299.374 693.403 299.122 693.468C298.88 693.524 298.708 693.649 298.606 693.845C298.503 694.031 298.452 694.333 298.452 694.752V697.489C298.452 697.796 298.485 698.038 298.55 698.215C298.624 698.382 298.745 698.503 298.913 698.578C299.08 698.661 299.253 698.713 299.429 698.731C299.606 698.75 299.89 698.759 300.281 698.759ZM306.066 690.243H307.322V691.555H306.066V690.243ZM305.075 702.514C304.814 702.514 304.577 702.496 304.363 702.459V701.635C304.558 701.672 304.735 701.691 304.893 701.691C305.303 701.691 305.601 701.607 305.787 701.44C305.973 701.281 306.066 700.988 306.066 700.56V692.686H307.322V700.462C307.322 701.216 307.146 701.747 306.792 702.054C306.438 702.361 305.866 702.514 305.075 702.514ZM313.047 699.583C310.981 699.583 309.948 698.894 309.948 697.517V694.85C309.948 694.031 310.181 693.445 310.646 693.091C311.121 692.728 311.884 692.546 312.936 692.546C313.931 692.546 314.648 692.719 315.086 693.063C315.532 693.407 315.756 694.003 315.756 694.85V696.344H311.218V697.363C311.218 697.828 311.381 698.163 311.707 698.368C312.033 698.573 312.535 698.675 313.215 698.675C313.857 698.675 314.616 698.564 315.49 698.34V699.304C314.634 699.49 313.82 699.583 313.047 699.583ZM314.499 695.52V694.459C314.499 694.05 314.374 693.77 314.122 693.621C313.88 693.463 313.461 693.384 312.866 693.384C312.289 693.384 311.87 693.463 311.609 693.621C311.349 693.77 311.218 694.05 311.218 694.459V695.52H314.499ZM321.091 699.583C320.625 699.583 320.286 699.573 320.072 699.555C319.867 699.536 319.63 699.49 319.36 699.415C319.071 699.341 318.848 699.229 318.69 699.08C318.531 698.931 318.396 698.713 318.285 698.424C318.173 698.145 318.117 697.796 318.117 697.377V694.892C318.117 694.138 318.261 693.598 318.55 693.272C318.708 693.086 318.866 692.947 319.025 692.854C319.192 692.751 319.406 692.681 319.667 692.644C319.927 692.607 320.16 692.584 320.365 692.574C320.57 692.556 320.858 692.546 321.23 692.546C321.873 692.546 322.515 692.616 323.157 692.756V693.677C322.412 693.491 321.719 693.398 321.077 693.398C320.593 693.398 320.235 693.435 320.002 693.51C319.779 693.575 319.62 693.701 319.527 693.887C319.443 694.064 319.402 694.338 319.402 694.71V697.475C319.402 697.819 319.448 698.075 319.541 698.242C319.644 698.41 319.82 698.531 320.072 698.605C320.332 698.671 320.714 698.703 321.217 698.703C321.896 698.703 322.575 698.615 323.255 698.438V699.387C322.622 699.518 321.901 699.583 321.091 699.583ZM328.377 699.583C327.799 699.583 327.348 699.522 327.022 699.401C326.697 699.271 326.459 699.057 326.31 698.759C326.171 698.452 326.101 698.024 326.101 697.475V693.51H324.593V692.686H326.101V690.592H327.371V692.686H329.787V693.51H327.371V697.544C327.371 697.88 327.409 698.131 327.483 698.298C327.567 698.466 327.706 698.587 327.902 698.661C328.107 698.726 328.4 698.759 328.781 698.759C328.902 698.759 329.237 698.722 329.787 698.647V699.471C329.312 699.545 328.842 699.583 328.377 699.583ZM335.857 690.383H337.211V699.443H335.857V690.383ZM340.25 690.383H343.852C346.392 690.383 347.663 691.248 347.663 692.979V696.986C347.663 698.624 346.397 699.443 343.865 699.443H340.25V690.383ZM343.768 698.522C345.499 698.522 346.364 698.001 346.364 696.958V692.965C346.364 692.63 346.295 692.346 346.155 692.114C346.015 691.881 345.82 691.709 345.569 691.597C345.317 691.495 345.057 691.425 344.787 691.388C344.517 691.341 344.201 691.318 343.838 691.318H341.604V698.522H343.768ZM353.969 699.583C351.437 699.583 350.172 698.764 350.172 697.126V692.84C350.172 691.109 351.437 690.243 353.969 690.243C356.529 690.243 357.808 691.104 357.808 692.826V697.126C357.808 698.001 357.455 698.629 356.747 699.01C356.04 699.392 355.114 699.583 353.969 699.583ZM353.997 698.675C355.663 698.675 356.496 698.154 356.496 697.112V692.798C356.496 691.681 355.658 691.122 353.983 691.122C353.173 691.122 352.55 691.248 352.112 691.499C351.684 691.751 351.47 692.184 351.47 692.798V697.112C351.47 698.154 352.312 698.675 353.997 698.675ZM362.579 699.583C361.862 699.583 361.09 699.527 360.261 699.415V698.452C361.35 698.629 362.132 698.717 362.607 698.717C363.202 698.717 363.631 698.661 363.891 698.55C364.152 698.429 364.282 698.21 364.282 697.893V697.209C364.282 696.921 364.184 696.716 363.989 696.595C363.793 696.474 363.477 696.414 363.04 696.414H362.272C361.574 696.414 361.038 696.269 360.666 695.981C360.303 695.692 360.122 695.287 360.122 694.766V694.138C360.122 693.077 361.127 692.546 363.137 692.546C363.286 692.546 363.97 692.584 365.189 692.658V693.566C364.361 693.435 363.658 693.37 363.081 693.37C362.421 693.37 361.969 693.435 361.727 693.566C361.485 693.696 361.364 693.915 361.364 694.222V694.794C361.364 695.25 361.778 695.478 362.607 695.478H363.389C364.813 695.478 365.525 696.009 365.525 697.07V697.656C365.525 698.354 365.283 698.852 364.799 699.15C364.315 699.438 363.575 699.583 362.579 699.583Z" fill="white"/>
<path d="M748.661 466.658H752.542V467.663H748.661V466.658ZM754.279 462.093H757.88C760.421 462.093 761.692 462.958 761.692 464.689V468.696C761.692 470.334 760.426 471.153 757.894 471.153H754.279V462.093ZM757.797 470.232C759.528 470.232 760.393 469.71 760.393 468.668V464.675C760.393 464.34 760.324 464.056 760.184 463.824C760.044 463.591 759.849 463.419 759.598 463.307C759.346 463.205 759.086 463.135 758.816 463.098C758.546 463.051 758.229 463.028 757.866 463.028H755.633V470.232H757.797ZM766.532 471.293C765.936 471.293 765.49 471.269 765.192 471.223C764.894 471.186 764.596 471.097 764.298 470.958C763.991 470.818 763.768 470.595 763.628 470.288C763.489 469.971 763.419 469.548 763.419 469.017V466.672C763.419 466.253 763.47 465.885 763.572 465.569C763.675 465.252 763.81 465.006 763.977 464.829C764.117 464.671 764.326 464.55 764.605 464.466C764.894 464.373 765.187 464.312 765.485 464.284C765.82 464.266 766.169 464.256 766.532 464.256C767.016 464.256 767.379 464.27 767.621 464.298C767.872 464.317 768.138 464.363 768.417 464.438C768.705 464.522 768.929 464.647 769.087 464.815C769.245 464.982 769.38 465.224 769.492 465.541C769.594 465.867 769.645 466.244 769.645 466.672V469.017C769.645 469.808 769.464 470.385 769.101 470.748C768.952 470.897 768.738 471.013 768.459 471.097C768.179 471.181 767.891 471.237 767.593 471.265C767.239 471.283 766.886 471.293 766.532 471.293ZM766.532 470.469C766.923 470.469 767.207 470.46 767.384 470.441C767.561 470.422 767.733 470.371 767.9 470.288C768.068 470.213 768.184 470.092 768.249 469.925C768.324 469.748 768.361 469.506 768.361 469.199V466.462C768.361 466.043 768.31 465.741 768.207 465.555C768.105 465.359 767.928 465.234 767.677 465.178C767.435 465.113 767.053 465.08 766.532 465.08C766.011 465.08 765.625 465.113 765.373 465.178C765.131 465.234 764.959 465.359 764.857 465.555C764.754 465.741 764.703 466.043 764.703 466.462V469.199C764.703 469.506 764.736 469.748 764.801 469.925C764.875 470.092 764.996 470.213 765.164 470.288C765.331 470.371 765.504 470.422 765.68 470.441C765.857 470.46 766.141 470.469 766.532 470.469ZM774.439 471.293C773.862 471.293 773.41 471.232 773.085 471.111C772.759 470.981 772.522 470.767 772.373 470.469C772.233 470.162 772.163 469.734 772.163 469.185V465.22H770.656V464.396H772.163V462.302H773.434V464.396H775.849V465.22H773.434V469.254C773.434 469.589 773.471 469.841 773.545 470.008C773.629 470.176 773.769 470.297 773.964 470.371C774.169 470.436 774.462 470.469 774.844 470.469C774.965 470.469 775.3 470.432 775.849 470.357V471.181C775.374 471.255 774.904 471.293 774.439 471.293ZM777.306 462.093H778.66V470.204H783.113V471.153H777.306V462.093ZM786.555 471.293C785.913 471.293 785.415 471.232 785.061 471.111C784.717 470.99 784.466 470.776 784.307 470.469C784.158 470.162 784.084 469.72 784.084 469.143C784.084 468.631 784.154 468.235 784.293 467.956C784.442 467.668 784.689 467.463 785.033 467.342C785.387 467.221 785.885 467.16 786.527 467.16H788.551V466.085C788.551 465.834 788.5 465.643 788.398 465.513C788.305 465.373 788.142 465.276 787.909 465.22C787.686 465.164 787.356 465.136 786.918 465.136C786.22 465.136 785.448 465.192 784.601 465.304V464.382C785.522 464.298 786.355 464.256 787.1 464.256C787.881 464.256 788.458 464.317 788.831 464.438C789.203 464.55 789.459 464.75 789.599 465.038C789.738 465.327 789.808 465.774 789.808 466.378V471.153H788.593V470.511C788.491 471.032 787.812 471.293 786.555 471.293ZM786.765 470.469C787.221 470.469 787.607 470.436 787.923 470.371C788.342 470.288 788.551 470.092 788.551 469.785V467.942H786.611C786.211 467.942 785.922 467.975 785.745 468.04C785.569 468.096 785.452 468.207 785.396 468.375C785.341 468.542 785.313 468.812 785.313 469.185C785.313 469.52 785.345 469.78 785.41 469.966C785.475 470.143 785.592 470.274 785.759 470.357C785.927 470.432 786.178 470.469 786.513 470.469H786.765ZM794.332 471.293C793.467 471.293 792.857 471.139 792.504 470.832C792.159 470.516 791.987 470.022 791.987 469.352V464.396H793.244V469.282C793.244 469.459 793.257 469.603 793.285 469.715C793.323 469.817 793.383 469.925 793.467 470.036C793.634 470.278 794.044 470.399 794.695 470.399C795.384 470.399 795.868 470.334 796.147 470.204C796.417 470.073 796.552 469.836 796.552 469.492V464.396H797.809V471.153H796.552V470.329C796.431 470.972 795.691 471.293 794.332 471.293ZM799.99 464.396H801.246V465.22C801.377 464.578 802.117 464.256 803.466 464.256C804.332 464.256 804.937 464.415 805.281 464.731C805.635 465.038 805.812 465.527 805.812 466.197V471.153H804.555V466.267C804.555 466.09 804.541 465.946 804.513 465.834C804.485 465.722 804.429 465.611 804.346 465.499C804.16 465.266 803.745 465.15 803.103 465.15C802.61 465.15 802.228 465.187 801.958 465.262C801.698 465.327 801.512 465.438 801.4 465.597C801.298 465.755 801.246 465.978 801.246 466.267V471.153H799.99V464.396ZM810.715 471.293C810.25 471.293 809.91 471.283 809.696 471.265C809.491 471.246 809.254 471.2 808.984 471.125C808.696 471.051 808.472 470.939 808.314 470.79C808.156 470.641 808.021 470.422 807.909 470.134C807.797 469.855 807.742 469.506 807.742 469.087V466.602C807.742 465.848 807.886 465.308 808.174 464.982C808.333 464.796 808.491 464.657 808.649 464.564C808.817 464.461 809.031 464.391 809.291 464.354C809.552 464.317 809.784 464.294 809.989 464.284C810.194 464.266 810.483 464.256 810.855 464.256C811.497 464.256 812.139 464.326 812.781 464.466V465.387C812.037 465.201 811.343 465.108 810.701 465.108C810.217 465.108 809.859 465.145 809.626 465.22C809.403 465.285 809.245 465.411 809.152 465.597C809.068 465.774 809.026 466.048 809.026 466.42V469.185C809.026 469.529 809.072 469.785 809.166 469.952C809.268 470.12 809.445 470.241 809.696 470.315C809.957 470.381 810.338 470.413 810.841 470.413C811.52 470.413 812.2 470.325 812.879 470.148V471.097C812.246 471.228 811.525 471.293 810.715 471.293ZM814.469 461.381H815.725V465.22C815.856 464.578 816.596 464.256 817.945 464.256C818.811 464.256 819.416 464.415 819.76 464.731C820.114 465.038 820.29 465.527 820.29 466.197V471.153H819.034V466.281C819.034 466.104 819.02 465.96 818.992 465.848C818.964 465.736 818.908 465.625 818.825 465.513C818.638 465.28 818.224 465.164 817.582 465.164C817.07 465.164 816.679 465.201 816.409 465.276C816.149 465.341 815.967 465.452 815.865 465.611C815.772 465.769 815.725 465.992 815.725 466.281V471.153H814.469V461.381ZM828.007 463.042H824.935V462.093H832.432V463.042H829.375V471.153H828.007V463.042ZM836.718 471.293C836.122 471.293 835.675 471.269 835.377 471.223C835.08 471.186 834.782 471.097 834.484 470.958C834.177 470.818 833.953 470.595 833.814 470.288C833.674 469.971 833.604 469.548 833.604 469.017V466.672C833.604 466.253 833.656 465.885 833.758 465.569C833.86 465.252 833.995 465.006 834.163 464.829C834.303 464.671 834.512 464.55 834.791 464.466C835.08 464.373 835.373 464.312 835.671 464.284C836.006 464.266 836.355 464.256 836.718 464.256C837.202 464.256 837.565 464.27 837.807 464.298C838.058 464.317 838.323 464.363 838.602 464.438C838.891 464.522 839.114 464.647 839.273 464.815C839.431 464.982 839.566 465.224 839.677 465.541C839.78 465.867 839.831 466.244 839.831 466.672V469.017C839.831 469.808 839.649 470.385 839.287 470.748C839.138 470.897 838.924 471.013 838.644 471.097C838.365 471.181 838.077 471.237 837.779 471.265C837.425 471.283 837.071 471.293 836.718 471.293ZM836.718 470.469C837.109 470.469 837.392 470.46 837.569 470.441C837.746 470.422 837.918 470.371 838.086 470.288C838.253 470.213 838.37 470.092 838.435 469.925C838.509 469.748 838.547 469.506 838.547 469.199V466.462C838.547 466.043 838.495 465.741 838.393 465.555C838.291 465.359 838.114 465.234 837.863 465.178C837.621 465.113 837.239 465.08 836.718 465.08C836.197 465.08 835.81 465.113 835.559 465.178C835.317 465.234 835.145 465.359 835.042 465.555C834.94 465.741 834.889 466.043 834.889 466.462V469.199C834.889 469.506 834.921 469.748 834.987 469.925C835.061 470.092 835.182 470.213 835.35 470.288C835.517 470.371 835.689 470.422 835.866 470.441C836.043 470.46 836.327 470.469 836.718 470.469ZM841.791 461.381H843.047V471.153H841.791V461.381ZM843.201 467.453L846.049 464.396H847.584L844.652 467.453L847.849 471.153H846.286L843.201 467.453ZM851.81 471.293C849.744 471.293 848.71 470.604 848.71 469.226V466.56C848.71 465.741 848.943 465.155 849.409 464.801C849.883 464.438 850.646 464.256 851.698 464.256C852.694 464.256 853.411 464.429 853.848 464.773C854.295 465.117 854.518 465.713 854.518 466.56V468.054H849.981V469.073C849.981 469.538 850.144 469.873 850.47 470.078C850.795 470.283 851.298 470.385 851.977 470.385C852.619 470.385 853.378 470.274 854.253 470.05V471.013C853.397 471.2 852.582 471.293 851.81 471.293ZM853.262 467.23V466.169C853.262 465.76 853.136 465.48 852.885 465.331C852.643 465.173 852.224 465.094 851.628 465.094C851.051 465.094 850.632 465.173 850.372 465.331C850.111 465.48 849.981 465.76 849.981 466.169V467.23H853.262ZM856.433 464.396H857.689V465.22C857.82 464.578 858.56 464.256 859.909 464.256C860.775 464.256 861.38 464.415 861.724 464.731C862.078 465.038 862.255 465.527 862.255 466.197V471.153H860.998V466.267C860.998 466.09 860.984 465.946 860.956 465.834C860.928 465.722 860.872 465.611 860.789 465.499C860.603 465.266 860.188 465.15 859.546 465.15C859.053 465.15 858.671 465.187 858.401 465.262C858.141 465.327 857.955 465.438 857.843 465.597C857.741 465.755 857.689 465.978 857.689 466.267V471.153H856.433V464.396ZM871.632 471.293C871.204 471.293 870.822 471.274 870.487 471.237C870.162 471.2 869.817 471.13 869.454 471.027C869.045 470.916 868.7 470.776 868.421 470.609C868.142 470.432 867.914 470.194 867.737 469.897C867.551 469.58 867.458 469.226 867.458 468.836V464.55C867.458 464.028 867.593 463.582 867.863 463.209C868.133 462.837 868.505 462.567 868.98 462.4C869.436 462.241 869.869 462.13 870.278 462.065C870.697 461.99 871.148 461.953 871.632 461.953C872.786 461.953 873.829 462.027 874.759 462.176V463.223C874.406 463.14 873.899 463.065 873.238 463C872.586 462.926 872.06 462.888 871.66 462.888C869.752 462.888 868.798 463.437 868.798 464.536V468.808C868.798 469.105 868.887 469.366 869.063 469.589C869.25 469.813 869.501 469.976 869.817 470.078C870.115 470.19 870.413 470.269 870.711 470.315C871.009 470.353 871.344 470.371 871.716 470.371C872.34 470.371 873.005 470.288 873.712 470.12V466.951H871.59V466.002H874.969V470.874C873.759 471.153 872.647 471.293 871.632 471.293ZM879.799 471.293C877.733 471.293 876.7 470.604 876.7 469.226V466.56C876.7 465.741 876.933 465.155 877.398 464.801C877.873 464.438 878.636 464.256 879.688 464.256C880.684 464.256 881.4 464.429 881.838 464.773C882.285 465.117 882.508 465.713 882.508 466.56V468.054H877.971V469.073C877.971 469.538 878.134 469.873 878.459 470.078C878.785 470.283 879.288 470.385 879.967 470.385C880.609 470.385 881.368 470.274 882.243 470.05V471.013C881.386 471.2 880.572 471.293 879.799 471.293ZM881.251 467.23V466.169C881.251 465.76 881.126 465.48 880.874 465.331C880.632 465.173 880.214 465.094 879.618 465.094C879.041 465.094 878.622 465.173 878.362 465.331C878.101 465.48 877.971 465.76 877.971 466.169V467.23H881.251ZM884.423 464.396H885.679V465.22C885.809 464.578 886.549 464.256 887.899 464.256C888.765 464.256 889.369 464.415 889.714 464.731C890.068 465.038 890.244 465.527 890.244 466.197V471.153H888.988V466.267C888.988 466.09 888.974 465.946 888.946 465.834C888.918 465.722 888.862 465.611 888.778 465.499C888.592 465.266 888.178 465.15 887.536 465.15C887.043 465.15 886.661 465.187 886.391 465.262C886.131 465.327 885.944 465.438 885.833 465.597C885.73 465.755 885.679 465.978 885.679 466.267V471.153H884.423V464.396ZM895.274 471.293C893.207 471.293 892.174 470.604 892.174 469.226V466.56C892.174 465.741 892.407 465.155 892.872 464.801C893.347 464.438 894.11 464.256 895.162 464.256C896.158 464.256 896.874 464.429 897.312 464.773C897.759 465.117 897.982 465.713 897.982 466.56V468.054H893.445V469.073C893.445 469.538 893.608 469.873 893.933 470.078C894.259 470.283 894.762 470.385 895.441 470.385C896.083 470.385 896.842 470.274 897.717 470.05V471.013C896.86 471.2 896.046 471.293 895.274 471.293ZM896.726 467.23V466.169C896.726 465.76 896.6 465.48 896.349 465.331C896.107 465.173 895.688 465.094 895.092 465.094C894.515 465.094 894.096 465.173 893.836 465.331C893.575 465.48 893.445 465.76 893.445 466.169V467.23H896.726ZM899.897 464.396H901.083V465.499C901.083 465.285 901.177 465.085 901.363 464.899C901.549 464.703 901.786 464.55 902.075 464.438C902.363 464.317 902.647 464.256 902.926 464.256H903.541V465.331H902.843C902.247 465.331 901.814 465.411 901.544 465.569C901.284 465.718 901.153 465.992 901.153 466.392V471.153H899.897V464.396ZM906.871 471.293C906.229 471.293 905.731 471.232 905.378 471.111C905.033 470.99 904.782 470.776 904.624 470.469C904.475 470.162 904.4 469.72 904.4 469.143C904.4 468.631 904.47 468.235 904.61 467.956C904.759 467.668 905.005 467.463 905.35 467.342C905.703 467.221 906.201 467.16 906.844 467.16H908.868V466.085C908.868 465.834 908.817 465.643 908.714 465.513C908.621 465.373 908.458 465.276 908.226 465.22C908.002 465.164 907.672 465.136 907.234 465.136C906.536 465.136 905.764 465.192 904.917 465.304V464.382C905.838 464.298 906.671 464.256 907.416 464.256C908.198 464.256 908.775 464.317 909.147 464.438C909.519 464.55 909.775 464.75 909.915 465.038C910.054 465.327 910.124 465.774 910.124 466.378V471.153H908.91V470.511C908.807 471.032 908.128 471.293 906.871 471.293ZM907.081 470.469C907.537 470.469 907.923 470.436 908.24 470.371C908.658 470.288 908.868 470.092 908.868 469.785V467.942H906.927C906.527 467.942 906.239 467.975 906.062 468.04C905.885 468.096 905.769 468.207 905.713 468.375C905.657 468.542 905.629 468.812 905.629 469.185C905.629 469.52 905.661 469.78 905.727 469.966C905.792 470.143 905.908 470.274 906.076 470.357C906.243 470.432 906.494 470.469 906.83 470.469H907.081ZM915.137 471.293C914.56 471.293 914.109 471.232 913.783 471.111C913.457 470.981 913.22 470.767 913.071 470.469C912.932 470.162 912.862 469.734 912.862 469.185V465.22H911.354V464.396H912.862V462.302H914.132V464.396H916.547V465.22H914.132V469.254C914.132 469.589 914.169 469.841 914.244 470.008C914.328 470.176 914.467 470.297 914.663 470.371C914.868 470.436 915.161 470.469 915.542 470.469C915.663 470.469 915.998 470.432 916.547 470.357V471.181C916.073 471.255 915.603 471.293 915.137 471.293ZM917.92 461.953H919.177V463.265H917.92V461.953ZM917.92 464.396H919.177V471.153H917.92V464.396ZM924.218 471.293C923.622 471.293 923.176 471.269 922.878 471.223C922.58 471.186 922.282 471.097 921.984 470.958C921.677 470.818 921.454 470.595 921.314 470.288C921.175 469.971 921.105 469.548 921.105 469.017V466.672C921.105 466.253 921.156 465.885 921.258 465.569C921.361 465.252 921.496 465.006 921.663 464.829C921.803 464.671 922.012 464.55 922.291 464.466C922.58 464.373 922.873 464.312 923.171 464.284C923.506 464.266 923.855 464.256 924.218 464.256C924.702 464.256 925.065 464.27 925.307 464.298C925.558 464.317 925.824 464.363 926.103 464.438C926.391 464.522 926.615 464.647 926.773 464.815C926.931 464.982 927.066 465.224 927.178 465.541C927.28 465.867 927.331 466.244 927.331 466.672V469.017C927.331 469.808 927.15 470.385 926.787 470.748C926.638 470.897 926.424 471.013 926.145 471.097C925.865 471.181 925.577 471.237 925.279 471.265C924.925 471.283 924.572 471.293 924.218 471.293ZM924.218 470.469C924.609 470.469 924.893 470.46 925.07 470.441C925.246 470.422 925.419 470.371 925.586 470.288C925.754 470.213 925.87 470.092 925.935 469.925C926.01 469.748 926.047 469.506 926.047 469.199V466.462C926.047 466.043 925.996 465.741 925.893 465.555C925.791 465.359 925.614 465.234 925.363 465.178C925.121 465.113 924.739 465.08 924.218 465.08C923.697 465.08 923.311 465.113 923.059 465.178C922.817 465.234 922.645 465.359 922.543 465.555C922.44 465.741 922.389 466.043 922.389 466.462V469.199C922.389 469.506 922.422 469.748 922.487 469.925C922.561 470.092 922.682 470.213 922.85 470.288C923.017 470.371 923.19 470.422 923.366 470.441C923.543 470.46 923.827 470.469 924.218 470.469ZM929.291 464.396H930.547V465.22C930.678 464.578 931.417 464.256 932.767 464.256C933.633 464.256 934.238 464.415 934.582 464.731C934.936 465.038 935.112 465.527 935.112 466.197V471.153H933.856V466.267C933.856 466.09 933.842 465.946 933.814 465.834C933.786 465.722 933.73 465.611 933.647 465.499C933.46 465.266 933.046 465.15 932.404 465.15C931.911 465.15 931.529 465.187 931.259 465.262C930.999 465.327 930.813 465.438 930.701 465.597C930.598 465.755 930.547 465.978 930.547 466.267V471.153H929.291V464.396ZM940.595 462.093H946.682V463.042H941.949V466.002H946.221V466.951H941.949V470.204H946.822V471.153H940.595V462.093ZM947.604 464.396H948.931L950.801 470.064H950.871L952.686 464.396H953.901L951.541 471.153H950.034L947.604 464.396ZM957.92 471.293C955.854 471.293 954.821 470.604 954.821 469.226V466.56C954.821 465.741 955.053 465.155 955.519 464.801C955.993 464.438 956.756 464.256 957.808 464.256C958.804 464.256 959.521 464.429 959.958 464.773C960.405 465.117 960.628 465.713 960.628 466.56V468.054H956.091V469.073C956.091 469.538 956.254 469.873 956.58 470.078C956.905 470.283 957.408 470.385 958.087 470.385C958.73 470.385 959.488 470.274 960.363 470.05V471.013C959.507 471.2 958.692 471.293 957.92 471.293ZM959.372 467.23V466.169C959.372 465.76 959.246 465.48 958.995 465.331C958.753 465.173 958.334 465.094 957.738 465.094C957.161 465.094 956.743 465.173 956.482 465.331C956.221 465.48 956.091 465.76 956.091 466.169V467.23H959.372ZM962.543 464.396H963.8V465.22C963.93 464.578 964.67 464.256 966.019 464.256C966.885 464.256 967.49 464.415 967.834 464.731C968.188 465.038 968.365 465.527 968.365 466.197V471.153H967.108V466.267C967.108 466.09 967.094 465.946 967.066 465.834C967.038 465.722 966.983 465.611 966.899 465.499C966.713 465.266 966.299 465.15 965.656 465.15C965.163 465.15 964.781 465.187 964.512 465.262C964.251 465.327 964.065 465.438 963.953 465.597C963.851 465.755 963.8 465.978 963.8 466.267V471.153H962.543V464.396ZM973.38 471.293C972.803 471.293 972.352 471.232 972.026 471.111C971.7 470.981 971.463 470.767 971.314 470.469C971.174 470.162 971.104 469.734 971.104 469.185V465.22H969.597V464.396H971.104V462.302H972.375V464.396H974.79V465.22H972.375V469.254C972.375 469.589 972.412 469.841 972.487 470.008C972.57 470.176 972.71 470.297 972.905 470.371C973.11 470.436 973.403 470.469 973.785 470.469C973.906 470.469 974.241 470.432 974.79 470.357V471.181C974.315 471.255 973.845 471.293 973.38 471.293ZM748.661 487.658H752.542V488.663H748.661V487.658ZM754.279 483.093H757.88C760.421 483.093 761.692 483.958 761.692 485.689V489.696C761.692 491.334 760.426 492.153 757.894 492.153H754.279V483.093ZM757.797 491.232C759.528 491.232 760.393 490.71 760.393 489.668V485.675C760.393 485.34 760.324 485.056 760.184 484.824C760.044 484.591 759.849 484.419 759.598 484.307C759.346 484.205 759.086 484.135 758.816 484.098C758.546 484.051 758.229 484.028 757.866 484.028H755.633V491.232H757.797ZM765.988 484.042H762.916V483.093H770.413V484.042H767.356V492.153H765.988V484.042ZM771.92 483.093H773.275V492.153H771.92V483.093ZM773.302 487.337L777.351 483.093H778.985L774.908 487.281L779.389 492.153H777.63L773.302 487.337ZM785.977 492.293C785.307 492.293 784.781 492.228 784.399 492.097C784.018 491.958 783.738 491.734 783.561 491.427C783.394 491.12 783.31 490.692 783.31 490.143V487.169C783.31 486.49 783.52 486.001 783.938 485.703C784.367 485.405 785.069 485.256 786.047 485.256C786.633 485.256 787.135 485.331 787.554 485.48C787.982 485.629 788.201 485.843 788.21 486.122H788.238L788.21 484.405V482.381H789.467V492.153H788.238V491.357C788.238 491.609 788.038 491.823 787.638 492C787.238 492.195 786.684 492.293 785.977 492.293ZM786.242 491.427C786.94 491.427 787.443 491.348 787.75 491.19C788.057 491.032 788.21 490.762 788.21 490.38V487.043C788.21 486.438 787.591 486.136 786.354 486.136C785.609 486.136 785.125 486.192 784.902 486.304C784.669 486.415 784.553 486.662 784.553 487.043V490.38C784.553 490.762 784.678 491.032 784.93 491.19C785.19 491.348 785.628 491.427 786.242 491.427ZM791.537 482.953H792.794V484.265H791.537V482.953ZM791.537 485.396H792.794V492.153H791.537V485.396ZM797.039 492.293C796.322 492.293 795.55 492.237 794.721 492.125V491.162C795.81 491.339 796.592 491.427 797.067 491.427C797.663 491.427 798.091 491.371 798.351 491.26C798.612 491.139 798.742 490.92 798.742 490.603V489.919C798.742 489.631 798.644 489.426 798.449 489.305C798.254 489.184 797.937 489.124 797.5 489.124H796.732C796.034 489.124 795.499 488.979 795.126 488.691C794.763 488.402 794.582 487.997 794.582 487.476V486.848C794.582 485.787 795.587 485.256 797.597 485.256C797.746 485.256 798.43 485.294 799.65 485.368V486.276C798.821 486.145 798.119 486.08 797.542 486.08C796.881 486.08 796.429 486.145 796.187 486.276C795.945 486.406 795.824 486.625 795.824 486.932V487.504C795.824 487.96 796.239 488.188 797.067 488.188H797.849C799.273 488.188 799.985 488.719 799.985 489.78V490.366C799.985 491.064 799.743 491.562 799.259 491.86C798.775 492.148 798.035 492.293 797.039 492.293ZM804.555 492.293C803.978 492.293 803.527 492.232 803.201 492.111C802.876 491.981 802.638 491.767 802.489 491.469C802.35 491.162 802.28 490.734 802.28 490.185V486.22H800.772V485.396H802.28V483.302H803.55V485.396H805.965V486.22H803.55V490.254C803.55 490.589 803.588 490.841 803.662 491.008C803.746 491.176 803.885 491.297 804.081 491.371C804.286 491.436 804.579 491.469 804.96 491.469C805.081 491.469 805.416 491.432 805.965 491.357V492.181C805.491 492.255 805.021 492.293 804.555 492.293ZM807.338 485.396H808.525V486.499C808.525 486.285 808.618 486.085 808.804 485.899C808.99 485.703 809.228 485.55 809.516 485.438C809.805 485.317 810.089 485.256 810.368 485.256H810.982V486.331H810.284C809.689 486.331 809.256 486.411 808.986 486.569C808.725 486.718 808.595 486.992 808.595 487.392V492.153H807.338V485.396ZM812.233 482.953H813.489V484.265H812.233V482.953ZM812.233 485.396H813.489V492.153H812.233V485.396ZM818.684 492.293C818.182 492.293 817.777 492.265 817.47 492.209C817.172 492.162 816.874 492.069 816.576 491.93C815.971 491.641 815.669 490.98 815.669 489.947V482.381H816.925V484.405V485.201C816.916 485.443 816.911 485.713 816.911 486.01C816.958 485.796 817.153 485.615 817.497 485.466C817.851 485.326 818.363 485.256 819.033 485.256C820.895 485.256 821.825 485.894 821.825 487.169V489.947C821.825 490.347 821.765 490.697 821.644 490.994C821.532 491.292 821.383 491.525 821.197 491.692C821.03 491.851 820.797 491.976 820.499 492.069C820.21 492.162 819.922 492.223 819.633 492.251C819.373 492.279 819.056 492.293 818.684 492.293ZM818.712 491.469C819.196 491.469 819.564 491.436 819.815 491.371C820.076 491.297 820.262 491.167 820.373 490.98C820.485 490.794 820.541 490.51 820.541 490.129V487.476C820.541 487.095 820.485 486.811 820.373 486.625C820.262 486.429 820.076 486.304 819.815 486.248C819.564 486.183 819.191 486.15 818.698 486.15C818.242 486.15 817.888 486.187 817.637 486.262C817.386 486.336 817.204 486.471 817.093 486.666C816.981 486.853 816.925 487.123 816.925 487.476V490.129C816.925 490.51 816.976 490.794 817.079 490.98C817.19 491.167 817.372 491.297 817.623 491.371C817.874 491.436 818.237 491.469 818.712 491.469ZM826.099 492.293C825.233 492.293 824.624 492.139 824.27 491.832C823.925 491.516 823.753 491.022 823.753 490.352V485.396H825.01V490.282C825.01 490.459 825.024 490.603 825.052 490.715C825.089 490.817 825.149 490.925 825.233 491.036C825.401 491.278 825.81 491.399 826.462 491.399C827.15 491.399 827.634 491.334 827.914 491.204C828.184 491.073 828.318 490.836 828.318 490.492V485.396H829.575V492.153H828.318V491.329C828.197 491.972 827.458 492.293 826.099 492.293ZM834.59 492.293C834.013 492.293 833.562 492.232 833.236 492.111C832.91 491.981 832.673 491.767 832.524 491.469C832.384 491.162 832.315 490.734 832.315 490.185V486.22H830.807V485.396H832.315V483.302H833.585V485.396H836V486.22H833.585V490.254C833.585 490.589 833.622 490.841 833.697 491.008C833.78 491.176 833.92 491.297 834.116 491.371C834.32 491.436 834.613 491.469 834.995 491.469C835.116 491.469 835.451 491.432 836 491.357V492.181C835.526 492.255 835.056 492.293 834.59 492.293ZM837.373 482.953H838.63V484.265H837.373V482.953ZM837.373 485.396H838.63V492.153H837.373V485.396ZM843.671 492.293C843.075 492.293 842.628 492.269 842.331 492.223C842.033 492.186 841.735 492.097 841.437 491.958C841.13 491.818 840.907 491.595 840.767 491.288C840.627 490.971 840.558 490.548 840.558 490.017V487.672C840.558 487.253 840.609 486.885 840.711 486.569C840.814 486.252 840.948 486.006 841.116 485.829C841.256 485.671 841.465 485.55 841.744 485.466C842.033 485.373 842.326 485.312 842.624 485.284C842.959 485.266 843.308 485.256 843.671 485.256C844.155 485.256 844.518 485.27 844.76 485.298C845.011 485.317 845.276 485.363 845.556 485.438C845.844 485.522 846.067 485.647 846.226 485.815C846.384 485.982 846.519 486.224 846.631 486.541C846.733 486.867 846.784 487.244 846.784 487.672V490.017C846.784 490.808 846.603 491.385 846.24 491.748C846.091 491.897 845.877 492.013 845.597 492.097C845.318 492.181 845.03 492.237 844.732 492.265C844.378 492.283 844.025 492.293 843.671 492.293ZM843.671 491.469C844.062 491.469 844.346 491.46 844.522 491.441C844.699 491.422 844.871 491.371 845.039 491.288C845.207 491.213 845.323 491.092 845.388 490.925C845.462 490.748 845.5 490.506 845.5 490.199V487.462C845.5 487.043 845.449 486.741 845.346 486.555C845.244 486.359 845.067 486.234 844.816 486.178C844.574 486.113 844.192 486.08 843.671 486.08C843.15 486.08 842.763 486.113 842.512 486.178C842.27 486.234 842.098 486.359 841.996 486.555C841.893 486.741 841.842 487.043 841.842 487.462V490.199C841.842 490.506 841.875 490.748 841.94 490.925C842.014 491.092 842.135 491.213 842.303 491.288C842.47 491.371 842.642 491.422 842.819 491.441C842.996 491.46 843.28 491.469 843.671 491.469ZM848.744 485.396H850V486.22C850.13 485.578 850.87 485.256 852.22 485.256C853.085 485.256 853.69 485.415 854.035 485.731C854.388 486.038 854.565 486.527 854.565 487.197V492.153H853.309V487.267C853.309 487.09 853.295 486.946 853.267 486.834C853.239 486.722 853.183 486.611 853.099 486.499C852.913 486.266 852.499 486.15 851.857 486.15C851.364 486.15 850.982 486.187 850.712 486.262C850.451 486.327 850.265 486.438 850.154 486.597C850.051 486.755 850 486.978 850 487.267V492.153H848.744V485.396Z" fill="white"/>
<path d="M1233.71 185.997H1237.59V187.002H1233.71V185.997ZM1241.56 182.381H1238.49V181.432H1245.98V182.381H1242.93V190.493H1241.56V182.381ZM1247.41 180.72H1248.66V184.559C1248.79 183.917 1249.53 183.596 1250.88 183.596C1251.75 183.596 1252.35 183.754 1252.7 184.071C1253.05 184.378 1253.23 184.866 1253.23 185.537V190.493H1251.97V185.62C1251.97 185.444 1251.96 185.299 1251.93 185.188C1251.9 185.076 1251.85 184.964 1251.76 184.853C1251.58 184.62 1251.16 184.503 1250.52 184.503C1250.01 184.503 1249.62 184.541 1249.35 184.615C1249.09 184.68 1248.91 184.792 1248.8 184.95C1248.71 185.108 1248.66 185.332 1248.66 185.62V190.493H1247.41V180.72ZM1258.26 190.632C1256.19 190.632 1255.16 189.944 1255.16 188.566V185.9C1255.16 185.081 1255.39 184.494 1255.86 184.141C1256.33 183.778 1257.09 183.596 1258.15 183.596C1259.14 183.596 1259.86 183.768 1260.3 184.113C1260.74 184.457 1260.97 185.053 1260.97 185.9V187.393H1256.43V188.413C1256.43 188.878 1256.59 189.213 1256.92 189.418C1257.24 189.622 1257.75 189.725 1258.43 189.725C1259.07 189.725 1259.83 189.613 1260.7 189.39V190.353C1259.84 190.539 1259.03 190.632 1258.26 190.632ZM1259.71 186.57V185.509C1259.71 185.099 1259.58 184.82 1259.33 184.671C1259.09 184.513 1258.67 184.434 1258.08 184.434C1257.5 184.434 1257.08 184.513 1256.82 184.671C1256.56 184.82 1256.43 185.099 1256.43 185.509V186.57H1259.71ZM1269.71 190.632C1267.17 190.632 1265.9 189.813 1265.9 188.175V183.875C1265.9 182.144 1267.17 181.279 1269.71 181.279C1270.58 181.279 1271.41 181.367 1272.2 181.544V182.549C1271.31 182.326 1270.49 182.214 1269.74 182.214C1269.38 182.214 1269.06 182.237 1268.79 182.284C1268.52 182.321 1268.26 182.391 1268.01 182.493C1267.47 182.726 1267.2 183.182 1267.2 183.861V188.105C1267.2 189.148 1268.07 189.669 1269.8 189.669C1270.54 189.669 1271.36 189.557 1272.26 189.334V190.367C1271.46 190.544 1270.62 190.632 1269.71 190.632ZM1273.98 180.72H1275.23V190.493H1273.98V180.72ZM1277.41 181.293H1278.67V182.605H1277.41V181.293ZM1277.41 183.736H1278.67V190.493H1277.41V183.736ZM1280.85 183.736H1282.11V184.559C1282.24 183.917 1283 183.596 1284.38 183.596C1285.51 183.596 1286.21 183.903 1286.49 184.517C1286.57 184.22 1286.83 183.992 1287.24 183.833C1287.67 183.675 1288.19 183.596 1288.81 183.596C1289.65 183.596 1290.24 183.754 1290.58 184.071C1290.92 184.378 1291.1 184.866 1291.1 185.537V190.493H1289.84V185.62C1289.84 185.444 1289.83 185.299 1289.8 185.188C1289.77 185.076 1289.71 184.964 1289.63 184.853C1289.45 184.62 1289.03 184.503 1288.39 184.503C1287.9 184.503 1287.53 184.536 1287.29 184.601C1287.04 184.666 1286.88 184.778 1286.78 184.936C1286.7 185.095 1286.66 185.323 1286.66 185.62V190.493H1285.4V185.62C1285.4 185.444 1285.39 185.299 1285.36 185.188C1285.33 185.076 1285.28 184.964 1285.19 184.853C1285.01 184.62 1284.6 184.503 1283.96 184.503C1283.45 184.503 1283.06 184.536 1282.8 184.601C1282.54 184.666 1282.36 184.778 1282.26 184.936C1282.16 185.085 1282.11 185.313 1282.11 185.62V190.493H1280.85V183.736ZM1295.35 190.632C1294.71 190.632 1294.21 190.572 1293.86 190.451C1293.51 190.33 1293.26 190.116 1293.1 189.809C1292.95 189.501 1292.88 189.059 1292.88 188.482C1292.88 187.97 1292.95 187.575 1293.09 187.296C1293.24 187.007 1293.48 186.802 1293.83 186.681C1294.18 186.56 1294.68 186.5 1295.32 186.5H1297.35V185.425C1297.35 185.174 1297.3 184.983 1297.19 184.853C1297.1 184.713 1296.94 184.615 1296.7 184.559C1296.48 184.503 1296.15 184.476 1295.71 184.476C1295.02 184.476 1294.24 184.531 1293.4 184.643V183.722C1294.32 183.638 1295.15 183.596 1295.89 183.596C1296.68 183.596 1297.25 183.657 1297.63 183.778C1298 183.889 1298.25 184.089 1298.39 184.378C1298.53 184.666 1298.6 185.113 1298.6 185.718V190.493H1297.39V189.85C1297.29 190.372 1296.61 190.632 1295.35 190.632ZM1295.56 189.809C1296.02 189.809 1296.4 189.776 1296.72 189.711C1297.14 189.627 1297.35 189.432 1297.35 189.125V187.282H1295.41C1295.01 187.282 1294.72 187.314 1294.54 187.379C1294.36 187.435 1294.25 187.547 1294.19 187.714C1294.14 187.882 1294.11 188.152 1294.11 188.524C1294.11 188.859 1294.14 189.12 1294.21 189.306C1294.27 189.483 1294.39 189.613 1294.55 189.697C1294.72 189.771 1294.97 189.809 1295.31 189.809H1295.56ZM1302.35 187.016L1299.97 183.736H1301.35L1303.03 186.207L1304.72 183.736H1306.1L1303.73 187.016L1306.24 190.493H1304.86L1303.03 187.826L1301.21 190.493H1299.83L1302.35 187.016Z" fill="white"/>
</g>
<defs>
<filter id="filter0_d_4_117" x="228.726" y="472.357" width="157.711" height="157.755" filterUnits="userSpaceOnUse" color-interpolation-filters="sRGB">
<feFlood flood-opacity="0" result="BackgroundImageFix"/>
<feColorMatrix in="SourceAlpha" type="matrix" values="0 0 0 0 0 0 0 0 0 0 0 0 0 0 0 0 0 0 127 0" result="hardAlpha"/>
<feOffset dx="-14.958" dy="19.944"/>
<feGaussianBlur stdDeviation="19.944"/>
<feColorMatrix type="matrix" values="0 0 0 0 0.0980392 0 0 0 0 0.141176 0 0 0 0 0.192157 0 0 0 0.301961 0"/>
<feBlend mode="normal" in2="BackgroundImageFix" result="effect1_dropShadow_4_117"/>
<feBlend mode="normal" in="SourceGraphic" in2="effect1_dropShadow_4_117" result="shape"/>
</filter>
<filter id="filter1_d_4_117" x="763.798" y="302.307" width="157.711" height="157.755" filterUnits="userSpaceOnUse" color-interpolation-filters="sRGB">
<feFlood flood-opacity="0" result="BackgroundImageFix"/>
<feColorMatrix in="SourceAlpha" type="matrix" values="0 0 0 0 0 0 0 0 0 0 0 0 0 0 0 0 0 0 127 0" result="hardAlpha"/>
<feOffset dx="-14.958" dy="19.944"/>
<feGaussianBlur stdDeviation="19.944"/>
<feColorMatrix type="matrix" values="0 0 0 0 0.0980392 0 0 0 0 0.141176 0 0 0 0 0.192157 0 0 0 0.301961 0"/>
<feBlend mode="normal" in2="BackgroundImageFix" result="effect1_dropShadow_4_117"/>
<feBlend mode="normal" in="SourceGraphic" in2="effect1_dropShadow_4_117" result="shape"/>
</filter>
<filter id="filter2_d_4_117" x="1183.67" y="8.2412" width="157.711" height="157.755" filterUnits="userSpaceOnUse" color-interpolation-filters="sRGB">
<feFlood flood-opacity="0" result="BackgroundImageFix"/>
<feColorMatrix in="SourceAlpha" type="matrix" values="0 0 0 0 0 0 0 0 0 0 0 0 0 0 0 0 0 0 127 0" result="hardAlpha"/>
<feOffset dx="-14.958" dy="19.944"/>
<feGaussianBlur stdDeviation="19.944"/>
<feColorMatrix type="matrix" values="0 0 0 0 0.0980392 0 0 0 0 0.141176 0 0 0 0 0.192157 0 0 0 0.301961 0"/>
<feBlend mode="normal" in2="BackgroundImageFix" result="effect1_dropShadow_4_117"/>
<feBlend mode="normal" in="SourceGraphic" in2="effect1_dropShadow_4_117" result="shape"/>
</filter>
<filter id="filter3_d_4_117" x="434.061" y="462.229" width="182.07" height="302.809" filterUnits="userSpaceOnUse" color-interpolation-filters="sRGB">
<feFlood flood-opacity="0" result="BackgroundImageFix"/>
<feColorMatrix in="SourceAlpha" type="matrix" values="0 0 0 0 0 0 0 0 0 0 0 0 0 0 0 0 0 0 127 0" result="hardAlpha"/>
<feOffset dx="-14.958" dy="19.944"/>
<feGaussianBlur stdDeviation="24.93"/>
<feColorMatrix type="matrix" values="0 0 0 0 0 0 0 0 0 0 0 0 0 0 0 0 0 0 0.5 0"/>
<feBlend mode="normal" in2="BackgroundImageFix" result="effect1_dropShadow_4_117"/>
<feBlend mode="normal" in="SourceGraphic" in2="effect1_dropShadow_4_117" result="shape"/>
</filter>
<filter id="filter4_d_4_117" x="955.469" y="292.804" width="227.806" height="297.956" filterUnits="userSpaceOnUse" color-interpolation-filters="sRGB">
<feFlood flood-opacity="0" result="BackgroundImageFix"/>
<feColorMatrix in="SourceAlpha" type="matrix" values="0 0 0 0 0 0 0 0 0 0 0 0 0 0 0 0 0 0 127 0" result="hardAlpha"/>
<feOffset dx="-14.958" dy="19.944"/>
<feGaussianBlur stdDeviation="24.93"/>
<feColorMatrix type="matrix" values="0 0 0 0 0 0 0 0 0 0 0 0 0 0 0 0 0 0 0.5 0"/>
<feBlend mode="normal" in2="BackgroundImageFix" result="effect1_dropShadow_4_117"/>
<feBlend mode="normal" in="SourceGraphic" in2="effect1_dropShadow_4_117" result="shape"/>
</filter>
<filter id="filter5_d_4_117" x="1360.56" y="-1.73079" width="225.853" height="297.956" filterUnits="userSpaceOnUse" color-interpolation-filters="sRGB">
<feFlood flood-opacity="0" result="BackgroundImageFix"/>
<feColorMatrix in="SourceAlpha" type="matrix" values="0 0 0 0 0 0 0 0 0 0 0 0 0 0 0 0 0 0 127 0" result="hardAlpha"/>
<feOffset dx="-14.958" dy="19.944"/>
<feGaussianBlur stdDeviation="24.93"/>
<feColorMatrix type="matrix" values="0 0 0 0 0 0 0 0 0 0 0 0 0 0 0 0 0 0 0.5 0"/>
<feBlend mode="normal" in2="BackgroundImageFix" result="effect1_dropShadow_4_117"/>
<feBlend mode="normal" in="SourceGraphic" in2="effect1_dropShadow_4_117" result="shape"/>
</filter>
<clipPath id="clip0_4_117">
<rect width="1585" height="761" fill="white"/>
</clipPath>
</defs>
</svg>
