<svg width="200" height="200" viewBox="0 0 200 200" fill="none" xmlns="http://www.w3.org/2000/svg">
<circle cx="100" cy="100" r="100" fill="#8500FF" fill-opacity="0.2"/>
<g clip-path="url(#clip0_923_73)">
<path d="M100.001 150C99.677 150 99.3529 149.95 99.0408 149.85C88.5505 146.49 79.6194 140.044 72.4951 130.693C66.8862 123.331 62.3952 114.168 59.1475 103.459C53.6689 85.3954 53.606 69.3038 53.606 68.6277C53.606 67.0074 54.8367 65.6518 56.4497 65.496C56.6926 65.4724 81.127 62.9641 98.1521 50.6003C99.2544 49.7993 100.747 49.8002 101.85 50.6006C118.87 62.9641 143.308 65.4724 143.552 65.4964C145.164 65.6537 146.394 67.0087 146.394 68.6277C146.394 69.3038 146.332 85.3954 140.853 103.459C137.605 114.168 133.115 123.331 127.506 130.693C120.382 140.044 111.451 146.49 100.96 149.85C100.648 149.95 100.324 150 100.001 150ZM59.9884 71.3877C60.2499 76.6681 61.2664 88.829 65.2122 101.776C71.9464 123.87 83.6486 137.915 100 143.539C116.39 137.903 128.106 123.81 134.832 101.633C138.751 88.7104 139.756 76.642 140.014 71.388C132.965 70.3596 114.707 66.8791 100 56.9837C85.2915 66.8781 67.0372 70.3593 59.9884 71.3877Z" fill="#8500FF"/>
<path d="M110.635 113.562C109.83 113.562 109.025 113.255 108.411 112.64L87.1411 91.3701C85.9126 90.1416 85.9126 88.1495 87.1411 86.9206C88.3703 85.6924 90.3618 85.6927 91.5907 86.9206L112.86 108.191C114.089 109.42 114.089 111.412 112.86 112.64C112.246 113.255 111.441 113.562 110.635 113.562Z" fill="#8500FF"/>
<path d="M89.3652 113.562C88.5598 113.562 87.7551 113.255 87.1406 112.641C85.9121 111.412 85.9121 109.42 87.1406 108.191L108.41 86.9206C109.639 85.6924 111.631 85.6924 112.86 86.9206C114.088 88.1491 114.088 90.1412 112.86 91.3701L91.5902 112.641C90.9754 113.255 90.1706 113.562 89.3652 113.562Z" fill="#8500FF"/>
</g>
<defs>
<clipPath id="clip0_923_73">
<rect width="100" height="100" fill="white" transform="translate(50 50)"/>
</clipPath>
</defs>
</svg>
