<svg width="200" height="200" viewBox="0 0 200 200" fill="none" xmlns="http://www.w3.org/2000/svg">
<circle cx="100" cy="100" r="100" fill="#8500FF" fill-opacity="0.2"/>
<path d="M83.709 80.7494H91.7461V86.327H88.7421C87.8515 86.327 87.1294 87.0488 87.1294 87.9397C87.1294 88.8305 87.8515 89.5524 88.7421 89.5524H111.257C112.148 89.5524 112.87 88.8305 112.87 87.9397C112.87 87.0488 112.148 86.327 111.257 86.327H108.253V80.7494H116.291C119.458 80.7494 122.034 78.1731 122.034 75.0062V55.7492C122.034 52.5823 119.458 50.006 116.291 50.006H83.709C80.5421 50.006 77.9658 52.5823 77.9658 55.7492V75.0062C77.9658 78.1731 80.5423 80.7494 83.709 80.7494ZM105.028 86.327H94.9715V80.7494H105.028V86.327ZM81.1912 55.7492C81.1912 54.361 82.3206 53.2315 83.709 53.2315H116.291C117.679 53.2315 118.809 54.361 118.809 55.7492V75.0062C118.809 76.3944 117.679 77.524 116.291 77.524H83.709C82.3206 77.524 81.1912 76.3944 81.1912 75.0062V55.7492Z" fill="#8500FF"/>
<path d="M88.325 110.447H55.7432C52.5762 110.447 50 113.024 50 116.191V135.448C50 138.614 52.5762 141.191 55.7432 141.191H63.7802V146.768H60.7763C59.8857 146.768 59.1636 147.49 59.1636 148.381C59.1636 149.272 59.8857 149.994 60.7763 149.994H83.2914C84.182 149.994 84.9041 149.272 84.9041 148.381C84.9041 147.49 84.182 146.768 83.2914 146.768H80.2877V141.191H88.3248C91.4917 141.191 94.0679 138.614 94.0679 135.448V116.191C94.0681 113.024 91.4917 110.447 88.325 110.447ZM77.0625 146.768H67.0057V141.191H77.0625V146.768ZM90.8427 135.448C90.8427 136.836 89.7134 137.965 88.325 137.965H55.7432C54.3547 137.965 53.2254 136.836 53.2254 135.448V116.191C53.2254 114.802 54.3547 113.673 55.7432 113.673H88.325C89.7134 113.673 90.8427 114.802 90.8427 116.191V135.448Z" fill="#8500FF"/>
<path d="M144.257 110.447H111.675C108.508 110.447 105.932 113.024 105.932 116.191V135.448C105.932 138.614 108.508 141.191 111.675 141.191H119.712V146.768H116.708C115.817 146.768 115.095 147.49 115.095 148.381C115.095 149.272 115.817 149.994 116.708 149.994H139.223C140.114 149.994 140.836 149.272 140.836 148.381C140.836 147.49 140.114 146.768 139.223 146.768H136.22V141.191H144.257C147.424 141.191 150 138.614 150 135.448V116.191C150 113.024 147.424 110.447 144.257 110.447ZM132.994 146.768H122.937V141.191H132.994V146.768ZM146.775 135.448C146.775 136.836 145.645 137.965 144.257 137.965H111.675C110.287 137.965 109.157 136.836 109.157 135.448V116.191C109.157 114.802 110.287 113.673 111.675 113.673H144.257C145.645 113.673 146.774 114.802 146.774 116.191V135.448H146.775Z" fill="#8500FF"/>
<path d="M126.353 105.609C126.353 106.5 127.075 107.222 127.966 107.222C128.857 107.222 129.579 106.5 129.579 105.609V99.9999C129.579 99.109 128.857 98.3872 127.966 98.3872H101.613V94.3905C101.613 93.4996 100.891 92.7778 99.9999 92.7778C99.1093 92.7778 98.3872 93.4996 98.3872 94.3905V98.3872H72.0341C71.1434 98.3872 70.4214 99.109 70.4214 99.9999V105.609C70.4214 106.5 71.1434 107.222 72.0341 107.222C72.9247 107.222 73.6468 106.5 73.6468 105.609V101.613H126.353V105.609Z" fill="#8500FF"/>
</svg>
