<svg width="200" height="200" viewBox="0 0 200 200" fill="none" xmlns="http://www.w3.org/2000/svg">
<circle cx="100" cy="100" r="100" fill="#8500FF" fill-opacity="0.2"/>
<path d="M100 50C72.5597 50 51.064 61.2148 51.064 75.5318C51.064 89.8488 72.5597 101.064 100 101.064C127.441 101.064 148.936 89.849 148.936 75.532C148.936 61.215 127.441 50 100 50ZM100 96.8086C75.7804 96.8086 55.3192 87.0648 55.3192 75.532C55.3192 63.9992 75.7804 54.2553 100 54.2553C124.22 54.2553 144.681 63.999 144.681 75.5318C144.681 87.0646 124.22 96.8086 100 96.8086Z" fill="#8500FF"/>
<path d="M146.808 88.2979C145.633 88.2979 144.681 89.2506 144.681 90.4256C144.681 101.958 124.22 111.702 99.9998 111.702C75.7801 111.702 55.3189 101.958 55.3189 90.4256C55.3189 89.2506 54.3662 88.2979 53.1912 88.2979C52.0162 88.2979 51.0635 89.2506 51.0635 90.4256C51.0635 104.743 72.5592 115.957 99.9996 115.957C127.44 115.957 148.936 104.743 148.936 90.4256C148.936 89.2506 147.983 88.2979 146.808 88.2979Z" fill="#8500FF"/>
<path d="M146.808 105.319C145.633 105.319 144.681 106.272 144.681 107.447C144.681 118.98 124.22 128.723 99.9998 128.723C75.7801 128.723 55.3189 118.98 55.3189 107.447C55.3189 106.272 54.3662 105.319 53.1912 105.319C52.0162 105.319 51.0635 106.272 51.0635 107.447C51.0635 121.764 72.5592 132.979 99.9996 132.979C127.44 132.979 148.936 121.764 148.936 107.447C148.936 106.272 147.983 105.319 146.808 105.319Z" fill="#8500FF"/>
<path d="M146.808 122.34C145.633 122.34 144.681 123.293 144.681 124.468C144.681 136.001 124.22 145.745 99.9998 145.745C75.7801 145.745 55.3189 136.001 55.3189 124.468C55.3189 123.293 54.3662 122.34 53.1912 122.34C52.0162 122.34 51.0635 123.293 51.0635 124.468C51.0637 138.785 72.5594 150 99.9998 150C127.44 150 148.936 138.785 148.936 124.468C148.936 123.293 147.983 122.34 146.808 122.34Z" fill="#8500FF"/>
</svg>
