<svg width="434" height="1176" viewBox="0 0 434 1176" fill="none" xmlns="http://www.w3.org/2000/svg">
<g filter="url(#filter0_d_26_2)">
<path d="M126 30.166H107C89.3269 30.166 75 44.4929 75 62.166V81.166C75 98.8391 89.3269 113.166 107 113.166H126C143.673 113.166 158 98.8391 158 81.166V62.166C158 44.4929 143.673 30.166 126 30.166Z" fill="#192431"/>
</g>
<g filter="url(#filter1_d_26_2)">
<path d="M371.618 246.166C365.854 246.166 361.119 244.365 357.413 240.762C353.707 237.159 351.854 232.681 351.855 227.329V77.894C351.855 76.0864 354.215 75.3989 355.186 76.924C355.73 77.7793 355.464 78.9149 354.597 79.4398L332.708 92.6882C329.62 94.541 326.326 95.4674 322.826 95.4674C317.474 95.4674 313.048 93.4602 309.548 89.4457C306.048 85.4312 304.298 81.1593 304.298 76.6301C304.298 69.6305 307.489 64.2778 313.871 60.5721L360.501 32.7793C364.001 30.9264 368.427 30 373.78 30C379.133 30 383.507 31.8014 386.904 35.4042C390.301 39.0069 392 43.4847 392 48.8373V227.329C392 232.681 390.095 237.159 386.287 240.762C382.478 244.365 377.589 246.166 371.618 246.166Z" fill="#0041FF"/>
</g>
<path d="M122.857 63.0232C122.857 66.8103 119.787 69.8804 116 69.8804C112.213 69.8804 109.143 66.8103 109.143 63.0232C109.143 59.2361 112.213 56.166 116 56.166C119.787 56.166 122.857 59.2361 122.857 63.0232Z" fill="white"/>
<path d="M132 81.3088C132 85.0959 128.93 88.166 125.143 88.166C121.355 88.166 118.285 85.0959 118.285 81.3088C118.285 77.5217 121.355 74.4517 125.143 74.4517C128.93 74.4517 132 77.5217 132 81.3088Z" fill="white"/>
<path d="M106.857 88.166C110.645 88.166 113.715 85.0959 113.715 81.3088C113.715 77.5217 110.645 74.4517 106.857 74.4517C103.07 74.4517 100 77.5217 100 81.3088C100 85.0959 103.07 88.166 106.857 88.166Z" fill="white"/>
<g filter="url(#filter2_d_26_2)">
<path d="M333 439H314C296.327 439 282 453.327 282 471V490C282 507.673 296.327 522 314 522H333C350.673 522 365 507.673 365 490V471C365 453.327 350.673 439 333 439Z" fill="#192431"/>
</g>
<g filter="url(#filter3_d_26_2)">
<path d="M184.765 620.31C189.52 620.31 193.482 621.895 196.652 625.065C199.822 628.235 201.407 632.197 201.407 636.952C201.407 641.509 199.822 645.323 196.652 648.394C193.482 651.465 189.52 653 184.765 653H83.7225C78.5714 653 74.5099 651.415 71.538 648.245C68.5662 645.075 67.0803 641.014 67.0803 636.061C67.0803 631.108 68.8634 626.749 72.4296 622.985L137.215 553.741C144.348 546.014 150.093 538.139 154.452 530.115C158.811 522.091 160.99 514.612 160.99 507.677C160.99 501.536 159.504 495.988 156.532 491.035C153.561 486.082 149.697 482.12 144.942 479.148C140.187 476.176 135.036 474.69 129.489 474.69C123.743 474.69 117.899 476.622 111.955 480.485C106.011 484.349 100.761 489.45 96.2042 495.79C93.8268 498.96 91.4493 500.941 89.0718 501.734C86.6944 502.526 84.515 502.923 82.5338 502.923C78.1751 502.923 74.1631 501.288 70.4979 498.019C66.8326 494.75 65 490.936 65 486.577C65 483.209 66.1392 479.94 68.4176 476.77C70.696 473.6 73.5192 470.331 76.8873 466.963C84.416 459.435 93.1333 453.392 103.039 448.835C112.946 444.278 122.455 442 131.569 442C145.041 442 156.631 444.774 166.339 450.321C176.047 455.869 183.576 463.496 188.925 473.204C194.275 482.912 196.949 493.908 196.949 506.192C196.949 514.513 195.414 522.982 192.343 531.601C189.272 540.219 185.062 548.59 179.713 556.713C174.363 564.836 168.222 572.662 161.287 580.19L121.89 622.214C121.484 622.648 120.81 622.692 120.35 622.315C119.527 621.643 120.003 620.31 121.066 620.31H184.765Z" fill="#0041FF"/>
</g>
<path d="M326.097 468.925C326.097 469.643 326.685 470.231 327.403 470.231C328.122 470.231 328.708 469.643 328.708 468.925C329.427 468.925 330.015 468.337 330.015 467.618C330.015 466.9 329.427 466.312 328.708 466.312C328.708 465.593 328.122 465.006 327.403 465.006C326.685 465.006 326.097 465.593 326.097 466.318C325.378 466.318 324.79 466.906 324.79 467.625C324.79 468.343 325.378 468.925 326.097 468.925Z" fill="white"/>
<path d="M335.452 471.318L335.071 470.937L334.702 471.318C334.446 471.575 334.114 471.7 333.776 471.7C333.44 471.7 333.108 471.575 332.853 471.318C332.339 470.812 332.339 469.987 332.853 469.475L333.233 469.093L332.853 468.712C332.339 468.206 332.339 467.381 332.853 466.868C333.358 466.356 334.183 466.356 334.696 466.868L335.077 467.25L335.458 466.868C335.964 466.356 336.79 466.356 337.302 466.868C337.815 467.375 337.815 468.2 337.302 468.712L336.921 469.093L337.302 469.475C337.815 469.981 337.815 470.806 337.302 471.318C337.046 471.575 336.714 471.7 336.378 471.7C336.04 471.7 335.708 471.575 335.452 471.318Z" fill="white"/>
<path fill-rule="evenodd" clip-rule="evenodd" d="M328.103 472.137C327.06 472.137 326.071 472.543 325.335 473.287L308.315 490.306C307.554 491.068 307.147 492.081 307.173 493.156C307.196 494.237 307.647 495.231 308.44 495.956C309.165 496.618 310.103 496.981 311.085 496.981C312.128 496.981 313.116 496.575 313.853 495.831L330.872 478.812C332.398 477.287 332.398 474.8 330.872 473.275C330.134 472.543 329.153 472.137 328.103 472.137ZM324.577 477.737L326.421 479.581L314.396 491.606L312.552 489.762L324.577 477.737ZM309.776 493.106C309.782 493.462 309.939 493.793 310.202 494.037C310.702 494.493 311.532 494.475 312.001 494L312.546 493.456L310.702 491.612L310.157 492.156C309.907 492.412 309.771 492.75 309.776 493.106ZM329.026 476.975L328.265 477.731L326.421 475.887L327.177 475.131C327.421 474.887 327.753 474.75 328.103 474.75C328.452 474.75 328.776 474.887 329.026 475.131C329.534 475.637 329.534 476.468 329.026 476.975Z" fill="white"/>
<path d="M336.534 475.45C337.253 475.45 337.839 476.037 337.839 476.756C338.565 476.756 339.146 477.343 339.146 478.062C339.146 478.781 338.558 479.368 337.839 479.368C337.839 480.087 337.253 480.675 336.534 480.675C335.815 480.675 335.228 480.087 335.228 479.368C334.509 479.368 333.921 478.781 333.921 478.062C333.921 477.343 334.509 476.756 335.228 476.756C335.228 476.037 335.815 475.45 336.534 475.45Z" fill="white"/>
<g filter="url(#filter4_d_26_2)">
<path d="M116 895H97C79.3269 895 65 909.327 65 927V946C65 963.673 79.3269 978 97 978H116C133.673 978 148 963.673 148 946V927C148 909.327 133.673 895 116 895Z" fill="#192431"/>
</g>
<g filter="url(#filter5_d_26_2)">
<path d="M285.397 1061.13C287.18 1061.13 289.112 1061.42 291.192 1062.02C293.273 1062.61 295.6 1063.8 298.176 1065.58C301.544 1068.16 305.556 1070.44 310.212 1072.42C314.868 1074.4 320.267 1075.39 326.408 1075.39C332.55 1075.39 338.345 1073.85 343.794 1070.78C349.242 1067.71 353.749 1063.35 357.316 1057.71C360.882 1052.06 362.665 1045.28 362.665 1037.35C362.665 1029.82 361.129 1023.58 358.058 1018.63C354.988 1013.68 350.926 1009.91 345.874 1007.34C340.822 1004.76 335.423 1003.47 329.677 1003.47C325.319 1003.47 321.703 1003.87 318.83 1004.66C315.958 1005.45 313.184 1006.3 310.509 1007.19C307.835 1008.08 304.714 1008.52 301.148 1008.52C296.591 1008.52 293.074 1006.94 290.598 1003.77C288.121 1000.6 286.883 996.835 286.883 992.476C286.883 989.702 287.428 987.226 288.518 985.046C289.607 982.867 291.242 980.49 293.421 977.914L343.859 922.891C344.901 921.755 346.654 921.646 347.828 922.646C349.855 924.373 348.634 927.69 345.97 927.69H280.642C275.887 927.69 271.925 926.105 268.755 922.935C265.585 919.765 264 915.803 264 911.048C264 906.491 265.585 902.677 268.755 899.606C271.925 896.535 275.887 895 280.642 895H371.58C377.722 895 382.328 896.684 385.399 900.052C388.47 903.42 390.006 907.68 390.006 912.831C390.006 915.407 389.362 917.883 388.074 920.261C386.786 922.638 385.053 924.916 382.873 927.096L334.427 980.469C332.25 982.868 328.442 982.742 326.428 980.206C324.304 977.532 325.313 973.675 328.63 972.866C329.474 972.661 330.368 972.461 331.312 972.268C335.175 971.475 338.395 971.079 340.97 971.079C352.66 971.079 362.813 974.1 371.432 980.143C380.05 986.186 386.687 994.012 391.343 1003.62C395.999 1013.23 398.327 1023.58 398.327 1034.68C398.327 1049.34 395.058 1062.02 388.52 1072.72C381.982 1083.41 372.769 1091.64 360.882 1097.38C348.994 1103.13 335.126 1106 319.276 1106C311.946 1106 304.714 1105.11 297.582 1103.33C290.449 1101.54 284.308 1099.16 279.156 1096.19C274.798 1093.82 271.875 1091.19 270.389 1088.32C268.904 1085.44 268.161 1082.72 268.161 1080.15C268.161 1075.59 269.795 1071.28 273.064 1067.22C276.333 1063.16 280.444 1061.13 285.397 1061.13Z" fill="#0041FF"/>
</g>
<path fill-rule="evenodd" clip-rule="evenodd" d="M96.9886 927H92.0001C90.8008 927 90 927.801 90 929.003V944.998C90 946.2 90.8008 947.001 92.0001 947.001H96.9945C97.5941 947.001 98.1937 946.801 98.5941 946.2L104.981 938.202C105.583 937.401 105.583 936.4 104.981 935.805L98.5883 927.801C98.1879 927.2 97.5882 927 96.9886 927ZM96.9886 929.003L103.376 937L96.9886 944.998H92.0001V929.003H96.9886Z" fill="white"/>
<path d="M106.175 946.995H113.564C114.163 946.995 114.763 946.794 115.163 946.194L121.55 938.202C122.15 937.608 122.15 936.606 121.55 935.805L115.163 927.807C114.763 927.207 114.163 927.006 113.564 927.006H106.175C104.575 927.006 103.575 929.003 104.575 930.204L109.97 937L104.575 943.797C103.581 944.992 104.575 946.995 106.175 946.995Z" fill="white"/>
<path d="M77.049 171C73.7822 171 72.1488 169.947 72.1488 167.841V162.51C72.1488 160.284 73.7822 159.171 77.049 159.171C80.3278 159.171 81.9672 160.278 81.9672 162.492V167.302C81.9672 168.403 81.4347 169.307 80.3697 170.013H83.2416V171H77.049ZM77.0849 169.833C79.2269 169.833 80.2979 169.163 80.2979 167.823V162.456C80.2979 161.02 79.2209 160.302 77.067 160.302C76.5883 160.302 76.1755 160.332 75.8284 160.392C75.4814 160.44 75.1523 160.535 74.8412 160.679C74.1591 161.002 73.8181 161.594 73.8181 162.456V167.823C73.8181 169.163 74.907 169.833 77.0849 169.833ZM89.7534 160.966L86.2173 163.282V161.81L89.7713 159.351H91.315V171H89.7534V160.966ZM101.664 168.918C101.664 168.583 101.718 168.272 101.825 167.984C101.945 167.685 102.095 167.434 102.274 167.231C102.418 167.063 102.633 166.884 102.92 166.692C103.219 166.489 103.501 166.321 103.764 166.19C103.991 166.07 104.29 165.932 104.661 165.777L106.6 164.915C107.366 164.58 107.749 164.059 107.749 163.353V161.756C107.749 161.206 107.581 160.841 107.246 160.661C106.911 160.47 106.325 160.374 105.487 160.374C104.661 160.374 103.525 160.499 102.077 160.751V159.494C103.285 159.267 104.536 159.153 105.828 159.153C107.12 159.153 108.054 159.351 108.628 159.746C109.203 160.129 109.49 160.775 109.49 161.684V163.587C109.49 164.018 109.418 164.377 109.274 164.664C109.131 164.939 108.897 165.19 108.574 165.418C108.263 165.633 107.803 165.878 107.192 166.154L104.5 167.392C103.71 167.751 103.315 168.278 103.315 168.972V169.744H109.49V171H101.664V168.918ZM116.868 171.179C116.342 171.179 115.911 171.162 115.576 171.126C115.253 171.09 114.906 171.018 114.535 170.91C114.14 170.803 113.823 170.647 113.584 170.444C113.356 170.228 113.165 169.929 113.009 169.546C112.854 169.187 112.776 168.738 112.776 168.2V162.312C112.776 161.774 112.854 161.301 113.009 160.894C113.165 160.488 113.368 160.164 113.62 159.925C113.847 159.722 114.146 159.56 114.517 159.44C114.9 159.309 115.283 159.225 115.666 159.189C116.097 159.165 116.498 159.153 116.868 159.153C117.395 159.153 117.82 159.171 118.143 159.207C118.478 159.243 118.831 159.315 119.202 159.423C119.597 159.542 119.914 159.71 120.153 159.925C120.405 160.141 120.608 160.446 120.764 160.841C120.919 161.235 120.997 161.72 120.997 162.294V168.2C120.997 168.69 120.919 169.127 120.764 169.51C120.608 169.893 120.405 170.192 120.153 170.408C119.914 170.611 119.609 170.779 119.238 170.91C118.867 171.03 118.49 171.102 118.107 171.126C117.772 171.162 117.359 171.179 116.868 171.179ZM116.904 170.12C117.539 170.12 118.029 170.079 118.376 169.995C118.723 169.899 118.975 169.72 119.13 169.456C119.286 169.193 119.363 168.804 119.363 168.29V162.187C119.363 161.624 119.28 161.206 119.112 160.93C118.957 160.643 118.705 160.452 118.358 160.356C118.023 160.26 117.533 160.212 116.886 160.212C116.228 160.212 115.726 160.26 115.379 160.356C115.044 160.452 114.798 160.643 114.643 160.93C114.487 161.206 114.409 161.624 114.409 162.187V168.29C114.409 168.804 114.487 169.193 114.643 169.456C114.81 169.72 115.068 169.899 115.415 169.995C115.762 170.079 116.258 170.12 116.904 170.12ZM124.283 168.918C124.283 168.583 124.337 168.272 124.445 167.984C124.564 167.685 124.714 167.434 124.893 167.231C125.037 167.063 125.252 166.884 125.54 166.692C125.839 166.489 126.12 166.321 126.383 166.19C126.611 166.07 126.91 165.932 127.281 165.777L129.219 164.915C129.985 164.58 130.368 164.059 130.368 163.353V161.756C130.368 161.206 130.2 160.841 129.865 160.661C129.53 160.47 128.944 160.374 128.106 160.374C127.281 160.374 126.144 160.499 124.696 160.751V159.494C125.904 159.267 127.155 159.153 128.447 159.153C129.74 159.153 130.673 159.351 131.247 159.746C131.822 160.129 132.109 160.775 132.109 161.684V163.587C132.109 164.018 132.037 164.377 131.894 164.664C131.75 164.939 131.517 165.19 131.194 165.418C130.883 165.633 130.422 165.878 129.812 166.154L127.119 167.392C126.329 167.751 125.934 168.278 125.934 168.972V169.744H132.109V171H124.283V168.918ZM135.593 168.918C135.593 168.583 135.647 168.272 135.754 167.984C135.874 167.685 136.023 167.434 136.203 167.231C136.347 167.063 136.562 166.884 136.849 166.692C137.148 166.489 137.43 166.321 137.693 166.19C137.92 166.07 138.219 165.932 138.59 165.777L140.529 164.915C141.295 164.58 141.678 164.059 141.678 163.353V161.756C141.678 161.206 141.51 160.841 141.175 160.661C140.84 160.47 140.254 160.374 139.416 160.374C138.59 160.374 137.453 160.499 136.006 160.751V159.494C137.214 159.267 138.465 159.153 139.757 159.153C141.049 159.153 141.983 159.351 142.557 159.746C143.132 160.129 143.419 160.775 143.419 161.684V163.587C143.419 164.018 143.347 164.377 143.203 164.664C143.06 164.939 142.826 165.19 142.503 165.418C142.192 165.633 141.731 165.878 141.121 166.154L138.429 167.392C137.639 167.751 137.244 168.278 137.244 168.972V169.744H143.419V171H135.593V168.918Z" fill="white"/>
<path d="M68.5584 199.505H72.4395V200.51H68.5584V199.505ZM74.8743 194.939H78.4762C81.017 194.939 82.2874 195.805 82.2874 197.536V201.543C82.2874 203.181 81.0217 204 78.4901 204H74.8743V194.939ZM78.3924 203.079C80.1235 203.079 80.9891 202.557 80.9891 201.515V197.522C80.9891 197.187 80.9193 196.903 80.7797 196.671C80.6401 196.438 80.4446 196.266 80.1933 196.154C79.942 196.052 79.6814 195.982 79.4115 195.945C79.1416 195.898 78.8252 195.875 78.4622 195.875H76.2285V203.079H78.3924ZM87.8119 204.14C85.7457 204.14 84.7126 203.451 84.7126 202.073V199.407C84.7126 198.588 84.9453 198.002 85.4106 197.648C85.8853 197.285 86.6485 197.103 87.7002 197.103C88.6961 197.103 89.4127 197.276 89.8502 197.62C90.2969 197.964 90.5203 198.56 90.5203 199.407V200.901H85.983V201.92C85.983 202.385 86.1459 202.72 86.4716 202.925C86.7974 203.13 87.3 203.232 87.9794 203.232C88.6216 203.232 89.3801 203.12 90.255 202.897V203.86C89.3988 204.047 88.5844 204.14 87.8119 204.14ZM89.2638 200.077V199.016C89.2638 198.606 89.1382 198.327 88.8869 198.178C88.6449 198.02 88.2261 197.941 87.6304 197.941C87.0533 197.941 86.6345 198.02 86.3739 198.178C86.1133 198.327 85.983 198.606 85.983 199.016V200.077H89.2638ZM92.1279 197.243H93.4542L95.325 202.911H95.3948L97.2097 197.243H98.4243L96.0649 204H94.5571L92.1279 197.243ZM103.141 204.14C101.075 204.14 100.042 203.451 100.042 202.073V199.407C100.042 198.588 100.275 198.002 100.74 197.648C101.215 197.285 101.978 197.103 103.03 197.103C104.026 197.103 104.742 197.276 105.18 197.62C105.626 197.964 105.85 198.56 105.85 199.407V200.901H101.313V201.92C101.313 202.385 101.475 202.72 101.801 202.925C102.127 203.13 102.63 203.232 103.309 203.232C103.951 203.232 104.71 203.12 105.585 202.897V203.86C104.728 204.047 103.914 204.14 103.141 204.14ZM104.593 200.077V199.016C104.593 198.606 104.468 198.327 104.216 198.178C103.974 198.02 103.556 197.941 102.96 197.941C102.383 197.941 101.964 198.02 101.704 198.178C101.443 198.327 101.313 198.606 101.313 199.016V200.077H104.593ZM108.463 194.227H109.719V204H108.463V194.227ZM115.458 204.14C114.863 204.14 114.416 204.116 114.118 204.07C113.82 204.033 113.522 203.944 113.225 203.805C112.918 203.665 112.694 203.442 112.555 203.134C112.415 202.818 112.345 202.395 112.345 201.864V199.519C112.345 199.1 112.396 198.732 112.499 198.416C112.601 198.099 112.736 197.853 112.904 197.676C113.043 197.518 113.253 197.397 113.532 197.313C113.82 197.22 114.113 197.159 114.411 197.131C114.746 197.113 115.095 197.103 115.458 197.103C115.942 197.103 116.305 197.117 116.547 197.145C116.799 197.164 117.064 197.21 117.343 197.285C117.632 197.369 117.855 197.494 118.013 197.662C118.171 197.829 118.306 198.071 118.418 198.388C118.52 198.714 118.572 199.09 118.572 199.519V201.864C118.572 202.655 118.39 203.232 118.027 203.595C117.878 203.744 117.664 203.86 117.385 203.944C117.106 204.028 116.817 204.084 116.519 204.112C116.166 204.13 115.812 204.14 115.458 204.14ZM115.458 203.316C115.849 203.316 116.133 203.307 116.31 203.288C116.487 203.269 116.659 203.218 116.827 203.134C116.994 203.06 117.11 202.939 117.176 202.771C117.25 202.595 117.287 202.353 117.287 202.045V199.309C117.287 198.89 117.236 198.588 117.134 198.402C117.031 198.206 116.854 198.081 116.603 198.025C116.361 197.96 115.98 197.927 115.458 197.927C114.937 197.927 114.551 197.96 114.3 198.025C114.058 198.081 113.885 198.206 113.783 198.402C113.681 198.588 113.63 198.89 113.63 199.309V202.045C113.63 202.353 113.662 202.595 113.727 202.771C113.802 202.939 113.923 203.06 114.09 203.134C114.258 203.218 114.43 203.269 114.607 203.288C114.784 203.307 115.067 203.316 115.458 203.316ZM121.229 197.243H122.472V197.969H122.486C122.588 197.392 123.356 197.103 124.789 197.103C125.645 197.103 126.292 197.285 126.73 197.648C127.167 198.002 127.386 198.458 127.386 199.016V201.794C127.386 202.194 127.325 202.543 127.204 202.841C127.093 203.139 126.944 203.372 126.758 203.539C126.59 203.698 126.357 203.823 126.06 203.916C125.771 204.009 125.483 204.07 125.194 204.098C124.933 204.126 124.617 204.14 124.245 204.14C123.835 204.14 123.458 204.093 123.114 204C122.779 203.898 122.569 203.753 122.486 203.567V206.904H121.229V197.243ZM124.273 203.288C124.757 203.288 125.124 203.255 125.376 203.19C125.636 203.116 125.822 202.986 125.934 202.799C126.046 202.613 126.102 202.329 126.102 201.948V199.463C126.102 199.044 126.046 198.732 125.934 198.527C125.822 198.323 125.636 198.188 125.376 198.123C125.124 198.048 124.752 198.011 124.259 198.011C123.765 198.011 123.398 198.048 123.156 198.123C122.914 198.188 122.742 198.323 122.639 198.527C122.537 198.723 122.486 199.035 122.486 199.463V201.948C122.486 202.329 122.537 202.613 122.639 202.799C122.751 202.986 122.932 203.116 123.184 203.19C123.435 203.255 123.798 203.288 124.273 203.288ZM130.012 197.243H131.268V198.067C131.399 197.424 132.157 197.103 133.544 197.103C134.67 197.103 135.373 197.411 135.652 198.025C135.736 197.727 135.987 197.499 136.406 197.341C136.834 197.182 137.355 197.103 137.97 197.103C138.807 197.103 139.398 197.262 139.743 197.578C140.087 197.885 140.259 198.374 140.259 199.044V204H139.003V199.128C139.003 198.951 138.989 198.807 138.961 198.695C138.933 198.583 138.877 198.472 138.793 198.36C138.607 198.127 138.193 198.011 137.551 198.011C137.057 198.011 136.69 198.043 136.448 198.109C136.206 198.174 136.038 198.285 135.945 198.444C135.862 198.602 135.82 198.83 135.82 199.128V204H134.563V199.128C134.563 198.951 134.549 198.807 134.521 198.695C134.493 198.583 134.438 198.472 134.354 198.36C134.168 198.127 133.758 198.011 133.125 198.011C132.613 198.011 132.227 198.043 131.966 198.109C131.706 198.174 131.524 198.285 131.422 198.444C131.32 198.593 131.268 198.821 131.268 199.128V204H130.012V197.243ZM145.978 204.14C143.912 204.14 142.879 203.451 142.879 202.073V199.407C142.879 198.588 143.112 198.002 143.577 197.648C144.052 197.285 144.815 197.103 145.866 197.103C146.862 197.103 147.579 197.276 148.016 197.62C148.463 197.964 148.687 198.56 148.687 199.407V200.901H144.149V201.92C144.149 202.385 144.312 202.72 144.638 202.925C144.964 203.13 145.466 203.232 146.146 203.232C146.788 203.232 147.546 203.12 148.421 202.897V203.86C147.565 204.047 146.751 204.14 145.978 204.14ZM147.43 200.077V199.016C147.43 198.606 147.304 198.327 147.053 198.178C146.811 198.02 146.392 197.941 145.797 197.941C145.22 197.941 144.801 198.02 144.54 198.178C144.28 198.327 144.149 198.606 144.149 199.016V200.077H147.43ZM151.299 197.243H152.556V198.067C152.686 197.424 153.426 197.103 154.776 197.103C155.641 197.103 156.246 197.262 156.591 197.578C156.944 197.885 157.121 198.374 157.121 199.044V204H155.865V199.114C155.865 198.937 155.851 198.793 155.823 198.681C155.795 198.569 155.739 198.458 155.655 198.346C155.469 198.113 155.055 197.997 154.413 197.997C153.919 197.997 153.538 198.034 153.268 198.109C153.007 198.174 152.821 198.285 152.709 198.444C152.607 198.602 152.556 198.825 152.556 199.114V204H151.299V197.243ZM162.834 204.14C162.257 204.14 161.806 204.079 161.48 203.958C161.154 203.828 160.917 203.614 160.768 203.316C160.629 203.009 160.559 202.581 160.559 202.032V198.067H159.051V197.243H160.559V195.149H161.829V197.243H164.244V198.067H161.829V202.101C161.829 202.436 161.866 202.688 161.941 202.855C162.025 203.023 162.164 203.144 162.36 203.218C162.565 203.283 162.858 203.316 163.239 203.316C163.36 203.316 163.695 203.279 164.244 203.204V204.028C163.77 204.102 163.3 204.14 162.834 204.14ZM68.5584 220.505H72.4395V221.51H68.5584V220.505ZM74.8743 215.939H77.834C78.2528 215.939 78.5878 215.949 78.8391 215.967C79.0997 215.986 79.3743 216.028 79.6628 216.093C79.9606 216.158 80.198 216.256 80.3748 216.386C80.561 216.516 80.7192 216.693 80.8495 216.917C80.9705 217.131 81.031 217.401 81.031 217.726V219.611C81.031 220.365 80.7378 220.909 80.1514 221.245C79.5744 221.57 78.7181 221.733 77.5827 221.733H76.2285V225H74.8743V215.939ZM77.7642 220.882C78.3505 220.882 78.8205 220.775 79.1742 220.56C79.5279 220.346 79.7047 220.007 79.7047 219.541V217.894C79.7047 217.643 79.6395 217.438 79.5092 217.28C79.3789 217.112 79.1928 216.996 78.9508 216.931C78.7181 216.875 78.5227 216.838 78.3645 216.819C78.2062 216.8 77.9968 216.791 77.7362 216.791H76.2145V220.882H77.7642ZM85.5307 225.14C84.8885 225.14 84.3906 225.079 84.0369 224.958C83.6925 224.837 83.4412 224.623 83.283 224.316C83.1341 224.009 83.0597 223.567 83.0597 222.99C83.0597 222.478 83.1295 222.082 83.2691 221.803C83.418 221.514 83.6646 221.31 84.009 221.189C84.3627 221.068 84.8606 221.007 85.5028 221.007H87.5271V219.932C87.5271 219.681 87.4759 219.49 87.3735 219.36C87.2805 219.22 87.1176 219.123 86.8849 219.067C86.6615 219.011 86.3311 218.983 85.8937 218.983C85.1957 218.983 84.4232 219.039 83.5762 219.15V218.229C84.4976 218.145 85.3306 218.103 86.0752 218.103C86.857 218.103 87.434 218.164 87.8063 218.285C88.1786 218.397 88.4346 218.597 88.5742 218.885C88.7138 219.174 88.7836 219.62 88.7836 220.225V225H87.569V224.358C87.4666 224.879 86.7872 225.14 85.5307 225.14ZM85.7401 224.316C86.1962 224.316 86.5824 224.283 86.8989 224.218C87.3177 224.134 87.5271 223.939 87.5271 223.632V221.789H85.5866C85.1863 221.789 84.8978 221.822 84.721 221.887C84.5441 221.943 84.4278 222.054 84.372 222.222C84.3161 222.389 84.2882 222.659 84.2882 223.032C84.2882 223.367 84.3208 223.627 84.3859 223.813C84.4511 223.99 84.5674 224.12 84.7349 224.204C84.9025 224.279 85.1538 224.316 85.4888 224.316H85.7401ZM91.6607 218.243H92.8474V219.346C92.8474 219.132 92.9404 218.932 93.1266 218.746C93.3127 218.55 93.5501 218.397 93.8386 218.285C94.1271 218.164 94.411 218.103 94.6902 218.103H95.3045V219.178H94.6064C94.0108 219.178 93.578 219.257 93.3081 219.416C93.0475 219.565 92.9172 219.839 92.9172 220.239V225H91.6607V218.243ZM100.087 225.14C99.5102 225.14 99.0588 225.079 98.733 224.958C98.4073 224.828 98.1699 224.614 98.021 224.316C97.8814 224.009 97.8116 223.581 97.8116 223.032V219.067H96.3039V218.243H97.8116V216.149H99.082V218.243H101.497V219.067H99.082V223.101C99.082 223.436 99.1193 223.688 99.1937 223.855C99.2775 224.023 99.4171 224.144 99.6126 224.218C99.8173 224.283 100.11 224.316 100.492 224.316C100.613 224.316 100.948 224.279 101.497 224.204V225.028C101.023 225.102 100.553 225.14 100.087 225.14ZM103.568 218.243H104.825V219.067C104.955 218.424 105.695 218.103 107.044 218.103C107.91 218.103 108.515 218.262 108.859 218.578C109.213 218.885 109.39 219.374 109.39 220.044V225H108.133V220.114C108.133 219.937 108.119 219.793 108.092 219.681C108.064 219.569 108.008 219.458 107.924 219.346C107.738 219.113 107.324 218.997 106.682 218.997C106.188 218.997 105.807 219.034 105.537 219.109C105.276 219.174 105.09 219.285 104.978 219.444C104.876 219.602 104.825 219.825 104.825 220.114V225H103.568V218.243ZM115.117 225.14C113.051 225.14 112.018 224.451 112.018 223.073V220.407C112.018 219.588 112.251 219.002 112.716 218.648C113.191 218.285 113.954 218.103 115.006 218.103C116.001 218.103 116.718 218.276 117.155 218.62C117.602 218.964 117.826 219.56 117.826 220.407V221.901H113.288V222.92C113.288 223.385 113.451 223.72 113.777 223.925C114.103 224.13 114.605 224.232 115.285 224.232C115.927 224.232 116.685 224.12 117.56 223.897V224.86C116.704 225.047 115.89 225.14 115.117 225.14ZM116.569 221.077V220.016C116.569 219.606 116.443 219.327 116.192 219.178C115.95 219.02 115.531 218.941 114.936 218.941C114.359 218.941 113.94 219.02 113.679 219.178C113.419 219.327 113.288 219.606 113.288 220.016V221.077H116.569ZM120.438 218.243H121.625V219.346C121.625 219.132 121.718 218.932 121.904 218.746C122.09 218.55 122.328 218.397 122.616 218.285C122.905 218.164 123.189 218.103 123.468 218.103H124.082V219.178H123.384C122.789 219.178 122.356 219.257 122.086 219.416C121.825 219.565 121.695 219.839 121.695 220.239V225H120.438V218.243ZM128.097 225.14C127.38 225.14 126.608 225.084 125.78 224.972V224.009C126.869 224.186 127.65 224.274 128.125 224.274C128.721 224.274 129.149 224.218 129.409 224.107C129.67 223.986 129.8 223.767 129.8 223.45V222.766C129.8 222.478 129.703 222.273 129.507 222.152C129.312 222.031 128.995 221.971 128.558 221.971H127.79C127.092 221.971 126.557 221.826 126.185 221.538C125.822 221.249 125.64 220.844 125.64 220.323V219.695C125.64 218.634 126.645 218.103 128.656 218.103C128.804 218.103 129.489 218.141 130.708 218.215V219.123C129.879 218.992 129.177 218.927 128.6 218.927C127.939 218.927 127.488 218.992 127.246 219.123C127.004 219.253 126.883 219.472 126.883 219.779V220.351C126.883 220.807 127.297 221.035 128.125 221.035H128.907C130.331 221.035 131.043 221.566 131.043 222.627V223.213C131.043 223.911 130.801 224.409 130.317 224.707C129.833 224.995 129.093 225.14 128.097 225.14ZM133.478 215.227H134.734V219.067C134.864 218.424 135.604 218.103 136.954 218.103C137.819 218.103 138.424 218.262 138.769 218.578C139.122 218.885 139.299 219.374 139.299 220.044V225H138.043V220.128C138.043 219.951 138.029 219.807 138.001 219.695C137.973 219.583 137.917 219.472 137.833 219.36C137.647 219.127 137.233 219.011 136.591 219.011C136.079 219.011 135.688 219.048 135.418 219.123C135.158 219.188 134.976 219.299 134.874 219.458C134.781 219.616 134.734 219.839 134.734 220.128V225H133.478V215.227ZM142.179 215.8H143.435V217.112H142.179V215.8ZM142.179 218.243H143.435V225H142.179V218.243ZM146.312 218.243H147.555V218.969H147.569C147.671 218.392 148.439 218.103 149.872 218.103C150.729 218.103 151.375 218.285 151.813 218.648C152.25 219.002 152.469 219.458 152.469 220.016V222.794C152.469 223.194 152.408 223.543 152.287 223.841C152.176 224.139 152.027 224.372 151.841 224.539C151.673 224.698 151.441 224.823 151.143 224.916C150.854 225.009 150.566 225.07 150.277 225.098C150.017 225.126 149.7 225.14 149.328 225.14C148.918 225.14 148.541 225.093 148.197 225C147.862 224.898 147.652 224.753 147.569 224.567V227.904H146.312V218.243ZM149.356 224.288C149.84 224.288 150.207 224.255 150.459 224.19C150.719 224.116 150.905 223.986 151.017 223.799C151.129 223.613 151.185 223.329 151.185 222.948V220.463C151.185 220.044 151.129 219.732 151.017 219.527C150.905 219.323 150.719 219.188 150.459 219.123C150.207 219.048 149.835 219.011 149.342 219.011C148.848 219.011 148.481 219.048 148.239 219.123C147.997 219.188 147.825 219.323 147.722 219.527C147.62 219.723 147.569 220.035 147.569 220.463V222.948C147.569 223.329 147.62 223.613 147.722 223.799C147.834 223.986 148.015 224.116 148.267 224.19C148.518 224.255 148.881 224.288 149.356 224.288ZM68.5584 241.505H72.4395V242.51H68.5584V241.505ZM74.8743 236.939H76.8986L79.8024 244.478L79.8443 244.492L82.5946 236.939H84.5491V246H83.3624V238.336H83.2926L80.3748 246H79.1602L76.1587 238.336H76.0889V246H74.8743V236.939ZM89.5935 246.14C88.9513 246.14 88.4534 246.079 88.0997 245.958C87.7553 245.837 87.5041 245.623 87.3458 245.316C87.1969 245.009 87.1225 244.567 87.1225 243.99C87.1225 243.478 87.1923 243.082 87.3319 242.803C87.4808 242.514 87.7274 242.31 88.0718 242.189C88.4255 242.068 88.9234 242.007 89.5656 242.007H91.5899V240.932C91.5899 240.681 91.5387 240.49 91.4363 240.36C91.3433 240.22 91.1804 240.123 90.9477 240.067C90.7243 240.011 90.3939 239.983 89.9565 239.983C89.2585 239.983 88.486 240.039 87.639 240.15V239.229C88.5604 239.145 89.3934 239.103 90.138 239.103C90.9198 239.103 91.4968 239.164 91.8691 239.285C92.2414 239.397 92.4974 239.597 92.637 239.885C92.7766 240.174 92.8464 240.62 92.8464 241.225V246H91.6318V245.358C91.5294 245.879 90.85 246.14 89.5935 246.14ZM89.8029 245.316C90.259 245.316 90.6452 245.283 90.9617 245.218C91.3805 245.134 91.5899 244.939 91.5899 244.632V242.789H89.6494C89.2491 242.789 88.9606 242.822 88.7838 242.887C88.607 242.943 88.4906 243.054 88.4348 243.222C88.3789 243.389 88.351 243.659 88.351 244.032C88.351 244.367 88.3836 244.627 88.4487 244.813C88.5139 244.99 88.6302 245.12 88.7978 245.204C88.9653 245.279 89.2166 245.316 89.5516 245.316H89.8029ZM95.7235 239.243H96.9102V240.346C96.9102 240.132 97.0032 239.932 97.1894 239.746C97.3755 239.55 97.6129 239.397 97.9014 239.285C98.1899 239.164 98.4738 239.103 98.753 239.103H99.3673V240.178H98.6692C98.0736 240.178 97.6408 240.257 97.3709 240.416C97.1103 240.565 96.98 240.839 96.98 241.239V246H95.7235V239.243ZM101.316 236.227H102.572V246H101.316V236.227ZM102.726 242.3L105.574 239.243H107.11L104.178 242.3L107.375 246H105.811L102.726 242.3ZM112.033 246.14C109.967 246.14 108.934 245.451 108.934 244.073V241.407C108.934 240.588 109.167 240.002 109.632 239.648C110.107 239.285 110.87 239.103 111.922 239.103C112.917 239.103 113.634 239.276 114.072 239.62C114.518 239.964 114.742 240.56 114.742 241.407V242.901H110.204V243.92C110.204 244.385 110.367 244.72 110.693 244.925C111.019 245.13 111.521 245.232 112.201 245.232C112.843 245.232 113.602 245.12 114.476 244.897V245.86C113.62 246.047 112.806 246.14 112.033 246.14ZM113.485 242.077V241.016C113.485 240.606 113.36 240.327 113.108 240.178C112.866 240.02 112.447 239.941 111.852 239.941C111.275 239.941 110.856 240.02 110.595 240.178C110.335 240.327 110.204 240.606 110.204 241.016V242.077H113.485ZM120.189 246.14C119.612 246.14 119.16 246.079 118.834 245.958C118.509 245.828 118.271 245.614 118.122 245.316C117.983 245.009 117.913 244.581 117.913 244.032V240.067H116.405V239.243H117.913V237.149H119.183V239.243H121.599V240.067H119.183V244.101C119.183 244.436 119.221 244.688 119.295 244.855C119.379 245.023 119.518 245.144 119.714 245.218C119.919 245.283 120.212 245.316 120.593 245.316C120.714 245.316 121.049 245.279 121.599 245.204V246.028C121.124 246.102 120.654 246.14 120.189 246.14ZM123.67 236.8H124.926V238.112H123.67V236.8ZM123.67 239.243H124.926V246H123.67V239.243ZM127.803 239.243H129.06V240.067C129.19 239.424 129.93 239.103 131.28 239.103C132.145 239.103 132.75 239.262 133.094 239.578C133.448 239.885 133.625 240.374 133.625 241.044V246H132.368V241.114C132.368 240.937 132.355 240.793 132.327 240.681C132.299 240.569 132.243 240.458 132.159 240.346C131.973 240.113 131.559 239.997 130.917 239.997C130.423 239.997 130.042 240.034 129.772 240.109C129.511 240.174 129.325 240.285 129.213 240.444C129.111 240.602 129.06 240.825 129.06 241.114V246H127.803V239.243ZM139.059 249.071C138.138 249.071 137.361 249.02 136.728 248.918V248.024C137.844 248.155 138.659 248.22 139.171 248.22C139.813 248.22 140.278 248.117 140.567 247.913C140.865 247.708 141.014 247.368 141.014 246.893V245.274C140.995 245.572 140.79 245.791 140.399 245.93C140.018 246.07 139.534 246.14 138.947 246.14C138.249 246.14 137.705 246.074 137.314 245.944C136.932 245.814 136.658 245.6 136.49 245.302C136.332 245.004 136.253 244.599 136.253 244.087V241.337C136.253 240.537 136.467 239.964 136.895 239.62C137.333 239.276 138.045 239.103 139.031 239.103C140.204 239.103 140.893 239.369 141.097 239.899V239.243H142.27V246.642C142.27 247.266 142.154 247.754 141.921 248.108C141.688 248.462 141.339 248.708 140.874 248.848C140.409 248.997 139.804 249.071 139.059 249.071ZM139.213 245.302C139.873 245.302 140.339 245.223 140.609 245.065C140.879 244.906 141.014 244.609 141.014 244.171V241.114C141.014 240.807 140.962 240.574 140.86 240.416C140.767 240.257 140.59 240.146 140.33 240.081C140.069 240.006 139.687 239.969 139.185 239.969C138.71 239.969 138.352 240.002 138.11 240.067C137.877 240.132 137.714 240.248 137.621 240.416C137.537 240.574 137.495 240.807 137.495 241.114V244.171C137.495 244.488 137.542 244.725 137.635 244.883C137.728 245.041 137.896 245.153 138.138 245.218C138.38 245.274 138.738 245.302 139.213 245.302ZM68.5584 262.505H72.4395V263.51H68.5584V262.505ZM74.8743 257.939H77.834C78.2528 257.939 78.5878 257.949 78.8391 257.967C79.0997 257.986 79.3743 258.028 79.6628 258.093C79.9606 258.158 80.198 258.256 80.3748 258.386C80.561 258.516 80.7192 258.693 80.8495 258.917C80.9705 259.131 81.031 259.401 81.031 259.726V261.611C81.031 262.365 80.7378 262.909 80.1514 263.245C79.5744 263.57 78.7181 263.733 77.5827 263.733H76.2285V267H74.8743V257.939ZM77.7642 262.882C78.3505 262.882 78.8205 262.775 79.1742 262.56C79.5279 262.346 79.7047 262.007 79.7047 261.541V259.894C79.7047 259.643 79.6395 259.438 79.5092 259.28C79.3789 259.112 79.1928 258.996 78.9508 258.931C78.7181 258.875 78.5227 258.838 78.3645 258.819C78.2062 258.8 77.9968 258.791 77.7362 258.791H76.2145V262.882H77.7642ZM83.4506 260.243H84.6372V261.346C84.6372 261.132 84.7303 260.932 84.9164 260.746C85.1026 260.55 85.3399 260.397 85.6284 260.285C85.917 260.164 86.2008 260.103 86.48 260.103H87.0943V261.178H86.3963C85.8006 261.178 85.3678 261.257 85.0979 261.416C84.8373 261.565 84.707 261.839 84.707 262.239V267H83.4506V260.243ZM91.905 267.14C91.3093 267.14 90.8626 267.116 90.5648 267.07C90.2669 267.033 89.9691 266.944 89.6713 266.805C89.3641 266.665 89.1408 266.442 89.0012 266.134C88.8616 265.818 88.7918 265.395 88.7918 264.864V262.519C88.7918 262.1 88.8429 261.732 88.9453 261.416C89.0477 261.099 89.1827 260.853 89.3502 260.676C89.4898 260.518 89.6992 260.397 89.9784 260.313C90.2669 260.22 90.5601 260.159 90.8579 260.131C91.193 260.113 91.542 260.103 91.905 260.103C92.389 260.103 92.752 260.117 92.9939 260.145C93.2452 260.164 93.5105 260.21 93.7897 260.285C94.0782 260.369 94.3016 260.494 94.4598 260.662C94.6181 260.829 94.753 261.071 94.8647 261.388C94.9671 261.714 95.0183 262.09 95.0183 262.519V264.864C95.0183 265.655 94.8368 266.232 94.4738 266.595C94.3249 266.744 94.1108 266.86 93.8316 266.944C93.5524 267.028 93.2639 267.084 92.966 267.112C92.6124 267.13 92.2587 267.14 91.905 267.14ZM91.905 266.316C92.2959 266.316 92.5798 266.307 92.7566 266.288C92.9335 266.269 93.1056 266.218 93.2732 266.134C93.4407 266.06 93.557 265.939 93.6222 265.771C93.6966 265.595 93.7339 265.353 93.7339 265.045V262.309C93.7339 261.89 93.6827 261.588 93.5803 261.402C93.4779 261.206 93.3011 261.081 93.0498 261.025C92.8078 260.96 92.4262 260.927 91.905 260.927C91.3838 260.927 90.9976 260.96 90.7463 261.025C90.5043 261.081 90.3321 261.206 90.2297 261.402C90.1273 261.588 90.0761 261.89 90.0761 262.309V265.045C90.0761 265.353 90.1087 265.595 90.1739 265.771C90.2483 265.939 90.3693 266.06 90.5369 266.134C90.7044 266.218 90.8766 266.269 91.0534 266.288C91.2302 266.307 91.5141 266.316 91.905 266.316ZM97.6898 257.8H98.9463V259.112H97.6898V257.8ZM96.6986 270.071C96.438 270.071 96.2006 270.053 95.9866 270.016V269.192C96.182 269.229 96.3589 269.248 96.5171 269.248C96.9266 269.248 97.2244 269.164 97.4106 268.996C97.5967 268.838 97.6898 268.545 97.6898 268.117V260.243H98.9463V268.019C98.9463 268.773 98.7694 269.304 98.4158 269.611C98.0621 269.918 97.4897 270.071 96.6986 270.071ZM104.671 267.14C102.605 267.14 101.572 266.451 101.572 265.073V262.407C101.572 261.588 101.805 261.002 102.27 260.648C102.745 260.285 103.508 260.103 104.559 260.103C105.555 260.103 106.272 260.276 106.709 260.62C107.156 260.964 107.38 261.56 107.38 262.407V263.901H102.842V264.92C102.842 265.385 103.005 265.72 103.331 265.925C103.657 266.13 104.159 266.232 104.839 266.232C105.481 266.232 106.239 266.12 107.114 265.897V266.86C106.258 267.047 105.444 267.14 104.671 267.14ZM106.123 263.077V262.016C106.123 261.606 105.997 261.327 105.746 261.178C105.504 261.02 105.085 260.941 104.49 260.941C103.913 260.941 103.494 261.02 103.233 261.178C102.973 261.327 102.842 261.606 102.842 262.016V263.077H106.123ZM112.715 267.14C112.249 267.14 111.91 267.13 111.696 267.112C111.491 267.093 111.254 267.047 110.984 266.972C110.695 266.898 110.472 266.786 110.314 266.637C110.155 266.488 110.02 266.269 109.909 265.981C109.797 265.702 109.741 265.353 109.741 264.934V262.449C109.741 261.695 109.885 261.155 110.174 260.829C110.332 260.643 110.49 260.504 110.649 260.411C110.816 260.308 111.03 260.238 111.291 260.201C111.551 260.164 111.784 260.141 111.989 260.131C112.194 260.113 112.482 260.103 112.854 260.103C113.497 260.103 114.139 260.173 114.781 260.313V261.234C114.036 261.048 113.343 260.955 112.701 260.955C112.217 260.955 111.858 260.992 111.626 261.067C111.402 261.132 111.244 261.257 111.151 261.444C111.067 261.62 111.026 261.895 111.026 262.267V265.032C111.026 265.376 111.072 265.632 111.165 265.799C111.267 265.967 111.444 266.088 111.696 266.162C111.956 266.228 112.338 266.26 112.84 266.26C113.52 266.26 114.199 266.172 114.879 265.995V266.944C114.246 267.074 113.524 267.14 112.715 267.14ZM120 267.14C119.423 267.14 118.972 267.079 118.646 266.958C118.32 266.828 118.083 266.614 117.934 266.316C117.795 266.009 117.725 265.581 117.725 265.032V261.067H116.217V260.243H117.725V258.149H118.995V260.243H121.41V261.067H118.995V265.101C118.995 265.436 119.032 265.688 119.107 265.855C119.191 266.023 119.33 266.144 119.526 266.218C119.731 266.283 120.024 266.316 120.405 266.316C120.526 266.316 120.861 266.279 121.41 266.204V267.028C120.936 267.102 120.466 267.14 120 267.14ZM127.481 257.939H128.835V267H127.481V257.939ZM131.874 257.939H135.475C138.016 257.939 139.287 258.805 139.287 260.536V264.543C139.287 266.181 138.021 267 135.489 267H131.874V257.939ZM135.392 266.079C137.123 266.079 137.988 265.557 137.988 264.515V260.522C137.988 260.187 137.919 259.903 137.779 259.671C137.639 259.438 137.444 259.266 137.193 259.154C136.941 259.052 136.681 258.982 136.411 258.945C136.141 258.898 135.824 258.875 135.461 258.875H133.228V266.079H135.392ZM145.593 267.14C143.061 267.14 141.796 266.321 141.796 264.683V260.397C141.796 258.665 143.061 257.8 145.593 257.8C148.152 257.8 149.432 258.661 149.432 260.383V264.683C149.432 265.557 149.078 266.186 148.371 266.567C147.664 266.949 146.738 267.14 145.593 267.14ZM145.621 266.232C147.287 266.232 148.12 265.711 148.12 264.669V260.355C148.12 259.238 147.282 258.679 145.607 258.679C144.797 258.679 144.174 258.805 143.736 259.056C143.308 259.308 143.094 259.74 143.094 260.355V264.669C143.094 265.711 143.936 266.232 145.621 266.232ZM154.203 267.14C153.486 267.14 152.714 267.084 151.885 266.972V266.009C152.974 266.186 153.756 266.274 154.231 266.274C154.826 266.274 155.254 266.218 155.515 266.107C155.776 265.986 155.906 265.767 155.906 265.45V264.766C155.906 264.478 155.808 264.273 155.613 264.152C155.417 264.031 155.101 263.971 154.663 263.971H153.896C153.198 263.971 152.662 263.826 152.29 263.538C151.927 263.249 151.746 262.844 151.746 262.323V261.695C151.746 260.634 152.751 260.103 154.761 260.103C154.91 260.103 155.594 260.141 156.813 260.215V261.123C155.985 260.992 155.282 260.927 154.705 260.927C154.044 260.927 153.593 260.992 153.351 261.123C153.109 261.253 152.988 261.472 152.988 261.779V262.351C152.988 262.807 153.402 263.035 154.231 263.035H155.012C156.436 263.035 157.148 263.566 157.148 264.627V265.213C157.148 265.911 156.906 266.409 156.422 266.707C155.939 266.995 155.199 267.14 154.203 267.14Z" fill="white"/>
<path d="M214.049 568C210.782 568 209.149 566.947 209.149 564.841V559.51C209.149 557.284 210.782 556.171 214.049 556.171C217.328 556.171 218.967 557.278 218.967 559.492V564.302C218.967 565.403 218.435 566.307 217.37 567.013H220.242V568H214.049ZM214.085 566.833C216.227 566.833 217.298 566.163 217.298 564.823V559.456C217.298 558.02 216.221 557.302 214.067 557.302C213.588 557.302 213.175 557.332 212.828 557.392C212.481 557.44 212.152 557.535 211.841 557.679C211.159 558.002 210.818 558.594 210.818 559.456V564.823C210.818 566.163 211.907 566.833 214.085 566.833ZM222.32 565.918C222.32 565.583 222.374 565.272 222.481 564.984C222.601 564.685 222.751 564.434 222.93 564.231C223.074 564.063 223.289 563.884 223.576 563.692C223.875 563.489 224.157 563.321 224.42 563.19C224.647 563.07 224.946 562.932 225.317 562.777L227.256 561.915C228.022 561.58 228.405 561.059 228.405 560.353V558.756C228.405 558.206 228.237 557.841 227.902 557.661C227.567 557.47 226.981 557.374 226.143 557.374C225.317 557.374 224.181 557.499 222.733 557.751V556.494C223.941 556.267 225.192 556.153 226.484 556.153C227.777 556.153 228.71 556.351 229.284 556.746C229.859 557.129 230.146 557.775 230.146 558.684V560.587C230.146 561.018 230.074 561.377 229.93 561.664C229.787 561.939 229.554 562.19 229.23 562.418C228.919 562.633 228.459 562.878 227.848 563.154L225.156 564.392C224.366 564.751 223.971 565.278 223.971 565.972V566.744H230.146V568H222.32V565.918ZM238.664 565.918C238.664 565.583 238.718 565.272 238.825 564.984C238.945 564.685 239.095 564.434 239.274 564.231C239.418 564.063 239.633 563.884 239.92 563.692C240.219 563.489 240.501 563.321 240.764 563.19C240.991 563.07 241.29 562.932 241.661 562.777L243.6 561.915C244.366 561.58 244.749 561.059 244.749 560.353V558.756C244.749 558.206 244.581 557.841 244.246 557.661C243.911 557.47 243.325 557.374 242.487 557.374C241.661 557.374 240.525 557.499 239.077 557.751V556.494C240.285 556.267 241.536 556.153 242.828 556.153C244.12 556.153 245.054 556.351 245.628 556.746C246.203 557.129 246.49 557.775 246.49 558.684V560.587C246.49 561.018 246.418 561.377 246.274 561.664C246.131 561.939 245.897 562.19 245.574 562.418C245.263 562.633 244.803 562.878 244.192 563.154L241.5 564.392C240.71 564.751 240.315 565.278 240.315 565.972V566.744H246.49V568H238.664V565.918ZM253.868 568.179C253.342 568.179 252.911 568.162 252.576 568.126C252.253 568.09 251.906 568.018 251.535 567.91C251.14 567.803 250.823 567.647 250.584 567.444C250.356 567.228 250.165 566.929 250.009 566.546C249.854 566.187 249.776 565.738 249.776 565.2V559.312C249.776 558.774 249.854 558.301 250.009 557.894C250.165 557.488 250.368 557.164 250.62 556.925C250.847 556.722 251.146 556.56 251.517 556.44C251.9 556.309 252.283 556.225 252.666 556.189C253.097 556.165 253.498 556.153 253.868 556.153C254.395 556.153 254.82 556.171 255.143 556.207C255.478 556.243 255.831 556.315 256.202 556.423C256.597 556.542 256.914 556.71 257.153 556.925C257.405 557.141 257.608 557.446 257.764 557.841C257.919 558.235 257.997 558.72 257.997 559.294V565.2C257.997 565.69 257.919 566.127 257.764 566.51C257.608 566.893 257.405 567.192 257.153 567.408C256.914 567.611 256.609 567.779 256.238 567.91C255.867 568.03 255.49 568.102 255.107 568.126C254.772 568.162 254.359 568.179 253.868 568.179ZM253.904 567.12C254.539 567.12 255.029 567.079 255.376 566.995C255.723 566.899 255.975 566.72 256.13 566.456C256.286 566.193 256.363 565.804 256.363 565.29V559.187C256.363 558.624 256.28 558.206 256.112 557.93C255.957 557.643 255.705 557.452 255.358 557.356C255.023 557.26 254.533 557.212 253.886 557.212C253.228 557.212 252.726 557.26 252.379 557.356C252.044 557.452 251.798 557.643 251.643 557.93C251.487 558.206 251.409 558.624 251.409 559.187V565.29C251.409 565.804 251.487 566.193 251.643 566.456C251.81 566.72 252.068 566.899 252.415 566.995C252.762 567.079 253.258 567.12 253.904 567.12ZM261.283 565.918C261.283 565.583 261.337 565.272 261.445 564.984C261.564 564.685 261.714 564.434 261.893 564.231C262.037 564.063 262.252 563.884 262.54 563.692C262.839 563.489 263.12 563.321 263.383 563.19C263.611 563.07 263.91 562.932 264.281 562.777L266.219 561.915C266.985 561.58 267.368 561.059 267.368 560.353V558.756C267.368 558.206 267.2 557.841 266.865 557.661C266.53 557.47 265.944 557.374 265.106 557.374C264.281 557.374 263.144 557.499 261.696 557.751V556.494C262.904 556.267 264.155 556.153 265.447 556.153C266.74 556.153 267.673 556.351 268.247 556.746C268.822 557.129 269.109 557.775 269.109 558.684V560.587C269.109 561.018 269.037 561.377 268.894 561.664C268.75 561.939 268.517 562.19 268.194 562.418C267.883 562.633 267.422 562.878 266.812 563.154L264.119 564.392C263.329 564.751 262.934 565.278 262.934 565.972V566.744H269.109V568H261.283V565.918ZM272.593 565.918C272.593 565.583 272.647 565.272 272.754 564.984C272.874 564.685 273.023 564.434 273.203 564.231C273.347 564.063 273.562 563.884 273.849 563.692C274.148 563.489 274.43 563.321 274.693 563.19C274.92 563.07 275.219 562.932 275.59 562.777L277.529 561.915C278.295 561.58 278.678 561.059 278.678 560.353V558.756C278.678 558.206 278.51 557.841 278.175 557.661C277.84 557.47 277.254 557.374 276.416 557.374C275.59 557.374 274.453 557.499 273.006 557.751V556.494C274.214 556.267 275.465 556.153 276.757 556.153C278.049 556.153 278.983 556.351 279.557 556.746C280.132 557.129 280.419 557.775 280.419 558.684V560.587C280.419 561.018 280.347 561.377 280.203 561.664C280.06 561.939 279.826 562.19 279.503 562.418C279.192 562.633 278.731 562.878 278.121 563.154L275.429 564.392C274.639 564.751 274.244 565.278 274.244 565.972V566.744H280.419V568H272.593V565.918Z" fill="white"/>
<path d="M75.049 1017C71.7822 1017 70.1488 1015.95 70.1488 1013.84V1008.51C70.1488 1006.28 71.7822 1005.17 75.049 1005.17C78.3278 1005.17 79.9672 1006.28 79.9672 1008.49V1013.3C79.9672 1014.4 79.4347 1015.31 78.3697 1016.01H81.2416V1017H75.049ZM75.0849 1015.83C77.2269 1015.83 78.2979 1015.16 78.2979 1013.82V1008.46C78.2979 1007.02 77.2209 1006.3 75.067 1006.3C74.5883 1006.3 74.1755 1006.33 73.8284 1006.39C73.4814 1006.44 73.1523 1006.54 72.8412 1006.68C72.1591 1007 71.8181 1007.59 71.8181 1008.46V1013.82C71.8181 1015.16 72.907 1015.83 75.0849 1015.83ZM86.8021 1017.18C85.7969 1017.18 84.6661 1017.07 83.4096 1016.84V1015.55C84.8336 1015.85 86.0242 1015.99 86.9816 1015.99C88.5731 1015.99 89.3688 1015.55 89.3688 1014.65V1012.66C89.3688 1012.17 89.1056 1011.84 88.5791 1011.69C88.3278 1011.63 88.1004 1011.59 87.897 1011.58C87.7055 1011.56 87.4542 1011.54 87.1431 1011.54H84.8994V1010.43H86.838C87.1491 1010.43 87.4004 1010.42 87.5918 1010.41C87.7833 1010.39 88.0047 1010.34 88.256 1010.27C88.5192 1010.21 88.7227 1010.1 88.8663 1009.93C89.0099 1009.76 89.0817 1009.54 89.0817 1009.28V1007.2C89.0817 1006.59 88.3637 1006.28 86.9277 1006.28C85.9704 1006.28 84.8755 1006.38 83.6429 1006.57V1005.33C84.672 1005.23 85.761 1005.17 86.9098 1005.17C88.238 1005.17 89.2013 1005.32 89.7996 1005.62C90.4099 1005.91 90.7151 1006.4 90.7151 1007.11V1009.35C90.7151 1009.72 90.5655 1010.04 90.2663 1010.29C89.9672 1010.53 89.5842 1010.68 89.1176 1010.75V1010.83C89.4047 1010.87 89.6381 1010.93 89.8176 1010.99C90.009 1011.03 90.2125 1011.11 90.4279 1011.22C90.8467 1011.44 91.0561 1011.81 91.0561 1012.35V1014.68C91.0561 1015.09 90.9664 1015.46 90.7869 1015.78C90.6074 1016.1 90.38 1016.35 90.1048 1016.53C89.8655 1016.7 89.5483 1016.84 89.1535 1016.95C88.7586 1017.04 88.3697 1017.11 87.9867 1017.14C87.532 1017.17 87.1371 1017.18 86.8021 1017.18ZM99.6638 1014.92C99.6638 1014.58 99.7176 1014.27 99.8253 1013.98C99.945 1013.69 100.095 1013.43 100.274 1013.23C100.418 1013.06 100.633 1012.88 100.92 1012.69C101.219 1012.49 101.501 1012.32 101.764 1012.19C101.991 1012.07 102.29 1011.93 102.661 1011.78L104.6 1010.92C105.366 1010.58 105.749 1010.06 105.749 1009.35V1007.76C105.749 1007.21 105.581 1006.84 105.246 1006.66C104.911 1006.47 104.325 1006.37 103.487 1006.37C102.661 1006.37 101.525 1006.5 100.077 1006.75V1005.49C101.285 1005.27 102.536 1005.15 103.828 1005.15C105.12 1005.15 106.054 1005.35 106.628 1005.75C107.203 1006.13 107.49 1006.77 107.49 1007.68V1009.59C107.49 1010.02 107.418 1010.38 107.274 1010.66C107.131 1010.94 106.897 1011.19 106.574 1011.42C106.263 1011.63 105.803 1011.88 105.192 1012.15L102.5 1013.39C101.71 1013.75 101.315 1014.28 101.315 1014.97V1015.74H107.49V1017H99.6638V1014.92ZM114.868 1017.18C114.342 1017.18 113.911 1017.16 113.576 1017.13C113.253 1017.09 112.906 1017.02 112.535 1016.91C112.14 1016.8 111.823 1016.65 111.584 1016.44C111.356 1016.23 111.165 1015.93 111.009 1015.55C110.854 1015.19 110.776 1014.74 110.776 1014.2V1008.31C110.776 1007.77 110.854 1007.3 111.009 1006.89C111.165 1006.49 111.368 1006.16 111.62 1005.93C111.847 1005.72 112.146 1005.56 112.517 1005.44C112.9 1005.31 113.283 1005.23 113.666 1005.19C114.097 1005.17 114.498 1005.15 114.868 1005.15C115.395 1005.15 115.82 1005.17 116.143 1005.21C116.478 1005.24 116.831 1005.31 117.202 1005.42C117.597 1005.54 117.914 1005.71 118.153 1005.93C118.405 1006.14 118.608 1006.45 118.764 1006.84C118.919 1007.24 118.997 1007.72 118.997 1008.29V1014.2C118.997 1014.69 118.919 1015.13 118.764 1015.51C118.608 1015.89 118.405 1016.19 118.153 1016.41C117.914 1016.61 117.609 1016.78 117.238 1016.91C116.867 1017.03 116.49 1017.1 116.107 1017.13C115.772 1017.16 115.359 1017.18 114.868 1017.18ZM114.904 1016.12C115.539 1016.12 116.029 1016.08 116.376 1015.99C116.723 1015.9 116.975 1015.72 117.13 1015.46C117.286 1015.19 117.363 1014.8 117.363 1014.29V1008.19C117.363 1007.62 117.28 1007.21 117.112 1006.93C116.957 1006.64 116.705 1006.45 116.358 1006.36C116.023 1006.26 115.533 1006.21 114.886 1006.21C114.228 1006.21 113.726 1006.26 113.379 1006.36C113.044 1006.45 112.798 1006.64 112.643 1006.93C112.487 1007.21 112.409 1007.62 112.409 1008.19V1014.29C112.409 1014.8 112.487 1015.19 112.643 1015.46C112.81 1015.72 113.068 1015.9 113.415 1015.99C113.762 1016.08 114.258 1016.12 114.904 1016.12ZM122.283 1014.92C122.283 1014.58 122.337 1014.27 122.445 1013.98C122.564 1013.69 122.714 1013.43 122.893 1013.23C123.037 1013.06 123.252 1012.88 123.54 1012.69C123.839 1012.49 124.12 1012.32 124.383 1012.19C124.611 1012.07 124.91 1011.93 125.281 1011.78L127.219 1010.92C127.985 1010.58 128.368 1010.06 128.368 1009.35V1007.76C128.368 1007.21 128.2 1006.84 127.865 1006.66C127.53 1006.47 126.944 1006.37 126.106 1006.37C125.281 1006.37 124.144 1006.5 122.696 1006.75V1005.49C123.904 1005.27 125.155 1005.15 126.447 1005.15C127.74 1005.15 128.673 1005.35 129.247 1005.75C129.822 1006.13 130.109 1006.77 130.109 1007.68V1009.59C130.109 1010.02 130.037 1010.38 129.894 1010.66C129.75 1010.94 129.517 1011.19 129.194 1011.42C128.883 1011.63 128.422 1011.88 127.812 1012.15L125.119 1013.39C124.329 1013.75 123.934 1014.28 123.934 1014.97V1015.74H130.109V1017H122.283V1014.92ZM133.593 1014.92C133.593 1014.58 133.647 1014.27 133.754 1013.98C133.874 1013.69 134.023 1013.43 134.203 1013.23C134.347 1013.06 134.562 1012.88 134.849 1012.69C135.148 1012.49 135.43 1012.32 135.693 1012.19C135.92 1012.07 136.219 1011.93 136.59 1011.78L138.529 1010.92C139.295 1010.58 139.678 1010.06 139.678 1009.35V1007.76C139.678 1007.21 139.51 1006.84 139.175 1006.66C138.84 1006.47 138.254 1006.37 137.416 1006.37C136.59 1006.37 135.453 1006.5 134.006 1006.75V1005.49C135.214 1005.27 136.465 1005.15 137.757 1005.15C139.049 1005.15 139.983 1005.35 140.557 1005.75C141.132 1006.13 141.419 1006.77 141.419 1007.68V1009.59C141.419 1010.02 141.347 1010.38 141.203 1010.66C141.06 1010.94 140.826 1011.19 140.503 1011.42C140.192 1011.63 139.731 1011.88 139.121 1012.15L136.429 1013.39C135.639 1013.75 135.244 1014.28 135.244 1014.97V1015.74H141.419V1017H133.593V1014.92Z" fill="white"/>
<path d="M69.5584 1041.5H73.4395V1042.51H69.5584V1041.5ZM78.3938 1036.94H81.9956C84.5365 1036.94 85.8069 1037.81 85.8069 1039.54V1043.54C85.8069 1045.18 84.5412 1046 82.0096 1046H78.3938V1036.94ZM81.9119 1045.08C83.643 1045.08 84.5086 1044.56 84.5086 1043.51V1039.52C84.5086 1039.19 84.4388 1038.9 84.2992 1038.67C84.1596 1038.44 83.9641 1038.27 83.7128 1038.15C83.4615 1038.05 83.2009 1037.98 82.931 1037.94C82.6611 1037.9 82.3447 1037.87 81.9817 1037.87H79.748V1045.08H81.9119ZM90.6473 1046.14C90.0516 1046.14 89.6049 1046.12 89.3071 1046.07C89.0092 1046.03 88.7114 1045.94 88.4136 1045.8C88.1064 1045.66 87.8831 1045.44 87.7434 1045.13C87.6038 1044.82 87.534 1044.39 87.534 1043.86V1041.52C87.534 1041.1 87.5852 1040.73 87.6876 1040.42C87.79 1040.1 87.9249 1039.85 88.0925 1039.68C88.2321 1039.52 88.4415 1039.4 88.7207 1039.31C89.0092 1039.22 89.3024 1039.16 89.6002 1039.13C89.9353 1039.11 90.2843 1039.1 90.6473 1039.1C91.1313 1039.1 91.4942 1039.12 91.7362 1039.15C91.9875 1039.16 92.2528 1039.21 92.532 1039.28C92.8205 1039.37 93.0439 1039.49 93.2021 1039.66C93.3603 1039.83 93.4953 1040.07 93.607 1040.39C93.7094 1040.71 93.7605 1041.09 93.7605 1041.52V1043.86C93.7605 1044.66 93.5791 1045.23 93.2161 1045.6C93.0672 1045.74 92.8531 1045.86 92.5739 1045.94C92.2947 1046.03 92.0061 1046.08 91.7083 1046.11C91.3546 1046.13 91.001 1046.14 90.6473 1046.14ZM90.6473 1045.32C91.0382 1045.32 91.3221 1045.31 91.4989 1045.29C91.6757 1045.27 91.8479 1045.22 92.0154 1045.13C92.183 1045.06 92.2993 1044.94 92.3645 1044.77C92.4389 1044.59 92.4761 1044.35 92.4761 1044.05V1041.31C92.4761 1040.89 92.425 1040.59 92.3226 1040.4C92.2202 1040.21 92.0434 1040.08 91.7921 1040.02C91.5501 1039.96 91.1685 1039.93 90.6473 1039.93C90.1261 1039.93 89.7398 1039.96 89.4885 1040.02C89.2466 1040.08 89.0744 1040.21 88.972 1040.4C88.8696 1040.59 88.8184 1040.89 88.8184 1041.31V1044.05C88.8184 1044.35 88.851 1044.59 88.9161 1044.77C88.9906 1044.94 89.1116 1045.06 89.2791 1045.13C89.4467 1045.22 89.6188 1045.27 89.7957 1045.29C89.9725 1045.31 90.2564 1045.32 90.6473 1045.32ZM98.5541 1046.14C97.9771 1046.14 97.5257 1046.08 97.1999 1045.96C96.8742 1045.83 96.6368 1045.61 96.4879 1045.32C96.3483 1045.01 96.2785 1044.58 96.2785 1044.03V1040.07H94.7707V1039.24H96.2785V1037.15H97.5489V1039.24H99.9641V1040.07H97.5489V1044.1C97.5489 1044.44 97.5862 1044.69 97.6606 1044.86C97.7444 1045.02 97.884 1045.14 98.0794 1045.22C98.2842 1045.28 98.5774 1045.32 98.959 1045.32C99.08 1045.32 99.415 1045.28 99.9641 1045.2V1046.03C99.4895 1046.1 99.0195 1046.14 98.5541 1046.14ZM108.17 1046.14C105.63 1046.14 104.359 1045.32 104.359 1043.68V1039.38C104.359 1037.65 105.63 1036.79 108.17 1036.79C109.036 1036.79 109.864 1036.87 110.655 1037.05V1038.06C109.762 1037.83 108.943 1037.72 108.198 1037.72C107.835 1037.72 107.519 1037.74 107.249 1037.79C106.979 1037.83 106.719 1037.9 106.467 1038C105.927 1038.23 105.658 1038.69 105.658 1039.37V1043.61C105.658 1044.66 106.523 1045.18 108.254 1045.18C108.999 1045.18 109.818 1045.06 110.711 1044.84V1045.87C109.92 1046.05 109.073 1046.14 108.17 1046.14ZM112.435 1036.23H113.691V1046H112.435V1036.23ZM115.87 1036.8H117.127V1038.11H115.87V1036.8ZM115.87 1039.24H117.127V1046H115.87V1039.24ZM119.306 1039.24H120.563V1040.07C120.693 1039.42 121.451 1039.1 122.838 1039.1C123.964 1039.1 124.667 1039.41 124.946 1040.02C125.03 1039.73 125.281 1039.5 125.7 1039.34C126.128 1039.18 126.65 1039.1 127.264 1039.1C128.101 1039.1 128.692 1039.26 129.037 1039.58C129.381 1039.89 129.553 1040.37 129.553 1041.04V1046H128.297V1041.13C128.297 1040.95 128.283 1040.81 128.255 1040.69C128.227 1040.58 128.171 1040.47 128.087 1040.36C127.901 1040.13 127.487 1040.01 126.845 1040.01C126.352 1040.01 125.984 1040.04 125.742 1040.11C125.5 1040.17 125.333 1040.29 125.239 1040.44C125.156 1040.6 125.114 1040.83 125.114 1041.13V1046H123.857V1041.13C123.857 1040.95 123.843 1040.81 123.815 1040.69C123.788 1040.58 123.732 1040.47 123.648 1040.36C123.462 1040.13 123.052 1040.01 122.419 1040.01C121.908 1040.01 121.521 1040.04 121.261 1040.11C121 1040.17 120.819 1040.29 120.716 1040.44C120.614 1040.59 120.563 1040.82 120.563 1041.13V1046H119.306V1039.24ZM133.807 1046.14C133.164 1046.14 132.666 1046.08 132.313 1045.96C131.968 1045.84 131.717 1045.62 131.559 1045.32C131.41 1045.01 131.335 1044.57 131.335 1043.99C131.335 1043.48 131.405 1043.08 131.545 1042.8C131.694 1042.51 131.94 1042.31 132.285 1042.19C132.638 1042.07 133.136 1042.01 133.779 1042.01H135.803V1040.93C135.803 1040.68 135.752 1040.49 135.649 1040.36C135.556 1040.22 135.393 1040.12 135.161 1040.07C134.937 1040.01 134.607 1039.98 134.169 1039.98C133.471 1039.98 132.699 1040.04 131.852 1040.15V1039.23C132.773 1039.15 133.606 1039.1 134.351 1039.1C135.133 1039.1 135.71 1039.16 136.082 1039.28C136.454 1039.4 136.71 1039.6 136.85 1039.89C136.99 1040.17 137.059 1040.62 137.059 1041.23V1046H135.845V1045.36C135.742 1045.88 135.063 1046.14 133.807 1046.14ZM134.016 1045.32C134.472 1045.32 134.858 1045.28 135.175 1045.22C135.593 1045.13 135.803 1044.94 135.803 1044.63V1042.79H133.862C133.462 1042.79 133.174 1042.82 132.997 1042.89C132.82 1042.94 132.704 1043.05 132.648 1043.22C132.592 1043.39 132.564 1043.66 132.564 1044.03C132.564 1044.37 132.597 1044.63 132.662 1044.81C132.727 1044.99 132.843 1045.12 133.011 1045.2C133.178 1045.28 133.43 1045.32 133.765 1045.32H134.016ZM140.802 1042.52L138.429 1039.24H139.811L141.486 1041.71L143.175 1039.24H144.558L142.184 1042.52L144.697 1046H143.315L141.486 1043.33L139.671 1046H138.289L140.802 1042.52Z" fill="white"/>
<path d="M205.558 583.505H209.44V584.51H205.558V583.505ZM211.176 578.939H214.778C217.319 578.939 218.589 579.805 218.589 581.536V585.543C218.589 587.181 217.324 588 214.792 588H211.176V578.939ZM214.694 587.079C216.425 587.079 217.291 586.557 217.291 585.515V581.522C217.291 581.187 217.221 580.903 217.082 580.671C216.942 580.438 216.747 580.266 216.495 580.154C216.244 580.052 215.983 579.982 215.713 579.945C215.444 579.898 215.127 579.875 214.764 579.875H212.53V587.079H214.694ZM223.43 588.14C222.834 588.14 222.387 588.116 222.09 588.07C221.792 588.033 221.494 587.944 221.196 587.805C220.889 587.665 220.666 587.442 220.526 587.134C220.386 586.818 220.317 586.395 220.317 585.864V583.519C220.317 583.1 220.368 582.732 220.47 582.416C220.572 582.099 220.707 581.853 220.875 581.676C221.015 581.518 221.224 581.397 221.503 581.313C221.792 581.22 222.085 581.159 222.383 581.131C222.718 581.113 223.067 581.103 223.43 581.103C223.914 581.103 224.277 581.117 224.519 581.145C224.77 581.164 225.035 581.21 225.314 581.285C225.603 581.369 225.826 581.494 225.985 581.662C226.143 581.829 226.278 582.071 226.389 582.388C226.492 582.714 226.543 583.09 226.543 583.519V585.864C226.543 586.655 226.362 587.232 225.999 587.595C225.85 587.744 225.636 587.86 225.356 587.944C225.077 588.028 224.789 588.084 224.491 588.112C224.137 588.13 223.783 588.14 223.43 588.14ZM223.43 587.316C223.821 587.316 224.105 587.307 224.281 587.288C224.458 587.269 224.63 587.218 224.798 587.134C224.965 587.06 225.082 586.939 225.147 586.771C225.221 586.595 225.259 586.353 225.259 586.045V583.309C225.259 582.89 225.207 582.588 225.105 582.402C225.003 582.206 224.826 582.081 224.575 582.025C224.333 581.96 223.951 581.927 223.43 581.927C222.909 581.927 222.522 581.96 222.271 582.025C222.029 582.081 221.857 582.206 221.754 582.402C221.652 582.588 221.601 582.89 221.601 583.309V586.045C221.601 586.353 221.633 586.595 221.699 586.771C221.773 586.939 221.894 587.06 222.062 587.134C222.229 587.218 222.401 587.269 222.578 587.288C222.755 587.307 223.039 587.316 223.43 587.316ZM231.337 588.14C230.76 588.14 230.308 588.079 229.982 587.958C229.657 587.828 229.419 587.614 229.27 587.316C229.131 587.009 229.061 586.581 229.061 586.032V582.067H227.553V581.243H229.061V579.149H230.331V581.243H232.747V582.067H230.331V586.101C230.331 586.436 230.369 586.688 230.443 586.855C230.527 587.023 230.666 587.144 230.862 587.218C231.067 587.283 231.36 587.316 231.741 587.316C231.862 587.316 232.197 587.279 232.747 587.204V588.028C232.272 588.102 231.802 588.14 231.337 588.14ZM234.203 578.939H235.558V587.051H240.011V588H234.203V578.939ZM243.453 588.14C242.811 588.14 242.313 588.079 241.959 587.958C241.615 587.837 241.363 587.623 241.205 587.316C241.056 587.009 240.982 586.567 240.982 585.99C240.982 585.478 241.052 585.082 241.191 584.803C241.34 584.514 241.587 584.31 241.931 584.189C242.285 584.068 242.783 584.007 243.425 584.007H245.449V582.932C245.449 582.681 245.398 582.49 245.296 582.36C245.203 582.22 245.04 582.123 244.807 582.067C244.584 582.011 244.253 581.983 243.816 581.983C243.118 581.983 242.345 582.039 241.498 582.15V581.229C242.42 581.145 243.253 581.103 243.997 581.103C244.779 581.103 245.356 581.164 245.728 581.285C246.101 581.397 246.357 581.597 246.496 581.885C246.636 582.174 246.706 582.62 246.706 583.225V588H245.491V587.358C245.389 587.879 244.709 588.14 243.453 588.14ZM243.662 587.316C244.118 587.316 244.505 587.283 244.821 587.218C245.24 587.134 245.449 586.939 245.449 586.632V584.789H243.509C243.108 584.789 242.82 584.822 242.643 584.887C242.466 584.943 242.35 585.054 242.294 585.222C242.238 585.389 242.21 585.659 242.21 586.032C242.21 586.367 242.243 586.627 242.308 586.813C242.373 586.99 242.49 587.12 242.657 587.204C242.825 587.279 243.076 587.316 243.411 587.316H243.662ZM251.23 588.14C250.365 588.14 249.755 587.986 249.401 587.679C249.057 587.362 248.885 586.869 248.885 586.199V581.243H250.141V586.129C250.141 586.306 250.155 586.45 250.183 586.562C250.22 586.664 250.281 586.771 250.365 586.883C250.532 587.125 250.942 587.246 251.593 587.246C252.282 587.246 252.766 587.181 253.045 587.051C253.315 586.92 253.45 586.683 253.45 586.339V581.243H254.706V588H253.45V587.176C253.329 587.819 252.589 588.14 251.23 588.14ZM256.888 581.243H258.144V582.067C258.274 581.424 259.014 581.103 260.364 581.103C261.229 581.103 261.834 581.262 262.179 581.578C262.532 581.885 262.709 582.374 262.709 583.044V588H261.453V583.114C261.453 582.937 261.439 582.793 261.411 582.681C261.383 582.569 261.327 582.458 261.243 582.346C261.057 582.113 260.643 581.997 260.001 581.997C259.508 581.997 259.126 582.034 258.856 582.109C258.596 582.174 258.409 582.285 258.298 582.444C258.195 582.602 258.144 582.825 258.144 583.114V588H256.888V581.243ZM267.613 588.14C267.148 588.14 266.808 588.13 266.594 588.112C266.389 588.093 266.152 588.047 265.882 587.972C265.593 587.898 265.37 587.786 265.212 587.637C265.053 587.488 264.918 587.269 264.807 586.981C264.695 586.702 264.639 586.353 264.639 585.934V583.449C264.639 582.695 264.784 582.155 265.072 581.829C265.23 581.643 265.389 581.504 265.547 581.411C265.714 581.308 265.928 581.238 266.189 581.201C266.45 581.164 266.682 581.141 266.887 581.131C267.092 581.113 267.38 581.103 267.753 581.103C268.395 581.103 269.037 581.173 269.679 581.313V582.234C268.935 582.048 268.241 581.955 267.599 581.955C267.115 581.955 266.757 581.992 266.524 582.067C266.301 582.132 266.142 582.257 266.049 582.444C265.966 582.62 265.924 582.895 265.924 583.267V586.032C265.924 586.376 265.97 586.632 266.063 586.799C266.166 586.967 266.342 587.088 266.594 587.162C266.854 587.228 267.236 587.26 267.739 587.26C268.418 587.26 269.097 587.172 269.777 586.995V587.944C269.144 588.074 268.423 588.14 267.613 588.14ZM271.367 578.227H272.623V582.067C272.753 581.424 273.493 581.103 274.843 581.103C275.708 581.103 276.313 581.262 276.658 581.578C277.011 581.885 277.188 582.374 277.188 583.044V588H275.932V583.128C275.932 582.951 275.918 582.807 275.89 582.695C275.862 582.583 275.806 582.472 275.722 582.36C275.536 582.127 275.122 582.011 274.48 582.011C273.968 582.011 273.577 582.048 273.307 582.123C273.046 582.188 272.865 582.299 272.763 582.458C272.67 582.616 272.623 582.839 272.623 583.128V588H271.367V578.227ZM284.904 579.889H281.833V578.939H289.33V579.889H286.273V588H284.904V579.889ZM293.615 588.14C293.02 588.14 292.573 588.116 292.275 588.07C291.977 588.033 291.68 587.944 291.382 587.805C291.075 587.665 290.851 587.442 290.712 587.134C290.572 586.818 290.502 586.395 290.502 585.864V583.519C290.502 583.1 290.553 582.732 290.656 582.416C290.758 582.099 290.893 581.853 291.061 581.676C291.2 581.518 291.41 581.397 291.689 581.313C291.977 581.22 292.271 581.159 292.568 581.131C292.903 581.113 293.252 581.103 293.615 581.103C294.099 581.103 294.462 581.117 294.704 581.145C294.956 581.164 295.221 581.21 295.5 581.285C295.789 581.369 296.012 581.494 296.17 581.662C296.328 581.829 296.463 582.071 296.575 582.388C296.677 582.714 296.729 583.09 296.729 583.519V585.864C296.729 586.655 296.547 587.232 296.184 587.595C296.035 587.744 295.821 587.86 295.542 587.944C295.263 588.028 294.974 588.084 294.676 588.112C294.323 588.13 293.969 588.14 293.615 588.14ZM293.615 587.316C294.006 587.316 294.29 587.307 294.467 587.288C294.644 587.269 294.816 587.218 294.984 587.134C295.151 587.06 295.267 586.939 295.333 586.771C295.407 586.595 295.444 586.353 295.444 586.045V583.309C295.444 582.89 295.393 582.588 295.291 582.402C295.188 582.206 295.012 582.081 294.76 582.025C294.518 581.96 294.137 581.927 293.615 581.927C293.094 581.927 292.708 581.96 292.457 582.025C292.215 582.081 292.043 582.206 291.94 582.402C291.838 582.588 291.787 582.89 291.787 583.309V586.045C291.787 586.353 291.819 586.595 291.884 586.771C291.959 586.939 292.08 587.06 292.247 587.134C292.415 587.218 292.587 587.269 292.764 587.288C292.941 587.307 293.225 587.316 293.615 587.316ZM298.688 578.227H299.945V588H298.688V578.227ZM300.098 584.3L302.946 581.243H304.482L301.55 584.3L304.747 588H303.184L300.098 584.3ZM308.707 588.14C306.641 588.14 305.608 587.451 305.608 586.073V583.407C305.608 582.588 305.841 582.002 306.306 581.648C306.781 581.285 307.544 581.103 308.596 581.103C309.592 581.103 310.308 581.276 310.746 581.62C311.192 581.964 311.416 582.56 311.416 583.407V584.901H306.879V585.92C306.879 586.385 307.041 586.72 307.367 586.925C307.693 587.13 308.196 587.232 308.875 587.232C309.517 587.232 310.276 587.12 311.151 586.897V587.86C310.294 588.047 309.48 588.14 308.707 588.14ZM310.159 584.077V583.016C310.159 582.606 310.034 582.327 309.782 582.178C309.54 582.02 309.122 581.941 308.526 581.941C307.949 581.941 307.53 582.02 307.27 582.178C307.009 582.327 306.879 582.606 306.879 583.016V584.077H310.159ZM313.331 581.243H314.587V582.067C314.717 581.424 315.457 581.103 316.807 581.103C317.672 581.103 318.277 581.262 318.622 581.578C318.975 581.885 319.152 582.374 319.152 583.044V588H317.896V583.114C317.896 582.937 317.882 582.793 317.854 582.681C317.826 582.569 317.77 582.458 317.686 582.346C317.5 582.113 317.086 581.997 316.444 581.997C315.951 581.997 315.569 582.034 315.299 582.109C315.039 582.174 314.852 582.285 314.741 582.444C314.638 582.602 314.587 582.825 314.587 583.114V588H313.331V581.243ZM328.53 588.14C328.102 588.14 327.72 588.121 327.385 588.084C327.059 588.047 326.715 587.977 326.352 587.874C325.943 587.763 325.598 587.623 325.319 587.456C325.04 587.279 324.812 587.041 324.635 586.744C324.449 586.427 324.356 586.073 324.356 585.683V581.397C324.356 580.875 324.491 580.429 324.761 580.056C325.03 579.684 325.403 579.414 325.877 579.247C326.333 579.088 326.766 578.977 327.176 578.912C327.595 578.837 328.046 578.8 328.53 578.8C329.684 578.8 330.726 578.874 331.657 579.023V580.07C331.303 579.987 330.796 579.912 330.135 579.847C329.484 579.772 328.958 579.735 328.558 579.735C326.65 579.735 325.696 580.284 325.696 581.383V585.655C325.696 585.952 325.784 586.213 325.961 586.436C326.147 586.66 326.399 586.823 326.715 586.925C327.013 587.037 327.311 587.116 327.609 587.162C327.906 587.2 328.241 587.218 328.614 587.218C329.237 587.218 329.903 587.134 330.61 586.967V583.798H328.488V582.848H331.867V587.721C330.657 588 329.544 588.14 328.53 588.14ZM336.697 588.14C334.631 588.14 333.598 587.451 333.598 586.073V583.407C333.598 582.588 333.831 582.002 334.296 581.648C334.771 581.285 335.534 581.103 336.586 581.103C337.581 581.103 338.298 581.276 338.735 581.62C339.182 581.964 339.406 582.56 339.406 583.407V584.901H334.868V585.92C334.868 586.385 335.031 586.72 335.357 586.925C335.683 587.13 336.185 587.232 336.865 587.232C337.507 587.232 338.265 587.12 339.14 586.897V587.86C338.284 588.047 337.47 588.14 336.697 588.14ZM338.149 584.077V583.016C338.149 582.606 338.023 582.327 337.772 582.178C337.53 582.02 337.111 581.941 336.516 581.941C335.939 581.941 335.52 582.02 335.259 582.178C334.999 582.327 334.868 582.606 334.868 583.016V584.077H338.149ZM341.32 581.243H342.577V582.067C342.707 581.424 343.447 581.103 344.797 581.103C345.662 581.103 346.267 581.262 346.612 581.578C346.965 581.885 347.142 582.374 347.142 583.044V588H345.886V583.114C345.886 582.937 345.872 582.793 345.844 582.681C345.816 582.569 345.76 582.458 345.676 582.346C345.49 582.113 345.076 581.997 344.434 581.997C343.94 581.997 343.559 582.034 343.289 582.109C343.028 582.174 342.842 582.285 342.73 582.444C342.628 582.602 342.577 582.825 342.577 583.114V588H341.32V581.243ZM352.171 588.14C350.105 588.14 349.072 587.451 349.072 586.073V583.407C349.072 582.588 349.305 582.002 349.77 581.648C350.245 581.285 351.008 581.103 352.06 581.103C353.055 581.103 353.772 581.276 354.21 581.62C354.656 581.964 354.88 582.56 354.88 583.407V584.901H350.342V585.92C350.342 586.385 350.505 586.72 350.831 586.925C351.157 587.13 351.659 587.232 352.339 587.232C352.981 587.232 353.74 587.12 354.614 586.897V587.86C353.758 588.047 352.944 588.14 352.171 588.14ZM353.623 584.077V583.016C353.623 582.606 353.498 582.327 353.246 582.178C353.004 582.02 352.585 581.941 351.99 581.941C351.413 581.941 350.994 582.02 350.733 582.178C350.473 582.327 350.342 582.606 350.342 583.016V584.077H353.623ZM356.795 581.243H357.981V582.346C357.981 582.132 358.074 581.932 358.26 581.746C358.447 581.55 358.684 581.397 358.972 581.285C359.261 581.164 359.545 581.103 359.824 581.103H360.438V582.178H359.74C359.145 582.178 358.712 582.257 358.442 582.416C358.181 582.565 358.051 582.839 358.051 583.239V588H356.795V581.243ZM363.769 588.14C363.127 588.14 362.629 588.079 362.275 587.958C361.931 587.837 361.68 587.623 361.521 587.316C361.373 587.009 361.298 586.567 361.298 585.99C361.298 585.478 361.368 585.082 361.507 584.803C361.656 584.514 361.903 584.31 362.247 584.189C362.601 584.068 363.099 584.007 363.741 584.007H365.766V582.932C365.766 582.681 365.714 582.49 365.612 582.36C365.519 582.22 365.356 582.123 365.123 582.067C364.9 582.011 364.57 581.983 364.132 581.983C363.434 581.983 362.662 582.039 361.815 582.15V581.229C362.736 581.145 363.569 581.103 364.314 581.103C365.095 581.103 365.672 581.164 366.045 581.285C366.417 581.397 366.673 581.597 366.813 581.885C366.952 582.174 367.022 582.62 367.022 583.225V588H365.807V587.358C365.705 587.879 365.026 588.14 363.769 588.14ZM363.979 587.316C364.435 587.316 364.821 587.283 365.137 587.218C365.556 587.134 365.766 586.939 365.766 586.632V584.789H363.825C363.425 584.789 363.136 584.822 362.959 584.887C362.783 584.943 362.666 585.054 362.61 585.222C362.555 585.389 362.527 585.659 362.527 586.032C362.527 586.367 362.559 586.627 362.624 586.813C362.69 586.99 362.806 587.12 362.973 587.204C363.141 587.279 363.392 587.316 363.727 587.316H363.979ZM372.035 588.14C371.458 588.14 371.007 588.079 370.681 587.958C370.355 587.828 370.118 587.614 369.969 587.316C369.829 587.009 369.76 586.581 369.76 586.032V582.067H368.252V581.243H369.76V579.149H371.03V581.243H373.445V582.067H371.03V586.101C371.03 586.436 371.067 586.688 371.142 586.855C371.225 587.023 371.365 587.144 371.56 587.218C371.765 587.283 372.058 587.316 372.44 587.316C372.561 587.316 372.896 587.279 373.445 587.204V588.028C372.97 588.102 372.5 588.14 372.035 588.14ZM374.818 578.8H376.075V580.112H374.818V578.8ZM374.818 581.243H376.075V588H374.818V581.243ZM381.116 588.14C380.52 588.14 380.073 588.116 379.775 588.07C379.478 588.033 379.18 587.944 378.882 587.805C378.575 587.665 378.351 587.442 378.212 587.134C378.072 586.818 378.002 586.395 378.002 585.864V583.519C378.002 583.1 378.054 582.732 378.156 582.416C378.258 582.099 378.393 581.853 378.561 581.676C378.701 581.518 378.91 581.397 379.189 581.313C379.478 581.22 379.771 581.159 380.069 581.131C380.404 581.113 380.753 581.103 381.116 581.103C381.6 581.103 381.963 581.117 382.205 581.145C382.456 581.164 382.721 581.21 383 581.285C383.289 581.369 383.512 581.494 383.671 581.662C383.829 581.829 383.964 582.071 384.075 582.388C384.178 582.714 384.229 583.09 384.229 583.519V585.864C384.229 586.655 384.047 587.232 383.685 587.595C383.536 587.744 383.322 587.86 383.042 587.944C382.763 588.028 382.475 588.084 382.177 588.112C381.823 588.13 381.469 588.14 381.116 588.14ZM381.116 587.316C381.507 587.316 381.79 587.307 381.967 587.288C382.144 587.269 382.316 587.218 382.484 587.134C382.651 587.06 382.768 586.939 382.833 586.771C382.907 586.595 382.945 586.353 382.945 586.045V583.309C382.945 582.89 382.893 582.588 382.791 582.402C382.689 582.206 382.512 582.081 382.261 582.025C382.019 581.96 381.637 581.927 381.116 581.927C380.595 581.927 380.208 581.96 379.957 582.025C379.715 582.081 379.543 582.206 379.44 582.402C379.338 582.588 379.287 582.89 379.287 583.309V586.045C379.287 586.353 379.319 586.595 379.385 586.771C379.459 586.939 379.58 587.06 379.748 587.134C379.915 587.218 380.087 587.269 380.264 587.288C380.441 587.307 380.725 587.316 381.116 587.316ZM386.189 581.243H387.445V582.067C387.575 581.424 388.315 581.103 389.665 581.103C390.53 581.103 391.135 581.262 391.48 581.578C391.833 581.885 392.01 582.374 392.01 583.044V588H390.754V583.114C390.754 582.937 390.74 582.793 390.712 582.681C390.684 582.569 390.628 582.458 390.544 582.346C390.358 582.113 389.944 581.997 389.302 581.997C388.808 581.997 388.427 582.034 388.157 582.109C387.896 582.174 387.71 582.285 387.599 582.444C387.496 582.602 387.445 582.825 387.445 583.114V588H386.189V581.243ZM397.493 578.939H403.58V579.889H398.847V582.848H403.119V583.798H398.847V587.051H403.719V588H397.493V578.939ZM404.502 581.243H405.828L407.699 586.911H407.769L409.584 581.243H410.798L408.439 588H406.931L404.502 581.243ZM414.818 588.14C412.751 588.14 411.718 587.451 411.718 586.073V583.407C411.718 582.588 411.951 582.002 412.416 581.648C412.891 581.285 413.654 581.103 414.706 581.103C415.702 581.103 416.418 581.276 416.856 581.62C417.303 581.964 417.526 582.56 417.526 583.407V584.901H412.989V585.92C412.989 586.385 413.152 586.72 413.477 586.925C413.803 587.13 414.306 587.232 414.985 587.232C415.627 587.232 416.386 587.12 417.261 586.897V587.86C416.404 588.047 415.59 588.14 414.818 588.14ZM416.27 584.077V583.016C416.27 582.606 416.144 582.327 415.893 582.178C415.651 582.02 415.232 581.941 414.636 581.941C414.059 581.941 413.64 582.02 413.38 582.178C413.119 582.327 412.989 582.606 412.989 583.016V584.077H416.27ZM419.441 581.243H420.697V582.067C420.828 581.424 421.568 581.103 422.917 581.103C423.783 581.103 424.388 581.262 424.732 581.578C425.086 581.885 425.262 582.374 425.262 583.044V588H424.006V583.114C424.006 582.937 423.992 582.793 423.964 582.681C423.936 582.569 423.88 582.458 423.797 582.346C423.61 582.113 423.196 581.997 422.554 581.997C422.061 581.997 421.679 582.034 421.409 582.109C421.149 582.174 420.963 582.285 420.851 582.444C420.748 582.602 420.697 582.825 420.697 583.114V588H419.441V581.243ZM430.278 588.14C429.701 588.14 429.249 588.079 428.924 587.958C428.598 587.828 428.36 587.614 428.212 587.316C428.072 587.009 428.002 586.581 428.002 586.032V582.067H426.494V581.243H428.002V579.149H429.273V581.243H431.688V582.067H429.273V586.101C429.273 586.436 429.31 586.688 429.384 586.855C429.468 587.023 429.608 587.144 429.803 587.218C430.008 587.283 430.301 587.316 430.683 587.316C430.804 587.316 431.139 587.279 431.688 587.204V588.028C431.213 588.102 430.743 588.14 430.278 588.14ZM205.558 604.505H209.44V605.51H205.558V604.505ZM211.176 599.939H214.778C217.319 599.939 218.589 600.805 218.589 602.536V606.543C218.589 608.181 217.324 609 214.792 609H211.176V599.939ZM214.694 608.079C216.425 608.079 217.291 607.557 217.291 606.515V602.522C217.291 602.187 217.221 601.903 217.082 601.671C216.942 601.438 216.747 601.266 216.495 601.154C216.244 601.052 215.983 600.982 215.713 600.945C215.444 600.898 215.127 600.875 214.764 600.875H212.53V608.079H214.694ZM222.885 600.889H219.814V599.939H227.311V600.889H224.253V609H222.885V600.889ZM228.818 599.939H230.172V609H228.818V599.939ZM230.2 604.184L234.249 599.939H235.882L231.806 604.128L236.287 609H234.528L230.2 604.184ZM242.874 609.14C242.204 609.14 241.678 609.074 241.297 608.944C240.915 608.805 240.636 608.581 240.459 608.274C240.292 607.967 240.208 607.539 240.208 606.99V604.016C240.208 603.337 240.417 602.848 240.836 602.55C241.264 602.252 241.967 602.103 242.944 602.103C243.531 602.103 244.033 602.178 244.452 602.327C244.88 602.476 245.099 602.69 245.108 602.969H245.136L245.108 601.252V599.227H246.365V609H245.136V608.204C245.136 608.456 244.936 608.67 244.536 608.846C244.136 609.042 243.582 609.14 242.874 609.14ZM243.14 608.274C243.838 608.274 244.34 608.195 244.647 608.037C244.955 607.878 245.108 607.609 245.108 607.227V603.89C245.108 603.285 244.489 602.983 243.251 602.983C242.507 602.983 242.023 603.039 241.799 603.15C241.567 603.262 241.45 603.509 241.45 603.89V607.227C241.45 607.609 241.576 607.878 241.827 608.037C242.088 608.195 242.525 608.274 243.14 608.274ZM248.435 599.8H249.691V601.112H248.435V599.8ZM248.435 602.243H249.691V609H248.435V602.243ZM253.937 609.14C253.22 609.14 252.448 609.084 251.619 608.972V608.009C252.708 608.186 253.49 608.274 253.965 608.274C254.56 608.274 254.988 608.218 255.249 608.107C255.51 607.986 255.64 607.767 255.64 607.45V606.766C255.64 606.478 255.542 606.273 255.347 606.152C255.151 606.031 254.835 605.971 254.397 605.971H253.63C252.932 605.971 252.396 605.826 252.024 605.538C251.661 605.249 251.48 604.844 251.48 604.323V603.695C251.48 602.634 252.485 602.103 254.495 602.103C254.644 602.103 255.328 602.141 256.547 602.215V603.123C255.719 602.992 255.016 602.927 254.439 602.927C253.778 602.927 253.327 602.992 253.085 603.123C252.843 603.253 252.722 603.472 252.722 603.779V604.351C252.722 604.807 253.136 605.035 253.965 605.035H254.746C256.17 605.035 256.882 605.566 256.882 606.627V607.213C256.882 607.911 256.64 608.409 256.156 608.707C255.672 608.995 254.933 609.14 253.937 609.14ZM261.453 609.14C260.876 609.14 260.425 609.079 260.099 608.958C259.773 608.828 259.536 608.614 259.387 608.316C259.247 608.009 259.178 607.581 259.178 607.032V603.067H257.67V602.243H259.178V600.149H260.448V602.243H262.863V603.067H260.448V607.101C260.448 607.436 260.485 607.688 260.56 607.855C260.643 608.023 260.783 608.144 260.978 608.218C261.183 608.283 261.476 608.316 261.858 608.316C261.979 608.316 262.314 608.279 262.863 608.204V609.028C262.389 609.102 261.919 609.14 261.453 609.14ZM264.236 602.243H265.423V603.346C265.423 603.132 265.516 602.932 265.702 602.746C265.888 602.55 266.126 602.397 266.414 602.285C266.703 602.164 266.986 602.103 267.266 602.103H267.88V603.178H267.182C266.586 603.178 266.153 603.257 265.884 603.416C265.623 603.565 265.493 603.839 265.493 604.239V609H264.236V602.243ZM269.131 599.8H270.387V601.112H269.131V599.8ZM269.131 602.243H270.387V609H269.131V602.243ZM275.582 609.14C275.079 609.14 274.674 609.112 274.367 609.056C274.069 609.009 273.772 608.916 273.474 608.777C272.869 608.488 272.566 607.827 272.566 606.794V599.227H273.823V601.252V602.048C273.813 602.29 273.809 602.559 273.809 602.857C273.855 602.643 274.051 602.462 274.395 602.313C274.749 602.173 275.261 602.103 275.931 602.103C277.792 602.103 278.723 602.741 278.723 604.016V606.794C278.723 607.194 278.662 607.543 278.541 607.841C278.43 608.139 278.281 608.372 278.095 608.539C277.927 608.698 277.695 608.823 277.397 608.916C277.108 609.009 276.82 609.07 276.531 609.098C276.271 609.126 275.954 609.14 275.582 609.14ZM275.61 608.316C276.094 608.316 276.461 608.283 276.713 608.218C276.973 608.144 277.159 608.013 277.271 607.827C277.383 607.641 277.439 607.357 277.439 606.976V604.323C277.439 603.942 277.383 603.658 277.271 603.472C277.159 603.276 276.973 603.15 276.713 603.095C276.461 603.029 276.089 602.997 275.596 602.997C275.14 602.997 274.786 603.034 274.535 603.109C274.283 603.183 274.102 603.318 273.99 603.513C273.879 603.7 273.823 603.969 273.823 604.323V606.976C273.823 607.357 273.874 607.641 273.976 607.827C274.088 608.013 274.269 608.144 274.521 608.218C274.772 608.283 275.135 608.316 275.61 608.316ZM282.996 609.14C282.131 609.14 281.521 608.986 281.168 608.679C280.823 608.362 280.651 607.869 280.651 607.199V602.243H281.907V607.129C281.907 607.306 281.921 607.45 281.949 607.562C281.987 607.664 282.047 607.771 282.131 607.883C282.298 608.125 282.708 608.246 283.359 608.246C284.048 608.246 284.532 608.181 284.811 608.051C285.081 607.92 285.216 607.683 285.216 607.339V602.243H286.473V609H285.216V608.176C285.095 608.819 284.355 609.14 282.996 609.14ZM291.488 609.14C290.911 609.14 290.459 609.079 290.134 608.958C289.808 608.828 289.571 608.614 289.422 608.316C289.282 608.009 289.212 607.581 289.212 607.032V603.067H287.705V602.243H289.212V600.149H290.483V602.243H292.898V603.067H290.483V607.101C290.483 607.436 290.52 607.688 290.594 607.855C290.678 608.023 290.818 608.144 291.013 608.218C291.218 608.283 291.511 608.316 291.893 608.316C292.014 608.316 292.349 608.279 292.898 608.204V609.028C292.423 609.102 291.953 609.14 291.488 609.14ZM294.271 599.8H295.527V601.112H294.271V599.8ZM294.271 602.243H295.527V609H294.271V602.243ZM300.569 609.14C299.973 609.14 299.526 609.116 299.228 609.07C298.93 609.033 298.633 608.944 298.335 608.805C298.028 608.665 297.804 608.442 297.665 608.134C297.525 607.818 297.455 607.395 297.455 606.864V604.519C297.455 604.1 297.506 603.732 297.609 603.416C297.711 603.099 297.846 602.853 298.014 602.676C298.153 602.518 298.363 602.397 298.642 602.313C298.93 602.22 299.224 602.159 299.521 602.131C299.857 602.113 300.206 602.103 300.569 602.103C301.053 602.103 301.416 602.117 301.657 602.145C301.909 602.164 302.174 602.21 302.453 602.285C302.742 602.369 302.965 602.494 303.123 602.662C303.282 602.829 303.417 603.071 303.528 603.388C303.631 603.714 303.682 604.09 303.682 604.519V606.864C303.682 607.655 303.5 608.232 303.137 608.595C302.988 608.744 302.774 608.86 302.495 608.944C302.216 609.028 301.927 609.084 301.63 609.112C301.276 609.13 300.922 609.14 300.569 609.14ZM300.569 608.316C300.959 608.316 301.243 608.307 301.42 608.288C301.597 608.269 301.769 608.218 301.937 608.134C302.104 608.06 302.221 607.939 302.286 607.771C302.36 607.595 302.397 607.353 302.397 607.045V604.309C302.397 603.89 302.346 603.588 302.244 603.402C302.141 603.206 301.965 603.081 301.713 603.025C301.471 602.96 301.09 602.927 300.569 602.927C300.047 602.927 299.661 602.96 299.41 603.025C299.168 603.081 298.996 603.206 298.893 603.402C298.791 603.588 298.74 603.89 298.74 604.309V607.045C298.74 607.353 298.772 607.595 298.837 607.771C298.912 607.939 299.033 608.06 299.2 608.134C299.368 608.218 299.54 608.269 299.717 608.288C299.894 608.307 300.178 608.316 300.569 608.316ZM305.641 602.243H306.898V603.067C307.028 602.424 307.768 602.103 309.118 602.103C309.983 602.103 310.588 602.262 310.932 602.578C311.286 602.885 311.463 603.374 311.463 604.044V609H310.207V604.114C310.207 603.937 310.193 603.793 310.165 603.681C310.137 603.569 310.081 603.458 309.997 603.346C309.811 603.113 309.397 602.997 308.755 602.997C308.261 602.997 307.88 603.034 307.61 603.109C307.349 603.174 307.163 603.285 307.051 603.444C306.949 603.602 306.898 603.825 306.898 604.114V609H305.641V602.243Z" fill="white"/>
<defs>
<filter id="filter0_d_26_2" x="20" y="10.166" width="163" height="163" filterUnits="userSpaceOnUse" color-interpolation-filters="sRGB">
<feFlood flood-opacity="0" result="BackgroundImageFix"/>
<feColorMatrix in="SourceAlpha" type="matrix" values="0 0 0 0 0 0 0 0 0 0 0 0 0 0 0 0 0 0 127 0" result="hardAlpha"/>
<feOffset dx="-15" dy="20"/>
<feGaussianBlur stdDeviation="20"/>
<feColorMatrix type="matrix" values="0 0 0 0 0.0980392 0 0 0 0 0.141176 0 0 0 0 0.192157 0 0 0 0.301961 0"/>
<feBlend mode="normal" in2="BackgroundImageFix" result="effect1_dropShadow_26_2"/>
<feBlend mode="normal" in="SourceGraphic" in2="effect1_dropShadow_26_2" result="shape"/>
</filter>
<filter id="filter1_d_26_2" x="239.298" y="0" width="187.702" height="316.166" filterUnits="userSpaceOnUse" color-interpolation-filters="sRGB">
<feFlood flood-opacity="0" result="BackgroundImageFix"/>
<feColorMatrix in="SourceAlpha" type="matrix" values="0 0 0 0 0 0 0 0 0 0 0 0 0 0 0 0 0 0 127 0" result="hardAlpha"/>
<feOffset dx="-15" dy="20"/>
<feGaussianBlur stdDeviation="25"/>
<feColorMatrix type="matrix" values="0 0 0 0 0 0 0 0 0 0.254902 0 0 0 0 1 0 0 0 0.301961 0"/>
<feBlend mode="normal" in2="BackgroundImageFix" result="effect1_dropShadow_26_2"/>
<feBlend mode="normal" in="SourceGraphic" in2="effect1_dropShadow_26_2" result="shape"/>
</filter>
<filter id="filter2_d_26_2" x="227" y="419" width="163" height="163" filterUnits="userSpaceOnUse" color-interpolation-filters="sRGB">
<feFlood flood-opacity="0" result="BackgroundImageFix"/>
<feColorMatrix in="SourceAlpha" type="matrix" values="0 0 0 0 0 0 0 0 0 0 0 0 0 0 0 0 0 0 127 0" result="hardAlpha"/>
<feOffset dx="-15" dy="20"/>
<feGaussianBlur stdDeviation="20"/>
<feColorMatrix type="matrix" values="0 0 0 0 0.0980392 0 0 0 0 0.141176 0 0 0 0 0.192157 0 0 0 0.301961 0"/>
<feBlend mode="normal" in2="BackgroundImageFix" result="effect1_dropShadow_26_2"/>
<feBlend mode="normal" in="SourceGraphic" in2="effect1_dropShadow_26_2" result="shape"/>
</filter>
<filter id="filter3_d_26_2" x="0" y="412" width="236.407" height="311" filterUnits="userSpaceOnUse" color-interpolation-filters="sRGB">
<feFlood flood-opacity="0" result="BackgroundImageFix"/>
<feColorMatrix in="SourceAlpha" type="matrix" values="0 0 0 0 0 0 0 0 0 0 0 0 0 0 0 0 0 0 127 0" result="hardAlpha"/>
<feOffset dx="-15" dy="20"/>
<feGaussianBlur stdDeviation="25"/>
<feColorMatrix type="matrix" values="0 0 0 0 0 0 0 0 0 0.254902 0 0 0 0 1 0 0 0 0.301961 0"/>
<feBlend mode="normal" in2="BackgroundImageFix" result="effect1_dropShadow_26_2"/>
<feBlend mode="normal" in="SourceGraphic" in2="effect1_dropShadow_26_2" result="shape"/>
</filter>
<filter id="filter4_d_26_2" x="10" y="875" width="163" height="163" filterUnits="userSpaceOnUse" color-interpolation-filters="sRGB">
<feFlood flood-opacity="0" result="BackgroundImageFix"/>
<feColorMatrix in="SourceAlpha" type="matrix" values="0 0 0 0 0 0 0 0 0 0 0 0 0 0 0 0 0 0 127 0" result="hardAlpha"/>
<feOffset dx="-15" dy="20"/>
<feGaussianBlur stdDeviation="20"/>
<feColorMatrix type="matrix" values="0 0 0 0 0.0980392 0 0 0 0 0.141176 0 0 0 0 0.192157 0 0 0 0.301961 0"/>
<feBlend mode="normal" in2="BackgroundImageFix" result="effect1_dropShadow_26_2"/>
<feBlend mode="normal" in="SourceGraphic" in2="effect1_dropShadow_26_2" result="shape"/>
</filter>
<filter id="filter5_d_26_2" x="199" y="865" width="234.327" height="311" filterUnits="userSpaceOnUse" color-interpolation-filters="sRGB">
<feFlood flood-opacity="0" result="BackgroundImageFix"/>
<feColorMatrix in="SourceAlpha" type="matrix" values="0 0 0 0 0 0 0 0 0 0 0 0 0 0 0 0 0 0 127 0" result="hardAlpha"/>
<feOffset dx="-15" dy="20"/>
<feGaussianBlur stdDeviation="25"/>
<feColorMatrix type="matrix" values="0 0 0 0 0 0 0 0 0 0.254902 0 0 0 0 1 0 0 0 0.301961 0"/>
<feBlend mode="normal" in2="BackgroundImageFix" result="effect1_dropShadow_26_2"/>
<feBlend mode="normal" in="SourceGraphic" in2="effect1_dropShadow_26_2" result="shape"/>
</filter>
</defs>
</svg>
