<svg width="675" height="559" viewBox="0 0 675 559" fill="none" xmlns="http://www.w3.org/2000/svg">
<g clip-path="url(#clip0_824_460)">
<path d="M221.91 169.992L220.982 173.048V261.738L221.91 262.636L264.399 238.301L221.91 169.992Z" fill="#561096"/>
<path d="M221.911 169.992L179.422 238.301L221.911 262.636V219.589V169.992Z" fill="#8500FF"/>
<path d="M221.91 270.431L221.387 271.048V302.642L221.91 304.122L264.424 246.108L221.91 270.431Z" fill="#5A109D"/>
<path d="M221.911 304.122V270.43L179.422 246.108L221.911 304.122Z" fill="#8500FF"/>
<path d="M221.91 262.636L264.398 238.301L221.91 219.589V262.636Z" fill="#141414"/>
<path d="M179.422 238.301L221.91 262.636V219.589L179.422 238.301Z" fill="#393939"/>
</g>
<g clip-path="url(#clip1_824_460)">
<path d="M316.085 394.442C283.618 394.442 257.597 363.842 257.597 325.897C257.597 287.952 283.857 257.352 316.085 257.352C348.314 257.352 374.573 287.952 374.573 325.897C374.573 363.842 348.313 394.442 316.085 394.442Z" fill="#D0E8F9"/>
<path d="M316.085 396.89C282.424 396.89 255.209 365.065 255.209 325.897C255.209 286.729 282.424 254.904 316.085 254.904C349.745 254.904 376.96 286.729 376.96 325.897C376.96 365.065 349.507 396.89 316.085 396.89ZM316.085 259.8C285.05 259.8 259.984 289.421 259.984 325.897C259.984 362.373 285.05 391.994 316.085 391.994C347.119 391.994 372.186 362.373 372.186 325.897C372.186 289.421 346.881 259.8 316.085 259.8Z" fill="#8500FF"/>
<path d="M257.597 325.897C257.597 290.89 280.037 262.003 308.923 257.842C306.536 257.597 304.149 257.352 301.762 257.352C269.295 257.352 243.273 287.952 243.273 325.897C243.273 363.842 269.533 394.442 301.762 394.442C304.149 394.442 306.536 394.197 308.923 393.952C279.799 389.791 257.597 360.904 257.597 325.897Z" fill="white"/>
<path d="M301.761 396.89C268.101 396.89 240.886 365.065 240.886 325.897C240.886 286.729 268.101 254.904 301.761 254.904C304.149 254.904 306.536 255.149 309.162 255.394V260.29C280.992 264.207 259.984 292.604 259.984 325.897C259.984 359.19 281.231 387.587 309.162 391.504V396.4C306.536 396.645 304.149 396.89 301.761 396.89ZM291.496 260.779C265.475 266.41 245.661 293.583 245.661 325.897C245.661 358.211 265.475 385.384 291.735 391.015C270.011 379.754 255.21 354.539 255.21 325.897C255.21 297.255 270.011 272.04 291.496 260.779Z" fill="#8500FF"/>
<path d="M282.663 384.65H268.34C266.907 384.65 265.952 383.671 265.952 382.202C265.952 380.733 266.907 379.754 268.34 379.754H282.663C284.096 379.754 285.051 380.733 285.051 382.202C285.051 383.671 283.857 384.65 282.663 384.65ZM271.204 372.41H256.881C255.448 372.41 254.493 371.43 254.493 369.961C254.493 368.493 255.448 367.513 256.881 367.513H271.204C272.637 367.513 273.592 368.493 273.592 369.961C273.592 371.43 272.398 372.41 271.204 372.41ZM263.087 357.722H248.764C247.331 357.722 246.377 356.742 246.377 355.273C246.377 353.804 247.331 352.825 248.764 352.825H263.087C264.52 352.825 265.475 353.804 265.475 355.273C265.475 356.742 264.52 357.722 263.087 357.722ZM259.268 345.481H244.944C243.512 345.481 242.557 344.502 242.557 343.033C242.557 341.564 243.512 340.585 244.944 340.585H259.268C260.701 340.585 261.655 341.564 261.655 343.033C261.655 344.502 260.7 345.481 259.268 345.481ZM257.597 333.241H243.512C242.079 333.241 241.125 332.262 241.125 330.793C241.125 329.324 242.079 328.345 243.512 328.345H257.597C259.029 328.345 259.984 329.324 259.984 330.793C259.984 332.262 258.791 333.241 257.597 333.241ZM257.836 321.001H243.512C242.079 321.001 241.125 320.022 241.125 318.553C241.125 317.084 242.079 316.105 243.512 316.105H257.836C259.268 316.105 260.223 317.084 260.223 318.553C260.223 320.022 259.029 321.001 257.836 321.001ZM259.984 308.761H245.66C244.228 308.761 243.273 307.782 243.273 306.313C243.273 304.844 244.228 303.864 245.66 303.864H259.984C261.417 303.864 262.372 304.844 262.372 306.313C262.372 307.782 261.178 308.761 259.984 308.761ZM264.042 296.521H249.719C248.286 296.521 247.331 295.541 247.331 294.072C247.331 292.604 248.286 291.624 249.719 291.624H264.043C265.475 291.624 266.43 292.604 266.43 294.072C266.43 295.541 265.475 296.521 264.042 296.521ZM273.114 281.832H258.791C257.358 281.832 256.403 280.853 256.403 279.384C256.403 277.915 257.358 276.936 258.791 276.936H273.114C274.547 276.936 275.502 277.915 275.502 279.384C275.502 280.853 274.308 281.832 273.114 281.832ZM285.766 269.592H271.682C270.249 269.592 269.294 268.613 269.294 267.144C269.294 265.675 270.249 264.696 271.682 264.696H285.767C287.199 264.696 288.154 265.675 288.154 267.144C288.154 268.613 286.96 269.592 285.766 269.592Z" fill="#8500FF"/>
<path d="M316.085 380.978C314.414 380.978 312.743 380.978 311.072 380.733C309.878 380.488 308.923 379.264 308.923 378.04C309.162 376.816 310.356 375.837 311.549 375.837C312.982 376.082 314.414 376.082 316.085 376.082C317.517 376.082 318.472 377.061 318.472 378.53C318.472 379.999 317.517 380.978 316.085 380.978L316.324 378.53L316.085 380.978ZM329.931 378.285C328.976 378.285 328.021 377.795 327.783 376.816C327.305 375.592 328.021 374.123 329.215 373.633C330.648 373.144 331.841 372.409 333.273 371.675C334.467 370.941 335.899 371.43 336.377 372.654C337.093 373.878 336.616 375.347 335.422 375.837C333.99 376.571 332.319 377.306 330.886 377.795C330.647 378.285 330.409 378.285 329.931 378.285ZM297.703 376.571C297.225 376.571 296.987 376.571 296.509 376.326C295.077 375.592 293.645 374.613 292.212 373.878C291.018 373.144 290.78 371.675 291.496 370.451C292.212 369.227 293.645 368.982 294.838 369.717C296.032 370.451 297.464 371.43 298.658 371.92C299.852 372.41 300.329 374.123 299.613 375.102C299.374 376.082 298.658 376.571 297.703 376.571ZM345.687 367.758C344.971 367.758 344.493 367.514 344.016 367.024C343.061 366.045 343.061 364.576 344.016 363.597C344.971 362.618 346.165 361.394 347.12 360.169C347.836 359.19 349.507 358.945 350.462 359.925C351.417 360.659 351.656 362.373 350.701 363.352C349.746 364.576 348.552 366.045 347.358 367.024C346.881 367.514 346.403 367.758 345.687 367.758ZM283.141 364.331C282.425 364.331 281.708 364.086 281.231 363.352C280.276 362.128 279.082 360.659 278.366 359.19C277.65 357.966 277.889 356.498 279.082 355.763C280.276 355.028 281.708 355.273 282.425 356.497C283.379 357.721 284.096 358.945 285.05 360.169C286.005 361.148 285.767 362.862 284.812 363.597C284.334 364.086 283.618 364.331 283.141 364.331ZM356.191 351.846C355.952 351.846 355.475 351.846 355.236 351.601C354.042 351.111 353.565 349.643 354.042 348.419C354.52 346.95 355.236 345.481 355.713 344.012C356.191 342.788 357.384 342.054 358.817 342.543C360.011 343.033 360.727 344.257 360.249 345.726C359.772 347.439 359.056 348.908 358.578 350.377C358.101 351.357 357.146 351.846 356.191 351.846ZM274.069 347.44C273.114 347.44 272.159 346.705 271.92 345.726C271.443 344.257 270.966 342.544 270.488 340.83C270.249 339.606 270.966 338.137 272.159 337.893C273.353 337.648 274.785 338.382 275.024 339.606C275.501 341.075 275.74 342.544 276.217 344.013C276.695 345.237 275.979 346.705 274.785 347.195C274.547 347.44 274.308 347.44 274.069 347.44ZM360.727 332.996C359.294 332.996 358.34 331.772 358.34 330.304C358.34 328.835 358.578 327.366 358.578 325.897C358.578 324.428 359.533 323.449 360.966 323.449C362.398 323.449 363.353 324.428 363.353 325.897C363.353 327.611 363.353 329.08 363.114 330.793C363.114 332.017 361.92 332.996 360.727 332.996ZM270.966 328.345C269.533 328.345 268.578 327.366 268.578 325.897H270.966H268.578C268.578 324.183 268.578 322.47 268.817 320.756C268.817 319.287 270.011 318.308 271.443 318.553C272.875 318.553 273.83 319.777 273.591 321.246C273.591 322.715 273.353 324.428 273.353 325.897C273.353 327.366 272.398 328.345 270.966 328.345ZM359.295 313.902C358.34 313.902 357.146 313.167 356.907 311.943C356.43 310.474 356.191 309.006 355.713 307.537C355.236 306.313 355.952 304.844 357.146 304.354C358.34 303.865 359.772 304.599 360.249 305.823C360.727 307.292 361.204 309.006 361.682 310.719C361.921 311.943 361.204 313.412 360.011 313.657C359.533 313.657 359.295 313.902 359.295 313.902ZM274.069 309.25C273.83 309.25 273.591 309.25 273.353 309.005C272.159 308.516 271.443 307.292 271.92 305.823C272.398 304.354 273.114 302.64 273.591 301.172C274.069 299.948 275.501 299.458 276.695 299.948C277.889 300.437 278.366 301.906 277.889 303.13C277.172 304.599 276.695 306.068 276.218 307.537C275.979 308.761 275.024 309.25 274.069 309.25ZM351.655 296.031C350.939 296.031 350.223 295.541 349.746 295.052C348.791 293.828 348.075 292.604 347.12 291.38C346.165 290.401 346.404 288.687 347.358 287.952C348.313 286.973 349.984 287.218 350.701 288.197C351.656 289.421 352.849 290.89 353.565 292.359C354.281 293.583 354.043 295.052 352.849 295.786C352.371 296.031 352.133 296.031 351.655 296.031ZM283.141 292.359C282.663 292.359 282.186 292.114 281.708 291.869C280.753 291.135 280.514 289.421 281.469 288.442C282.424 287.218 283.618 285.749 284.812 284.77C285.767 283.791 287.199 283.791 288.154 284.77C289.109 285.749 289.109 287.218 288.154 288.197C287.199 289.176 286.005 290.401 285.05 291.625C284.573 292.114 283.857 292.359 283.141 292.359ZM338.286 282.567C337.809 282.567 337.332 282.322 337.093 282.077C335.899 281.343 334.467 280.364 333.273 279.874C332.08 279.384 331.602 277.671 332.318 276.691C332.796 275.467 334.228 274.978 335.422 275.712C336.854 276.447 338.286 277.426 339.719 278.16C340.913 278.895 341.151 280.364 340.435 281.588C339.719 282.077 339.003 282.567 338.286 282.567ZM297.703 280.119C296.748 280.119 296.032 279.629 295.554 278.895C294.838 277.671 295.316 276.202 296.509 275.712C297.942 274.978 299.613 274.243 301.045 273.754C302.239 273.264 303.671 273.999 304.148 275.223C304.626 276.447 303.91 277.915 302.716 278.405C301.283 278.895 299.851 279.629 298.658 280.364C298.419 280.119 297.942 280.119 297.703 280.119ZM320.621 275.957H320.382C318.949 275.712 317.517 275.712 316.085 275.712C314.652 275.712 313.697 274.733 313.697 273.264C313.697 271.795 314.652 270.816 316.085 270.816V273.264V270.816C317.756 270.816 319.427 270.816 321.098 271.061C322.292 271.306 323.008 272.53 323.008 273.754C322.769 274.978 321.814 275.957 320.621 275.957Z" fill="#8500FF"/>
<path d="M332.557 321.246C336.377 318.553 338.287 314.636 338.287 309.495C338.287 305.089 336.854 301.417 333.989 298.479C331.125 295.542 327.305 294.073 322.769 294.073H298.419C296.987 294.073 296.032 295.052 296.032 296.521C296.032 297.99 296.987 298.969 298.419 298.969H303.91V348.419H298.419C296.987 348.419 296.032 349.398 296.032 350.867C296.032 352.336 296.987 353.316 298.419 353.316H325.634C330.647 353.316 334.706 351.847 337.57 348.909C340.435 345.971 341.867 342.055 341.867 337.403C342.106 328.835 338.764 323.449 332.557 321.246ZM330.409 316.839C328.499 318.798 326.111 320.022 323.008 320.022H308.684V298.969H322.53C325.873 298.969 328.499 299.948 330.408 301.906C332.318 303.865 333.273 306.313 333.273 309.251C333.273 312.188 332.318 314.881 330.409 316.839ZM308.923 324.918H325.873C329.454 324.918 332.319 325.897 334.228 328.1C336.138 330.059 337.332 332.996 337.332 336.669C337.332 340.34 336.377 343.278 334.228 345.237C332.319 347.195 329.454 348.419 325.873 348.419H308.923V324.918C308.684 324.918 308.923 324.918 308.923 324.918Z" fill="#8500FF"/>
<path d="M318.472 339.361H296.987C295.793 339.361 294.6 338.137 294.6 336.913C294.6 335.444 295.793 334.465 296.987 334.465H318.472C319.666 334.465 320.86 335.444 320.86 336.913C320.86 338.137 319.666 339.361 318.472 339.361Z" fill="#8500FF"/>
</g>
<path d="M409.429 516.664H45.7249C45.7249 516.664 39.0079 495.017 35.6344 462.491C32.261 430.002 58.0644 435.184 63.6867 407.908C69.2793 380.598 84.9921 387.082 77.5056 356.376C72.6528 336.479 95.6151 317.026 116.033 299.255C127.1 289.615 137.427 280.453 142.162 271.945C147.814 261.791 159.443 259.15 171.575 261.55C188.294 264.843 206.019 277.641 210.576 293.458C213.032 301.966 219.602 308.174 228.597 313.149C248.511 324.198 280.381 329.136 305.888 339.053C342.878 353.428 367.557 358.506 367.557 385.403C367.557 412.299 392.235 432.61 402.327 440.397C412.415 448.187 409.429 516.664 409.429 516.664" fill="#888889"/>
<path d="M79.3829 367.517C85.4068 353.456 101.35 339.805 116.033 327.023C127.1 317.383 137.428 308.224 142.162 299.716C147.814 289.559 159.443 286.918 171.576 289.319C188.294 292.614 206.019 305.41 210.576 321.227C213.032 329.735 219.602 335.945 228.597 340.92C248.511 351.966 280.38 356.908 305.888 366.821C342.878 381.196 367.557 386.275 367.557 413.171C367.557 440.07 392.235 460.378 402.326 468.168C407.374 472.064 409.149 491.165 409.662 509.274C410.101 491.372 410.371 446.607 402.326 440.397C392.235 432.61 367.557 412.299 367.557 385.403C367.557 358.506 342.878 353.428 305.888 339.053C280.38 329.136 248.511 324.198 228.597 313.149C219.602 308.174 213.032 301.966 210.576 293.458C206.019 277.641 188.294 264.843 171.576 261.55C159.443 259.15 147.814 261.791 142.162 271.945C137.428 280.453 127.1 289.615 116.033 299.255C95.6154 317.026 72.6529 336.479 77.5059 356.376C78.5832 360.798 79.1671 364.426 79.3829 367.517Z" fill="#969696"/>
<path d="M37.0029 473.895C42.3923 458.511 59.2685 457.114 63.6871 435.676C69.2798 408.369 84.9926 414.853 77.5061 384.147C77.2416 383.063 77.0948 381.981 76.9907 380.9C73.4081 387.706 66.8905 392.267 63.6871 407.908C58.0646 435.184 32.2615 430.002 35.6349 462.491C36.0466 466.463 36.5097 470.267 37.0029 473.895" fill="#969696"/>
<path d="M603.701 364.339L582.523 388.695L388.995 155.941L403.983 138.705L603.701 364.339" fill="#A87C4F"/>
<path d="M514.516 264.941L511.363 268.98L506.223 263.2L401.929 143.551L405.082 139.926L505.599 255.002L514.516 264.941Z" fill="#C19063"/>
<path d="M390.015 157.252L388.942 156L403.983 138.705L405.056 139.957L390.015 157.252Z" fill="#8E6844"/>
<path d="M505.216 254.566L603.701 364.339C595.695 370.508 580.534 350.247 579.398 348.808C579.167 348.517 576.985 345.66 576.505 345.02C574.926 342.918 572.506 340.378 569.671 337.63C569.423 337.39 555.363 324.636 550.038 319.312C546.644 315.916 544.691 311.282 544.667 311.206C542.842 306.092 540.583 298.109 537.059 294.517C533.067 290.448 527.698 287.972 521.346 283.279C521.24 283.198 521.129 283.122 521.023 283.038C517.689 280.556 514.094 277.457 510.288 273.192C507.503 270.084 505.833 267.314 504.897 264.899C504.864 264.823 504.832 264.754 504.808 264.675C503.511 261.243 503.709 258.557 504.273 256.698C504.28 256.668 504.292 256.64 504.302 256.609L504.297 256.606C504.567 255.734 504.91 255.055 505.216 254.566" fill="#8E6844"/>
<path d="M560.841 362.103L504.324 292.818L511.739 301.265L512.385 302.042C515.449 300.605 520.083 299.403 525.495 301.114C528.395 302.036 534.135 309.018 530.401 311.944C529.516 312.643 528.146 313.557 526.539 314.547C525.702 315.061 524.805 315.6 523.875 316.134L524.096 316.299L526.963 316.749L528.655 317.014L531.078 317.395C537.611 311.176 546.854 309.977 549.604 317.001C550.805 320.058 546.711 327.731 540.166 333.471L542.69 333.611L543.676 333.67L544.45 333.712C549.402 328.345 560.371 324.242 562.854 331.045C563.861 333.824 560.086 341.275 554.054 347.625L556.19 347.782C556.193 347.776 556.193 347.776 556.193 347.776L556.834 347.827C559.257 345.498 566.086 338.625 570.047 342.843C573.757 346.795 567.159 356.293 560.841 362.103" fill="#8E6844"/>
<path d="M466.481 42.3358L469.648 57.5379C469.648 57.5379 405.718 99.4097 398.882 123.807L404.405 134.272C405.34 136.041 405.099 138.325 403.826 139.784L396.758 147.875L389.779 156.07C388.523 157.546 386.553 157.825 385.027 156.741L375.491 149.974C343.459 173.368 326.307 201.234 304.714 248.766C304.714 248.766 305.307 96.1955 466.481 42.3358" fill="#929497"/>
<path d="M467.522 47.3278L466.481 42.3358C305.307 96.1955 304.714 248.766 304.714 248.766C306.281 245.317 317.677 99.2365 467.522 47.3278" fill="#A6A8AB"/>
<path d="M468.674 52.8618C468.674 52.8618 399.043 98.9123 392.206 123.313L397.729 133.777C398.665 135.546 398.424 137.83 397.151 139.289L393.207 143.758L389.352 148.331C388.094 149.806 386.127 150.086 384.598 149.001L375.061 142.235C323.595 177.98 304.714 248.766 304.714 248.766C326.307 201.234 343.459 173.368 375.491 149.974L385.027 156.741C386.553 157.825 388.523 157.546 389.779 156.07L396.758 147.875L403.826 139.784C405.099 138.325 405.34 136.041 404.405 134.272L398.882 123.807C405.718 99.4097 469.648 57.5378 469.648 57.5378L468.674 52.8618Z" fill="#808184"/>
<path d="M558.811 366.67C551.557 371.204 546.044 371.196 541.897 368.501C538.469 366.268 537.594 363.431 537.715 360.921C537.876 357.536 539.853 354.722 539.853 354.722L540.451 354.35L548.792 349.123L550.877 349.811L551.535 350.026L556.427 350.392C556.432 350.387 556.432 350.387 556.432 350.387L557.073 350.44C555.701 351.891 555.277 353.601 555.277 353.601C558.739 347.98 566.908 340.518 570.283 345.454C573.791 350.585 565.819 361.1 558.811 366.67" fill="#F2BF94"/>
<path d="M566.198 345.456C566.198 345.456 558.746 351.086 561.335 355.423C563.924 359.758 570.161 350.376 570.161 350.376C570.161 350.376 569.78 346.79 566.198 345.456" fill="#FFDCC2"/>
<path d="M550.868 356.17C548.901 357.346 541.476 360.547 537.715 360.921C537.876 357.536 539.853 354.722 539.853 354.722L540.451 354.35L547.218 351.016L550.877 349.811L551.536 350.026L556.427 350.392C556.306 350.56 552.922 354.948 550.868 356.17" fill="#DBA886"/>
<path d="M550.684 353.649C539.761 358.724 531.895 360.955 526.961 357.947C520.854 354.236 521.394 348.735 522.587 345.23C523.267 343.237 524.162 341.884 524.162 341.884L534.477 334.967L537.724 335.925L543.913 336.28L544.689 336.322C543.124 338.089 542.211 339.964 542.211 339.964C546.109 333.239 555.094 329.391 555.094 329.391C555.094 329.391 560.609 326.853 563.092 333.656C564.293 336.951 558.739 346.846 550.684 353.649" fill="#F2BF94"/>
<path d="M522.908 344.372C523.518 342.86 524.162 341.884 524.162 341.884L534.477 334.967L537.724 335.925L542.929 336.225C542.929 336.225 539.8 339.945 537.594 341.124C535.386 342.304 522.829 344.568 522.908 344.372Z" fill="#DBA886"/>
<path d="M555.247 331.255C555.247 331.255 561.421 330.439 561.539 337.857C561.539 337.857 556.417 345.294 553.504 345.043C550.592 344.788 548.758 339.57 551.125 336.057C552.798 333.572 555.247 331.255 555.247 331.255Z" fill="#FFDCC2"/>
<path d="M538.062 337.969C527.235 341.725 519.379 343.028 514.29 339.475C507.884 335.011 508.352 329.508 509.47 326.199C509.885 324.955 510.396 324.019 510.676 323.563C510.796 323.354 510.876 323.239 510.876 323.239L522.864 317.171L524.116 318.739L524.335 318.909L528.894 319.625L531.317 320.005C529.805 321.57 529.012 323.435 529.012 323.435C532.693 317.224 541.615 314.463 541.615 314.463C541.615 314.463 547.092 312.587 549.843 319.611C551.181 323.013 545.94 332.166 538.062 337.969" fill="#F2BF94"/>
<path d="M516.597 325.235C512.81 326.878 509.671 325.629 509.777 325.372C510.115 324.541 510.462 323.913 510.676 323.563C511.194 323.77 511.655 323.899 512.053 323.96C513.694 324.212 519.333 321.481 524.116 318.739L524.335 318.909L527.206 319.359C527.206 319.359 519.555 323.949 516.597 325.235" fill="#DBA886"/>
<path d="M541.22 316.531C541.22 316.531 547.731 316.067 548.206 323.862C548.206 323.862 543.124 331.345 540.024 330.892C536.922 330.439 534.73 324.849 537.076 321.308C538.732 318.806 541.22 316.531 541.22 316.531Z" fill="#FFDCC2"/>
<path d="M511.978 303.875L512.622 304.649L509.136 308.73L507.839 307.802L508.74 303.749L511.978 303.875" fill="#D39E7A"/>
<path d="M530.639 314.555C529.752 315.254 528.382 316.168 526.777 317.157C521.628 320.335 514.022 324.262 512.052 323.96C511.278 323.84 510.227 323.449 509.068 322.742C506.351 321.118 503.022 317.831 501.158 312.526C499.198 306.964 502.094 300.116 503.757 296.885L510.481 305.236C509.61 306.111 508.926 306.933 508.926 306.933C509.268 306.648 509.902 306.162 510.796 305.628C511.319 305.306 511.932 304.971 512.624 304.652C515.688 303.216 520.321 302.017 525.731 303.724C528.633 304.647 534.373 311.629 530.639 314.555" fill="#F2BF94"/>
<path d="M523.829 305.256C523.829 305.256 530.024 306.631 529.484 313.51C529.484 313.51 523.144 317.987 520.413 316.682C517.681 315.379 515.84 311.103 519.01 308.576C521.252 306.788 523.829 305.256 523.829 305.256Z" fill="#FFDCC2"/>
<path d="M511.978 303.875C511.477 304.266 510.949 304.758 510.481 305.236L503.757 296.885C504.355 295.736 504.796 295.043 504.796 295.043L511.978 303.875" fill="#DBA886"/>
<path d="M675 300.018V356.242C675 356.242 614.547 355.077 609.421 355.119C609.349 355.122 609.296 355.127 609.248 355.133C608.452 355.236 607.585 355.552 606.673 355.988C604.499 357.014 602.069 358.71 599.673 359.728C599.646 359.739 599.62 359.753 599.588 359.758C598.028 360.424 596.49 360.793 595.046 360.494C593.699 360.211 592.088 359.185 590.358 357.715L590.343 357.699C590.186 357.564 590.03 357.427 589.875 357.285C586.889 354.644 583.596 350.764 580.727 347.111C580.495 346.818 580.271 346.524 580.045 346.236C580.035 346.228 580.025 346.217 580.02 346.203C579.789 345.909 579.562 345.613 579.336 345.314C578.813 344.629 578.311 343.964 577.832 343.321C576.253 341.222 573.835 338.681 570.997 335.931C570.751 335.691 570.503 335.45 570.247 335.213C564.266 329.477 556.69 322.937 551.364 317.615C547.97 314.22 546.02 309.583 545.993 309.507C544.168 304.392 541.909 296.41 538.385 292.821C534.393 288.749 529.024 286.275 522.672 281.582C522.566 281.498 522.455 281.423 522.349 281.339C519.015 278.857 515.421 275.757 511.614 271.495C508.83 268.384 507.159 265.614 506.224 263.2C506.19 263.124 506.161 263.054 506.134 262.979C504.837 259.544 505.035 256.858 505.599 255.002C505.609 254.968 505.621 254.943 505.628 254.91L505.623 254.907C506.236 252.942 507.234 251.927 507.234 251.927C507.234 251.927 509.341 249.227 511.939 251.117C511.966 251.136 511.995 251.156 512.017 251.178C514.579 253.068 516.775 256.441 518.832 257.897C519.135 258.107 519.533 258.32 519.998 258.521C520.577 258.772 521.262 259.018 522.011 259.27C524.764 260.195 528.364 261.159 530.606 262.641C533.944 264.854 541.201 269.634 548.305 271.769C555.412 273.896 561.412 275.841 567.275 277.736C573.145 279.631 586.86 291.806 590.722 294.123C591.233 294.431 593.916 294.8 598.2 295.205C598.711 295.258 599.258 295.311 599.827 295.356C629.874 298.076 675 300.018 675 300.018" fill="#F2BF94"/>
<path d="M518.216 264.837C518.216 264.837 510.281 256.665 509.933 254.739C509.598 252.827 511.961 251.142 511.961 251.142C511.98 251.15 511.999 251.17 512.016 251.178C514.579 253.068 516.775 256.441 518.831 257.897C519.513 258.375 520.658 258.82 522.011 259.27C521.864 259.927 521.509 260.639 521.075 261.33C519.928 263.158 518.216 264.837 518.216 264.837" fill="#FFDCC2"/>
<path d="M602.428 302.318C600.345 302.019 597.3 301.483 596.468 301.251C586.437 298.453 577.846 289.288 572.759 285.252C567.66 281.233 558.466 277.507 553.454 276.839C548.428 276.185 537.213 270.824 533.722 267.484C530.432 264.334 522.947 259.826 522.088 259.323C522.093 259.317 522.098 259.312 522.098 259.301C524.841 260.215 528.388 261.173 530.605 262.641C533.944 264.854 541.2 269.634 548.305 271.769C555.412 273.896 561.412 275.841 567.275 277.736C573.145 279.631 586.859 291.806 590.721 294.123C591.295 294.467 596.84 295.077 602.064 295.543L602.428 302.318" fill="#F9C5A2"/>
<path d="M609.421 355.119C609.349 355.122 609.296 355.127 609.248 355.133C609.091 355.158 608.937 355.183 608.773 355.219C608.112 355.365 607.404 355.639 606.673 355.988C604.499 357.014 602.069 358.71 599.673 359.728C598.081 360.41 596.512 360.795 595.046 360.493C593.699 360.211 592.088 359.185 590.358 357.715L590.343 357.698C587.24 355.054 583.752 350.957 580.727 347.111L580.703 346.801C580.703 346.801 588.634 357.098 594.649 356.617C599.193 356.262 603.057 352.872 606.044 351.13C604.178 336.786 602.064 295.543 602.064 295.543C602.064 295.543 604.487 295.75 604.749 295.773L608.616 350.116L609.421 355.119" fill="#DBA886"/>
<path d="M675 294.557V359.071L609.916 358.204L604.521 292.997L675 294.557" fill="#8500FF"/>
<path d="M605.08 299.747L675 301.432V294.557L604.521 292.997L605.08 299.747" fill="#6903C6"/>
<defs>
<clipPath id="clip0_824_460">
<rect width="138.462" height="134.16" fill="white" transform="translate(152.692 169.992)"/>
</clipPath>
<clipPath id="clip1_824_460">
<rect width="138.462" height="141.986" fill="white" transform="translate(237.692 254.904)"/>
</clipPath>
</defs>
</svg>
