<svg width="667" height="667" viewBox="0 0 667 667" fill="none" xmlns="http://www.w3.org/2000/svg">
<path d="M338.784 462.599C349.028 472.843 365.637 472.843 375.88 462.599C386.124 452.355 386.124 435.746 375.88 425.503C365.637 415.259 349.028 415.259 338.784 425.503C328.54 435.746 328.54 452.355 338.784 462.599Z" fill="#ECECEC"/>
<path d="M366.875 428.488C366.967 429.714 366.588 430.978 365.904 432.05C365.224 433.132 364.199 433.998 363.054 434.568C361.88 435.128 360.448 435.327 359.202 434.896C357.959 434.503 356.918 433.676 356.267 432.64C357.258 433.342 358.33 433.847 359.414 434.028C359.958 434.118 360.499 434.128 361.023 434.03C361.555 433.968 362.06 433.763 362.552 433.539C362.796 433.416 363.047 433.284 363.286 433.143C363.514 432.986 363.754 432.844 363.967 432.667C364.427 432.348 364.806 431.936 365.186 431.522C365.916 430.666 366.495 429.643 366.875 428.488Z" fill="#C8C8C8"/>
<path d="M357.445 429.997C357.307 429.152 357.532 428.253 357.991 427.489C358.449 426.721 359.156 426.087 359.967 425.695C360.793 425.287 361.831 425.175 362.701 425.497C363.575 425.8 364.277 426.413 364.665 427.172C363.936 426.747 363.203 426.456 362.489 426.365C361.775 426.264 361.104 426.429 360.468 426.724C359.148 427.359 358.111 428.448 357.445 429.997Z" fill="#C8C8C8"/>
<path d="M357.327 456.379C357.664 457.142 357.662 458.048 357.395 458.878C357.124 459.71 356.587 460.472 355.879 461.002C355.164 461.563 354.184 461.842 353.296 461.698C352.411 461.568 351.627 461.13 351.096 460.491C351.883 460.728 352.639 460.851 353.338 460.806C354.039 460.759 354.644 460.496 355.184 460.091C355.744 459.671 356.214 459.142 356.578 458.526C356.932 457.903 357.188 457.187 357.327 456.379Z" fill="#C8C8C8"/>
<path d="M351.897 459.356C351.592 458.842 351.557 458.198 351.717 457.598C351.888 456.996 352.268 456.441 352.772 456.064C353.287 455.66 354.013 455.461 354.648 455.59C355.28 455.714 355.819 456.057 356.139 456.557C355.563 456.462 355.052 456.424 354.605 456.49C354.16 456.55 353.807 456.721 353.468 456.974C352.755 457.52 352.239 458.242 351.897 459.356Z" fill="#C8C8C8"/>
<path d="M347.876 432.783C348.336 433.191 348.603 433.804 348.625 434.467C348.642 435.136 348.375 435.824 347.882 436.319C347.38 436.857 346.596 437.061 345.96 436.977C345.315 436.901 344.74 436.627 344.312 436.189C344.916 436.183 345.462 436.18 345.942 436.077C346.422 435.981 346.793 435.805 347.069 435.515C347.367 435.212 347.602 434.824 347.732 434.375C347.871 433.917 347.902 433.385 347.876 432.783Z" fill="#C8C8C8"/>
<path d="M344.627 435.33C344.244 435.083 344.016 434.652 343.976 434.168C343.939 433.678 344.125 433.162 344.492 432.794C344.871 432.388 345.471 432.246 345.928 432.33C346.393 432.412 346.789 432.642 347.052 433.011C346.612 433.086 346.247 433.134 345.947 433.231C345.644 433.324 345.459 433.44 345.308 433.599C345.135 433.774 344.98 433.99 344.868 434.26C344.748 434.538 344.68 434.887 344.627 435.33Z" fill="#C8C8C8"/>
<path d="M366.103 460.43C365.819 460.975 365.291 461.383 364.652 461.567C364.008 461.747 363.275 461.658 362.673 461.299C362.029 460.944 361.64 460.234 361.567 459.598C361.483 458.952 361.609 458.328 361.928 457.804C362.083 458.391 362.219 458.919 362.435 459.359C362.644 459.802 362.907 460.118 363.255 460.312C363.623 460.53 364.055 460.662 364.523 460.679C365 460.702 365.523 460.602 366.103 460.43Z" fill="#C8C8C8"/>
<path d="M362.839 457.901C362.984 457.47 363.346 457.144 363.806 456.985C364.272 456.83 364.819 456.885 365.266 457.152C365.752 457.418 366.036 457.965 366.066 458.429C366.1 458.901 365.974 459.341 365.68 459.688C365.499 459.278 365.366 458.934 365.198 458.668C365.032 458.397 364.874 458.246 364.684 458.138C364.472 458.013 364.224 457.916 363.934 457.873C363.636 457.824 363.28 457.844 362.839 457.901Z" fill="#C8C8C8"/>
<path d="M375.089 441.974C375.162 442.583 374.953 443.219 374.529 443.729C374.097 444.242 373.441 444.579 372.742 444.621C372.01 444.69 371.287 444.321 370.87 443.837C370.438 443.349 370.191 442.765 370.162 442.151C370.618 442.549 371.027 442.909 371.453 443.151C371.877 443.399 372.27 443.513 372.67 443.479C373.094 443.451 373.526 443.318 373.922 443.067C374.33 442.819 374.706 442.442 375.089 441.974Z" fill="#C8C8C8"/>
<path d="M370.966 441.719C370.845 441.28 370.96 440.805 371.252 440.417C371.55 440.027 372.033 439.765 372.552 439.735C373.104 439.681 373.648 439.973 373.933 440.341C374.226 440.711 374.369 441.145 374.321 441.597C373.941 441.361 373.637 441.152 373.348 441.025C373.06 440.896 372.844 440.859 372.625 440.876C372.381 440.892 372.121 440.952 371.857 441.08C371.582 441.207 371.301 441.423 370.966 441.719Z" fill="#C8C8C8"/>
<path d="M340.345 447.914C340.418 448.525 340.208 449.161 339.785 449.669C339.353 450.182 338.697 450.519 337.998 450.561C337.266 450.63 336.544 450.262 336.126 449.777C335.694 449.29 335.448 448.705 335.418 448.091C335.873 448.49 336.284 448.849 336.709 449.091C337.133 449.339 337.526 449.453 337.925 449.419C338.35 449.391 338.782 449.258 339.178 449.007C339.586 448.759 339.962 448.382 340.345 447.914Z" fill="#C8C8C8"/>
<path d="M336.224 447.659C336.102 447.22 336.216 446.747 336.508 446.357C336.807 445.967 337.29 445.705 337.808 445.675C338.36 445.623 338.904 445.913 339.188 446.281C339.483 446.652 339.626 447.087 339.578 447.537C339.198 447.301 338.894 447.092 338.604 446.965C338.316 446.836 338.1 446.799 337.882 446.816C337.638 446.833 337.378 446.892 337.114 447.02C336.839 447.147 336.556 447.363 336.224 447.659Z" fill="#C8C8C8"/>
<g opacity="0.399994">
<g opacity="0.399994">
<path opacity="0.399994" d="M60.5641 346.599C60.5255 343.782 60.9201 341.096 61.3921 338.476C61.8495 335.85 62.4681 333.296 63.0628 330.755C64.2681 325.674 65.5628 320.67 66.6295 315.632C67.7295 310.607 68.6441 305.563 69.3401 300.511C70.0348 295.458 70.4188 290.382 70.6468 285.338C71.0015 275.228 70.3468 265.188 68.7268 255.4C68.3481 252.951 67.8695 250.519 67.3921 248.102C66.8655 245.634 66.3401 243.454 65.7708 240.58C64.6628 235.122 63.7908 229.546 63.2868 223.866C62.2361 212.515 62.5721 200.7 64.8908 188.902C67.1948 177.128 71.5215 165.408 77.8588 154.766C84.1895 144.122 92.3375 134.556 101.531 126.455C110.74 118.344 120.983 111.695 131.756 106.45C137.143 103.815 142.669 101.538 148.341 99.5936C151.173 98.6056 154.055 97.7349 156.992 96.9363L164.112 95.0203C172.963 92.5056 181.448 89.5403 189.593 85.6563C197.808 81.8896 205.705 77.1443 214.212 71.7203C222.685 66.3203 231.845 60.1656 241.997 54.7589C247.056 52.0603 252.307 49.5349 257.687 47.3549C260.376 46.2576 263.096 45.2509 265.824 44.2936L269.936 42.9323C271.496 42.4603 273.063 42.0109 274.657 41.6189C281.025 40.0349 287.735 39.1922 294.567 39.4682C301.389 39.7002 308.325 41.0682 314.875 43.7002C321.413 46.3456 327.523 50.3136 332.524 55.3602C337.552 60.3776 341.428 66.4509 343.827 72.8616C346.272 79.2669 347.269 85.9429 347.2 92.3203C347.157 98.7123 346.061 104.834 344.319 110.548C340.717 121.978 334.947 131.834 328.252 140.65C324.916 145.098 321.197 149.223 317.328 153.131C313.408 156.994 309.285 160.602 305 163.938C287.816 177.318 268.295 186.12 250.651 196.424C241.859 201.516 233.464 207.1 227.113 213.523C223.972 216.755 221.404 220.159 219.588 223.652C219.133 224.526 218.725 225.406 218.353 226.29C217.993 227.159 217.657 228.042 217.323 229.003C216.66 230.92 216.063 233.027 215.521 235.215C214.437 239.6 213.596 244.338 212.861 249.159C212.064 253.98 211.452 258.927 210.768 263.916L208.795 279.04C208.137 284.126 207.448 289.244 206.665 294.38C203.517 314.92 199.52 335.864 192.045 356.726C188.237 367.132 183.591 377.563 176.975 387.554C175.287 390.035 173.521 392.492 171.556 394.888C169.624 397.29 167.523 399.635 165.185 401.84C162.887 404.059 160.371 406.166 157.641 408.072C156.311 409.048 154.844 409.914 153.4 410.763L151.161 411.96C150.437 412.33 149.801 412.6 149.12 412.922C143.728 415.37 138.064 417.374 132.161 418.635C126.273 419.907 120.152 420.424 114.096 419.963C108.041 419.547 102.084 418.014 96.6481 415.614C93.9321 414.403 91.3455 412.96 88.9468 411.302C86.5281 409.68 84.2788 407.858 82.2175 405.888C73.9588 397.955 68.6908 388.038 65.4001 377.887C62.1161 367.684 60.7481 357.115 60.5641 346.599ZM64.5641 346.555C64.6361 356.687 66.3628 366.874 70.2481 376.095C74.1001 385.271 80.2015 393.526 88.0895 398.644C90.0455 399.927 92.0828 401.028 94.1748 401.931C96.2801 402.808 98.4481 403.454 100.624 403.906C104.979 404.836 109.412 404.815 113.691 404.099C122.275 402.61 130.207 398.355 137.213 392.754C137.635 392.404 138.124 392.036 138.487 391.707L139.481 390.767C140.124 390.092 140.767 389.454 141.377 388.722C142.617 387.318 143.777 385.764 144.855 384.071C147.02 380.73 148.98 376.944 150.653 372.883C154.079 364.772 156.739 355.735 159.144 346.442C163.904 327.766 167.692 307.998 172.201 287.922C173.323 282.896 174.516 277.848 175.785 272.776C177.008 267.694 178.38 262.6 179.82 257.471C182.747 247.202 186.013 236.876 190.863 226.238C192.095 223.571 193.44 220.88 195.035 218.147C195.833 216.784 196.717 215.387 197.663 214.027C198.619 212.691 199.619 211.403 200.661 210.17C204.847 205.232 209.656 201.255 214.547 197.992C224.339 191.42 234.389 187.318 244.047 183.158C253.747 179.114 263.219 175.196 272.208 170.56C281.188 165.942 289.68 160.612 297.187 154.275C304.719 147.978 311.127 140.552 316.047 132.324C320.94 124.064 324.515 115.068 325.551 106.302C326.071 101.934 326.016 97.6656 325.308 93.7336C324.573 89.8056 323.213 86.2309 321.291 83.2536C317.481 77.2483 311.7 73.6323 305.191 72.3349C301.941 71.6496 298.489 71.5709 294.981 71.9349C291.472 72.3429 287.891 73.2189 284.341 74.5429C283.455 74.8749 282.572 75.2496 281.691 75.6283L278.545 76.9949C276.465 77.9363 274.407 78.9043 272.387 79.9416C268.343 82.0123 264.4 84.2456 260.513 86.7283C252.733 91.6496 245.096 97.6123 236.591 103.999C228.136 110.383 218.665 116.96 208.425 122.552C198.149 128.071 187.295 132.654 176.329 136.035C174.963 136.495 173.587 136.85 172.212 137.255L168.517 138.308C166.477 138.904 164.42 139.566 162.367 140.271C158.267 141.703 154.211 143.35 150.272 145.175C134.489 152.531 120.713 162.851 110.888 176.271C105.921 182.95 101.731 190.33 98.3935 198.443C96.7055 202.49 95.2188 206.715 94.0068 211.106C92.7268 215.484 91.7428 220.023 90.8961 224.676C90.0895 229.33 89.4695 234.102 89.0801 238.956C88.8775 241.238 88.7388 244.214 88.5508 246.904C88.3201 249.65 88.0841 252.382 87.7561 255.103C86.4615 265.988 84.4295 276.651 81.6975 286.988C79.0441 297.344 75.7148 307.367 72.3588 317.228C70.6681 322.156 68.9788 327.052 67.4735 331.948C66.0041 336.826 64.6361 341.807 64.5641 346.555Z" fill="#ECECEC"/>
</g>
<g opacity="0.399994">
<path opacity="0.399994" d="M235.973 392.969C230.267 403.538 224.956 414.306 220.244 425.302L218.485 429.426L216.827 433.589C215.687 436.347 214.696 439.163 213.679 441.965C211.611 447.553 209.823 453.226 208.175 458.914C204.896 470.29 202.536 481.863 201.395 493.311C200.743 499.029 200.616 504.71 200.641 510.275C200.872 515.819 201.233 521.289 202.305 526.441C202.669 529.063 203.485 531.514 204.071 533.994L205.284 537.553C205.487 538.141 205.667 538.735 205.883 539.311L206.633 540.982C208.472 545.502 210.981 549.461 213.767 553.047C214.509 553.915 215.239 554.779 215.921 555.665L218.324 558.071C218.727 558.466 219.088 558.886 219.512 559.265L220.852 560.345C221.752 561.058 222.575 561.815 223.495 562.503L226.361 564.485C226.844 564.809 227.277 565.17 227.792 565.469L229.353 566.354L232.42 568.161L235.748 569.75C240.131 571.915 244.996 573.649 249.98 575.247C251.173 575.685 252.527 576.035 253.855 576.399C255.177 576.755 256.511 577.155 257.821 577.478C260.421 578.049 263.04 578.741 265.54 579.139C270.593 580.065 275.42 580.594 279.888 580.506C284.383 580.426 288.589 579.873 292.935 578.755C301.564 576.562 311.183 571.867 321.628 566.279C326.835 563.525 332.164 560.586 337.621 557.611C343.043 554.629 348.675 551.745 354.292 548.842C376.917 537.274 400.707 527.211 424.837 518.934L429.359 517.357L433.904 515.866C436.936 514.886 439.955 513.853 442.997 512.918L460.807 507.499C466.469 505.753 472.076 503.89 477.663 501.983L485.973 498.983C488.713 497.935 491.469 496.898 494.196 495.815C499.605 493.579 505.049 491.377 510.303 488.867L514.275 487.031L518.181 485.098C520.819 483.842 523.317 482.415 525.896 481.066C535.988 475.438 545.708 469.186 554.376 461.845C558.756 458.207 562.735 454.218 566.517 450.061C570.333 445.919 573.611 441.394 576.539 436.674C582.448 427.243 586.135 416.617 587.449 405.599C588.025 400.082 588.011 394.479 587.367 388.899C587.175 387.517 587.04 386.087 586.807 384.737L585.975 380.787C585.213 378.239 584.395 375.711 583.196 373.401C580.905 368.722 577.525 364.715 573.223 361.625C568.932 358.521 563.788 356.301 558.292 354.782C552.793 353.234 546.945 352.427 541.021 351.847C535.08 351.359 529.021 351.181 522.895 351.234C510.648 351.301 498.176 352.066 485.305 352.327C478.856 352.429 472.288 352.373 465.553 351.933C458.821 351.491 451.896 350.682 444.759 348.971C430.215 345.407 417.683 338.889 406.331 331.661C383.796 317.086 366.057 299.635 348.031 286.854C339.051 280.463 330.169 275.367 321.029 272.569C316.455 271.141 311.749 270.373 306.869 270.114C302.361 269.922 298.283 270.345 294.456 271.819C290.632 273.267 286.857 275.792 283.421 279.406C279.975 282.993 276.9 287.506 274.191 292.41C271.469 297.321 269.065 302.618 266.829 308.058C264.685 313.534 262.643 319.142 260.785 324.83C256.971 336.19 253.628 347.802 249.805 359.281C246.017 370.765 241.732 382.161 235.973 392.969ZM232.429 391.158C238.085 380.751 241.884 369.419 244.625 357.869C247.413 346.309 249.183 334.507 250.92 322.573C251.841 316.61 252.664 310.587 253.759 304.527C254.807 298.447 256.072 292.315 257.892 286.114C259.733 279.926 262.093 273.622 265.763 267.431C269.408 261.289 274.565 255.162 281.499 250.602C283.209 249.462 285.069 248.522 286.896 247.506C288.779 246.646 290.711 245.858 292.659 245.087C294.612 244.481 296.607 243.9 298.607 243.384C300.581 243.008 302.576 242.652 304.584 242.316C312.147 241.265 320.011 241.444 327.636 242.632C335.273 243.808 342.58 246.109 349.337 248.962C356.093 251.851 362.327 255.294 368.116 258.997C379.688 266.422 389.635 274.75 398.976 282.832L412.629 294.801C414.857 296.761 417.1 298.625 419.312 300.513L422.62 303.291L425.944 305.969C430.407 309.441 434.809 312.799 439.385 315.663C443.903 318.618 448.612 321.134 453.203 323.107C457.968 325.134 463.344 326.706 468.969 327.987C474.595 329.274 480.473 330.313 486.479 331.19C498.525 332.954 511.015 334.078 523.691 335.549L533.233 336.731C536.437 337.198 539.632 337.682 542.851 338.271C549.287 339.369 555.749 340.889 562.159 343.043C568.541 345.222 574.919 348.163 580.564 352.434C586.216 356.663 590.92 362.266 594.052 368.422C595.677 371.494 596.78 374.703 597.763 377.915L598.957 382.757C599.295 384.354 599.505 385.91 599.781 387.491C600.692 393.809 601.124 400.227 600.867 406.661C600.505 413.078 599.645 419.502 598.047 425.774C597.613 427.33 597.288 428.927 596.787 430.465L595.295 435.094C594.14 438.117 592.989 441.163 591.607 444.099C586.199 455.921 578.813 466.83 570.165 476.557C565.864 481.441 561.296 486.107 556.46 490.455C551.679 494.886 546.592 498.938 541.408 502.869C538.776 504.761 536.181 506.746 533.476 508.534L529.447 511.277L525.345 513.897C519.843 517.351 514.223 520.585 508.495 523.63C505.627 525.133 502.733 526.583 499.84 528.049C496.92 529.435 493.989 530.821 491.04 532.147C488.077 533.427 485.132 534.787 482.14 535.998C479.137 537.181 476.153 538.449 473.127 539.557L455.755 546.043C452.936 547.093 450.164 548.231 447.367 549.321L443.181 550.97L439.037 552.698C416.852 561.793 395.721 572.386 374.953 584.023C364.535 589.907 354.215 595.99 343.007 602.215C337.433 605.342 331.501 608.385 325.029 611.283C318.552 614.111 311.457 616.794 303.711 618.559C295.993 620.367 287.728 621.215 279.749 620.973C271.728 620.81 264.125 619.523 256.991 617.846C253.36 617.059 249.987 616.005 246.555 614.997C244.865 614.469 243.241 613.885 241.584 613.327C239.937 612.766 238.3 612.226 236.599 611.514L231.556 609.489L229.047 608.455L226.556 607.242C223.237 605.603 219.939 604.041 216.74 601.981C215.132 601.005 213.529 600.034 211.951 599.019L207.34 595.614L205.061 593.894C204.311 593.307 203.608 592.621 202.884 591.986L198.612 588.089C197.251 586.717 195.985 585.218 194.691 583.782L192.776 581.605C192.164 580.855 191.611 580.049 191.031 579.271C189.892 577.699 188.748 576.138 187.66 574.551C186.668 572.893 185.723 571.214 184.792 569.541C181.264 562.766 178.557 555.651 177.301 548.522L176.755 545.865C176.616 544.981 176.525 544.095 176.412 543.214C176.205 541.449 175.969 539.689 175.829 537.941C175.751 534.459 175.5 530.979 175.757 527.602C175.933 520.783 177.093 514.266 178.341 507.893C179.807 501.579 181.46 495.405 183.571 489.466C187.673 477.542 192.675 466.231 198.064 455.237C199.44 452.502 200.729 449.734 202.172 447.043C203.577 444.335 204.896 441.598 206.347 438.923C207.751 436.227 209.204 433.558 210.635 430.886L214.951 422.89L232.429 391.158Z" fill="#ECECEC"/>
</g>
<g opacity="0.399994">
<path opacity="0.399994" d="M603.623 119.846C601.856 123.672 599.915 127.046 597.883 130.224C596.888 131.833 595.848 133.329 594.811 134.854C593.753 136.317 592.673 137.8 591.583 139.194C589.431 142.052 587.159 144.685 584.877 147.302C575.739 157.64 565.777 166.512 556.009 175.308L552.561 178.438L551.036 179.83L549.595 181.349C548.607 182.342 547.72 183.496 546.784 184.592C545.907 185.762 545.029 186.932 544.172 188.166C543.328 189.404 542.497 190.646 541.721 191.977C540.941 193.278 540.165 194.609 539.431 195.981C537.993 198.722 536.543 201.544 535.275 204.453C529.985 216.101 526.007 228.632 519.805 241.174C516.587 247.4 512.756 253.773 507.169 259.301C504.449 262.14 501.203 264.536 497.799 266.726C496.06 267.738 494.296 268.786 492.456 269.597C491.531 270.021 490.608 270.476 489.681 270.857L486.852 271.904C483.044 273.273 479.176 274.145 475.304 274.818C473.335 275.166 471.195 275.274 469.107 275.47C467.012 275.608 464.976 275.484 462.875 275.465C460.801 275.412 458.821 275.11 456.764 274.88C455.731 274.778 454.761 274.57 453.785 274.376L450.824 273.777L449.343 273.457L447.921 273.044L445.072 272.189C443.136 271.676 441.353 270.948 439.527 270.233C432.285 267.366 425.647 263.576 419.611 259.184C413.619 254.75 408.177 249.753 403.312 244.329C398.463 238.897 394.291 232.944 390.675 226.709C389.789 225.14 388.936 223.553 388.096 221.97C387.279 220.366 386.548 218.708 385.792 217.082C385.02 215.465 384.336 213.793 383.695 212.122C383.04 210.445 382.376 208.794 381.823 207.068C379.476 200.312 377.813 193.305 376.603 186.336C375.427 179.348 374.716 172.346 374.679 165.398C374.607 158.466 375.029 151.613 376.221 144.93C377.428 138.253 379.457 131.762 382.525 125.74C385.636 119.676 390.248 114.29 395.852 110.157C401.433 106.004 407.796 102.936 414.307 100.436C427.4 95.5171 441.191 92.4438 454.773 90.3398C461.593 89.2904 468.363 88.6024 475.073 88.1771C476.051 88.1491 476.439 87.9958 476.999 87.9144L478.563 87.6438C479.624 87.3198 480.636 87.2331 481.689 86.8491L483.235 86.4198C483.761 86.2278 484.279 86.0198 484.807 85.8704C485.843 85.5798 486.932 85.0411 487.985 84.7011C492.323 82.9584 496.972 80.7438 502.009 77.9411L509.919 73.5024L514.145 71.1198L518.636 68.6984C521.653 67.0398 525.027 65.4571 528.495 63.8771C532.084 62.3664 535.865 60.8611 540.061 59.6771C544.32 58.5118 548.795 57.5038 553.74 57.1971C558.621 56.8704 563.783 57.0558 568.812 58.1118L570.703 58.4678L572.545 58.9651C573.765 59.3104 575.007 59.6358 576.208 60.0331C578.515 60.9198 580.928 61.7718 583.024 62.9118L586.237 64.5758L589.185 66.4051C591.213 67.6224 592.913 68.9838 594.688 70.3264C595.16 70.6798 595.52 70.9531 596.052 71.3811C596.747 71.9611 597.405 72.5571 598.061 73.1664C599.38 74.3184 600.651 75.7904 601.839 77.2904C602.127 77.6531 602.424 78.0318 602.703 78.4184L603.516 79.6558C604.041 80.4891 604.537 81.3264 605.029 82.1771C605.903 83.9118 606.689 85.7424 607.276 87.5371C607.54 88.4384 607.792 89.3358 608.013 90.2371C608.129 90.6971 608.244 91.1558 608.325 91.5904L608.528 92.8931C608.652 93.7478 608.748 94.6078 608.839 95.4811C608.935 96.3398 608.912 97.0904 608.935 97.9131C608.941 98.7011 608.94 99.5144 608.909 100.29L608.721 102.476C608.64 103.193 608.584 103.96 608.463 104.622L608.105 106.597C607.035 111.804 605.377 116.016 603.623 119.846Z" fill="#ECECEC"/>
</g>
<g opacity="0.399994">
<path opacity="0.399994" d="M163.837 472.467C164.53 476.494 164.757 480.321 164.65 484.014C164.543 491.414 162.877 498.187 161.05 504.787C159.197 511.401 156.943 517.827 154.13 524.027C151.263 530.201 147.77 536.121 143.423 541.549C139.063 546.961 134.05 552.041 128.063 556.387C122.05 560.654 114.583 563.788 106.397 565.014C102.317 565.614 98.0634 565.734 93.9167 565.267C89.7834 564.774 85.7834 563.721 82.29 562.134C78.77 560.574 75.77 558.587 73.17 556.481C70.5567 554.361 68.3034 552.121 66.1167 549.867C64.97 548.614 63.9434 547.267 63.0367 545.814C62.1834 544.334 61.4767 542.774 60.8634 541.147C59.73 537.894 59.01 534.427 58.5434 530.894C57.61 523.827 57.41 516.267 58.3034 509.027C59.1967 501.787 61.4367 495.041 64.9567 489.281C68.4767 483.521 73.09 478.627 78.53 474.721C83.9434 470.774 90.3034 467.947 96.53 465.374C102.85 462.867 108.97 460.507 114.783 457.761C120.703 455.107 126.223 451.961 133.303 449.761C135.09 449.227 136.983 448.734 139.103 448.507C141.197 448.241 143.503 448.187 146.01 448.614C148.703 449.067 151.93 450.574 154.303 452.654C154.877 453.174 155.49 453.734 155.983 454.294C156.477 454.854 156.97 455.427 157.437 456.027C158.25 457.161 159.063 458.387 159.637 459.521C160.303 460.721 160.743 461.787 161.237 462.961C161.637 464.027 162.09 465.201 162.37 466.227L162.837 467.841L163.223 469.401C163.477 470.454 163.65 471.441 163.837 472.467Z" fill="#ECECEC"/>
</g>
</g>
<g opacity="0.399994">
<g opacity="0.399994">
<path opacity="0.399994" d="M540.47 248.64C571.82 224.295 603.346 229.033 603.346 229.033C603.346 229.033 603.49 260.915 574.88 288.425C550.74 311.641 527.808 310.325 519.909 301.195C512.012 292.061 514.016 269.179 540.47 248.64Z" fill="#ECECEC"/>
</g>
<g opacity="0.399994">
<path opacity="0.399994" d="M536.981 264.385C556.855 248.95 576.843 251.954 576.843 251.954C576.843 251.954 576.934 272.166 558.795 289.609C543.493 304.328 528.953 303.493 523.946 297.704C518.939 291.913 520.21 277.406 536.981 264.385Z" fill="white"/>
</g>
</g>
<path d="M551.367 272.721L548.995 270.828C548.315 270.285 548.205 269.296 548.746 268.617C549.289 267.939 550.279 267.827 550.957 268.368L553.33 270.263C554.009 270.804 554.119 271.795 553.578 272.473C553.037 273.152 552.047 273.264 551.367 272.721Z" fill="#ECECEC"/>
<path d="M524.615 297.128L522.959 294.584C522.484 293.856 522.691 292.882 523.42 292.407C524.147 291.934 525.121 292.139 525.595 292.867L527.252 295.411C527.725 296.139 527.52 297.114 526.792 297.588C526.064 298.062 525.088 297.856 524.615 297.128Z" fill="#ECECEC"/>
<path d="M540.236 267.874L538.605 267.825C537.737 267.798 537.055 267.073 537.081 266.205C537.107 265.336 537.832 264.653 538.701 264.68L540.331 264.729C541.2 264.756 541.881 265.481 541.856 266.349C541.829 267.218 541.104 267.901 540.236 267.874Z" fill="#ECECEC"/>
<path d="M555.337 287.605L555.387 285.975C555.413 285.106 556.139 284.423 557.007 284.45C557.875 284.477 558.557 285.202 558.532 286.07L558.481 287.701C558.456 288.569 557.731 289.251 556.863 289.225C555.993 289.198 555.309 288.473 555.337 287.605Z" fill="#ECECEC"/>
<path d="M520.572 288.085L520.39 286.465C520.293 285.601 520.914 284.823 521.778 284.725C522.642 284.629 523.421 285.251 523.517 286.113L523.7 287.735C523.796 288.597 523.174 289.376 522.312 289.473C521.448 289.571 520.669 288.948 520.572 288.085Z" fill="#ECECEC"/>
<path d="M547.039 302.298L545.521 302.893C544.713 303.21 543.799 302.811 543.482 302.002C543.166 301.193 543.565 300.281 544.373 299.963L545.891 299.369C546.699 299.051 547.613 299.45 547.93 300.259C548.247 301.067 547.847 301.981 547.039 302.298Z" fill="#ECECEC"/>
<path d="M553.736 295.772C547.484 303.607 536.061 304.889 528.227 298.636C520.392 292.383 519.109 280.963 525.364 273.127C531.616 265.292 543.039 264.009 550.873 270.263C558.708 276.516 559.989 287.937 553.736 295.772Z" fill="#ECECEC"/>
<path d="M531.787 274.485C531.816 275.334 532.175 276.174 532.728 276.858C533.28 277.55 534.051 278.068 534.883 278.37C535.733 278.665 536.733 278.692 537.557 278.298C538.381 277.932 539.035 277.284 539.401 276.521C538.773 277.08 538.076 277.509 537.344 277.718C536.979 277.821 536.605 277.872 536.237 277.844C535.868 277.842 535.504 277.741 535.148 277.624C534.971 277.558 534.789 277.486 534.613 277.409C534.445 277.318 534.268 277.238 534.108 277.133C533.767 276.95 533.476 276.697 533.181 276.441C532.613 275.908 532.137 275.249 531.787 274.485Z" fill="#C8C8C8"/>
<path d="M538.387 274.795C538.416 274.203 538.192 273.602 537.817 273.112C537.443 272.62 536.908 272.239 536.321 272.031C535.721 271.814 534.999 271.816 534.424 272.106C533.848 272.38 533.413 272.858 533.203 273.408C533.672 273.062 534.153 272.804 534.637 272.687C535.121 272.563 535.595 272.624 536.055 272.778C537.012 273.112 537.808 273.782 538.387 274.795Z" fill="#C8C8C8"/>
<path d="M545.888 286.499C545.715 287.049 545.788 287.672 546.034 288.223C546.286 288.773 546.712 289.257 547.242 289.565C547.776 289.896 548.471 290.012 549.071 289.845C549.67 289.687 550.175 289.325 550.49 288.845C549.968 289.069 549.458 289.212 548.972 289.235C548.487 289.257 548.051 289.123 547.648 288.887C547.232 288.64 546.867 288.313 546.57 287.917C546.278 287.516 546.046 287.044 545.888 286.499Z" fill="#C8C8C8"/>
<path d="M549.852 288.126C550.022 287.75 549.996 287.304 549.84 286.904C549.676 286.504 549.373 286.152 548.996 285.932C548.61 285.692 548.097 285.612 547.669 285.749C547.245 285.882 546.9 286.161 546.718 286.529C547.108 286.42 547.456 286.353 547.769 286.365C548.08 286.373 548.336 286.462 548.589 286.61C549.121 286.93 549.532 287.388 549.852 288.126Z" fill="#C8C8C8"/>
<path d="M551.905 281.759C551.621 282.074 551.485 282.516 551.521 282.975C551.56 283.436 551.797 283.888 552.175 284.192C552.561 284.523 553.116 284.602 553.547 284.496C553.985 284.392 554.359 284.16 554.62 283.826C554.204 283.868 553.827 283.908 553.489 283.875C553.153 283.846 552.884 283.754 552.672 283.575C552.443 283.391 552.253 283.142 552.128 282.842C551.997 282.539 551.935 282.175 551.905 281.759Z" fill="#C8C8C8"/>
<path d="M554.337 283.26C554.581 283.061 554.704 282.746 554.696 282.41C554.683 282.07 554.515 281.73 554.233 281.505C553.943 281.256 553.519 281.204 553.211 281.297C552.896 281.389 552.643 281.578 552.489 281.852C552.799 281.87 553.053 281.873 553.267 281.918C553.483 281.958 553.619 282.025 553.736 282.121C553.867 282.229 553.991 282.365 554.088 282.542C554.193 282.725 554.267 282.96 554.337 283.26Z" fill="#C8C8C8"/>
<path d="M526.59 279.191C526.587 279.616 526.779 280.037 527.111 280.355C527.447 280.673 527.925 280.856 528.407 280.829C528.915 280.821 529.385 280.512 529.634 280.147C529.895 279.777 530.018 279.356 529.991 278.933C529.709 279.241 529.454 279.521 529.179 279.72C528.909 279.923 528.647 280.032 528.37 280.039C528.075 280.053 527.769 279.995 527.477 279.853C527.177 279.713 526.89 279.483 526.59 279.191Z" fill="#C8C8C8"/>
<path d="M529.404 278.697C529.454 278.387 529.338 278.069 529.108 277.825C528.873 277.58 528.52 277.436 528.16 277.455C527.777 277.461 527.426 277.704 527.26 277.979C527.085 278.256 527.021 278.567 527.089 278.873C527.33 278.681 527.525 278.515 527.713 278.405C527.901 278.293 528.046 278.252 528.198 278.247C528.369 278.239 528.55 278.259 528.742 278.327C528.941 278.393 529.153 278.52 529.404 278.697Z" fill="#C8C8C8"/>
<path d="M538.078 290.31C536.173 291.429 533.717 290.785 532.593 288.869C531.467 286.954 532.099 284.495 534.002 283.375C535.907 282.257 538.363 282.902 539.489 284.817C540.614 286.731 539.983 289.191 538.078 290.31Z" fill="#DCDCDC"/>
<path d="M533.961 285.173C532.924 285.784 532.301 286.832 532.192 287.949C531.693 286.227 532.39 284.321 534.004 283.373C535.908 282.255 538.365 282.9 539.489 284.815C540.301 286.196 540.201 287.859 539.364 289.099C539.552 288.236 539.426 287.304 538.941 286.479C537.922 284.744 535.69 284.157 533.961 285.173Z" fill="#C8C8C8"/>
<path d="M530.603 288.132C530.68 289.171 531.135 290.187 531.819 291.013C532.503 291.849 533.443 292.472 534.458 292.841C535.491 293.2 536.696 293.236 537.703 292.772C538.71 292.339 539.519 291.563 540.006 290.647C539.26 291.359 538.406 291.915 537.49 292.192C537.262 292.265 537.027 292.3 536.798 292.344C536.564 292.357 536.331 292.397 536.098 292.367C535.631 292.368 535.171 292.241 534.724 292.095C534.5 292.012 534.274 291.921 534.055 291.823C533.843 291.708 533.622 291.609 533.422 291.475C532.999 291.241 532.632 290.921 532.272 290.596C531.574 289.92 530.999 289.085 530.603 288.132Z" fill="#C8C8C8"/>
<path d="M526.408 290.139C525.632 290.414 524.777 290.002 524.501 289.222C524.227 288.441 524.633 287.583 525.411 287.31C526.188 287.035 527.041 287.447 527.317 288.229C527.592 289.01 527.185 289.865 526.408 290.139Z" fill="#DCDCDC"/>
<path d="M525.267 287.965C524.845 288.115 524.541 288.455 524.421 288.855C524.361 288.189 524.753 287.541 525.41 287.309C526.187 287.035 527.041 287.447 527.317 288.228C527.517 288.791 527.359 289.393 526.965 289.788C527.095 289.485 527.117 289.135 526.998 288.799C526.747 288.089 525.971 287.716 525.267 287.965Z" fill="#C8C8C8"/>
<path d="M523.826 288.81C523.759 289.197 523.844 289.611 524.032 289.973C524.22 290.337 524.524 290.641 524.876 290.851C525.238 291.062 525.692 291.162 526.102 291.054C526.51 290.958 526.86 290.717 527.09 290.399C526.752 290.593 526.4 290.721 526.052 290.749C525.706 290.779 525.374 290.685 525.078 290.511C524.467 290.155 524.02 289.562 523.826 288.81Z" fill="#C8C8C8"/>
<path d="M537.724 298.645C536.568 298.838 535.475 298.053 535.282 296.891C535.087 295.73 535.867 294.633 537.023 294.439C538.178 294.247 539.27 295.033 539.464 296.194C539.658 297.354 538.878 298.451 537.724 298.645Z" fill="#DCDCDC"/>
<path d="M536.66 295.321C536.031 295.426 535.523 295.826 535.258 296.36C535.338 295.412 536.044 294.601 537.022 294.438C538.178 294.245 539.271 295.032 539.466 296.192C539.604 297.03 539.239 297.834 538.59 298.289C538.847 297.898 538.962 297.413 538.878 296.912C538.702 295.86 537.708 295.146 536.66 295.321Z" fill="#C8C8C8"/>
<path d="M534.436 296.148C534.288 296.678 534.313 297.264 534.5 297.802C534.683 298.343 535.027 298.828 535.459 299.202C535.9 299.574 536.487 299.819 537.071 299.783C537.651 299.763 538.193 299.53 538.613 299.176C538.115 299.398 537.58 299.506 537.075 299.474C536.567 299.444 536.099 299.227 535.716 298.9C535.324 298.57 535.008 298.155 534.787 297.688C534.573 297.219 534.441 296.695 534.436 296.148Z" fill="#C8C8C8"/>
<path d="M544.867 277.153C545.985 278.505 548.129 278.577 549.657 277.316C551.183 276.053 551.515 273.933 550.398 272.581C549.282 271.229 547.137 271.156 545.61 272.418C544.081 273.681 543.749 275.801 544.867 277.153Z" fill="#DCDCDC"/>
<path d="M549.826 274.029C550.435 274.767 550.572 275.755 550.28 276.675C551.251 275.416 551.346 273.724 550.399 272.579C549.282 271.227 547.135 271.155 545.61 272.417C544.508 273.328 544.026 274.683 544.266 275.875C544.41 275.14 544.82 274.424 545.479 273.88C546.863 272.736 548.811 272.803 549.826 274.029Z" fill="#C8C8C8"/>
<path d="M543.434 274.873C543.038 275.648 542.955 276.61 543.255 277.498C543.395 277.949 543.671 278.35 543.986 278.697C544.302 279.049 544.698 279.302 545.126 279.529C545.57 279.706 546.038 279.828 546.508 279.832C546.972 279.826 547.435 279.782 547.863 279.64C548.726 279.384 549.506 278.936 550.134 278.336C549.332 278.656 548.528 278.913 547.728 279.036C546.928 279.158 546.132 279.113 545.452 278.808C545.124 278.645 544.787 278.438 544.516 278.169C544.232 277.913 543.999 277.608 543.824 277.262C543.479 276.57 543.355 275.733 543.434 274.873Z" fill="#C8C8C8"/>
<path d="M88.1731 454.225L98.4438 443.956C101.382 441.016 101.382 436.251 98.4438 433.309C95.5038 430.369 90.7371 430.369 87.7971 433.309L77.5278 443.58C74.5878 446.52 74.5878 451.285 77.5278 454.225C80.4678 457.165 85.2331 457.165 88.1731 454.225Z" fill="#ECECEC"/>
<path d="M228.413 556L234.93 543.021C236.797 539.305 235.297 534.781 231.581 532.916C227.866 531.049 223.342 532.549 221.475 536.264L214.958 549.244C213.093 552.96 214.593 557.484 218.307 559.349C222.023 561.215 226.547 559.715 228.413 556Z" fill="#ECECEC"/>
<path d="M138.519 425.234L146.242 424.129C150.358 423.54 153.216 419.726 152.628 415.61C152.039 411.494 148.224 408.637 144.11 409.225L136.387 410.33C132.271 410.92 129.412 414.733 130.002 418.848C130.59 422.964 134.404 425.822 138.519 425.234Z" fill="#ECECEC"/>
<path d="M77.2422 527.117L76.1369 519.395C75.5475 515.279 71.7342 512.42 67.6195 513.009C63.5035 513.597 60.6449 517.412 61.2342 521.527L62.3382 529.251C62.9275 533.365 66.7409 536.224 70.8569 535.636C74.9715 535.047 77.8315 531.233 77.2422 527.117Z" fill="#ECECEC"/>
<path d="M242.809 515.491V498.394C242.809 496.802 241.52 495.514 239.929 495.514H230.633C229.043 495.514 227.753 496.802 227.753 498.394V515.491C227.753 517.08 229.043 518.37 230.633 518.37H239.929C241.52 518.37 242.809 517.08 242.809 515.491Z" fill="#ECECEC"/>
<path d="M124.543 592.555L132.079 594.575C136.095 595.649 140.222 593.267 141.298 589.251C142.374 585.236 139.991 581.108 135.975 580.031L128.439 578.013C124.424 576.936 120.296 579.319 119.22 583.336C118.144 587.352 120.527 591.479 124.543 592.555Z" fill="#ECECEC"/>
<path d="M89.2149 565.1C123.132 599.018 178.124 599.018 212.043 565.1C245.962 531.183 245.962 476.19 212.043 442.271C178.124 408.354 123.132 408.354 89.2149 442.271C55.2962 476.19 55.2962 531.183 89.2149 565.1Z" fill="#ECECEC"/>
<path d="M182.225 452.159C182.531 456.215 181.278 460.401 179.013 463.948C176.759 467.535 173.369 470.4 169.574 472.288C165.689 474.144 160.946 474.8 156.819 473.375C152.702 472.072 149.258 469.333 147.101 465.908C150.385 468.227 153.931 469.896 157.525 470.5C159.318 470.795 161.114 470.835 162.854 470.505C164.61 470.301 166.285 469.625 167.913 468.881C168.725 468.473 169.55 468.035 170.341 467.571C171.095 467.047 171.894 466.577 172.599 465.991C174.121 464.937 175.374 463.576 176.635 462.204C179.054 459.365 180.969 455.98 182.225 452.159Z" fill="#C8C8C8"/>
<path d="M151.006 457.155C150.547 454.356 151.295 451.38 152.813 448.851C154.33 446.307 156.671 444.208 159.351 442.908C162.087 441.558 165.525 441.183 168.41 442.255C171.297 443.254 173.625 445.288 174.913 447.796C172.498 446.395 170.067 445.43 167.706 445.13C165.339 444.795 163.119 445.34 161.013 446.318C156.642 448.422 153.209 452.026 151.006 457.155Z" fill="#C8C8C8"/>
<path d="M121.583 516.814C122.697 519.341 122.687 522.342 121.806 525.089C120.91 527.842 119.133 530.37 116.787 532.119C114.421 533.978 111.173 534.898 108.234 534.426C105.307 533.993 102.706 532.542 100.954 530.427C103.555 531.213 106.061 531.619 108.374 531.47C110.695 531.318 112.701 530.446 114.486 529.107C116.338 527.714 117.893 525.963 119.098 523.923C120.277 521.858 121.123 519.493 121.583 516.814Z" fill="#C8C8C8"/>
<path d="M103.604 526.669C102.591 524.973 102.479 522.835 103.01 520.848C103.571 518.857 104.83 517.023 106.5 515.771C108.206 514.429 110.61 513.776 112.714 514.199C114.802 514.609 116.588 515.748 117.646 517.404C115.739 517.087 114.05 516.96 112.572 517.177C111.095 517.383 109.923 517.949 108.803 518.784C106.439 520.592 104.732 522.984 103.604 526.669Z" fill="#C8C8C8"/>
<path d="M90.4394 497.487C91.9621 498.836 92.8434 500.867 92.9154 503.063C92.9741 505.28 92.0914 507.559 90.4567 509.199C88.7981 510.979 86.1981 511.654 84.0981 511.379C81.9567 511.123 80.0567 510.215 78.6367 508.764C80.6407 508.743 82.4461 508.735 84.0341 508.398C85.6247 508.08 86.8501 507.495 87.7607 506.532C88.7527 505.531 89.5287 504.247 89.9594 502.758C90.4194 501.246 90.5207 499.486 90.4394 497.487Z" fill="#C8C8C8"/>
<path d="M79.6776 505.921C78.4109 505.106 77.6549 503.681 77.5203 502.077C77.4016 500.451 78.0189 498.742 79.2349 497.523C80.4843 496.181 82.4723 495.707 83.9829 495.99C85.5296 496.259 86.8376 497.022 87.7109 498.245C86.2536 498.494 85.0389 498.647 84.0469 498.971C83.0456 499.281 82.4323 499.666 81.9309 500.189C81.3576 500.769 80.8469 501.483 80.4763 502.382C80.0776 503.302 79.8523 504.455 79.6776 505.921Z" fill="#C8C8C8"/>
<path d="M209.447 471.762C209.689 473.783 208.998 475.886 207.593 477.575C206.165 479.271 203.991 480.388 201.678 480.527C199.255 480.756 196.865 479.534 195.478 477.932C194.049 476.318 193.231 474.378 193.133 472.35C194.645 473.666 196.001 474.858 197.411 475.662C198.81 476.482 200.115 476.856 201.435 476.743C202.842 476.655 204.275 476.211 205.586 475.383C206.935 474.559 208.179 473.31 209.447 471.762Z" fill="#C8C8C8"/>
<path d="M195.801 470.917C195.396 469.466 195.777 467.897 196.742 466.61C197.733 465.317 199.33 464.449 201.05 464.346C202.874 464.171 204.674 465.139 205.617 466.354C206.594 467.582 207.064 469.022 206.905 470.515C205.65 469.734 204.641 469.042 203.685 468.625C202.729 468.191 202.016 468.071 201.293 468.129C200.48 468.182 199.624 468.377 198.749 468.802C197.84 469.223 196.905 469.938 195.801 470.917Z" fill="#C8C8C8"/>
<path d="M160.754 530.767C170.407 535.072 181.743 530.694 186.071 520.988C190.399 511.282 186.083 499.923 176.43 495.619C166.776 491.312 155.442 495.691 151.112 505.398C146.783 515.103 151.101 526.462 160.754 530.767Z" fill="#DCDCDC"/>
<path d="M177.589 504.143C182.848 506.49 186.371 511.141 187.484 516.395C188.937 507.941 184.601 499.254 176.427 495.609C166.779 491.305 155.436 495.685 151.109 505.387C147.988 512.389 149.355 520.245 153.996 525.691C152.639 521.689 152.739 517.191 154.604 513.007C158.528 504.213 168.825 500.234 177.589 504.143Z" fill="#C8C8C8"/>
<path d="M195.135 516.421C195.33 521.401 193.704 526.474 190.89 530.771C188.086 535.109 183.951 538.577 179.322 540.873C174.602 543.13 168.884 543.945 163.852 542.277C158.831 540.75 154.566 537.495 151.771 533.394C155.692 536.389 160.059 538.574 164.556 539.402C165.679 539.631 166.811 539.67 167.93 539.757C169.051 539.693 170.176 539.758 171.271 539.49C173.494 539.245 175.608 538.395 177.66 537.465C178.679 536.951 179.708 536.399 180.696 535.813C181.639 535.154 182.64 534.567 183.519 533.823C185.407 532.482 186.972 530.769 188.514 529.027C191.482 525.441 193.767 521.167 195.135 516.421Z" fill="#C8C8C8"/>
<path d="M216.156 523.727C219.997 524.616 223.836 522.204 224.729 518.343C225.624 514.479 223.233 510.628 219.39 509.74C215.549 508.851 211.712 511.261 210.817 515.124C209.924 518.987 212.313 522.839 216.156 523.727Z" fill="#DCDCDC"/>
<path d="M220.423 512.779C222.515 513.263 224.138 514.715 224.919 516.56C224.849 513.361 222.643 510.488 219.39 509.736C215.55 508.848 211.709 511.259 210.815 515.12C210.171 517.907 211.231 520.687 213.319 522.351C212.537 520.98 212.254 519.327 212.638 517.661C213.449 514.161 216.935 511.972 220.423 512.779Z" fill="#C8C8C8"/>
<path d="M227.723 516.024C228.249 517.829 228.067 519.845 227.36 521.662C226.664 523.496 225.376 525.102 223.819 526.297C222.215 527.486 220.105 528.204 218.101 527.909C216.112 527.669 214.312 526.714 213.053 525.329C214.759 526.062 216.507 526.485 218.172 526.43C219.839 526.389 221.367 525.768 222.679 524.782C225.391 522.766 227.2 519.71 227.723 516.024Z" fill="#C8C8C8"/>
<path d="M166.891 570.21C172.485 570.51 177.265 566.192 177.567 560.567C177.868 554.942 173.577 550.138 167.981 549.839C162.387 549.539 157.607 553.856 157.305 559.482C157.004 565.107 161.296 569.91 166.891 570.21Z" fill="#DCDCDC"/>
<path d="M170.173 553.839C173.221 554.001 175.847 555.636 177.395 558.027C176.509 553.565 172.716 550.088 167.979 549.835C162.387 549.535 157.604 553.855 157.303 559.477C157.085 563.535 159.252 567.164 162.583 568.98C161.151 567.256 160.348 565.012 160.479 562.587C160.751 557.488 165.093 553.567 170.173 553.839Z" fill="#C8C8C8"/>
<path d="M181.186 556.587C182.178 559.023 182.364 561.831 181.765 564.483C181.193 567.153 179.808 569.643 177.957 571.651C176.056 573.657 173.397 575.138 170.602 575.275C167.833 575.494 165.122 574.669 162.942 573.215C165.434 573.999 168.026 574.229 170.417 573.807C172.821 573.397 174.925 572.11 176.572 570.358C178.258 568.573 179.544 566.434 180.344 564.094C181.112 561.747 181.46 559.187 181.186 556.587Z" fill="#C8C8C8"/>
<path d="M121.45 471.828C116.858 478.855 106.699 480.344 98.7617 475.156C90.8244 469.967 88.1124 460.067 92.7057 453.04C97.2977 446.013 107.455 444.523 115.394 449.711C123.331 454.9 126.042 464.8 121.45 471.828Z" fill="#DCDCDC"/>
<path d="M96.1992 459.622C93.6979 463.45 93.5779 468.221 95.4526 472.442C90.1619 466.977 88.8126 458.982 92.7019 453.032C97.2926 446.008 107.457 444.517 115.391 449.704C121.115 453.445 124.126 459.633 123.623 465.43C122.554 462.009 120.211 458.826 116.79 456.592C109.598 451.889 100.369 453.244 96.1992 459.622Z" fill="#C8C8C8"/>
<path d="M127.05 460.22C129.342 463.692 130.251 468.229 129.296 472.612C128.876 474.825 127.779 476.881 126.464 478.696C125.144 480.543 123.402 481.959 121.492 483.264C119.472 484.347 117.306 485.171 115.079 485.441C112.863 485.663 110.643 485.699 108.531 485.248C104.296 484.496 100.347 482.783 97.0337 480.263C101.022 481.357 104.976 482.152 108.851 482.307C112.716 482.468 116.472 481.825 119.551 480.009C121.023 479.061 122.52 477.901 123.659 476.471C124.872 475.105 125.818 473.525 126.464 471.791C127.734 468.315 127.878 464.265 127.05 460.22Z" fill="#C8C8C8"/>
<path d="M515.664 453.155L523.009 454.514L524.649 462.255L526.292 454.514L533.636 453.151L526.323 451.364L524.649 444.051L522.976 451.364L515.664 453.155Z" fill="#C8C8C8"/>
<path d="M212.618 411.354L219.963 412.713L221.605 420.454L223.246 412.713L230.59 411.35L223.277 409.562L221.605 402.25L219.931 409.562L212.618 411.354Z" fill="#C8C8C8"/>
<path d="M440.641 328.585L447.986 329.943L449.627 337.685L451.269 329.943L458.613 328.581L451.299 326.794L449.627 319.481L447.954 326.794L440.641 328.585Z" fill="#C8C8C8"/>
<path d="M585.48 407.578L589.586 408.337L590.504 412.663L591.42 408.337L595.526 407.575L591.439 406.577L590.504 402.49L589.568 406.577L585.48 407.578Z" fill="#C8C8C8"/>
<path d="M273.955 572.245L278.06 573.003L278.977 577.331L279.895 573.003L284 572.243L279.912 571.245L278.977 567.157L278.041 571.245L273.955 572.245Z" fill="#C8C8C8"/>
<path d="M575.438 212.781L579.543 213.54L580.46 217.868L581.377 213.54L585.483 212.78L581.396 211.781L580.46 207.693L579.525 211.781L575.438 212.781Z" fill="#C8C8C8"/>
<path d="M91.187 305.863L95.2923 306.622L96.2097 310.95L97.127 306.622L101.232 305.862L97.1443 304.863L96.2097 300.775L95.2737 304.863L91.187 305.863Z" fill="#C8C8C8"/>
<path d="M113.212 526.121L117.317 526.88L118.235 531.206L119.153 526.88L123.257 526.118L119.169 525.12L118.235 521.033L117.3 525.12L113.212 526.121Z" fill="#C8C8C8"/>
<path d="M559.597 322.398L563.702 323.157L564.619 327.485L565.537 323.157L569.642 322.396L565.554 321.398L564.619 317.31L563.683 321.398L559.597 322.398Z" fill="#C8C8C8"/>
<path d="M386.441 462.257L390.547 463.015L391.464 467.342L392.381 463.015L396.487 462.254L392.399 461.255L391.464 457.169L390.528 461.255L386.441 462.257Z" fill="#C8C8C8"/>
<path d="M237.055 114.759L241.16 115.518L242.077 119.844L242.995 115.518L247.1 114.756L243.012 113.758L242.077 109.67L241.143 113.758L237.055 114.759Z" fill="#C8C8C8"/>
<path d="M397.765 446.535L401.87 447.294L402.787 451.621L403.705 447.294L407.81 446.533L403.722 445.534L402.787 441.447L401.851 445.534L397.765 446.535Z" fill="#C8C8C8"/>
<path d="M264.244 581.604C265.774 581.604 265.777 583.984 264.244 583.984C262.713 583.984 262.71 581.604 264.244 581.604Z" fill="#C8C8C8"/>
<path d="M476.517 358.419C478.048 358.419 478.05 360.798 476.517 360.798C474.986 360.798 474.984 358.419 476.517 358.419Z" fill="#C8C8C8"/>
<path d="M374.993 458.69C376.525 458.69 376.526 461.07 374.993 461.07C373.462 461.07 373.459 458.69 374.993 458.69Z" fill="#C8C8C8"/>
<path d="M198.489 572.677C200.021 572.677 200.024 575.056 198.489 575.056C196.959 575.056 196.956 572.677 198.489 572.677Z" fill="#C8C8C8"/>
<path d="M595.744 588.447C597.274 588.447 597.277 590.825 595.744 590.825C594.213 590.825 594.21 588.447 595.744 588.447Z" fill="#C8C8C8"/>
<path d="M533.142 374.01C534.673 374.01 534.675 376.39 533.142 376.39C531.611 376.39 531.609 374.01 533.142 374.01Z" fill="#C8C8C8"/>
<path d="M294.052 560.202C295.135 560.202 295.138 561.887 294.052 561.887C292.97 561.887 292.967 560.202 294.052 560.202Z" fill="#C8C8C8"/>
<path d="M125.947 123.1C127.03 123.1 127.033 124.784 125.947 124.784C124.865 124.784 124.862 123.1 125.947 123.1Z" fill="#C8C8C8"/>
<path d="M450.615 393.668C451.697 393.668 451.7 395.352 450.615 395.352C449.532 395.352 449.531 393.668 450.615 393.668Z" fill="#C8C8C8"/>
<path d="M409.951 466.501C411.033 466.501 411.035 468.185 409.951 468.185C408.867 468.185 408.865 466.501 409.951 466.501Z" fill="#C8C8C8"/>
<path d="M343.353 452.311C344.436 452.311 344.437 453.995 343.353 453.995C342.27 453.995 342.268 452.311 343.353 452.311Z" fill="#C8C8C8"/>
<path d="M422.081 378.37C425.017 378.37 425.022 382.932 422.081 382.932C419.145 382.932 419.141 378.37 422.081 378.37Z" fill="#C8C8C8"/>
<path d="M305.319 147.958L312.665 149.316L314.306 157.058L315.947 149.316L323.291 147.954L315.978 146.167L314.306 138.854L312.633 146.167L305.319 147.958Z" fill="#C8C8C8"/>
<path d="M333.308 80.9298L337.413 81.6884L338.33 86.0164L339.248 81.6884L343.353 80.9271L339.265 79.9298L338.33 75.8418L337.394 79.9298L333.308 80.9298Z" fill="#C8C8C8"/>
<path d="M84.4542 192.008C85.9849 192.008 85.9875 194.388 84.4542 194.388C82.9235 194.388 82.9195 192.008 84.4542 192.008Z" fill="#C8C8C8"/>
<path d="M103.149 507.602C104.681 507.602 104.684 509.982 103.149 509.982C101.618 509.982 101.616 507.602 103.149 507.602Z" fill="#C8C8C8"/>
<path d="M70.9229 566.63C72.4549 566.63 72.4563 569.01 70.9229 569.01C69.3923 569.01 69.3896 566.63 70.9229 566.63Z" fill="#C8C8C8"/>
<path d="M131.86 291.764C133.391 291.764 133.394 294.144 131.86 294.144C130.33 294.144 130.327 291.764 131.86 291.764Z" fill="#C8C8C8"/>
<path d="M70.9229 86.3614C72.4536 86.3614 72.4563 88.7414 70.9229 88.7414C69.3923 88.7414 69.3896 86.3614 70.9229 86.3614Z" fill="#C8C8C8"/>
<path d="M178.948 450.871C180.03 450.871 180.033 452.555 178.948 452.555C177.865 452.555 177.862 450.871 178.948 450.871Z" fill="#C8C8C8"/>
<path d="M356.519 558.776C357.601 558.776 357.604 560.46 356.519 560.46C355.436 560.46 355.435 558.776 356.519 558.776Z" fill="#C8C8C8"/>
<path d="M481.54 173.645C482.622 173.645 482.624 175.329 481.54 175.329C480.457 175.329 480.456 173.645 481.54 173.645Z" fill="#C8C8C8"/>
<path d="M329.47 122.096C330.554 122.096 330.555 123.78 329.47 123.78C328.387 123.78 328.386 122.096 329.47 122.096Z" fill="#C8C8C8"/>
<path d="M278.98 420.96C281.916 420.96 281.922 425.524 278.98 425.524C276.044 425.524 276.039 420.96 278.98 420.96Z" fill="#C8C8C8"/>
<path d="M579.454 248.604C582.39 248.604 582.395 253.167 579.454 253.167C576.518 253.167 576.512 248.604 579.454 248.604Z" fill="#C8C8C8"/>
<path d="M112.629 448.59C115.565 448.59 115.57 453.154 112.629 453.154C109.693 453.154 109.687 448.59 112.629 448.59Z" fill="#C8C8C8"/>
<path d="M304.26 360.799L308.366 361.558L309.283 365.885L310.2 361.558L314.306 360.797L310.218 359.798L309.283 355.711L308.348 359.798L304.26 360.799Z" fill="#C8C8C8"/>
<path d="M391.464 567.822L395.569 568.58L396.488 572.907L397.404 568.58L401.509 567.819L397.423 566.82L396.488 562.734L395.552 566.82L391.464 567.822Z" fill="#C8C8C8"/>
<path d="M409.649 514.508C411.18 514.508 411.182 516.888 409.649 516.888C408.118 516.888 408.116 514.508 409.649 514.508Z" fill="#C8C8C8"/>
<path d="M456.026 482.858C457.557 482.858 457.56 485.238 456.026 485.238C454.496 485.238 454.493 482.858 456.026 482.858Z" fill="#C8C8C8"/>
<path d="M309.283 537.508L313.388 538.267L314.305 542.593L315.223 538.267L319.328 537.505L315.24 536.507L314.305 532.42L313.369 536.507L309.283 537.508Z" fill="#C8C8C8"/>
<path d="M478.269 154.246C479.799 154.246 479.802 156.626 478.269 156.626C476.738 156.626 476.735 154.246 478.269 154.246Z" fill="#C8C8C8"/>
<path d="M506.895 486.611C507.978 486.611 507.979 488.295 506.895 488.295C505.812 488.295 505.81 486.611 506.895 486.611Z" fill="#C8C8C8"/>
<path d="M148.691 343.491L152.797 344.25L153.714 348.576L154.631 344.25L158.737 343.49L154.649 342.49L153.714 338.403L152.778 342.49L148.691 343.491Z" fill="#C8C8C8"/>
<path d="M101.233 408.973C102.764 408.973 102.766 411.351 101.233 411.351C99.7023 411.351 99.6997 408.973 101.233 408.973Z" fill="#C8C8C8"/>
<path d="M265.394 321.331C266.924 321.331 266.927 323.711 265.394 323.711C263.862 323.711 263.859 321.331 265.394 321.331Z" fill="#C8C8C8"/>
<path d="M125.947 201.112C127.03 201.112 127.033 202.796 125.947 202.796C124.865 202.796 124.862 201.112 125.947 201.112Z" fill="#C8C8C8"/>
<path d="M115.166 193.371C118.102 193.371 118.108 197.934 115.166 197.934C112.23 197.934 112.225 193.371 115.166 193.371Z" fill="#C8C8C8"/>
<path d="M581.658 92.6525C584.594 92.6525 584.599 97.2165 581.658 97.2165C578.722 97.2165 578.717 92.6525 581.658 92.6525Z" fill="#C8C8C8"/>
<path d="M456.504 541.97C468.054 563.009 494.472 570.701 515.51 559.151C536.548 547.602 544.24 521.183 532.691 500.146C521.142 479.107 494.723 471.415 473.686 482.965C452.646 494.514 444.955 520.933 456.504 541.97Z" fill="#375A64"/>
<path d="M454.16 536.995C456.12 534.951 460.157 531.171 466.996 527.478C475.28 523.002 498.299 516.983 508.665 510.652C523.248 501.758 524.476 493.347 524.048 489.086C519.885 485.259 515.072 482.332 509.891 480.387C509.163 484.856 506.191 498.846 481.663 509.787C469.004 515.422 456.28 513.362 451.964 512.668C450.384 520.634 451.024 529.068 454.16 536.995Z" fill="#2B454E"/>
<path d="M473.746 559.193C486.318 566.054 502.017 566.558 515.506 559.154C520.238 556.555 524.291 553.211 527.605 549.341C525.835 548.498 522.259 547.309 519.585 546.886C507.714 544.989 495.339 551.595 490.869 554.601C483.714 559.417 477.229 559.565 473.746 559.193Z" fill="#2B454E"/>
<path d="M457.259 543.289C457.457 543.633 457.666 543.964 457.878 544.3C458.063 544.606 458.263 544.906 458.462 545.205C458.914 545.88 459.375 546.542 459.859 547.184C460.293 547.761 460.741 548.334 461.201 548.881C461.369 549.092 461.547 549.286 461.723 549.492C461.919 549.721 462.117 549.95 462.317 550.169C462.521 550.396 462.725 550.621 462.931 550.836C463.171 551.094 463.422 551.358 463.675 551.609C463.922 551.865 464.175 552.116 464.433 552.357C464.657 552.572 464.878 552.78 465.098 552.986C465.59 553.445 466.087 553.882 466.599 554.313L466.61 554.317C469.369 554.925 472.954 554.27 478.073 551.762C485.687 548.044 493.574 539.93 508.339 533.246C522.282 526.925 534.442 528.814 537.311 529.025L537.318 529.021C538.919 520.448 537.959 511.353 534.095 502.937C531.319 503.058 522.51 505.041 504.803 522.244C498.07 528.782 492.051 533.5 486.735 536.862C471.199 546.67 461.619 544.902 457.541 543.25L457.534 543.254C457.441 543.261 457.35 543.274 457.259 543.289Z" fill="#2B454E"/>
<path d="M496.658 495.937C497.586 497.631 500.335 497.907 502.795 496.555C505.255 495.204 506.498 492.739 505.57 491.047C504.639 489.355 501.893 489.077 499.433 490.429C496.971 491.78 495.73 494.245 496.658 495.937Z" fill="#1A2E35"/>
<path d="M509.187 497.902C509.711 498.856 511.331 498.972 512.809 498.16C514.285 497.35 515.057 495.921 514.534 494.968C514.01 494.013 512.389 493.897 510.913 494.708C509.437 495.518 508.663 496.948 509.187 497.902Z" fill="#1A2E35"/>
<path d="M480.469 554.109C481.262 555.555 483.652 555.768 485.804 554.585C487.957 553.405 489.058 551.275 488.266 549.829C487.472 548.383 485.084 548.169 482.93 549.352C480.777 550.533 479.674 552.664 480.469 554.109Z" fill="#1A2E35"/>
<path d="M488.573 554.879C488.994 555.647 490.16 555.819 491.176 555.262C492.19 554.704 492.67 553.63 492.249 552.86C491.826 552.091 490.661 551.919 489.648 552.476C488.632 553.034 488.152 554.11 488.573 554.879Z" fill="#1A2E35"/>
<path d="M489.495 550.749C489.748 551.21 490.476 551.297 491.125 550.942C491.77 550.587 492.087 549.926 491.834 549.465C491.58 549.002 490.852 548.917 490.206 549.271C489.56 549.625 489.243 550.286 489.495 550.749Z" fill="#1A2E35"/>
<path d="M516.494 548.176C517.202 549.468 519.174 549.748 520.896 548.802C522.619 547.857 523.44 546.042 522.731 544.752C522.022 543.46 520.05 543.178 518.328 544.125C516.606 545.07 515.784 546.884 516.494 548.176Z" fill="#1A2E35"/>
<path d="M514.905 542.379C515.312 543.118 516.313 543.347 517.144 542.891C517.974 542.435 518.318 541.466 517.913 540.728C517.508 539.99 516.505 539.762 515.676 540.218C514.845 540.674 514.5 541.64 514.905 542.379Z" fill="#1A2E35"/>
<path d="M459.86 547.184C471.516 544.836 485.009 541.257 499.189 536.6C513.774 531.818 527.09 526.542 538.054 521.394C557.526 512.25 569.536 503.489 567.913 498.544C566.325 493.676 551.676 493.536 531.109 497.497C531.661 498.358 532.189 499.24 532.688 500.149C532.876 500.489 533.056 500.834 533.237 501.18C544.186 499.778 551.44 500.417 552.426 503.429C553.429 506.486 547.786 511.404 537.858 516.864C528.141 522.208 514.313 528.074 498.624 533.222C482.905 538.378 468.268 541.848 457.26 543.289C446.069 544.768 438.632 544.152 437.629 541.094C436.65 538.097 442.092 533.297 451.682 527.952C451.442 526.493 451.281 525.018 451.204 523.55C431.84 532.669 419.653 541.733 421.268 546.665C422.913 551.688 438.222 551.545 459.86 547.184Z" fill="#1A2E35"/>
<path d="M462.309 550.156C474.089 547.679 487.158 544.199 500.749 539.812L500.759 539.815C514.279 535.459 526.841 530.668 537.794 525.827C564.835 513.879 582.107 501.598 579.847 494.584C577.609 487.642 556.817 487.719 528.33 493.648C528.75 494.172 529.161 494.71 529.559 495.256C553.481 490.671 570.626 490.914 572.562 496.932C574.521 503.008 560.463 513.392 537.973 523.756C527.086 528.766 514.235 533.776 500.258 538.287C486.206 542.822 472.763 546.283 460.955 548.58C436.755 553.275 419.369 553.047 417.421 546.991C415.494 541.004 429.159 530.81 451.138 520.583C451.147 519.904 451.167 519.227 451.21 518.546C424.731 530.352 407.901 542.418 410.133 549.35C412.391 556.344 433.495 556.22 462.309 550.156Z" fill="#2B454E"/>
<path d="M329.739 302.943C323.942 315.865 308.767 321.643 295.844 315.845C282.922 310.049 277.144 294.875 282.942 281.952C288.738 269.029 303.912 263.252 316.835 269.048C329.758 274.845 335.535 290.02 329.739 302.943Z" fill="#ECECEC"/>
<path d="M330.882 299.904C329.633 298.795 327.078 296.763 322.881 294.915C317.795 292.675 303.969 290.226 297.571 286.994C288.573 282.454 287.451 277.563 287.501 275.036C289.769 272.588 292.461 270.638 295.417 269.248C296.055 271.843 298.467 279.931 313.414 285.204C321.127 287.918 328.514 286.104 331.021 285.49C332.327 290.1 332.35 295.094 330.882 299.904Z" fill="#DCDCDC"/>
<path d="M320.412 313.891C313.343 318.523 304.132 319.563 295.847 315.847C292.94 314.544 290.398 312.768 288.266 310.648C289.266 310.069 291.312 309.2 292.867 308.824C299.759 307.145 307.351 310.445 310.124 312.001C314.56 314.495 318.382 314.275 320.412 313.891Z" fill="#DCDCDC"/>
<path d="M329.357 303.754C329.257 303.966 329.15 304.17 329.041 304.378C328.946 304.567 328.844 304.753 328.74 304.938C328.506 305.357 328.266 305.769 328.012 306.167C327.785 306.529 327.549 306.887 327.304 307.23C327.214 307.362 327.118 307.485 327.025 307.614C326.921 307.758 326.816 307.902 326.709 308.041C326.6 308.183 326.49 308.326 326.378 308.462C326.249 308.626 326.114 308.793 325.977 308.951C325.844 309.114 325.708 309.274 325.568 309.429C325.445 309.565 325.326 309.698 325.206 309.83C324.938 310.123 324.666 310.405 324.385 310.681L324.38 310.683C322.785 311.171 320.645 310.958 317.516 309.726C312.86 307.899 307.837 303.501 298.834 300.269C290.333 297.211 283.27 298.898 281.593 299.158L281.588 299.157C280.24 294.19 280.373 288.794 282.248 283.661C283.886 283.601 289.162 284.35 300.393 293.629C304.662 297.155 308.428 299.645 311.713 301.37C321.318 306.403 326.869 304.91 329.19 303.745L329.194 303.746C329.249 303.746 329.302 303.75 329.357 303.754Z" fill="#DCDCDC"/>
<path d="M304.985 313.405C305.439 312.361 307.039 312.052 308.558 312.713C310.077 313.376 310.938 314.758 310.483 315.802C310.029 316.846 308.429 317.156 306.91 316.494C305.391 315.832 304.529 314.449 304.985 313.405Z" fill="#C8C8C8"/>
<path d="M312.243 311.58C312.499 310.992 313.445 310.837 314.356 311.234C315.268 311.632 315.799 312.43 315.543 313.018C315.285 313.608 314.339 313.762 313.428 313.365C312.517 312.968 311.987 312.168 312.243 311.58Z" fill="#C8C8C8"/>
<path d="M292.354 280.085C292.743 279.193 294.135 278.94 295.464 279.519C296.792 280.099 297.554 281.291 297.164 282.184C296.776 283.076 295.383 283.329 294.055 282.751C292.726 282.171 291.964 280.977 292.354 280.085Z" fill="#C8C8C8"/>
<path d="M297.075 279.199C297.282 278.725 297.958 278.562 298.584 278.835C299.211 279.109 299.55 279.714 299.344 280.189C299.136 280.663 298.462 280.826 297.835 280.554C297.208 280.281 296.868 279.674 297.075 279.199Z" fill="#C8C8C8"/>
<path d="M297.838 281.578C297.962 281.292 298.386 281.203 298.785 281.376C299.183 281.55 299.406 281.922 299.282 282.207C299.158 282.491 298.734 282.582 298.335 282.408C297.937 282.234 297.714 281.862 297.838 281.578Z" fill="#C8C8C8"/>
<path d="M313.843 281.643C314.191 280.846 315.333 280.575 316.397 281.038C317.46 281.502 318.039 282.525 317.692 283.321C317.344 284.118 316.201 284.389 315.139 283.926C314.075 283.462 313.495 282.441 313.843 281.643Z" fill="#C8C8C8"/>
<path d="M313.22 285.134C313.419 284.68 313.996 284.492 314.508 284.714C315.02 284.938 315.275 285.489 315.076 285.944C314.878 286.4 314.302 286.588 313.788 286.364C313.276 286.14 313.022 285.59 313.22 285.134Z" fill="#C8C8C8"/>
<path d="M149.731 124.666C143.935 137.589 128.759 143.366 115.837 137.57C102.913 131.773 97.1374 116.598 102.933 103.675C108.729 90.7527 123.904 84.9754 136.827 90.7727C149.751 96.5687 155.527 111.743 149.731 124.666Z" fill="#8500FF"/>
<g opacity="0.100006">
<g opacity="0.100006">
<path opacity="0.100006" d="M149.731 124.666C143.935 137.589 128.759 143.366 115.837 137.57C102.913 131.773 97.1374 116.598 102.933 103.675C108.729 90.7527 123.904 84.9754 136.827 90.7727C149.751 96.5687 155.527 111.743 149.731 124.666Z" fill="black"/>
</g>
</g>
<g opacity="0.100006">
<g opacity="0.100006">
<path opacity="0.100006" d="M150.874 121.628C149.623 120.518 147.069 118.487 142.871 116.639C137.787 114.398 123.961 111.95 117.563 108.716C108.563 104.176 107.442 99.287 107.493 96.7603C109.759 94.3123 112.453 92.3617 115.407 90.9723C116.047 93.5657 118.459 101.655 133.406 106.928C141.119 109.642 148.506 107.827 151.013 107.214C152.319 111.824 152.342 116.816 150.874 121.628Z" fill="black"/>
</g>
<g opacity="0.100006">
<path opacity="0.100006" d="M140.404 135.615C133.335 140.245 124.124 141.287 115.838 137.571C112.932 136.267 110.388 134.492 108.258 132.372C109.258 131.793 111.304 130.923 112.858 130.547C119.751 128.869 127.343 132.168 130.115 133.724C134.552 136.219 138.374 135.999 140.404 135.615Z" fill="black"/>
</g>
<g opacity="0.100006">
<path opacity="0.100006" d="M149.349 125.477C149.249 125.689 149.142 125.893 149.034 126.101C148.938 126.291 148.835 126.476 148.733 126.661C148.498 127.081 148.259 127.492 148.005 127.892C147.777 128.253 147.541 128.611 147.295 128.953C147.207 129.085 147.111 129.208 147.018 129.339C146.913 129.481 146.807 129.627 146.701 129.764C146.591 129.907 146.482 130.049 146.371 130.185C146.241 130.349 146.106 130.516 145.969 130.676C145.837 130.839 145.699 130.999 145.559 131.152C145.438 131.288 145.318 131.421 145.198 131.553C144.93 131.847 144.658 132.128 144.378 132.405L144.371 132.407C142.778 132.896 140.637 132.681 137.509 131.449C132.851 129.623 127.829 125.224 118.826 121.992C110.326 118.935 103.263 120.621 101.585 120.881L101.581 120.88C100.233 115.913 100.365 110.517 102.239 105.384C103.878 105.324 109.154 106.073 120.385 115.352C124.655 118.879 128.419 121.368 131.706 123.095C141.31 128.128 146.861 126.633 149.182 125.468L149.186 125.471C149.241 125.469 149.295 125.473 149.349 125.477Z" fill="black"/>
</g>
</g>
<g opacity="0.100006">
<g opacity="0.100006">
<path opacity="0.100006" d="M124.976 135.129C125.431 134.085 127.032 133.776 128.549 134.437C130.068 135.1 130.929 136.482 130.475 137.526C130.02 138.57 128.42 138.88 126.901 138.217C125.383 137.556 124.521 136.173 124.976 135.129Z" fill="black"/>
</g>
<g opacity="0.100006">
<path opacity="0.100006" d="M132.235 133.303C132.491 132.715 133.438 132.559 134.348 132.957C135.26 133.354 135.791 134.154 135.534 134.742C135.278 135.33 134.331 135.485 133.42 135.087C132.508 134.691 131.979 133.891 132.235 133.303Z" fill="black"/>
</g>
<g opacity="0.100006">
<path opacity="0.100006" d="M112.345 101.809C112.735 100.917 114.127 100.664 115.456 101.243C116.784 101.823 117.545 103.015 117.157 103.907C116.768 104.799 115.376 105.053 114.047 104.473C112.719 103.893 111.956 102.701 112.345 101.809Z" fill="black"/>
</g>
<g opacity="0.100006">
<path opacity="0.100006" d="M117.067 100.923C117.274 100.449 117.95 100.285 118.575 100.559C119.202 100.831 119.542 101.438 119.335 101.913C119.129 102.387 118.454 102.55 117.827 102.277C117.201 102.005 116.861 101.398 117.067 100.923Z" fill="black"/>
</g>
<g opacity="0.100006">
<path opacity="0.100006" d="M117.83 103.301C117.954 103.017 118.378 102.926 118.777 103.1C119.176 103.273 119.398 103.645 119.274 103.93C119.149 104.216 118.726 104.305 118.328 104.132C117.929 103.957 117.706 103.585 117.83 103.301Z" fill="black"/>
</g>
<g opacity="0.100006">
<path opacity="0.100006" d="M133.835 103.367C134.183 102.569 135.326 102.299 136.388 102.763C137.451 103.227 138.031 104.248 137.684 105.045C137.336 105.841 136.194 106.113 135.13 105.649C134.067 105.185 133.487 104.164 133.835 103.367Z" fill="black"/>
</g>
<g opacity="0.100006">
<path opacity="0.100006" d="M133.213 106.858C133.411 106.402 133.987 106.214 134.499 106.438C135.013 106.661 135.267 107.212 135.069 107.668C134.87 108.122 134.294 108.31 133.781 108.088C133.269 107.864 133.014 107.313 133.213 106.858Z" fill="black"/>
</g>
</g>
<path d="M311.524 163.781C310.571 162.659 255.719 137.209 206.047 175.12C160.376 209.977 144.52 275.481 150.584 277.048C158.007 278.967 178.356 247.705 217.412 230.532C231.262 224.443 253.311 230.528 253.311 230.528L311.524 163.781Z" fill="#8500FF"/>
<g opacity="0.100006">
<g opacity="0.100006">
<path opacity="0.100006" d="M253.317 230.525C253.317 230.525 243.755 227.883 233.271 227.829C241.877 209.803 257.963 176.169 268.401 154.391C292.98 154.616 310.98 163.139 311.521 163.777L253.317 230.525Z" fill="black"/>
</g>
</g>
<path d="M401.884 270.358C402.837 271.482 418.969 329.757 373.444 372.56C331.585 411.913 264.371 416.841 263.816 410.603C263.137 402.967 297.307 388.004 320.637 352.283C328.911 339.618 326.515 316.87 326.515 316.87L401.884 270.358Z" fill="#8500FF"/>
<g opacity="0.100006">
<g opacity="0.100006">
<path opacity="0.100006" d="M404.05 314.734C380.667 321.544 344.799 331.98 325.84 337.487C327.582 326.99 326.522 316.868 326.522 316.868L401.887 270.356C402.428 270.994 407.94 290.315 404.05 314.734Z" fill="black"/>
</g>
</g>
<path d="M274.175 341.602L220.603 278.415C220.603 278.415 248.539 203.498 314.951 153.171C348.112 128.072 387.013 109.28 421.84 96.8483C469.901 79.6203 510.123 74.627 516.349 81.9723C522.605 89.351 511.073 128.18 486.243 172.808C468.253 205.1 443.352 240.403 413.165 269.014C352.652 326.296 274.175 341.602 274.175 341.602Z" fill="#C8C8C8"/>
<path d="M404.318 241.958C384.194 259.02 354.048 256.538 336.987 236.414C319.924 216.29 322.407 186.143 342.531 169.082C362.655 152.019 392.8 154.502 409.863 174.626C426.924 194.75 424.443 224.895 404.318 241.958Z" fill="#A8A8A8"/>
<path d="M406.931 237.517C386.805 254.58 356.66 252.097 339.599 231.973C322.536 211.849 325.019 181.702 345.143 164.641C365.267 147.578 395.412 150.061 412.475 170.185C429.536 190.309 427.055 220.454 406.931 237.517Z" fill="#8500FF"/>
<path d="M397.482 226.336C383.533 238.179 362.625 236.473 350.782 222.524C338.938 208.576 340.643 187.667 354.593 175.823C368.541 163.979 389.451 165.687 401.294 179.635C413.137 193.584 411.431 214.492 397.482 226.336Z" fill="white"/>
<path d="M397.488 226.337C394.266 229.075 390.66 231.099 386.887 232.397L360.272 230.225C356.76 228.332 353.531 225.751 350.794 222.527C348.803 220.181 347.207 217.643 345.984 214.981L403.459 219.672C401.82 222.1 399.834 224.347 397.488 226.337Z" fill="#ECECEC"/>
<path d="M404.167 183.578L351.119 179.249C352.172 178.044 353.332 176.892 354.585 175.826C368.545 163.974 389.447 165.681 401.3 179.638C402.364 180.893 403.323 182.218 404.167 183.578Z" fill="#ECECEC"/>
<path d="M407.035 212.796L343.57 207.616C343.362 206.644 343.214 205.678 343.114 204.67L407.963 209.963C407.703 210.911 407.384 211.855 407.035 212.796Z" fill="#ECECEC"/>
<path d="M486.242 172.808L421.839 96.848C469.901 79.62 510.122 74.6267 516.349 81.9734C522.605 89.3507 511.073 128.18 486.242 172.808Z" fill="#8500FF"/>
<path d="M440.773 103.271C439.597 104.267 437.839 104.121 436.843 102.947C435.847 101.772 435.991 100.012 437.165 99.0161C438.341 98.0201 440.1 98.1655 441.096 99.3401C442.092 100.515 441.947 102.275 440.773 103.271Z" fill="white"/>
<path d="M452.229 116.783C451.054 117.781 449.296 117.635 448.3 116.461C447.304 115.285 447.448 113.526 448.622 112.53C449.797 111.534 451.557 111.678 452.553 112.854C453.549 114.029 453.405 115.787 452.229 116.783Z" fill="white"/>
<path d="M463.686 130.296C462.511 131.292 460.751 131.148 459.755 129.972C458.759 128.799 458.905 127.039 460.079 126.043C461.254 125.046 463.014 125.192 464.01 126.366C465.006 127.542 464.861 129.3 463.686 130.296Z" fill="white"/>
<path d="M475.143 143.809C473.969 144.805 472.209 144.661 471.213 143.485C470.217 142.311 470.362 140.552 471.537 139.556C472.711 138.56 474.471 138.704 475.467 139.879C476.462 141.055 476.318 142.813 475.143 143.809Z" fill="white"/>
<path d="M486.6 157.322C485.426 158.318 483.666 158.173 482.67 156.998C481.674 155.824 481.819 154.065 482.994 153.068C484.168 152.072 485.927 152.217 486.923 153.392C487.919 154.566 487.775 156.326 486.6 157.322Z" fill="white"/>
<path d="M236.059 276.937C234.885 277.933 233.125 277.787 232.129 276.613C231.133 275.438 231.278 273.679 232.453 272.683C233.627 271.686 235.387 271.831 236.382 273.006C237.378 274.182 237.234 275.941 236.059 276.937Z" fill="#A8A8A8"/>
<path d="M247.515 290.45C246.341 291.446 244.581 291.301 243.585 290.126C242.59 288.951 242.734 287.193 243.909 286.195C245.083 285.199 246.843 285.345 247.839 286.519C248.835 287.694 248.69 289.454 247.515 290.45Z" fill="#A8A8A8"/>
<path d="M258.973 303.962C257.798 304.96 256.038 304.814 255.042 303.64C254.046 302.464 254.191 300.705 255.366 299.709C256.541 298.713 258.301 298.857 259.297 300.032C260.293 301.208 260.147 302.966 258.973 303.962Z" fill="#A8A8A8"/>
<path d="M270.429 317.476C269.254 318.472 267.496 318.327 266.5 317.152C265.502 315.977 265.648 314.217 266.822 313.221C267.997 312.225 269.757 312.371 270.753 313.545C271.749 314.72 271.604 316.479 270.429 317.476Z" fill="#A8A8A8"/>
<path d="M281.886 330.988C280.711 331.984 278.951 331.84 277.955 330.664C276.959 329.49 277.105 327.731 278.279 326.735C279.454 325.738 281.214 325.883 282.21 327.058C283.206 328.234 283.061 329.992 281.886 330.988Z" fill="#A8A8A8"/>
<g opacity="0.199997">
<g opacity="0.199997">
<path opacity="0.199997" d="M513.333 80.0931C476.24 82.7331 412.027 105.213 344.413 158.226C294.467 197.386 258.027 265.92 241.04 302.52L220.6 278.413C220.6 278.413 248.533 203.493 314.947 153.173C348.107 128.066 387.013 109.28 421.84 96.8531C464.92 81.3998 501.68 75.7998 513.333 80.0931Z" fill="white"/>
</g>
</g>
<path d="M250.244 351.892L206.682 300.504L223.624 281.989L271.284 338.203L250.244 351.892Z" fill="#8500FF"/>
<g opacity="0.100006">
<g opacity="0.100006">
<path opacity="0.100006" d="M271.28 338.203L261.028 344.863L217.144 289.071L223.622 281.999L271.28 338.203Z" fill="black"/>
</g>
</g>
<path d="M485.557 179.675L465.648 178.348L456.296 197.308L457.151 176.184L439.035 167.816L459.145 168.012L468.297 150.183L467.807 170.217L485.557 179.675Z" fill="#FCFCFC"/>
<path d="M480.663 106.152L469.535 105.41L464.307 116.008L464.785 104.201L454.66 99.5238L465.9 99.6331L471.015 89.6678L470.741 100.866L480.663 106.152Z" fill="#FCFCFC"/>
<path d="M390.643 332.176L379.515 331.434L374.287 342.032L374.766 330.224L364.642 325.546L375.882 325.656L380.997 315.692L380.722 326.89L390.643 332.176Z" fill="#FCFCFC"/>
<path d="M192.611 233.839L181.483 233.098L176.255 243.695L176.733 231.889L166.608 227.211L177.848 227.321L182.964 217.355L182.689 228.554L192.611 233.839Z" fill="#FCFCFC"/>
<g opacity="0.600006">
<g opacity="0.600006">
<path opacity="0.600006" d="M240.664 340.422C220.471 354.039 202.641 371.418 189.623 392.167C176.6 412.838 168.517 436.922 167.772 461.834C167.451 474.263 168.955 486.827 172.323 499.014C175.68 511.202 180.903 522.999 187.737 533.943C194.565 544.895 202.989 554.987 212.552 564.007C222.115 573.038 232.799 581.005 244.168 587.977C232.076 582.371 220.403 575.642 209.567 567.566C198.735 559.501 188.748 550.074 180.163 539.323C171.573 528.583 164.405 516.518 159.136 503.525C153.857 490.539 150.487 476.645 149.2 462.466C146.699 434.059 152.696 404.887 165.124 378.875C177.519 352.761 196.121 329.766 218.063 310.921L240.664 340.422Z" fill="#8500FF"/>
</g>
</g>
<path d="M206.126 371.395L198.181 372.865L196.405 381.24L194.629 372.865L186.682 371.391L194.595 369.457L196.405 361.545L198.214 369.457L206.126 371.395Z" fill="white"/>
<path d="M176.883 528.246L172.442 529.067L171.45 533.749L170.458 529.067L166.017 528.243L170.438 527.163L171.45 522.741L172.462 527.163L176.883 528.246Z" fill="white"/>
<path d="M174.499 487.612L170.058 488.432L169.066 493.115L168.073 488.432L163.633 487.609L168.054 486.529L169.066 482.107L170.078 486.529L174.499 487.612Z" fill="white"/>
<path d="M200.253 345.286L195.812 346.108L194.82 350.789L193.828 346.108L189.386 345.284L193.809 344.204L194.82 339.781L195.832 344.204L200.253 345.286Z" fill="white"/>
<path d="M187.39 538.371C185.732 538.371 185.73 540.946 187.39 540.946C189.046 540.946 189.048 538.371 187.39 538.371Z" fill="white"/>
<path d="M224.136 339.01C222.479 339.01 222.476 341.585 224.136 341.585C225.793 341.585 225.796 339.01 224.136 339.01Z" fill="white"/>
<path d="M154.822 453.82C153.165 453.82 153.162 456.396 154.822 456.396C156.478 456.396 156.482 453.82 154.822 453.82Z" fill="white"/>
<path d="M185.098 531.673C183.926 531.673 183.924 533.493 185.098 533.493C186.27 533.493 186.271 531.673 185.098 531.673Z" fill="white"/>
<path d="M154.354 408.837C153.182 408.837 153.18 410.659 154.354 410.659C155.526 410.659 155.527 408.837 154.354 408.837Z" fill="white"/>
<path d="M163.632 501.99C160.456 501.99 160.449 506.927 163.632 506.927C166.808 506.927 166.813 501.99 163.632 501.99Z" fill="white"/>
<path d="M166.016 400.462C162.84 400.462 162.835 405.398 166.016 405.398C169.192 405.398 169.198 400.462 166.016 400.462Z" fill="white"/>
</svg>
