<svg width="685" height="534" viewBox="0 0 685 534" fill="none" xmlns="http://www.w3.org/2000/svg">
<path d="M342.204 533.017C531.198 533.017 684.409 524.072 684.409 513.038C684.409 502.004 531.198 493.059 342.204 493.059C153.21 493.059 0 502.004 0 513.038C0 524.072 153.21 533.017 342.204 533.017Z" fill="#F5F5F5"/>
<path d="M334.191 30.4503C336.592 60.4543 371.255 99.4242 382.339 111.214C382.775 111.681 383.302 112.054 383.888 112.308C384.474 112.563 385.106 112.694 385.745 112.694C386.384 112.694 387.016 112.563 387.602 112.308C388.188 112.054 388.716 111.681 389.152 111.214C400.271 99.4242 434.899 60.4366 437.299 30.4503C437.381 29.5296 437.193 28.605 436.757 27.7898C436.321 26.9747 435.657 26.3045 434.846 25.8615L387.969 0.569843C387.287 0.195984 386.523 0 385.745 0C384.968 0 384.203 0.195984 383.521 0.569843L336.645 25.8615C335.836 26.3079 335.175 26.9788 334.739 27.7931C334.304 28.6074 334.114 29.5302 334.191 30.4503V30.4503Z" fill="#8300FF"/>
<path opacity="0.3" d="M382.268 99.8478C368.149 83.9633 347.675 57.2597 342.787 36.0099C342.564 35.0222 342.664 33.9894 343.07 33.0623C343.477 32.1351 344.169 31.3622 345.046 30.8562L383.415 8.79446C384.128 8.38738 384.934 8.17327 385.754 8.17327C386.574 8.17327 387.38 8.38738 388.093 8.79446L426.462 30.7856C427.363 31.302 428.068 32.1001 428.47 33.0569C428.872 34.0137 428.948 35.0762 428.686 36.0804C423.815 57.3656 403.412 83.9633 389.222 99.9183C388.782 100.406 388.242 100.795 387.64 101.059C387.038 101.323 386.387 101.456 385.729 101.45C385.072 101.443 384.423 101.297 383.827 101.021C383.23 100.744 382.699 100.345 382.268 99.8478V99.8478Z" fill="#8300FF"/>
<path opacity="0.3" d="M382.268 99.8478C368.149 83.9633 347.675 57.2597 342.787 36.0099C342.564 35.0222 342.664 33.9894 343.07 33.0623C343.477 32.1351 344.169 31.3622 345.046 30.8562L383.415 8.79446C384.128 8.38738 384.934 8.17327 385.754 8.17327C386.574 8.17327 387.38 8.38738 388.093 8.79446L426.462 30.7856C427.363 31.302 428.068 32.1001 428.47 33.0569C428.872 34.0137 428.948 35.0762 428.686 36.0804C423.815 57.3656 403.412 83.9633 389.222 99.9183C388.782 100.406 388.242 100.795 387.64 101.059C387.038 101.323 386.387 101.456 385.729 101.45C385.072 101.443 384.423 101.297 383.827 101.021C383.23 100.744 382.699 100.345 382.268 99.8478V99.8478Z" fill="white"/>
<path d="M380.521 67.6376C380.173 67.6383 379.829 67.57 379.508 67.4367C379.187 67.3034 378.895 67.1077 378.65 66.861L365.572 53.7299C365.104 53.228 364.85 52.5642 364.862 51.8784C364.874 51.1925 365.152 50.5381 365.637 50.0531C366.122 49.568 366.776 49.2902 367.462 49.278C368.148 49.2659 368.812 49.5206 369.314 49.9882L380.521 61.1779L406.995 34.792C407.494 34.3005 408.166 34.025 408.866 34.025C409.566 34.025 410.238 34.3005 410.737 34.792C410.984 35.0366 411.181 35.328 411.315 35.6491C411.449 35.9702 411.518 36.3148 411.518 36.6629C411.518 37.0109 411.449 37.3555 411.315 37.6767C411.181 37.9978 410.984 38.2891 410.737 38.5337L382.498 66.7728C382.245 67.0451 381.94 67.2624 381.599 67.4112C381.259 67.56 380.892 67.6371 380.521 67.6376Z" fill="white"/>
<path d="M491.642 139.029H246.898C235.201 139.029 225.718 148.512 225.718 160.209V481.251C225.718 492.948 235.201 502.431 246.898 502.431H491.642C503.339 502.431 512.821 492.948 512.821 481.251V160.209C512.821 148.512 503.339 139.029 491.642 139.029Z" fill="#263238"/>
<path d="M508.126 139.029H263.382C251.685 139.029 242.203 148.512 242.203 160.209V481.251C242.203 492.948 251.685 502.431 263.382 502.431H508.126C519.823 502.431 529.306 492.948 529.306 481.251V160.209C529.306 148.512 519.823 139.029 508.126 139.029Z" fill="#8300FF"/>
<path d="M292.362 502.448H268.536C267.805 502.448 267.212 503.041 267.212 503.772V507.602C267.212 508.333 267.805 508.926 268.536 508.926H292.362C293.093 508.926 293.686 508.333 293.686 507.602V503.772C293.686 503.041 293.093 502.448 292.362 502.448Z" fill="#263238"/>
<path d="M502.955 502.448H479.128C478.397 502.448 477.805 503.041 477.805 503.772V507.602C477.805 508.333 478.397 508.926 479.128 508.926H502.955C503.686 508.926 504.279 508.333 504.279 507.602V503.772C504.279 503.041 503.686 502.448 502.955 502.448Z" fill="#263238"/>
<path opacity="0.2" d="M508.126 139.029H263.382C251.685 139.029 242.203 148.512 242.203 160.209V481.251C242.203 492.948 251.685 502.431 263.382 502.431H508.126C519.823 502.431 529.306 492.948 529.306 481.251V160.209C529.306 148.512 519.823 139.029 508.126 139.029Z" fill="black"/>
<g style="mix-blend-mode:color-dodge" opacity="0.4">
<path d="M479.287 460.531H292.204C290.061 460.526 288.008 459.673 286.493 458.158C284.978 456.643 284.125 454.59 284.12 452.448V189.048C284.12 186.902 284.971 184.844 286.487 183.326C288.002 181.807 290.058 180.951 292.204 180.947H479.287C481.433 180.951 483.489 181.807 485.004 183.326C486.52 184.844 487.371 186.902 487.371 189.048V452.448C487.366 454.59 486.513 456.643 484.998 458.158C483.483 459.673 481.43 460.526 479.287 460.531V460.531ZM292.204 181.829C290.292 181.834 288.461 182.596 287.111 183.95C285.761 185.303 285.003 187.136 285.003 189.048V452.448C285.003 453.393 285.189 454.33 285.551 455.203C285.913 456.077 286.443 456.871 287.112 457.539C287.78 458.208 288.574 458.739 289.448 459.1C290.322 459.462 291.258 459.648 292.204 459.648H479.287C481.197 459.648 483.029 458.89 484.379 457.539C485.73 456.189 486.488 454.357 486.488 452.448V189.048C486.488 187.136 485.73 185.303 484.38 183.95C483.03 182.596 481.199 181.834 479.287 181.829H292.204Z" fill="#E6E6E6"/>
</g>
<path d="M483.417 452.448V189.03C483.417 186.759 481.576 184.918 479.305 184.918H292.203C289.932 184.918 288.091 186.759 288.091 189.03V452.448C288.091 454.719 289.932 456.56 292.203 456.56H479.305C481.576 456.56 483.417 454.719 483.417 452.448Z" fill="#8300FF"/>
<path opacity="0.1" d="M483.417 452.448V189.03C483.417 186.759 481.576 184.918 479.305 184.918H292.203C289.932 184.918 288.091 186.759 288.091 189.03V452.448C288.091 454.719 289.932 456.56 292.203 456.56H479.305C481.576 456.56 483.417 454.719 483.417 452.448Z" fill="white"/>
<path d="M535.465 213.951H533.7V228.847H535.465V213.951Z" fill="#8300FF"/>
<path d="M535.465 160.209H533.7V198.261H535.465V160.209Z" fill="#8300FF"/>
<path opacity="0.1" d="M385.746 386.068C418.984 386.068 445.93 359.123 445.93 325.884C445.93 292.645 418.984 265.699 385.746 265.699C352.507 265.699 325.561 292.645 325.561 325.884C325.561 359.123 352.507 386.068 385.746 386.068Z" fill="black"/>
<path d="M385.745 236.507C393.865 236.507 400.447 229.925 400.447 221.805C400.447 213.685 393.865 207.103 385.745 207.103C377.626 207.103 371.043 213.685 371.043 221.805C371.043 229.925 377.626 236.507 385.745 236.507Z" fill="#8300FF"/>
<path opacity="0.6" d="M385.657 236.472C393.777 236.472 400.359 229.89 400.359 221.77C400.359 213.65 393.777 207.068 385.657 207.068C377.537 207.068 370.955 213.65 370.955 221.77C370.955 229.89 377.537 236.472 385.657 236.472Z" fill="white"/>
<path d="M385.745 233.418C383.448 233.418 381.203 232.737 379.293 231.461C377.383 230.185 375.895 228.371 375.016 226.249C374.137 224.127 373.907 221.792 374.355 219.539C374.803 217.287 375.909 215.217 377.533 213.593C379.157 211.969 381.227 210.863 383.479 210.415C385.732 209.967 388.067 210.197 390.189 211.076C392.311 211.955 394.125 213.443 395.401 215.353C396.677 217.263 397.358 219.508 397.358 221.805C397.354 224.884 396.129 227.835 393.952 230.012C391.775 232.189 388.824 233.414 385.745 233.418V233.418ZM385.745 211.074C383.623 211.074 381.548 211.704 379.783 212.883C378.019 214.062 376.643 215.738 375.831 217.699C375.019 219.659 374.806 221.817 375.22 223.899C375.635 225.98 376.657 227.892 378.157 229.393C379.658 230.894 381.57 231.916 383.652 232.33C385.733 232.744 387.891 232.531 389.852 231.719C391.812 230.907 393.488 229.532 394.668 227.767C395.847 226.002 396.476 223.927 396.476 221.805C396.471 218.961 395.339 216.234 393.328 214.222C391.316 212.211 388.59 211.079 385.745 211.074V211.074Z" fill="#8300FF"/>
<path d="M287.844 219.511H281.296C279.854 219.511 278.684 220.68 278.684 222.123V257.951C278.684 259.394 279.854 260.563 281.296 260.563H287.844C289.287 260.563 290.456 259.394 290.456 257.951V222.123C290.456 220.68 289.287 219.511 287.844 219.511Z" fill="#8300FF"/>
<path opacity="0.6" d="M287.844 219.511H281.296C279.854 219.511 278.684 220.68 278.684 222.123V257.951C278.684 259.394 279.854 260.563 281.296 260.563H287.844C289.287 260.563 290.456 259.394 290.456 257.951V222.123C290.456 220.68 289.287 219.511 287.844 219.511Z" fill="white"/>
<path d="M287.844 380.915H281.296C279.854 380.915 278.684 382.084 278.684 383.527V419.355C278.684 420.798 279.854 421.967 281.296 421.967H287.844C289.287 421.967 290.456 420.798 290.456 419.355V383.527C290.456 382.084 289.287 380.915 287.844 380.915Z" fill="#8300FF"/>
<path opacity="0.6" d="M287.844 380.915H281.296C279.854 380.915 278.684 382.084 278.684 383.527V419.355C278.684 420.798 279.854 421.967 281.296 421.967H287.844C289.287 421.967 290.456 420.798 290.456 419.355V383.527C290.456 382.084 289.287 380.915 287.844 380.915Z" fill="white"/>
<path d="M385.746 380.932C418.984 380.932 445.93 353.987 445.93 320.748C445.93 287.509 418.984 260.563 385.746 260.563C352.507 260.563 325.561 287.509 325.561 320.748C325.561 353.987 352.507 380.932 385.746 380.932Z" fill="#8300FF"/>
<path opacity="0.6" d="M385.746 380.932C418.984 380.932 445.93 353.987 445.93 320.748C445.93 287.509 418.984 260.563 385.746 260.563C352.507 260.563 325.561 287.509 325.561 320.748C325.561 353.987 352.507 380.932 385.746 380.932Z" fill="white"/>
<path d="M355.97 288.455L353.474 290.951L415.549 353.026L418.045 350.53L355.97 288.455Z" fill="#8300FF"/>
<path d="M415.549 288.454L353.474 350.53L355.97 353.026L418.045 290.95L415.549 288.454Z" fill="#8300FF"/>
<path opacity="0.2" d="M415.345 288.253L353.27 350.329L355.766 352.825L417.841 290.749L415.345 288.253Z" fill="black"/>
<path opacity="0.2" d="M355.778 288.266L353.282 290.762L415.358 352.837L417.854 350.341L355.778 288.266Z" fill="black"/>
<path d="M385.569 366.23C376.531 366.234 367.694 363.557 360.178 358.538C352.661 353.519 346.802 346.384 343.34 338.035C339.879 329.685 338.972 320.497 340.733 311.632C342.494 302.767 346.845 294.624 353.234 288.231C359.624 281.839 367.766 277.485 376.63 275.721C385.495 273.956 394.683 274.86 403.034 278.318C411.384 281.776 418.522 287.633 423.543 295.148C428.565 302.662 431.246 311.498 431.246 320.536C431.236 332.649 426.421 344.263 417.858 352.83C409.294 361.397 397.682 366.216 385.569 366.23V366.23ZM385.569 278.371C377.229 278.368 369.075 280.838 362.139 285.469C355.203 290.1 349.796 296.684 346.601 304.388C343.407 312.092 342.57 320.571 344.195 328.751C345.82 336.931 349.834 344.446 355.73 350.344C361.626 356.243 369.139 360.26 377.319 361.889C385.498 363.517 393.977 362.683 401.683 359.492C409.388 356.302 415.975 350.897 420.609 343.963C425.242 337.029 427.716 328.876 427.716 320.536C427.706 309.359 423.263 298.643 415.362 290.738C407.46 282.833 396.746 278.385 385.569 278.371V278.371Z" fill="#8300FF"/>
<path d="M399.071 334.055C406.536 326.59 406.536 314.488 399.071 307.023C391.606 299.558 379.504 299.558 372.039 307.023C364.575 314.488 364.575 326.59 372.039 334.055C379.504 341.519 391.606 341.519 399.071 334.055Z" fill="#8300FF"/>
<path opacity="0.2" d="M385.569 366.23C376.531 366.234 367.694 363.557 360.178 358.538C352.661 353.519 346.802 346.384 343.34 338.035C339.879 329.685 338.972 320.497 340.733 311.632C342.494 302.767 346.845 294.624 353.234 288.231C359.624 281.839 367.766 277.485 376.63 275.721C385.495 273.956 394.683 274.86 403.034 278.318C411.384 281.776 418.522 287.633 423.543 295.148C428.565 302.662 431.246 311.498 431.246 320.536C431.236 332.649 426.421 344.263 417.858 352.83C409.294 361.397 397.682 366.216 385.569 366.23V366.23ZM385.569 278.371C377.229 278.368 369.075 280.838 362.139 285.469C355.203 290.1 349.796 296.684 346.601 304.388C343.407 312.092 342.57 320.571 344.195 328.751C345.82 336.931 349.834 344.446 355.73 350.344C361.626 356.243 369.139 360.26 377.319 361.889C385.498 363.517 393.977 362.683 401.683 359.492C409.388 356.302 415.975 350.897 420.609 343.963C425.242 337.029 427.716 328.876 427.716 320.536C427.706 309.359 423.263 298.643 415.362 290.738C407.46 282.833 396.746 278.385 385.569 278.371V278.371Z" fill="black"/>
<path opacity="0.2" d="M399.071 334.055C406.536 326.59 406.536 314.488 399.071 307.023C391.606 299.558 379.504 299.558 372.039 307.023C364.575 314.488 364.575 326.59 372.039 334.055C379.504 341.519 391.606 341.519 399.071 334.055Z" fill="black"/>
</svg>
