<svg width="500" height="500" viewBox="0 0 500 500" fill="none" xmlns="http://www.w3.org/2000/svg">
<g clip-path="url(#clip0_826_1881)">
<path d="M17.7598 216.623L161.605 360.57L158.19 363.983L14.3441 220.037L17.7598 216.623" fill="#56079E"/>
<path d="M205.577 163.967L210.273 165.11L162.164 362.845L157.469 361.702L205.577 163.967Z" fill="#56079E"/>
<path d="M161.512 368.072L79.4179 238.222L83.4994 235.641L156.954 351.827L159.255 214.387L164.087 214.467L161.512 368.072" fill="#56079E"/>
<path d="M88.8293 108.993C88.8293 108.993 0.888418 129.25 13.7105 228.993C13.7105 228.993 50.1461 210.82 82.4916 248.556C82.4916 248.556 82.0306 209.315 114.426 200.227C146.816 191.139 166.835 224.893 166.835 224.893C174.835 175.838 215.402 172.407 215.402 172.407C174.466 80.5488 88.8293 108.993 88.8293 108.993Z" fill="#8500FF"/>
<path d="M295.085 170.232L328.534 370.964L323.771 371.758L290.321 171.026L295.085 170.232" fill="#2D7115"/>
<path d="M478.544 236.491L481.702 240.149L327.666 373.14L324.508 369.482L478.544 236.491Z" fill="#2D7115"/>
<path d="M324.099 377.015L332.721 223.633L337.542 223.904L329.827 361.145L411.55 250.617L415.435 253.489L324.099 377.015" fill="#2D7115"/>
<path d="M415.459 123.918C415.459 123.918 332.113 89.3147 284.601 177.947C284.601 177.947 324.815 184.324 329.219 233.83C329.219 233.83 351.641 201.623 383.288 213.046C414.932 224.468 411.615 263.571 411.615 263.571C446.625 228.292 481.638 249.069 481.638 249.069C501.685 150.52 415.459 123.918 415.459 123.918Z" fill="#4C9930"/>
<g clip-path="url(#clip1_826_1881)">
<path d="M125.24 303.932L125.142 305.453L136.414 345.628L137.014 345.899L156.164 328.635L125.24 303.932Z" fill="#9E99A2"/>
<path d="M125.24 303.932L111.679 341.115L137.014 345.899L131.543 326.399L125.24 303.932Z" fill="white"/>
<path d="M138.005 349.43L137.809 349.786L141.825 364.098L142.286 364.692L157.169 332.168L138.005 349.43Z" fill="#A4A4A4"/>
<path d="M142.287 364.691L138.005 349.429L112.671 344.652L142.287 364.691Z" fill="white"/>
<path d="M137.014 345.899L156.164 328.635L131.543 326.399L137.014 345.899Z" fill="#141414"/>
<path d="M111.679 341.116L137.014 345.899L131.543 326.399L111.679 341.116Z" fill="#393939"/>
</g>
<path d="M123.655 401.852L176.17 399.472L158.789 349.859L106.273 352.24L123.655 401.852Z" fill="#455A64"/>
<path d="M138.232 350.79L155.614 400.403L145.105 400.884L127.724 351.271L138.232 350.79Z" fill="#37474F"/>
<path d="M176.17 399.472L204.276 357.879L186.894 308.267L158.789 349.859L176.17 399.472Z" fill="#263238"/>
<path d="M158.789 349.859L185.101 309.428L147.396 310.055L186.894 308.267L158.789 349.859Z" fill="#455A64"/>
<g opacity="0.8">
<path opacity="0.8" d="M169.842 313.117C169.866 313.134 169.886 313.157 169.901 313.185C169.915 313.213 169.923 313.245 169.925 313.279C169.926 313.314 169.921 313.35 169.91 313.386C169.898 313.421 169.881 313.456 169.858 313.487L166.188 318.918C166.168 318.95 166.143 318.979 166.114 319.003C166.085 319.027 166.053 319.046 166.021 319.057C165.988 319.068 165.955 319.073 165.924 319.07C165.893 319.067 165.864 319.057 165.839 319.04C165.789 319.006 165.758 318.947 165.753 318.877C165.748 318.807 165.771 318.73 165.815 318.665L169.519 313.183C169.566 313.133 169.624 313.1 169.683 313.088C169.742 313.076 169.798 313.086 169.842 313.117V313.117Z" fill="#E0E0E0"/>
<path opacity="0.8" d="M167.828 317.279L167.9 317.328C167.929 317.384 167.934 317.456 167.913 317.528C167.892 317.601 167.847 317.668 167.788 317.715L165.762 319.257L165.777 317.64C165.774 317.606 165.778 317.57 165.788 317.535C165.798 317.499 165.815 317.465 165.836 317.433C165.857 317.402 165.883 317.374 165.912 317.351C165.941 317.329 165.973 317.312 166.006 317.302C166.07 317.285 166.132 317.294 166.18 317.327C166.228 317.359 166.26 317.414 166.268 317.479L166.266 318.254L167.561 317.263C167.608 317.237 167.659 317.225 167.706 317.228C167.753 317.231 167.795 317.249 167.828 317.279V317.279Z" fill="#E0E0E0"/>
<path opacity="0.8" d="M167.234 313.221C167.259 313.238 167.279 313.261 167.294 313.289C167.309 313.317 167.318 313.349 167.32 313.384C167.322 313.419 167.318 313.455 167.307 313.492C167.297 313.528 167.28 313.563 167.258 313.596L163.589 319.027C163.544 319.092 163.482 319.141 163.415 319.163C163.348 319.185 163.282 319.178 163.231 319.144C163.181 319.109 163.15 319.051 163.145 318.98C163.141 318.91 163.163 318.834 163.207 318.769L166.877 313.338C166.921 313.273 166.983 313.224 167.05 313.202C167.117 313.18 167.183 313.187 167.234 313.221V313.221Z" fill="#E0E0E0"/>
<path opacity="0.8" d="M165.22 317.383L165.3 317.437C165.314 317.464 165.323 317.496 165.325 317.531C165.326 317.565 165.322 317.601 165.311 317.637C165.299 317.673 165.282 317.707 165.26 317.739C165.237 317.77 165.21 317.797 165.18 317.819L163.169 319.355L163.169 317.743C163.167 317.71 163.17 317.674 163.18 317.638C163.191 317.603 163.207 317.568 163.228 317.537C163.249 317.505 163.275 317.477 163.304 317.455C163.334 317.432 163.365 317.415 163.398 317.405C163.431 317.394 163.464 317.39 163.496 317.394C163.528 317.397 163.557 317.407 163.582 317.424C163.607 317.441 163.628 317.464 163.642 317.493C163.657 317.521 163.666 317.553 163.668 317.588L163.658 318.357L164.968 317.362C165.013 317.335 165.062 317.323 165.107 317.327C165.152 317.331 165.191 317.35 165.22 317.383V317.383Z" fill="#E0E0E0"/>
</g>
<g opacity="0.8">
<path opacity="0.8" d="M177.338 312.824C177.41 312.872 177.467 312.941 177.503 313.026C177.535 313.139 177.535 313.266 177.505 313.395C177.475 313.525 177.415 313.65 177.331 313.76L176.881 314.426C176.861 314.459 176.835 314.488 176.807 314.512C176.778 314.536 176.746 314.554 176.713 314.565C176.681 314.577 176.648 314.581 176.617 314.578C176.586 314.575 176.557 314.565 176.532 314.548C176.481 314.514 176.45 314.456 176.446 314.385C176.441 314.315 176.463 314.239 176.507 314.174L176.957 313.508C177.004 313.466 177.04 313.412 177.061 313.354C177.061 313.354 176.998 313.311 176.934 313.268C176.724 313.328 176.517 313.437 176.329 313.585C176.14 313.734 175.975 313.919 175.843 314.128L173.967 316.905C173.945 316.937 173.919 316.965 173.89 316.987C173.86 317.01 173.828 317.027 173.795 317.037C173.763 317.047 173.73 317.05 173.699 317.045C173.668 317.041 173.64 317.029 173.617 317.011C173.568 316.979 173.538 316.922 173.534 316.855C173.529 316.788 173.551 316.715 173.593 316.652L175.469 313.875C175.655 313.58 175.893 313.321 176.163 313.12C176.434 312.919 176.73 312.782 177.027 312.719C177.142 312.726 177.248 312.762 177.338 312.824V312.824Z" fill="#E0E0E0"/>
<path opacity="0.8" d="M177.809 316.396L177.525 316.817C176.757 317.861 175.812 318.746 174.767 319.399C173.723 320.051 172.607 320.454 171.511 320.574C171.077 320.677 170.655 320.634 170.304 320.452C169.952 320.269 169.688 319.955 169.547 319.553C169.405 319.151 169.394 318.68 169.515 318.204C169.635 317.728 169.881 317.271 170.219 316.895L170.337 316.721L177.809 316.396ZM170.408 319.754C170.755 319.958 171.166 320.046 171.603 320.009C172.542 319.907 173.497 319.584 174.404 319.061C175.311 318.538 176.149 317.828 176.859 316.979L170.502 317.265C170.281 317.562 170.12 317.899 170.034 318.245C169.948 318.591 169.94 318.935 170.01 319.246C170.094 319.459 170.231 319.633 170.408 319.754V319.754Z" fill="#E0E0E0"/>
</g>
<path d="M137.778 350.811L155.168 400.429L144.666 400.9L127.276 351.282L137.778 350.811Z" fill="#8500FF"/>
<path opacity="0.5" d="M155.168 400.429L145.068 400.306L127.276 351.282L144.666 400.9L155.168 400.429Z" fill="white"/>
<g clip-path="url(#clip2_826_1881)">
<path d="M318.416 356.993C301.812 351 293.393 332.655 299.454 315.863C305.515 299.071 323.832 290.377 340.314 296.326C356.796 302.275 365.338 320.664 359.276 337.456C353.215 354.248 334.898 362.942 318.416 356.993Z" fill="#FFDD2B"/>
<path d="M318.025 358.077C300.811 351.863 291.977 332.756 298.233 315.422C304.49 298.089 323.491 289.029 340.705 295.243C357.92 301.456 366.754 320.563 360.497 337.897C354.241 355.23 335.117 364.246 318.025 358.077ZM339.923 297.409C324.052 291.68 306.501 300.162 300.675 316.304C294.848 332.446 302.936 350.181 318.807 355.91C334.678 361.639 352.229 353.157 358.056 337.016C363.882 320.874 355.673 303.094 339.923 297.409Z" fill="#5B5A5B"/>
<path d="M299.454 315.863C305.046 300.371 321.136 291.73 336.573 295.221C335.392 294.672 334.21 294.123 332.989 293.682C316.385 287.689 298.19 296.427 292.129 313.219C286.067 330.011 294.609 348.4 311.091 354.349C312.312 354.79 313.572 355.122 314.832 355.455C300.602 348.237 293.862 331.355 299.454 315.863Z" fill="#FFDD2B"/>
<path d="M310.7 355.433C293.486 349.219 284.651 330.112 290.908 312.778C297.165 295.445 316.166 286.385 333.38 292.599C334.601 293.039 335.783 293.588 337.087 294.181L336.305 296.348C321.273 292.881 305.993 301.57 300.675 316.304C295.357 331.037 301.686 347.526 315.345 354.415L314.563 356.582C313.181 356.206 311.921 355.873 310.7 355.433ZM327.192 293.304C312.985 290.992 298.511 299.36 293.35 313.66C288.188 327.96 293.981 343.643 306.511 350.982C297.2 341.988 293.658 328.098 298.233 315.422C302.808 302.747 314.405 294.321 327.192 293.304Z" fill="#5B5A5B"/>
<path d="M302.888 346.49L295.563 343.846C294.83 343.582 294.498 342.972 294.733 342.322C294.968 341.672 295.612 341.415 296.345 341.68L303.67 344.324C304.403 344.588 304.735 345.198 304.5 345.848C304.265 346.498 303.498 346.711 302.888 346.49ZM298.983 338.958L291.658 336.314C290.925 336.05 290.593 335.44 290.828 334.79C291.063 334.14 291.707 333.883 292.44 334.148L299.765 336.792C300.498 337.056 300.83 337.666 300.595 338.316C300.36 338.966 299.593 339.179 298.983 338.958ZM297.178 330.96L289.853 328.316C289.12 328.052 288.789 327.442 289.023 326.792C289.258 326.142 289.903 325.885 290.635 326.149L297.96 328.793C298.693 329.058 299.025 329.667 298.79 330.317C298.556 330.968 297.911 331.225 297.178 330.96ZM297.18 324.838L289.855 322.194C289.122 321.93 288.79 321.32 289.025 320.67C289.26 320.02 289.904 319.763 290.637 320.027L297.962 322.672C298.695 322.936 299.027 323.546 298.792 324.196C298.558 324.846 297.913 325.103 297.18 324.838ZM298.281 319.113L291.078 316.513C290.345 316.249 290.013 315.639 290.248 314.989C290.482 314.339 291.127 314.082 291.86 314.346L299.063 316.946C299.795 317.211 300.127 317.82 299.893 318.47C299.658 319.12 298.891 319.333 298.281 319.113ZM300.358 313.74L293.033 311.096C292.3 310.832 291.968 310.222 292.203 309.572C292.437 308.922 293.082 308.665 293.815 308.93L301.14 311.574C301.873 311.838 302.205 312.448 301.97 313.098C301.735 313.748 300.968 313.961 300.358 313.74ZM303.412 308.72L296.087 306.076C295.354 305.812 295.022 305.202 295.257 304.552C295.491 303.902 296.136 303.645 296.869 303.909L304.194 306.554C304.927 306.818 305.259 307.428 305.024 308.078C304.789 308.728 304.022 308.941 303.412 308.72ZM307.443 304.053L300.117 301.409C299.385 301.144 299.053 300.535 299.288 299.885C299.522 299.235 300.167 298.977 300.899 299.242L308.225 301.886C308.957 302.15 309.289 302.76 309.055 303.41C308.82 304.06 308.175 304.317 307.443 304.053ZM314.428 299.227L307.103 296.583C306.37 296.319 306.038 295.709 306.273 295.059C306.508 294.409 307.152 294.152 307.885 294.416L315.21 297.06C315.943 297.325 316.275 297.934 316.04 298.585C315.806 299.235 315.039 299.448 314.428 299.227ZM322.854 296.146L315.651 293.546C314.918 293.282 314.586 292.672 314.821 292.022C315.056 291.372 315.7 291.115 316.433 291.379L323.636 293.979C324.369 294.244 324.701 294.853 324.466 295.503C324.231 296.154 323.464 296.366 322.854 296.146Z" fill="#5B5A5B"/>
<path d="M320.567 351.035C319.712 350.727 318.858 350.418 318.042 350.001C317.471 349.672 317.178 348.954 317.373 348.413C317.691 347.915 318.458 347.702 319.068 347.923C319.762 348.295 320.494 348.56 321.349 348.868C322.081 349.133 322.413 349.742 322.179 350.392C321.944 351.042 321.299 351.299 320.567 351.035L321.08 349.996L320.567 351.035ZM328.078 352.399C327.59 352.223 327.18 351.83 327.214 351.352C327.165 350.723 327.766 350.205 328.455 350.209C329.266 350.256 329.993 350.152 330.843 350.091C331.571 349.986 332.225 350.467 332.274 351.097C332.445 351.771 331.966 352.333 331.277 352.329C330.427 352.39 329.455 352.406 328.645 352.359C328.444 352.531 328.322 352.487 328.078 352.399ZM311.87 345.692C311.626 345.603 311.504 345.559 311.299 345.363C310.683 344.774 310.107 344.076 309.492 343.486C308.999 342.941 309.111 342.247 309.673 341.837C310.235 341.428 311.007 341.584 311.5 342.129C311.993 342.675 312.569 343.372 313.101 343.809C313.634 344.247 313.604 345.093 313.081 345.394C312.803 345.784 312.358 345.868 311.87 345.692ZM337.817 350.649C337.451 350.517 337.246 350.321 337.08 350.016C336.748 349.406 336.983 348.756 337.627 348.499C338.272 348.242 339.078 347.921 339.762 347.555C340.285 347.254 341.178 347.454 341.51 348.064C341.881 348.565 341.73 349.368 341.085 349.625C340.401 349.99 339.556 350.42 338.789 350.633C338.467 350.761 338.183 350.781 337.817 350.649ZM306.378 337.587C306.012 337.455 305.684 337.214 305.558 336.801C305.265 336.083 304.889 335.213 304.757 334.43C304.587 333.757 304.943 333.151 305.671 333.046C306.399 332.941 307.092 333.314 307.263 333.988C307.556 334.706 307.727 335.38 308.019 336.098C308.351 336.707 307.955 337.421 307.35 337.57C307.027 337.699 306.622 337.675 306.378 337.587ZM345.731 345.546C345.609 345.502 345.365 345.414 345.282 345.262C344.749 344.825 344.74 344.087 345.179 343.633C345.658 343.071 346.259 342.553 346.738 341.991C347.178 341.538 347.905 341.433 348.56 341.914C349.092 342.351 349.263 343.025 348.784 343.587C348.266 344.257 347.665 344.775 347.186 345.337C346.786 345.682 346.219 345.723 345.731 345.546ZM304.437 328.437C303.948 328.261 303.577 327.76 303.612 327.282C303.602 326.544 303.632 325.698 303.661 324.851C303.734 324.265 304.335 323.748 304.985 323.86C305.634 323.972 306.25 324.561 306.176 325.147C306.186 325.885 306.073 326.579 306.083 327.317C306.131 327.947 305.531 328.465 304.842 328.461C304.681 328.525 304.559 328.481 304.437 328.437ZM351.061 338.042C350.329 337.778 350.036 337.06 350.271 336.41C350.505 335.76 350.862 335.154 351.097 334.504C351.331 333.854 351.976 333.597 352.709 333.861C353.441 334.125 353.773 334.735 353.539 335.385C353.265 336.143 353.03 336.793 352.634 337.508C352.439 338.049 351.672 338.262 351.061 338.042ZM305.9 319.414C305.167 319.15 304.835 318.54 305.07 317.89L306.291 318.331L305.07 317.89C305.343 317.132 305.617 316.373 306.013 315.659C306.248 315.009 307.015 314.796 307.708 315.169C308.44 315.433 308.733 316.151 308.377 316.757C308.142 317.407 307.746 318.121 307.512 318.771C307.277 319.422 306.632 319.679 305.9 319.414ZM353.379 329.328C352.891 329.151 352.397 328.606 352.471 328.02C352.461 327.282 352.574 326.588 352.564 325.85C352.516 325.22 353.117 324.702 353.805 324.706C354.494 324.709 355.109 325.299 355.158 325.929C355.167 326.667 355.138 327.513 355.108 328.36C355.035 328.946 354.434 329.463 353.784 329.351C353.54 329.263 353.379 329.328 353.379 329.328ZM310.537 311.537C310.415 311.493 310.293 311.449 310.21 311.296C309.678 310.859 309.507 310.186 309.986 309.624C310.464 309.062 311.104 308.436 311.583 307.874C312.023 307.42 312.833 307.468 313.366 307.905C313.898 308.342 313.908 309.08 313.468 309.534C312.867 310.051 312.388 310.613 311.909 311.175C311.592 311.673 311.025 311.713 310.537 311.537ZM352.327 320.009C351.961 319.877 351.672 319.528 351.507 319.223C351.214 318.505 351.043 317.831 350.75 317.113C350.418 316.504 350.814 315.789 351.42 315.641C352.065 315.384 352.88 315.8 353.09 316.366C353.383 317.084 353.759 317.954 353.89 318.736C354.061 319.41 353.704 320.016 352.976 320.121C352.693 320.141 352.571 320.097 352.327 320.009ZM317.874 305.736C317.63 305.648 317.425 305.452 317.22 305.255C316.849 304.754 317.001 303.952 317.645 303.694C318.329 303.329 319.174 302.899 319.941 302.686C320.586 302.429 321.319 302.694 321.65 303.303C321.982 303.913 321.748 304.563 321.103 304.82C320.458 305.077 319.652 305.399 318.968 305.764C318.646 305.893 318.241 305.869 317.874 305.736ZM347.641 311.583C347.396 311.495 347.191 311.298 347.108 311.146C346.615 310.6 346.039 309.903 345.507 309.466C344.975 309.028 345.004 308.182 345.527 307.881C345.967 307.427 346.777 307.475 347.27 308.02C347.886 308.61 348.462 309.308 349.077 309.897C349.57 310.442 349.458 311.137 348.896 311.546C348.451 311.63 348.007 311.715 347.641 311.583ZM327.277 303.008C326.788 302.832 326.5 302.483 326.374 302.07C326.203 301.396 326.682 300.834 327.37 300.837C328.22 300.777 329.192 300.76 330.003 300.808C330.691 300.812 331.306 301.401 331.355 302.031C331.404 302.661 330.803 303.179 330.114 303.175C329.303 303.127 328.454 303.188 327.726 303.292C327.643 303.14 327.399 303.052 327.277 303.008ZM339.662 305.397L339.54 305.353C338.846 304.98 338.114 304.715 337.381 304.451C336.649 304.187 336.317 303.577 336.551 302.927C336.786 302.277 337.431 302.02 338.163 302.284L337.772 303.368L338.163 302.284C339.018 302.593 339.873 302.901 340.688 303.318C341.26 303.647 341.43 304.321 341.235 304.862C340.917 305.36 340.272 305.617 339.662 305.397Z" fill="#5B5A5B"/>
<path d="M338.532 327.642C340.916 327.155 342.518 325.775 343.339 323.5C344.043 321.55 343.897 319.66 342.901 317.831C341.906 316.003 340.187 314.647 337.867 313.81L325.414 309.315C324.682 309.051 324.037 309.308 323.802 309.958C323.568 310.608 323.9 311.218 324.632 311.482L327.44 312.496L319.541 334.379L316.733 333.366C316.001 333.101 315.356 333.358 315.121 334.008C314.887 334.658 315.219 335.268 315.951 335.532L329.869 340.556C332.433 341.481 334.743 341.581 336.677 340.809C338.611 340.038 339.97 338.569 340.713 336.511C342.204 332.763 341.355 329.763 338.532 327.642ZM338.137 325.295C336.848 325.809 335.431 325.91 333.844 325.338L326.519 322.693L329.882 313.377L336.963 315.933C338.672 316.55 339.859 317.468 340.523 318.687C341.186 319.906 341.284 321.166 340.814 322.466C340.345 323.766 339.427 324.781 338.137 325.295ZM325.859 324.904L334.527 328.033C336.359 328.694 337.667 329.656 338.292 330.984C338.956 332.203 339.097 333.723 338.511 335.349C337.924 336.973 336.966 338.097 335.555 338.567C334.265 339.082 332.605 339.094 330.773 338.433L322.105 335.305L325.859 324.904C325.737 324.86 325.859 324.904 325.859 324.904Z" fill="#5B5A5B"/>
<path d="M328.435 333.059L317.448 329.093C316.837 328.872 316.422 328.11 316.618 327.569C316.852 326.919 317.619 326.706 318.23 326.926L329.217 330.892C329.828 331.112 330.282 331.766 330.047 332.416C329.852 332.958 329.046 333.279 328.435 333.059Z" fill="#5B5A5B"/>
</g>
<path d="M278.116 384.609L326.265 405.71L332.628 353.527L284.48 332.426L278.116 384.609Z" fill="#455A64"/>
<path d="M313.782 345.267L307.418 397.45L297.781 393.231L304.145 341.049L313.782 345.267Z" fill="#37474F"/>
<path d="M326.265 405.71L369.873 380.846L376.236 328.663L332.629 353.527L326.265 405.71Z" fill="#263238"/>
<path d="M304.145 341.048L312.664 336.191L312.913 337.077L314.608 337.027L314.851 337.928L316.525 337.868L316.768 338.768L318.458 338.711L318.7 339.611L320.39 339.554L320.638 340.462L322.312 340.403L313.782 345.267L304.145 341.048Z" fill="#263238"/>
<path d="M332.629 353.527L374.115 328.912L340.023 312.79L376.237 328.663L332.629 353.527Z" fill="#455A64"/>
<g opacity="0.8">
<path opacity="0.8" d="M358.798 325.468C358.812 325.494 358.82 325.524 358.821 325.555C358.821 325.586 358.814 325.619 358.8 325.65C358.787 325.682 358.766 325.712 358.74 325.739C358.714 325.766 358.683 325.789 358.649 325.807L352.955 329.054C352.922 329.074 352.887 329.089 352.85 329.097C352.814 329.106 352.777 329.108 352.743 329.104C352.709 329.1 352.677 329.089 352.651 329.073C352.624 329.057 352.603 329.035 352.588 329.009C352.558 328.956 352.556 328.889 352.583 328.824C352.61 328.759 352.663 328.701 352.732 328.662L358.479 325.385C358.544 325.361 358.61 325.356 358.669 325.371C358.727 325.387 358.772 325.421 358.798 325.468V325.468Z" fill="#E0E0E0"/>
<path opacity="0.8" d="M355.15 328.31L355.193 328.385C355.194 328.448 355.167 328.515 355.116 328.571C355.065 328.626 354.996 328.667 354.922 328.683L352.423 329.169L353.152 327.726C353.164 327.694 353.183 327.664 353.208 327.636C353.233 327.609 353.263 327.585 353.296 327.566C353.329 327.548 353.364 327.534 353.401 327.527C353.437 327.519 353.473 327.518 353.506 327.524C353.571 327.537 353.622 327.572 353.651 327.623C353.68 327.674 353.684 327.736 353.663 327.799L353.318 328.493L354.918 328.177C354.972 328.175 355.022 328.186 355.064 328.209C355.105 328.233 355.135 328.268 355.15 328.31V328.31Z" fill="#E0E0E0"/>
<path opacity="0.8" d="M356.413 324.407C356.428 324.433 356.436 324.463 356.437 324.495C356.438 324.526 356.431 324.559 356.418 324.592C356.405 324.624 356.385 324.655 356.359 324.683C356.334 324.711 356.303 324.735 356.269 324.754L350.575 328.001C350.507 328.04 350.429 328.056 350.359 328.046C350.29 328.036 350.234 328.001 350.203 327.948C350.173 327.895 350.171 327.828 350.198 327.763C350.225 327.698 350.279 327.639 350.347 327.601L356.041 324.354C356.109 324.315 356.187 324.299 356.257 324.309C356.327 324.319 356.383 324.354 356.413 324.407V324.407Z" fill="#E0E0E0"/>
<path opacity="0.8" d="M352.766 327.249L352.813 327.332C352.814 327.363 352.808 327.396 352.794 327.428C352.78 327.459 352.76 327.49 352.734 327.517C352.709 327.544 352.678 327.567 352.644 327.585C352.61 327.603 352.574 327.616 352.537 327.622L350.054 328.11L350.767 326.665C350.78 326.633 350.799 326.603 350.823 326.575C350.848 326.548 350.878 326.524 350.911 326.505C350.944 326.486 350.98 326.473 351.016 326.466C351.052 326.458 351.088 326.457 351.122 326.462C351.156 326.467 351.188 326.479 351.215 326.495C351.242 326.512 351.263 326.535 351.278 326.561C351.293 326.587 351.301 326.617 351.302 326.649C351.303 326.681 351.297 326.714 351.283 326.746L350.934 327.431L352.549 327.118C352.601 327.115 352.65 327.125 352.689 327.148C352.727 327.172 352.754 327.207 352.766 327.249V327.249Z" fill="#E0E0E0"/>
</g>
<g opacity="0.8">
<path opacity="0.8" d="M365.65 328.522C365.693 328.597 365.713 328.684 365.709 328.776C365.687 328.891 365.631 329.006 365.546 329.108C365.462 329.21 365.353 329.297 365.229 329.358L364.531 329.756C364.498 329.777 364.463 329.791 364.426 329.8C364.39 329.809 364.353 329.811 364.319 329.807C364.285 329.803 364.253 329.792 364.227 329.776C364.2 329.759 364.179 329.738 364.164 329.712C364.134 329.659 364.132 329.592 364.159 329.527C364.186 329.462 364.239 329.403 364.308 329.365L365.006 328.966C365.066 328.95 365.122 328.918 365.167 328.874C365.167 328.874 365.129 328.808 365.091 328.741C364.875 328.702 364.642 328.708 364.408 328.758C364.173 328.807 363.943 328.9 363.732 329.03L360.821 330.69C360.787 330.709 360.751 330.722 360.715 330.73C360.678 330.737 360.642 330.738 360.608 330.732C360.575 330.727 360.544 330.715 360.519 330.697C360.493 330.68 360.473 330.657 360.46 330.63C360.431 330.58 360.429 330.516 360.455 330.453C360.48 330.391 360.532 330.335 360.597 330.298L363.509 328.638C363.806 328.455 364.133 328.328 364.465 328.268C364.797 328.207 365.123 328.215 365.417 328.29C365.517 328.347 365.597 328.427 365.65 328.522V328.522Z" fill="#E0E0E0"/>
<path opacity="0.8" d="M364.492 331.934L364.051 332.185C362.9 332.782 361.662 333.157 360.436 333.281C359.21 333.404 358.031 333.271 356.995 332.893C356.56 332.794 356.201 332.569 355.967 332.25C355.732 331.931 355.634 331.532 355.685 331.109C355.737 330.686 355.935 330.258 356.254 329.885C356.572 329.512 356.995 329.211 357.465 329.023L357.647 328.919L364.492 331.934ZM356.369 331.67C356.589 332.007 356.919 332.268 357.327 332.427C358.214 332.752 359.214 332.885 360.259 332.817C361.304 332.75 362.369 332.483 363.382 332.036L357.555 329.48C357.225 329.649 356.932 329.879 356.702 330.152C356.471 330.424 356.311 330.729 356.236 331.038C356.218 331.267 356.264 331.484 356.369 331.67V331.67Z" fill="#E0E0E0"/>
</g>
<path d="M313.365 345.085L307.007 397.276L297.38 393.052L303.739 340.861L313.365 345.085Z" fill="#4C9930"/>
<path opacity="0.5" d="M307.007 397.276L298.003 392.697L303.739 340.861L297.38 393.052L307.007 397.276Z" fill="white"/>
</g>
<defs>
<clipPath id="clip0_826_1881">
<rect width="500" height="500" fill="white"/>
</clipPath>
<clipPath id="clip1_826_1881">
<rect width="75.282" height="63.12" fill="white" transform="translate(89.0049 314.098) rotate(-15.672)"/>
</clipPath>
<clipPath id="clip2_826_1881">
<rect width="75.2821" height="66.802" fill="white" transform="translate(300.615 280.772) rotate(19.8472)"/>
</clipPath>
</defs>
</svg>
