<svg width="272" height="48" viewBox="0 0 272 48" fill="none" xmlns="http://www.w3.org/2000/svg">
<path d="M177.152 40.1205L184.934 37.9678C184.993 38.0521 185.044 38.1412 185.087 38.2343C186.088 41.2538 189.485 42.1581 191.936 41.2215C193.81 40.5061 194.646 38.929 194.911 37.0752C195.11 35.7051 195.074 34.3015 194.989 32.8719C194.822 33.0815 194.658 33.2937 194.487 33.502C192.417 36.0363 189.731 36.9872 186.514 36.6741C180.362 36.0751 177.349 32.0504 176.481 26.9455C175.901 23.5457 176.076 20.1963 177.526 17.0047C180.25 11.0084 186.092 9.79748 190.102 10.7147C192.228 11.2025 193.793 12.4975 195.09 14.4445V12.6217L203.499 10.293V10.9825C203.499 18.8724 203.499 26.7639 203.499 34.6572C203.499 37.8915 202.651 40.8398 200.374 43.2422C198.452 45.2708 196.025 46.3833 193.312 46.8724C189.797 47.5076 186.308 47.3976 182.926 46.1634C180.071 45.109 178.111 43.14 177.152 40.1205ZM184.929 23.4331C184.913 24.8031 185.07 26.1499 185.69 27.3905C186.505 29.0271 187.807 29.9534 189.668 30.0297C191.623 30.1086 193.321 29.5122 194.254 27.7321C195.749 24.8743 195.702 21.9104 194.008 19.173C192.122 16.125 187.329 16.4562 185.806 19.6904C185.27 20.8379 184.929 22.1873 184.929 23.4331Z" fill="#DDDDDD"/>
<path d="M21.208 37.8488H12.5156V12.6217L20.9247 10.293V14.9503C21.3024 14.4678 21.5379 14.1198 21.8186 13.8157C24.3077 11.1287 27.4307 10.1817 31.0039 10.5284C31.7114 10.5948 32.4115 10.7247 33.0958 10.9166C36.6522 11.9269 38.3003 14.5156 38.8049 17.9866C38.9405 18.9683 39.0071 19.9582 39.0041 20.9492C39.0222 26.3388 39.0132 31.727 39.0132 37.1204V37.8449H30.2781V37.0687C30.2781 32.6274 30.3053 28.1874 30.26 23.7436C30.2579 22.5398 30.1216 21.3401 29.8538 20.1665C29.4851 18.6244 28.3466 17.8171 26.7489 17.6955C23.4461 17.4368 21.2636 19.4356 21.2261 22.8703C21.173 27.5911 21.2067 32.3143 21.2028 37.0325L21.208 37.8488Z" fill="#DDDDDD"/>
<path d="M147.777 12.6217L156.205 10.293V14.7653C157.536 12.938 159.431 11.5985 161.597 10.9528C164.185 10.1494 166.754 10.2723 169.261 11.2348C172.129 12.3345 173.48 14.6489 173.993 17.5312C174.167 18.5067 174.257 19.4953 174.261 20.4861C174.286 26.0697 174.274 31.6533 174.273 37.2356C174.273 37.4245 174.253 37.6134 174.242 37.8372H165.551C165.551 37.5383 165.551 37.2666 165.551 36.995C165.529 32.0375 165.526 27.08 165.463 22.1174C165.452 21.3412 165.244 20.5365 164.994 19.7888C164.633 18.715 163.83 18.0733 162.716 17.7952C159.596 17.0189 156.895 18.9142 156.553 22.1653C156.491 22.767 156.46 23.3715 156.461 23.9765C156.453 28.3311 156.453 32.6865 156.461 37.0428V37.8359H147.777V12.6217Z" fill="#DDDDDD"/>
<path d="M92.1742 24.2908L73.7079 29.41C74.0196 30.3009 74.6091 31.0682 75.3897 31.5989C77.1892 32.8603 79.219 32.9457 81.2851 32.6481C84.3654 32.2044 86.9554 30.8201 88.9774 28.4242C89.0615 28.3361 89.15 28.2523 89.2426 28.1732C90.0189 30.2936 90.7886 32.3674 91.5635 34.4735C90.145 35.649 88.5309 36.566 86.795 37.1825C82.4093 38.7984 77.9525 39.2214 73.4362 37.7776C68.1618 36.0958 64.8021 31.6533 64.4346 26.1033C64.2018 22.5935 64.7878 19.3075 66.8616 16.4083C69.5318 12.6773 73.2525 10.7988 77.7766 10.4819C80.2592 10.3072 82.6926 10.6358 84.967 11.6941C89.2219 13.6708 91.3436 17.1755 91.9892 21.6918C92.0978 22.5392 92.1095 23.402 92.1742 24.2908ZM83.7017 20.772C83.4986 17.8974 80.351 15.7847 77.4208 16.4898C74.6096 17.1651 72.5267 20.5676 73.0429 23.7216L83.7017 20.772Z" fill="#DDDDDD"/>
<path d="M117.591 17.2518L110.011 19.3489C109.956 19.217 109.908 19.0823 109.866 18.9452C109.524 17.4678 108.586 16.5933 107.125 16.2686C105.844 15.9826 104.564 15.9206 103.305 16.3876C102.601 16.6463 102.053 17.0694 101.949 17.8779C101.846 18.6865 102.322 19.2221 102.948 19.6205C104.306 20.4834 105.869 20.7422 107.406 21.0617C109.134 21.4227 110.887 21.6814 112.588 22.1355C115.648 22.9531 117.789 24.8613 118.301 28.0503C118.827 31.3169 117.715 34.0893 114.975 36.0816C112.891 37.5965 110.48 38.2278 107.97 38.4904C104.786 38.8242 101.631 38.6457 98.6072 37.5033C95.6058 36.3701 93.4673 34.4062 92.7105 31.1707C92.6801 31.0453 92.6568 30.9183 92.6406 30.7903C92.6434 30.7128 92.6556 30.6359 92.6769 30.5614L99.9824 28.5393C100.047 28.6363 100.102 28.6829 100.112 28.7385C100.702 31.9379 103.131 33.4502 106.487 32.9185C107.208 32.7988 107.899 32.5386 108.52 32.1526C110.202 31.1047 110.126 29.0038 108.326 28.2004C107.085 27.6454 105.707 27.384 104.379 27.036C102.3 26.4914 100.174 26.0942 98.1337 25.4331C95.6278 24.6207 93.8567 22.9984 93.3276 20.2674C92.6678 16.8572 94.0068 13.9399 97.0483 12.2581C99.0082 11.174 101.148 10.7056 103.354 10.5336C106.548 10.2813 109.693 10.5336 112.684 11.76C114.741 12.6074 116.436 13.8752 117.266 16.0447C117.336 16.2259 117.396 16.4083 117.453 16.5959C117.51 16.7834 117.533 16.9723 117.591 17.2518Z" fill="#DDDDDD"/>
<path d="M57.4385 37.8493H47.3632L38.5039 11.2702H47.5935L52.4306 28.7222L52.56 28.7507C54.1918 22.9316 55.8253 17.1026 57.4605 11.2637H66.3508C63.3753 20.142 60.4046 29.0038 57.4385 37.8493Z" fill="#DDDDDD"/>
<path d="M119.837 6.29035L128.545 3.87891V11.2051H134.844L133.278 16.8573H128.592C128.58 17.138 128.561 17.3657 128.561 17.5934C128.561 21.302 128.561 25.0106 128.561 28.7192C128.561 30.7374 129.281 31.4761 131.318 31.5305C131.899 31.5369 132.481 31.5084 133.059 31.4451C133.613 31.3933 134.162 31.2989 134.825 31.207C134.224 33.427 133.633 35.6056 133.002 37.9446C131.29 37.9964 129.578 38.0895 127.863 38.083C126.959 38.0694 126.057 37.9707 125.171 37.7881C122.035 37.1736 120.496 35.5409 120.069 32.3765C119.915 31.3103 119.833 30.235 119.822 29.1578C119.801 21.7436 119.81 14.3281 119.811 6.90616C119.811 6.71986 119.827 6.52969 119.837 6.29035Z" fill="#DDDDDD"/>
<path d="M0 37.8285V4.43288L9.46212 1.81055V37.8285H0Z" fill="#DDDDDD"/>
<path d="M144.732 37.8333H136.105V12.6941L144.732 10.293V37.8333Z" fill="#DDDDDD"/>
<path d="M250.416 37.8342H248.324V20.6423L250.22 20.1248V23.2193C251.497 21.2374 253.175 19.976 255.585 19.8984C257.995 19.8208 259.798 20.7807 260.727 23.1663C260.788 23.1055 260.844 23.0393 260.893 22.9683C262.466 20.0355 265.679 19.3162 268.479 20.2425C270.734 20.9903 271.599 22.8364 271.662 25.0201C271.765 28.5959 271.711 32.1756 271.722 35.7578C271.722 36.4409 271.722 37.124 271.722 37.8446H269.614V37.1188C269.614 33.4758 269.636 29.8327 269.597 26.1896C269.582 25.3743 269.456 24.5648 269.223 23.7834C268.916 22.7342 268.121 22.1197 267.062 21.8532C263.989 21.0769 261.681 22.7432 261.219 26.0939C261.127 26.7987 261.081 27.5087 261.082 28.2195C261.067 31.4084 261.082 34.5961 261.082 37.8342H259.003C258.99 37.5923 258.963 37.3452 258.963 37.0981C258.963 33.4978 258.963 29.8987 258.956 26.2983C258.963 25.7812 258.93 25.2644 258.858 24.7523C258.49 22.4237 256.749 21.2826 254.373 21.7768C252.374 22.1986 251.023 23.7316 250.621 26.1314C250.493 26.9397 250.431 27.757 250.434 28.5752C250.413 31.3994 250.425 34.2222 250.425 37.0464L250.416 37.8342Z" fill="#DDDDDD"/>
<path d="M229.516 28.6232C229.55 26.8806 230.01 24.7809 231.327 22.9426C234.356 18.7173 240.85 18.8286 243.747 23.147C245.954 26.442 245.978 31.6686 243.802 34.9908C240.844 39.5045 234.177 39.5356 231.175 35.049C230.097 33.4422 229.515 31.3516 229.516 28.6232ZM243.276 29.1407C243.276 27.3605 242.907 25.6736 241.925 24.1638C239.748 20.817 235.216 20.8002 233.014 24.1366C231.193 26.8896 231.195 31.3348 233.014 34.0813C235.247 37.4449 239.776 37.4035 241.948 33.9959C242.899 32.5224 243.262 30.8807 243.276 29.1458V29.1407Z" fill="#DDDDDD"/>
<path d="M227.249 25.3106L225.277 25.8682C225.207 25.6328 225.148 25.4116 225.077 25.1942C224.502 23.4762 223.505 22.1437 221.629 21.7853C219.688 21.4166 217.978 21.9302 216.675 23.4671C215.089 25.3352 214.661 27.5682 214.821 29.9434C214.898 31.3709 215.334 32.756 216.088 33.9707C217.29 35.8789 219.272 36.8388 221.287 36.4986C223.181 36.179 224.735 34.58 225.238 32.4312C225.297 32.1815 225.348 31.9305 225.417 31.6097L227.325 32.1271C227.174 34.4726 225.317 37.8388 221.722 38.2877C217.157 38.8583 213.53 35.9591 212.827 31.1724C212.455 28.6613 212.665 26.2227 213.862 23.9419C215.661 20.5188 219.591 19.0026 223.246 20.2963C225.421 21.0595 226.936 22.9458 227.249 25.3106Z" fill="#DDDDDD"/>
<path d="M207.52 37.8229V34.3066H210.236V37.8229H207.52Z" fill="#DDDDDD"/>
<path d="M135.84 2.5874L145.154 0V7.7622L135.84 10.3496V2.5874Z" fill="#DDDDDD"/>
</svg>
