<?xml version="1.0" encoding="iso-8859-1"?>
<!-- Generator: Adobe Illustrator 19.0.0, SVG Export Plug-In . SVG Version: 6.00 Build 0)  -->
<svg version="1.1" id="Layer_1" xmlns="http://www.w3.org/2000/svg" xmlns:xlink="http://www.w3.org/1999/xlink" x="0px" y="0px"
	 viewBox="0 0 512 512" style="enable-background:new 0 0 512 512;" xml:space="preserve">
<path style="fill:#CCCCCC;" d="M178.842,132.986c0-43.028,35.007-78.034,78.035-78.034s78.035,35.006,78.035,78.034v69.395
	c15.866,2.447,31.486,5.067,44.753,7.374v-76.769c-0.002-67.705-55.084-122.787-122.789-122.787S134.089,65.281,134.089,132.986
	v76.461c13.378-2.319,28.982-4.925,44.753-7.343V132.986z"/>
<path style="fill:#FF931E;" d="M379.663,209.756c-13.267-2.307-28.887-4.927-44.753-7.374c-30.381-4.686-61.654-8.736-78.987-8.734
	c-16.968,0.001-47.31,3.891-77.083,8.456c-15.771,2.418-31.374,5.024-44.753,7.343c-22.511,3.903-38.71,6.993-38.71,6.993
	s0,111.227,0,114.874c0,78.548,160.546,170.487,160.546,170.487S416.62,409.862,416.62,331.314c0-2.127,0-114.874,0-114.874
	S401.262,213.512,379.663,209.756z"/>
<path d="M418.53,206.422c-1.453-0.276-12.605-2.395-28.668-5.241v-68.194C389.864,59.657,330.205,0,256.876,0
	S123.89,59.657,123.89,132.986v67.88c-16.997,3.003-28.917,5.268-30.422,5.556c-4.809,0.917-8.288,5.122-8.288,10.019v114.874
	c0,35.785,28.267,77.033,84.017,122.596c40.327,32.959,79.99,55.786,81.659,56.741c1.57,0.9,3.319,1.348,5.068,1.348
	c1.748,0,3.496-0.449,5.065-1.346c1.671-0.956,41.371-23.783,81.734-56.74c55.803-45.564,84.098-86.813,84.098-122.6V216.44
	C426.82,211.544,423.34,207.339,418.53,206.422z M324.712,190.521c-26.877-3.947-53.108-7.072-68.779-7.072c-0.002,0-0.007,0-0.01,0
	c-15.298,0.001-40.674,2.987-66.882,6.806v-57.269c0-37.405,30.43-67.836,67.836-67.836s67.836,30.43,67.836,67.836V190.521z
	 M144.288,132.986c0-62.081,50.507-112.588,112.588-112.588s112.588,50.507,112.588,112.588v64.657
	c-7.722-1.309-15.943-2.666-24.354-4.001v-60.656c0-48.652-39.582-88.234-88.234-88.234s-88.234,39.582-88.234,88.234v60.37
	c-8.385,1.324-16.604,2.675-24.354,3.984L144.288,132.986L144.288,132.986z M406.422,331.314c0,28.91-26.418,65.783-76.399,106.635
	c-30.875,25.236-62.144,44.793-74.097,51.998c-11.911-7.183-43-26.642-73.819-51.831c-50.065-40.918-76.528-77.85-76.528-106.802
	V224.912c27.658-5.102,116.858-21.061,150.347-21.064c0.004,0,0.004,0,0.009,0c33.526,0,122.812,15.964,150.487,21.065v106.401
	H406.422z"/>
<path style="fill:#BDCCD4;" d="M283.672,307.015c0-14.799-11.997-26.796-26.796-26.796c-14.799,0-26.796,11.997-26.796,26.796
	c0,9.285,4.724,17.466,11.899,22.274l-7.777,44.715h45.347l-7.193-45.124C279.201,324.027,283.672,316.046,283.672,307.015z"/>
<path d="M279.55,384.204h-45.347c-3.011,0-5.868-1.33-7.805-3.634c-1.938-2.304-2.759-5.346-2.243-8.312l6.762-38.883
	c-7.003-6.89-11.036-16.34-11.036-26.359c0-20.399,16.596-36.996,36.995-36.996s36.995,16.596,36.995,36.996
	c0,9.725-3.857,19.001-10.551,25.857l6.302,39.527c0.469,2.949-0.375,5.954-2.313,8.226
	C285.371,382.895,282.535,384.204,279.55,384.204z M246.329,363.806h21.267l-5.312-33.319c-0.611-3.832,1.006-7.679,4.171-9.924
	c4.395-3.117,7.018-8.181,7.018-13.547c0-9.152-7.445-16.597-16.596-16.597c-9.151,0-16.596,7.445-16.596,16.597
	c0,5.546,2.758,10.705,7.377,13.802c3.348,2.244,5.061,6.249,4.37,10.221L246.329,363.806z"/>
<path d="M130.55,268.239c-5.633,0-10.199-4.566-10.199-10.199v-13.259c0-5.633,4.566-10.199,10.199-10.199
	s10.199,4.566,10.199,10.199v13.259C140.749,263.673,136.183,268.239,130.55,268.239z"/>
<path d="M130.55,340.781c-5.633,0-10.199-4.566-10.199-10.199v-34.805c0-5.633,4.566-10.199,10.199-10.199
	s10.199,4.566,10.199,10.199v34.805C140.749,336.215,136.183,340.781,130.55,340.781z"/>
<g>
</g>
<g>
</g>
<g>
</g>
<g>
</g>
<g>
</g>
<g>
</g>
<g>
</g>
<g>
</g>
<g>
</g>
<g>
</g>
<g>
</g>
<g>
</g>
<g>
</g>
<g>
</g>
<g>
</g>
</svg>
