<?xml version="1.0" encoding="iso-8859-1"?>
<!-- Generator: Adobe Illustrator 19.0.0, SVG Export Plug-In . SVG Version: 6.00 Build 0)  -->
<svg version="1.1" id="Layer_1" xmlns="http://www.w3.org/2000/svg" xmlns:xlink="http://www.w3.org/1999/xlink" x="0px" y="0px"
	 viewBox="0 0 512.335 512.335" style="enable-background:new 0 0 512.335 512.335;" xml:space="preserve">
<circle style="fill:#FFE3A8;" cx="331.081" cy="141.241" r="114.759"/>
<path style="fill:#FFD782;" d="M331.081,282.483c-77.879,0-141.241-63.362-141.241-141.241S253.202,0,331.081,0
	s141.241,63.362,141.241,141.241S408.96,282.483,331.081,282.483z M331.081,35.31c-58.41,0-105.931,47.521-105.931,105.931
	c0,58.414,47.521,105.931,105.931,105.931s105.931-47.518,105.931-105.931C437.012,82.831,389.491,35.31,331.081,35.31z"/>
<path style="fill:#F0C087;" d="M482.15,322.457c-11.624-2.972-23.625-0.431-32.983,7.872l-69.651,56.691
	c-2.452,1.996-5.395,3.296-8.522,3.766l-103.946,11.196l-1.998,0.012c-7.36,0-12.167-7.722-8.917-14.326
	c1.141-2.318,3.139-4.102,5.572-4.971l57.605-22.973c14.621-5.517,23.495-17.793,19.495-29.793
	c-4.839-14.516-16.919-15.448-31.633-11.77l-61.001,17.585l-92.621,6.176c-29.868,1.992-57.997,14.756-79.164,35.923l-43.809,43.809
	c-9.97,9.971-11.591,26.284-2.396,36.972c3.892,4.525,29.833,29.076,48.381,46.841c9.105,8.719,23.285,9.187,32.97,1.117
	l21.123-17.603c9.519-7.933,21.518-12.278,33.91-12.279l111.539-0.011c12.999-0.001,25.886-2.394,38.017-7.061l85.323-32.817
	c7.267-2.795,13.698-7.402,18.684-13.384l69.561-83.474C492.77,333.862,489.835,324.423,482.15,322.457z"/>
<path style="fill:#FFC36E;" d="M331.081,264.828c-68.147,0-123.586-55.439-123.586-123.586S262.934,17.655,331.081,17.655
	s123.586,55.439,123.586,123.586S399.228,264.828,331.081,264.828z M331.081,35.31c-58.41,0-105.931,47.518-105.931,105.931
	s47.521,105.931,105.931,105.931s105.931-47.518,105.931-105.931S389.491,35.31,331.081,35.31z"/>
<path style="fill:#E1B464;" d="M381.75,170.211c0-19.847-11.708-32.011-35.122-37.133l-8.242-1.618V97.347
	c6.291,1.318,11.256,5.046,13.734,10.016c2.097,4.205,6.372,6.873,11.072,6.873c9.575,0,15.785-10.553,10.688-18.658
	c-6.654-10.58-19.126-17.673-35.494-19.491v-5.892c0-4.64-3.762-8.402-8.402-8.402c-4.64,0-8.402,3.762-8.402,8.402v5.89
	c-25.976,2.828-41.172,17.045-41.172,38.793c0,19.023,11.798,31.737,33.841,36.859l7.331,1.729v35.85
	c-7.424-1.38-13.071-5.185-15.859-10.53c-2.166-4.153-6.372-6.836-11.058-6.836h-1.236c-9.58,0-15.72,10.521-10.685,18.673
	c6.858,11.104,20.392,18.101,38.837,19.649v3.961c0,4.64,3.762,8.402,8.402,8.402c4.64,0,8.402-3.762,8.402-8.402v-4.047
	C366.122,207.328,381.75,193.014,381.75,170.211z M306.844,112.591c0-7.982,6.029-14.023,14.74-15.379v30.713
	C311.957,125.302,306.844,120.049,306.844,112.591z M338.388,189.642v-32.995c11.91,2.68,17.479,7.985,17.479,16.492
	C355.867,182.406,349.42,188.483,338.388,189.642z"/>
<g>
	<path style="fill:#FFFFFF;" d="M413.165,53.773c-13.173-3.004-23.543-13.373-26.546-26.546c-0.226-0.992-1.539-0.992-1.766,0
		c-3.004,13.173-13.373,23.543-26.546,26.546c-0.992,0.226-0.992,1.539,0,1.766c13.173,3.004,23.543,13.373,26.546,26.546
		c0.226,0.992,1.539,0.992,1.766,0c3.004-13.173,13.373-23.543,26.546-26.546C414.157,55.313,414.157,53.999,413.165,53.773z"/>
	<path style="fill:#FFFFFF;" d="M371.427,93.391c-9.274-2.402-16.577-9.705-18.979-18.979c-0.242-0.931-1.447-0.931-1.688,0
		c-2.402,9.274-9.705,16.577-18.979,18.979c-0.931,0.242-0.931,1.447,0,1.688c9.274,2.402,16.577,9.704,18.979,18.979
		c0.242,0.931,1.447,0.931,1.688,0c2.402-9.276,9.705-16.577,18.979-18.979C372.359,94.839,372.359,93.633,371.427,93.391z"/>
</g>
<g>
</g>
<g>
</g>
<g>
</g>
<g>
</g>
<g>
</g>
<g>
</g>
<g>
</g>
<g>
</g>
<g>
</g>
<g>
</g>
<g>
</g>
<g>
</g>
<g>
</g>
<g>
</g>
<g>
</g>
</svg>
